<?xml version="1.0" encoding="UTF-8" standalone="no"?>
<!DOCTYPE svg PUBLIC "-//W3C//DTD SVG 1.1//EN"
 "http://www.w3.org/Graphics/SVG/1.1/DTD/svg11.dtd">
<!-- Generated by graphviz version 2.38.0 (20140413.2041)
 -->
<!-- Title: project.pc.device.KeyboardController.doSpecialKeyOperation Pages: 1 -->
<svg width="306pt" height="125pt"
 viewBox="0.00 0.00 306.00 125.00" xmlns="http://www.w3.org/2000/svg" xmlns:xlink="http://www.w3.org/1999/xlink">
<g id="graph0" class="graph" transform="scale(1 1) rotate(0) translate(4 121)">
<title>project.pc.device.KeyboardController.doSpecialKeyOperation</title>
<polygon fill="white" stroke="none" points="-4,4 -4,-121 302,-121 302,4 -4,4"/>
<!-- Node5 -->
<g id="node1" class="node"><title>Node5</title>
<polygon fill="#bfbfbf" stroke="black" points="0,-45.5 0,-71.5 137,-71.5 137,-45.5 0,-45.5"/>
<text text-anchor="start" x="8" y="-61.1" font-family="Helvetica,sans-Serif" font-size="8.00">project.pc.device.Keyboard</text>
<text text-anchor="middle" x="68.5" y="-52.1" font-family="Helvetica,sans-Serif" font-size="8.00">Controller.doSpecialKeyOperation</text>
</g>
<!-- Node6 -->
<g id="node2" class="node"><title>Node6</title>
<g id="a_node2"><a xlink:href="../../d4/d7d/a00093.html#a2ebdf487b91420f50009ac775f2f85ea" target="_top" xlink:title="Checks if Shift key needs to be pressed for typing a character. ">
<polygon fill="white" stroke="black" points="176,-90.5 176,-116.5 295,-116.5 295,-90.5 176,-90.5"/>
<text text-anchor="start" x="184" y="-106.1" font-family="Helvetica,sans-Serif" font-size="8.00">project.pc.device.KeyCode.is</text>
<text text-anchor="middle" x="235.5" y="-97.1" font-family="Helvetica,sans-Serif" font-size="8.00">ShiftKey</text>
</a>
</g>
</g>
<!-- Node5&#45;&gt;Node6 -->
<g id="edge1" class="edge"><title>Node5&#45;&gt;Node6</title>
<path fill="none" stroke="midnightblue" d="M117.225,-71.5159C135.87,-76.601 157.416,-82.4772 176.914,-87.7947"/>
<polygon fill="midnightblue" stroke="midnightblue" points="176.028,-91.1809 186.597,-90.4355 177.87,-84.4276 176.028,-91.1809"/>
</g>
<!-- Node7 -->
<g id="node3" class="node"><title>Node7</title>
<g id="a_node3"><a xlink:href="../../d4/d7d/a00093.html#af2f91211ca763bed7e49fec52ad2c784" target="_top" xlink:title="Checks the Shift Key Map and obtains the shift key code for a character. ">
<polygon fill="white" stroke="black" points="173,-45.5 173,-71.5 298,-71.5 298,-45.5 173,-45.5"/>
<text text-anchor="start" x="181" y="-61.1" font-family="Helvetica,sans-Serif" font-size="8.00">project.pc.device.KeyCode.get</text>
<text text-anchor="middle" x="235.5" y="-52.1" font-family="Helvetica,sans-Serif" font-size="8.00">ShiftCode</text>
</a>
</g>
</g>
<!-- Node5&#45;&gt;Node7 -->
<g id="edge2" class="edge"><title>Node5&#45;&gt;Node7</title>
<path fill="none" stroke="midnightblue" d="M137.088,-58.5C145.503,-58.5 154.132,-58.5 162.61,-58.5"/>
<polygon fill="midnightblue" stroke="midnightblue" points="162.85,-62.0001 172.85,-58.5 162.85,-55.0001 162.85,-62.0001"/>
</g>
<!-- Node8 -->
<g id="node4" class="node"><title>Node8</title>
<g id="a_node4"><a xlink:href="../../d4/d7d/a00093.html#a13e2b73c6da0cea92a43ee3bccd3ccb9" target="_top" xlink:title="Checks the Key Map and obtains the key code for a character (if Shift key press is not required)...">
<polygon fill="white" stroke="black" points="173,-0.5 173,-26.5 298,-26.5 298,-0.5 173,-0.5"/>
<text text-anchor="start" x="181" y="-16.1" font-family="Helvetica,sans-Serif" font-size="8.00">project.pc.device.KeyCode.get</text>
<text text-anchor="middle" x="235.5" y="-7.1" font-family="Helvetica,sans-Serif" font-size="8.00">CodeByChar</text>
</a>
</g>
</g>
<!-- Node5&#45;&gt;Node8 -->
<g id="edge3" class="edge"><title>Node5&#45;&gt;Node8</title>
<path fill="none" stroke="midnightblue" d="M117.225,-45.4841C135.87,-40.399 157.416,-34.5228 176.914,-29.2053"/>
<polygon fill="midnightblue" stroke="midnightblue" points="177.87,-32.5724 186.597,-26.5645 176.028,-25.8191 177.87,-32.5724"/>
</g>
</g>
</svg>
