<?xml version="1.0" encoding="UTF-8" standalone="no"?>
<!DOCTYPE svg PUBLIC "-//W3C//DTD SVG 1.1//EN"
 "http://www.w3.org/Graphics/SVG/1.1/DTD/svg11.dtd">
<!-- Generated by graphviz version 2.38.0 (20140413.2041)
 -->
<!-- Title: project.pc.sensor.SensorDataHandler.SensorDataHandler Pages: 1 -->
<svg width="484pt" height="125pt"
 viewBox="0.00 0.00 484.00 125.00" xmlns="http://www.w3.org/2000/svg" xmlns:xlink="http://www.w3.org/1999/xlink">
<g id="graph0" class="graph" transform="scale(1 1) rotate(0) translate(4 121)">
<title>project.pc.sensor.SensorDataHandler.SensorDataHandler</title>
<polygon fill="white" stroke="none" points="-4,4 -4,-121 480,-121 480,4 -4,4"/>
<!-- Node0 -->
<g id="node1" class="node"><title>Node0</title>
<polygon fill="#bfbfbf" stroke="black" points="0,-45.5 0,-71.5 136,-71.5 136,-45.5 0,-45.5"/>
<text text-anchor="start" x="8" y="-61.1" font-family="Helvetica,sans-Serif" font-size="8.00">project.pc.sensor.Sensor</text>
<text text-anchor="middle" x="68" y="-52.1" font-family="Helvetica,sans-Serif" font-size="8.00">DataHandler.SensorDataHandler</text>
</g>
<!-- Node1 -->
<g id="node2" class="node"><title>Node1</title>
<g id="a_node2"><a xlink:href="../../d7/d3f/a00173.html#a8a6671613dce4e8f950f2a51d4ba31c0" target="_top" xlink:title="Rotates a 3&#45;D vector by this Quaternion. ">
<polygon fill="white" stroke="black" points="172,-45.5 172,-71.5 306,-71.5 306,-45.5 172,-45.5"/>
<text text-anchor="start" x="180" y="-61.1" font-family="Helvetica,sans-Serif" font-size="8.00">project.pc.sensor.representation.</text>
<text text-anchor="middle" x="239" y="-52.1" font-family="Helvetica,sans-Serif" font-size="8.00">Quaternion.rotateVector</text>
</a>
</g>
</g>
<!-- Node0&#45;&gt;Node1 -->
<g id="edge1" class="edge"><title>Node0&#45;&gt;Node1</title>
<path fill="none" stroke="midnightblue" d="M136.279,-58.5C144.59,-58.5 153.133,-58.5 161.568,-58.5"/>
<polygon fill="midnightblue" stroke="midnightblue" points="161.78,-62.0001 171.78,-58.5 161.78,-55.0001 161.78,-62.0001"/>
</g>
<!-- Node2 -->
<g id="node3" class="node"><title>Node2</title>
<g id="a_node3"><a xlink:href="../../dd/d4c/a00177.html#a3cad02da7bcd7671731cef01eb04fdaf" target="_top" xlink:title="Returns the X&#45;dimension of this Vector3f. ">
<polygon fill="white" stroke="black" points="342,-90.5 342,-116.5 476,-116.5 476,-90.5 342,-90.5"/>
<text text-anchor="start" x="350" y="-106.1" font-family="Helvetica,sans-Serif" font-size="8.00">project.pc.sensor.representation.</text>
<text text-anchor="middle" x="409" y="-97.1" font-family="Helvetica,sans-Serif" font-size="8.00">Vector3f.getX</text>
</a>
</g>
</g>
<!-- Node0&#45;&gt;Node2 -->
<g id="edge6" class="edge"><title>Node0&#45;&gt;Node2</title>
<path fill="none" stroke="midnightblue" d="M124.38,-71.533C139.737,-74.8179 156.46,-78.0911 172,-80.5 225.154,-88.7397 285.529,-94.56 331.906,-98.2841"/>
<polygon fill="midnightblue" stroke="midnightblue" points="331.636,-101.774 341.88,-99.0702 332.186,-94.7952 331.636,-101.774"/>
</g>
<!-- Node3 -->
<g id="node4" class="node"><title>Node3</title>
<g id="a_node4"><a xlink:href="../../dd/d4c/a00177.html#af1f7d78724c9d942780ff7d2f67a8cd8" target="_top" xlink:title="Returns the Y&#45;dimension of this Vector3f. ">
<polygon fill="white" stroke="black" points="342,-0.5 342,-26.5 476,-26.5 476,-0.5 342,-0.5"/>
<text text-anchor="start" x="350" y="-16.1" font-family="Helvetica,sans-Serif" font-size="8.00">project.pc.sensor.representation.</text>
<text text-anchor="middle" x="409" y="-7.1" font-family="Helvetica,sans-Serif" font-size="8.00">Vector3f.getY</text>
</a>
</g>
</g>
<!-- Node0&#45;&gt;Node3 -->
<g id="edge5" class="edge"><title>Node0&#45;&gt;Node3</title>
<path fill="none" stroke="midnightblue" d="M121.417,-45.4476C137.559,-41.7927 155.439,-38.1101 172,-35.5 225.112,-27.129 285.487,-21.572 331.875,-18.1371"/>
<polygon fill="midnightblue" stroke="midnightblue" points="332.131,-21.6278 341.852,-17.415 331.626,-14.6461 332.131,-21.6278"/>
</g>
<!-- Node1&#45;&gt;Node2 -->
<g id="edge2" class="edge"><title>Node1&#45;&gt;Node2</title>
<path fill="none" stroke="midnightblue" d="M288.593,-71.5159C307.577,-76.601 329.515,-82.4772 349.367,-87.7947"/>
<polygon fill="midnightblue" stroke="midnightblue" points="348.661,-91.2289 359.226,-90.4355 350.472,-84.4672 348.661,-91.2289"/>
</g>
<!-- Node1&#45;&gt;Node3 -->
<g id="edge3" class="edge"><title>Node1&#45;&gt;Node3</title>
<path fill="none" stroke="midnightblue" d="M288.593,-45.4841C307.577,-40.399 329.515,-34.5228 349.367,-29.2053"/>
<polygon fill="midnightblue" stroke="midnightblue" points="350.472,-32.5328 359.226,-26.5645 348.661,-25.7711 350.472,-32.5328"/>
</g>
<!-- Node4 -->
<g id="node5" class="node"><title>Node4</title>
<g id="a_node5"><a xlink:href="../../dd/d4c/a00177.html#a5fe713af4beb1b2632472b75517dcb88" target="_top" xlink:title="Returns the Z&#45;dimension of this Vector3f. ">
<polygon fill="white" stroke="black" points="342,-45.5 342,-71.5 476,-71.5 476,-45.5 342,-45.5"/>
<text text-anchor="start" x="350" y="-61.1" font-family="Helvetica,sans-Serif" font-size="8.00">project.pc.sensor.representation.</text>
<text text-anchor="middle" x="409" y="-52.1" font-family="Helvetica,sans-Serif" font-size="8.00">Vector3f.getZ</text>
</a>
</g>
</g>
<!-- Node1&#45;&gt;Node4 -->
<g id="edge4" class="edge"><title>Node1&#45;&gt;Node4</title>
<path fill="none" stroke="midnightblue" d="M306.398,-58.5C314.679,-58.5 323.199,-58.5 331.616,-58.5"/>
<polygon fill="midnightblue" stroke="midnightblue" points="331.809,-62.0001 341.809,-58.5 331.809,-55.0001 331.809,-62.0001"/>
</g>
</g>
</svg>
