<?xml version="1.0" encoding="UTF-8" standalone="no"?>
<!DOCTYPE svg PUBLIC "-//W3C//DTD SVG 1.1//EN"
 "http://www.w3.org/Graphics/SVG/1.1/DTD/svg11.dtd">
<!-- Generated by graphviz version 2.38.0 (20140413.2041)
 -->
<!-- Title: project.pc.sensor.SensorDataHandler.pointerUpdate Pages: 1 -->
<svg width="486pt" height="35pt"
 viewBox="0.00 0.00 486.00 35.00" xmlns="http://www.w3.org/2000/svg" xmlns:xlink="http://www.w3.org/1999/xlink">
<g id="graph0" class="graph" transform="scale(1 1) rotate(0) translate(4 31)">
<title>project.pc.sensor.SensorDataHandler.pointerUpdate</title>
<polygon fill="white" stroke="none" points="-4,4 -4,-31 482,-31 482,4 -4,4"/>
<!-- Node11 -->
<g id="node1" class="node"><title>Node11</title>
<polygon fill="#bfbfbf" stroke="black" points="0,-0.5 0,-26.5 116,-26.5 116,-0.5 0,-0.5"/>
<text text-anchor="start" x="8" y="-16.1" font-family="Helvetica,sans-Serif" font-size="8.00">project.pc.sensor.Sensor</text>
<text text-anchor="middle" x="58" y="-7.1" font-family="Helvetica,sans-Serif" font-size="8.00">DataHandler.pointerUpdate</text>
</g>
<!-- Node12 -->
<g id="node2" class="node"><title>Node12</title>
<g id="a_node2"><a xlink:href="../../d1/d84/a00097.html#ab76fce85b9d26d9601b0cc113d524bd6" target="_top" xlink:title="Method to perform mouse move on the basis of 3&#45;D input from the mobile device. ">
<polygon fill="white" stroke="black" points="152,-5 152,-22 311,-22 311,-5 152,-5"/>
<text text-anchor="middle" x="231.5" y="-11.6" font-family="Helvetica,sans-Serif" font-size="8.00">project.pc.device.MouseController.move</text>
</a>
</g>
</g>
<!-- Node11&#45;&gt;Node12 -->
<g id="edge1" class="edge"><title>Node11&#45;&gt;Node12</title>
<path fill="none" stroke="midnightblue" d="M126.249,-13.5C134.685,-13.5 143.372,-13.5 151.961,-13.5"/>
<polygon fill="midnightblue" stroke="midnightblue" points="126.107,-10.0001 116.107,-13.5 126.107,-17.0001 126.107,-10.0001"/>
</g>
<!-- Node13 -->
<g id="node3" class="node"><title>Node13</title>
<g id="a_node3"><a xlink:href="../../da/d1e/a00149.html#a6262e65e0cfc1e2830af1ab11eabf116" target="_top" xlink:title="Performs operations for communication with a client. ">
<polygon fill="white" stroke="black" points="347,-5 347,-22 478,-22 478,-5 347,-5"/>
<text text-anchor="middle" x="412.5" y="-11.6" font-family="Helvetica,sans-Serif" font-size="8.00">project.pc.net.ServerThread.run</text>
</a>
</g>
</g>
<!-- Node12&#45;&gt;Node13 -->
<g id="edge2" class="edge"><title>Node12&#45;&gt;Node13</title>
<path fill="none" stroke="midnightblue" d="M321.121,-13.5C329.754,-13.5 338.397,-13.5 346.73,-13.5"/>
<polygon fill="midnightblue" stroke="midnightblue" points="321.012,-10.0001 311.012,-13.5 321.012,-17.0001 321.012,-10.0001"/>
</g>
</g>
</svg>
