<?xml version="1.0" encoding="UTF-8" standalone="no"?>
<!DOCTYPE svg PUBLIC "-//W3C//DTD SVG 1.1//EN"
 "http://www.w3.org/Graphics/SVG/1.1/DTD/svg11.dtd">
<!-- Generated by graphviz version 2.38.0 (20140413.2041)
 -->
<!-- Title: project.pc.sensor.SensorDataHandler.pointerUpdate Pages: 1 -->
<svg width="464pt" height="125pt"
 viewBox="0.00 0.00 464.00 125.00" xmlns="http://www.w3.org/2000/svg" xmlns:xlink="http://www.w3.org/1999/xlink">
<g id="graph0" class="graph" transform="scale(1 1) rotate(0) translate(4 121)">
<title>project.pc.sensor.SensorDataHandler.pointerUpdate</title>
<polygon fill="white" stroke="none" points="-4,4 -4,-121 460,-121 460,4 -4,4"/>
<!-- Node6 -->
<g id="node1" class="node"><title>Node6</title>
<polygon fill="#bfbfbf" stroke="black" points="0,-45.5 0,-71.5 116,-71.5 116,-45.5 0,-45.5"/>
<text text-anchor="start" x="8" y="-61.1" font-family="Helvetica,sans-Serif" font-size="8.00">project.pc.sensor.Sensor</text>
<text text-anchor="middle" x="58" y="-52.1" font-family="Helvetica,sans-Serif" font-size="8.00">DataHandler.pointerUpdate</text>
</g>
<!-- Node7 -->
<g id="node2" class="node"><title>Node7</title>
<g id="a_node2"><a xlink:href="../../d7/d3f/a00173.html#a8a6671613dce4e8f950f2a51d4ba31c0" target="_top" xlink:title="Rotates a 3&#45;D vector by this Quaternion. ">
<polygon fill="white" stroke="black" points="152,-45.5 152,-71.5 286,-71.5 286,-45.5 152,-45.5"/>
<text text-anchor="start" x="160" y="-61.1" font-family="Helvetica,sans-Serif" font-size="8.00">project.pc.sensor.representation.</text>
<text text-anchor="middle" x="219" y="-52.1" font-family="Helvetica,sans-Serif" font-size="8.00">Quaternion.rotateVector</text>
</a>
</g>
</g>
<!-- Node6&#45;&gt;Node7 -->
<g id="edge1" class="edge"><title>Node6&#45;&gt;Node7</title>
<path fill="none" stroke="midnightblue" d="M116.403,-58.5C124.561,-58.5 133.056,-58.5 141.505,-58.5"/>
<polygon fill="midnightblue" stroke="midnightblue" points="141.764,-62.0001 151.764,-58.5 141.764,-55.0001 141.764,-62.0001"/>
</g>
<!-- Node8 -->
<g id="node3" class="node"><title>Node8</title>
<g id="a_node3"><a xlink:href="../../dd/d4c/a00177.html#a3cad02da7bcd7671731cef01eb04fdaf" target="_top" xlink:title="Returns the X&#45;dimension of this Vector3f. ">
<polygon fill="white" stroke="black" points="322,-90.5 322,-116.5 456,-116.5 456,-90.5 322,-90.5"/>
<text text-anchor="start" x="330" y="-106.1" font-family="Helvetica,sans-Serif" font-size="8.00">project.pc.sensor.representation.</text>
<text text-anchor="middle" x="389" y="-97.1" font-family="Helvetica,sans-Serif" font-size="8.00">Vector3f.getX</text>
</a>
</g>
</g>
<!-- Node6&#45;&gt;Node8 -->
<g id="edge5" class="edge"><title>Node6&#45;&gt;Node8</title>
<path fill="none" stroke="midnightblue" d="M108.461,-71.5098C122.459,-74.8341 137.761,-78.1331 152,-80.5 205.061,-89.3201 265.437,-95.1283 311.839,-98.7015"/>
<polygon fill="midnightblue" stroke="midnightblue" points="311.584,-102.192 321.819,-99.4523 312.109,-95.2119 311.584,-102.192"/>
</g>
<!-- Node9 -->
<g id="node4" class="node"><title>Node9</title>
<g id="a_node4"><a xlink:href="../../dd/d4c/a00177.html#af1f7d78724c9d942780ff7d2f67a8cd8" target="_top" xlink:title="Returns the Y&#45;dimension of this Vector3f. ">
<polygon fill="white" stroke="black" points="322,-0.5 322,-26.5 456,-26.5 456,-0.5 322,-0.5"/>
<text text-anchor="start" x="330" y="-16.1" font-family="Helvetica,sans-Serif" font-size="8.00">project.pc.sensor.representation.</text>
<text text-anchor="middle" x="389" y="-7.1" font-family="Helvetica,sans-Serif" font-size="8.00">Vector3f.getY</text>
</a>
</g>
</g>
<!-- Node6&#45;&gt;Node9 -->
<g id="edge6" class="edge"><title>Node6&#45;&gt;Node9</title>
<path fill="none" stroke="midnightblue" d="M106.025,-45.4209C120.659,-41.7429 136.913,-38.0541 152,-35.5 205.013,-26.5254 265.391,-20.9809 311.804,-17.703"/>
<polygon fill="midnightblue" stroke="midnightblue" points="312.05,-21.1944 321.787,-17.0176 311.571,-14.2109 312.05,-21.1944"/>
</g>
<!-- Node7&#45;&gt;Node8 -->
<g id="edge2" class="edge"><title>Node7&#45;&gt;Node8</title>
<path fill="none" stroke="midnightblue" d="M268.593,-71.5159C287.577,-76.601 309.515,-82.4772 329.367,-87.7947"/>
<polygon fill="midnightblue" stroke="midnightblue" points="328.661,-91.2289 339.226,-90.4355 330.472,-84.4672 328.661,-91.2289"/>
</g>
<!-- Node7&#45;&gt;Node9 -->
<g id="edge3" class="edge"><title>Node7&#45;&gt;Node9</title>
<path fill="none" stroke="midnightblue" d="M268.593,-45.4841C287.577,-40.399 309.515,-34.5228 329.367,-29.2053"/>
<polygon fill="midnightblue" stroke="midnightblue" points="330.472,-32.5328 339.226,-26.5645 328.661,-25.7711 330.472,-32.5328"/>
</g>
<!-- Node10 -->
<g id="node5" class="node"><title>Node10</title>
<g id="a_node5"><a xlink:href="../../dd/d4c/a00177.html#a5fe713af4beb1b2632472b75517dcb88" target="_top" xlink:title="Returns the Z&#45;dimension of this Vector3f. ">
<polygon fill="white" stroke="black" points="322,-45.5 322,-71.5 456,-71.5 456,-45.5 322,-45.5"/>
<text text-anchor="start" x="330" y="-61.1" font-family="Helvetica,sans-Serif" font-size="8.00">project.pc.sensor.representation.</text>
<text text-anchor="middle" x="389" y="-52.1" font-family="Helvetica,sans-Serif" font-size="8.00">Vector3f.getZ</text>
</a>
</g>
</g>
<!-- Node7&#45;&gt;Node10 -->
<g id="edge4" class="edge"><title>Node7&#45;&gt;Node10</title>
<path fill="none" stroke="midnightblue" d="M286.398,-58.5C294.679,-58.5 303.199,-58.5 311.616,-58.5"/>
<polygon fill="midnightblue" stroke="midnightblue" points="311.809,-62.0001 321.809,-58.5 311.809,-55.0001 311.809,-62.0001"/>
</g>
</g>
</svg>
