<?xml version="1.0" encoding="UTF-8" standalone="no"?>
<!DOCTYPE svg PUBLIC "-//W3C//DTD SVG 1.1//EN"
 "http://www.w3.org/Graphics/SVG/1.1/DTD/svg11.dtd">
<!-- Generated by graphviz version 2.38.0 (20140413.2041)
 -->
<!-- Title: project.pc.sensor.representation.MatrixF4x4.getMatrix Pages: 1 -->
<svg width="328pt" height="80pt"
 viewBox="0.00 0.00 328.00 80.00" xmlns="http://www.w3.org/2000/svg" xmlns:xlink="http://www.w3.org/1999/xlink">
<g id="graph0" class="graph" transform="scale(1 1) rotate(0) translate(4 76)">
<title>project.pc.sensor.representation.MatrixF4x4.getMatrix</title>
<polygon fill="white" stroke="none" points="-4,4 -4,-76 324,-76 324,4 -4,4"/>
<!-- Node4 -->
<g id="node1" class="node"><title>Node4</title>
<polygon fill="#bfbfbf" stroke="black" points="0,-22.5 0,-48.5 134,-48.5 134,-22.5 0,-22.5"/>
<text text-anchor="start" x="8" y="-38.1" font-family="Helvetica,sans-Serif" font-size="8.00">project.pc.sensor.representation.</text>
<text text-anchor="middle" x="67" y="-29.1" font-family="Helvetica,sans-Serif" font-size="8.00">MatrixF4x4.getMatrix</text>
</g>
<!-- Node5 -->
<g id="node2" class="node"><title>Node5</title>
<g id="a_node2"><a xlink:href="../../de/d53/a00169.html#ac819f0526d577007f2c9e8f06efb92cd" target="_top" xlink:title="Multiples a MatrixF4x4 with this. ">
<polygon fill="white" stroke="black" points="170,-45.5 170,-71.5 320,-71.5 320,-45.5 170,-45.5"/>
<text text-anchor="start" x="178" y="-61.1" font-family="Helvetica,sans-Serif" font-size="8.00">project.pc.sensor.representation.</text>
<text text-anchor="middle" x="245" y="-52.1" font-family="Helvetica,sans-Serif" font-size="8.00">MatrixF4x4.multiplyMatrix4x4ByMatrix</text>
</a>
</g>
</g>
<!-- Node4&#45;&gt;Node5 -->
<g id="edge1" class="edge"><title>Node4&#45;&gt;Node5</title>
<path fill="none" stroke="midnightblue" d="M144.024,-45.4349C152.609,-46.5569 161.35,-47.6991 169.91,-48.8178"/>
<polygon fill="midnightblue" stroke="midnightblue" points="144.406,-41.9552 134.037,-44.1298 143.499,-48.8962 144.406,-41.9552"/>
</g>
<!-- Node6 -->
<g id="node3" class="node"><title>Node6</title>
<g id="a_node3"><a xlink:href="../../d7/d3f/a00173.html#a8080165fcc9bcca528eb672a1e15ec96" target="_top" xlink:title="Returns a String representing this Quaternion. ">
<polygon fill="white" stroke="black" points="178,-0.5 178,-26.5 312,-26.5 312,-0.5 178,-0.5"/>
<text text-anchor="start" x="186" y="-16.1" font-family="Helvetica,sans-Serif" font-size="8.00">project.pc.sensor.representation.</text>
<text text-anchor="middle" x="245" y="-7.1" font-family="Helvetica,sans-Serif" font-size="8.00">Quaternion.toString</text>
</a>
</g>
</g>
<!-- Node4&#45;&gt;Node6 -->
<g id="edge2" class="edge"><title>Node4&#45;&gt;Node6</title>
<path fill="none" stroke="midnightblue" d="M144.234,-25.9708C155.44,-24.57 166.906,-23.1368 177.886,-21.7642"/>
<polygon fill="midnightblue" stroke="midnightblue" points="143.525,-22.532 134.037,-27.2454 144.394,-29.478 143.525,-22.532"/>
</g>
</g>
</svg>
