<?xml version="1.0" encoding="UTF-8" standalone="no"?>
<!DOCTYPE svg PUBLIC "-//W3C//DTD SVG 1.1//EN"
 "http://www.w3.org/Graphics/SVG/1.1/DTD/svg11.dtd">
<!-- Generated by graphviz version 2.38.0 (20140413.2041)
 -->
<!-- Title: project.pc.security.KeyStoreManager.setMasterKey Pages: 1 -->
<svg width="291pt" height="35pt"
 viewBox="0.00 0.00 291.00 35.00" xmlns="http://www.w3.org/2000/svg" xmlns:xlink="http://www.w3.org/1999/xlink">
<g id="graph0" class="graph" transform="scale(1 1) rotate(0) translate(4 31)">
<title>project.pc.security.KeyStoreManager.setMasterKey</title>
<polygon fill="white" stroke="none" points="-4,4 -4,-31 287,-31 287,4 -4,4"/>
<!-- Node9 -->
<g id="node1" class="node"><title>Node9</title>
<polygon fill="#bfbfbf" stroke="black" points="0,-0.5 0,-26.5 116,-26.5 116,-0.5 0,-0.5"/>
<text text-anchor="start" x="8" y="-16.1" font-family="Helvetica,sans-Serif" font-size="8.00">project.pc.security.KeyStore</text>
<text text-anchor="middle" x="58" y="-7.1" font-family="Helvetica,sans-Serif" font-size="8.00">Manager.setMasterKey</text>
</g>
<!-- Node10 -->
<g id="node2" class="node"><title>Node10</title>
<g id="a_node2"><a xlink:href="../../da/d01/a00153.html#a38b1e1ce1a5b9fa954bd55db18c1eaeb" target="_top" xlink:title="Constructor. ">
<polygon fill="white" stroke="black" points="152,-0.5 152,-26.5 283,-26.5 283,-0.5 152,-0.5"/>
<text text-anchor="start" x="160" y="-16.1" font-family="Helvetica,sans-Serif" font-size="8.00">project.pc.security.EKEProvider.</text>
<text text-anchor="middle" x="217.5" y="-7.1" font-family="Helvetica,sans-Serif" font-size="8.00">EKEProvider</text>
</a>
</g>
</g>
<!-- Node9&#45;&gt;Node10 -->
<g id="edge1" class="edge"><title>Node9&#45;&gt;Node10</title>
<path fill="none" stroke="midnightblue" d="M126.438,-13.5C134.837,-13.5 143.412,-13.5 151.768,-13.5"/>
<polygon fill="midnightblue" stroke="midnightblue" points="126.307,-10.0001 116.307,-13.5 126.307,-17.0001 126.307,-10.0001"/>
</g>
</g>
</svg>
