<?xml version="1.0" encoding="UTF-8" standalone="no"?>
<!DOCTYPE svg PUBLIC "-//W3C//DTD SVG 1.1//EN"
 "http://www.w3.org/Graphics/SVG/1.1/DTD/svg11.dtd">
<!-- Generated by graphviz version 2.38.0 (20140413.2041)
 -->
<!-- Title: project.pc.gui.Cube Pages: 1 -->
<svg width="94pt" height="202pt"
 viewBox="0.00 0.00 94.00 202.00" xmlns="http://www.w3.org/2000/svg" xmlns:xlink="http://www.w3.org/1999/xlink">
<g id="graph0" class="graph" transform="scale(1 1) rotate(0) translate(4 198)">
<title>project.pc.gui.Cube</title>
<polygon fill="white" stroke="none" points="-4,4 -4,-198 90,-198 90,4 -4,4"/>
<!-- Node0 -->
<g id="node1" class="node"><title>Node0</title>
<polygon fill="#bfbfbf" stroke="black" points="0,-0.5 0,-105.5 86,-105.5 86,-0.5 0,-0.5"/>
<text text-anchor="middle" x="43" y="-95.1" font-family="Helvetica,sans-Serif" font-size="8.00">project.pc.gui.Cube</text>
<polyline fill="none" stroke="black" points="0,-88.5 86,-88.5 "/>
<text text-anchor="middle" x="43" y="-78.1" font-family="Helvetica,sans-Serif" font-size="8.00"> </text>
<polyline fill="none" stroke="black" points="0,-71.5 86,-71.5 "/>
<text text-anchor="start" x="8" y="-61.1" font-family="Helvetica,sans-Serif" font-size="8.00">+ display()</text>
<text text-anchor="start" x="8" y="-52.1" font-family="Helvetica,sans-Serif" font-size="8.00">+ dispose()</text>
<text text-anchor="start" x="8" y="-43.1" font-family="Helvetica,sans-Serif" font-size="8.00">+ init()</text>
<text text-anchor="start" x="8" y="-34.1" font-family="Helvetica,sans-Serif" font-size="8.00">+ reshape()</text>
<text text-anchor="start" x="8" y="-25.1" font-family="Helvetica,sans-Serif" font-size="8.00">~ Cube()</text>
<text text-anchor="start" x="8" y="-16.1" font-family="Helvetica,sans-Serif" font-size="8.00">~ isStarted()</text>
<text text-anchor="start" x="8" y="-7.1" font-family="Helvetica,sans-Serif" font-size="8.00">~ showCube()</text>
</g>
<!-- Node1 -->
<g id="node2" class="node"><title>Node1</title>
<polygon fill="white" stroke="#bfbfbf" points="5,-142.5 5,-193.5 81,-193.5 81,-142.5 5,-142.5"/>
<text text-anchor="middle" x="43" y="-183.1" font-family="Helvetica,sans-Serif" font-size="8.00">GLEventListener</text>
<polyline fill="none" stroke="#bfbfbf" points="5,-176.5 81,-176.5 "/>
<text text-anchor="middle" x="43" y="-166.1" font-family="Helvetica,sans-Serif" font-size="8.00"> </text>
<polyline fill="none" stroke="#bfbfbf" points="5,-159.5 81,-159.5 "/>
<text text-anchor="middle" x="43" y="-149.1" font-family="Helvetica,sans-Serif" font-size="8.00"> </text>
</g>
<!-- Node1&#45;&gt;Node0 -->
<g id="edge1" class="edge"><title>Node1&#45;&gt;Node0</title>
<path fill="none" stroke="midnightblue" d="M43,-132.341C43,-123.962 43,-114.825 43,-105.847"/>
<polygon fill="none" stroke="midnightblue" points="39.5001,-132.481 43,-142.481 46.5001,-132.481 39.5001,-132.481"/>
</g>
</g>
</svg>
