<?xml version="1.0" encoding="UTF-8" standalone="no"?>
<!DOCTYPE svg PUBLIC "-//W3C//DTD SVG 1.1//EN"
 "http://www.w3.org/Graphics/SVG/1.1/DTD/svg11.dtd">
<!-- Generated by graphviz version 2.38.0 (20140413.2041)
 -->
<!-- Title: project.pc.net.BroadcastThread.run Pages: 1 -->
<svg width="271pt" height="35pt"
 viewBox="0.00 0.00 271.00 35.00" xmlns="http://www.w3.org/2000/svg" xmlns:xlink="http://www.w3.org/1999/xlink">
<g id="graph0" class="graph" transform="scale(1 1) rotate(0) translate(4 31)">
<title>project.pc.net.BroadcastThread.run</title>
<polygon fill="white" stroke="none" points="-4,4 -4,-31 267,-31 267,4 -4,4"/>
<!-- Node10 -->
<g id="node1" class="node"><title>Node10</title>
<polygon fill="#bfbfbf" stroke="black" points="0,-0.5 0,-26.5 103,-26.5 103,-0.5 0,-0.5"/>
<text text-anchor="start" x="8" y="-16.1" font-family="Helvetica,sans-Serif" font-size="8.00">project.pc.net.Broadcast</text>
<text text-anchor="middle" x="51.5" y="-7.1" font-family="Helvetica,sans-Serif" font-size="8.00">Thread.run</text>
</g>
<!-- Node11 -->
<g id="node2" class="node"><title>Node11</title>
<g id="a_node2"><a xlink:href="../../da/ddb/a00145.html#a9a3c507aa24ae7e5334cf28006bd797b" target="_top" xlink:title="Sets the status of the broadcast as active. ">
<polygon fill="white" stroke="black" points="139,-0.5 139,-26.5 263,-26.5 263,-0.5 139,-0.5"/>
<text text-anchor="start" x="147" y="-16.1" font-family="Helvetica,sans-Serif" font-size="8.00">project.pc.net.ServerInfo.clear</text>
<text text-anchor="middle" x="201" y="-7.1" font-family="Helvetica,sans-Serif" font-size="8.00">StopFlag</text>
</a>
</g>
</g>
<!-- Node10&#45;&gt;Node11 -->
<g id="edge1" class="edge"><title>Node10&#45;&gt;Node11</title>
<path fill="none" stroke="midnightblue" d="M103.261,-13.5C111.527,-13.5 120.22,-13.5 128.866,-13.5"/>
<polygon fill="midnightblue" stroke="midnightblue" points="128.965,-17.0001 138.965,-13.5 128.965,-10.0001 128.965,-17.0001"/>
</g>
</g>
</svg>
