<?xml version="1.0" encoding="UTF-8" standalone="no"?>
<!DOCTYPE svg PUBLIC "-//W3C//DTD SVG 1.1//EN"
 "http://www.w3.org/Graphics/SVG/1.1/DTD/svg11.dtd">
<!-- Generated by graphviz version 2.38.0 (20140413.2041)
 -->
<!-- Title: project.pc.net.BroadcastThread.stopBroadcast Pages: 1 -->
<svg width="470pt" height="80pt"
 viewBox="0.00 0.00 470.00 80.00" xmlns="http://www.w3.org/2000/svg" xmlns:xlink="http://www.w3.org/1999/xlink">
<g id="graph0" class="graph" transform="scale(1 1) rotate(0) translate(4 76)">
<title>project.pc.net.BroadcastThread.stopBroadcast</title>
<polygon fill="white" stroke="none" points="-4,4 -4,-76 466,-76 466,4 -4,4"/>
<!-- Node15 -->
<g id="node1" class="node"><title>Node15</title>
<polygon fill="#bfbfbf" stroke="black" points="0,-22.5 0,-48.5 103,-48.5 103,-22.5 0,-22.5"/>
<text text-anchor="start" x="8" y="-38.1" font-family="Helvetica,sans-Serif" font-size="8.00">project.pc.net.Broadcast</text>
<text text-anchor="middle" x="51.5" y="-29.1" font-family="Helvetica,sans-Serif" font-size="8.00">Thread.stopBroadcast</text>
</g>
<!-- Node16 -->
<g id="node2" class="node"><title>Node16</title>
<g id="a_node2"><a xlink:href="../../d9/d47/a00129.html#a61581904d96f5be8906b740585486ebc" target="_top" xlink:title="Method to stop server. ">
<polygon fill="white" stroke="black" points="139,-22.5 139,-48.5 285,-48.5 285,-22.5 139,-22.5"/>
<text text-anchor="start" x="147" y="-38.1" font-family="Helvetica,sans-Serif" font-size="8.00">project.pc.net.NetworkManager.stop</text>
<text text-anchor="middle" x="212" y="-29.1" font-family="Helvetica,sans-Serif" font-size="8.00">Server</text>
</a>
</g>
</g>
<!-- Node15&#45;&gt;Node16 -->
<g id="edge1" class="edge"><title>Node15&#45;&gt;Node16</title>
<path fill="none" stroke="midnightblue" d="M113.188,-35.5C121.612,-35.5 130.333,-35.5 138.941,-35.5"/>
<polygon fill="midnightblue" stroke="midnightblue" points="113.086,-32.0001 103.086,-35.5 113.086,-39.0001 113.086,-32.0001"/>
</g>
<!-- Node17 -->
<g id="node3" class="node"><title>Node17</title>
<g id="a_node3"><a xlink:href="../../dd/d42/a00109.html#af518df4286470e49c976c3410c72100b" target="_top" xlink:title="Invoked when an action occurs. ">
<polygon fill="white" stroke="black" points="324,-45.5 324,-71.5 459,-71.5 459,-45.5 324,-45.5"/>
<text text-anchor="start" x="332" y="-61.1" font-family="Helvetica,sans-Serif" font-size="8.00">project.pc.gui.MainWindow.action</text>
<text text-anchor="middle" x="391.5" y="-52.1" font-family="Helvetica,sans-Serif" font-size="8.00">Performed</text>
</a>
</g>
</g>
<!-- Node16&#45;&gt;Node17 -->
<g id="edge2" class="edge"><title>Node16&#45;&gt;Node17</title>
<path fill="none" stroke="midnightblue" d="M295.145,-46.1441C304.746,-47.3882 314.45,-48.6457 323.806,-49.8579"/>
<polygon fill="midnightblue" stroke="midnightblue" points="295.563,-42.6691 285.196,-44.855 294.663,-49.6111 295.563,-42.6691"/>
</g>
<!-- Node18 -->
<g id="node4" class="node"><title>Node18</title>
<g id="a_node4"><a xlink:href="../../dd/d42/a00109.html#a9b7fdbe2729882c790a6366878b5c5c3" target="_top" xlink:title="Gracefully terminates the application. ">
<polygon fill="white" stroke="black" points="321,-0.5 321,-26.5 462,-26.5 462,-0.5 321,-0.5"/>
<text text-anchor="start" x="329" y="-16.1" font-family="Helvetica,sans-Serif" font-size="8.00">project.pc.gui.MainWindow.window</text>
<text text-anchor="middle" x="391.5" y="-7.1" font-family="Helvetica,sans-Serif" font-size="8.00">Closing</text>
</a>
</g>
</g>
<!-- Node16&#45;&gt;Node18 -->
<g id="edge3" class="edge"><title>Node16&#45;&gt;Node18</title>
<path fill="none" stroke="midnightblue" d="M295.234,-25.3077C303.833,-24.2418 312.514,-23.1658 320.952,-22.12"/>
<polygon fill="midnightblue" stroke="midnightblue" points="294.69,-21.8482 285.196,-26.5518 295.551,-28.7951 294.69,-21.8482"/>
</g>
</g>
</svg>
