<?xml version="1.0" encoding="UTF-8" standalone="no"?>
<!DOCTYPE svg PUBLIC "-//W3C//DTD SVG 1.1//EN"
 "http://www.w3.org/Graphics/SVG/1.1/DTD/svg11.dtd">
<!-- Generated by graphviz version 2.38.0 (20140413.2041)
 -->
<!-- Title: project.pc.device.KeyCode.getCodeByChar Pages: 1 -->
<svg width="473pt" height="35pt"
 viewBox="0.00 0.00 473.00 35.00" xmlns="http://www.w3.org/2000/svg" xmlns:xlink="http://www.w3.org/1999/xlink">
<g id="graph0" class="graph" transform="scale(1 1) rotate(0) translate(4 31)">
<title>project.pc.device.KeyCode.getCodeByChar</title>
<polygon fill="white" stroke="none" points="-4,4 -4,-31 469,-31 469,4 -4,4"/>
<!-- Node1 -->
<g id="node1" class="node"><title>Node1</title>
<polygon fill="#bfbfbf" stroke="black" points="0,-0.5 0,-26.5 125,-26.5 125,-0.5 0,-0.5"/>
<text text-anchor="start" x="8" y="-16.1" font-family="Helvetica,sans-Serif" font-size="8.00">project.pc.device.KeyCode.get</text>
<text text-anchor="middle" x="62.5" y="-7.1" font-family="Helvetica,sans-Serif" font-size="8.00">CodeByChar</text>
</g>
<!-- Node2 -->
<g id="node2" class="node"><title>Node2</title>
<g id="a_node2"><a xlink:href="../../db/dab/a00089.html#a4520a89e12855f0b6dabcb788604fba9" target="_top" xlink:title="Method to perform keyboard input operations for different function keys. ">
<polygon fill="white" stroke="black" points="161,-0.5 161,-26.5 298,-26.5 298,-0.5 161,-0.5"/>
<text text-anchor="start" x="169" y="-16.1" font-family="Helvetica,sans-Serif" font-size="8.00">project.pc.device.Keyboard</text>
<text text-anchor="middle" x="229.5" y="-7.1" font-family="Helvetica,sans-Serif" font-size="8.00">Controller.doSpecialKeyOperation</text>
</a>
</g>
</g>
<!-- Node1&#45;&gt;Node2 -->
<g id="edge1" class="edge"><title>Node1&#45;&gt;Node2</title>
<path fill="none" stroke="midnightblue" d="M135.602,-13.5C144.038,-13.5 152.621,-13.5 160.991,-13.5"/>
<polygon fill="midnightblue" stroke="midnightblue" points="135.409,-10.0001 125.409,-13.5 135.409,-17.0001 135.409,-10.0001"/>
</g>
<!-- Node3 -->
<g id="node3" class="node"><title>Node3</title>
<g id="a_node3"><a xlink:href="../../da/d1e/a00149.html#a6262e65e0cfc1e2830af1ab11eabf116" target="_top" xlink:title="Performs operations for communication with a client. ">
<polygon fill="white" stroke="black" points="334,-5 334,-22 465,-22 465,-5 334,-5"/>
<text text-anchor="middle" x="399.5" y="-11.6" font-family="Helvetica,sans-Serif" font-size="8.00">project.pc.net.ServerThread.run</text>
</a>
</g>
</g>
<!-- Node2&#45;&gt;Node3 -->
<g id="edge2" class="edge"><title>Node2&#45;&gt;Node3</title>
<path fill="none" stroke="midnightblue" d="M308.622,-13.5C317.096,-13.5 325.651,-13.5 333.938,-13.5"/>
<polygon fill="midnightblue" stroke="midnightblue" points="308.348,-10.0001 298.348,-13.5 308.348,-17.0001 308.348,-10.0001"/>
</g>
</g>
</svg>
