<?xml version="1.0" encoding="UTF-8" standalone="no"?>
<!DOCTYPE svg PUBLIC "-//W3C//DTD SVG 1.1//EN"
 "http://www.w3.org/Graphics/SVG/1.1/DTD/svg11.dtd">
<!-- Generated by graphviz version 2.38.0 (20140413.2041)
 -->
<!-- Title: project.pc.device.KeyCode.isShiftKey Pages: 1 -->
<svg width="467pt" height="35pt"
 viewBox="0.00 0.00 467.00 35.00" xmlns="http://www.w3.org/2000/svg" xmlns:xlink="http://www.w3.org/1999/xlink">
<g id="graph0" class="graph" transform="scale(1 1) rotate(0) translate(4 31)">
<title>project.pc.device.KeyCode.isShiftKey</title>
<polygon fill="white" stroke="none" points="-4,4 -4,-31 463,-31 463,4 -4,4"/>
<!-- Node9 -->
<g id="node1" class="node"><title>Node9</title>
<polygon fill="#bfbfbf" stroke="black" points="0,-0.5 0,-26.5 119,-26.5 119,-0.5 0,-0.5"/>
<text text-anchor="start" x="8" y="-16.1" font-family="Helvetica,sans-Serif" font-size="8.00">project.pc.device.KeyCode.is</text>
<text text-anchor="middle" x="59.5" y="-7.1" font-family="Helvetica,sans-Serif" font-size="8.00">ShiftKey</text>
</g>
<!-- Node10 -->
<g id="node2" class="node"><title>Node10</title>
<g id="a_node2"><a xlink:href="../../db/dab/a00089.html#a4520a89e12855f0b6dabcb788604fba9" target="_top" xlink:title="Method to perform keyboard input operations for different function keys. ">
<polygon fill="white" stroke="black" points="155,-0.5 155,-26.5 292,-26.5 292,-0.5 155,-0.5"/>
<text text-anchor="start" x="163" y="-16.1" font-family="Helvetica,sans-Serif" font-size="8.00">project.pc.device.Keyboard</text>
<text text-anchor="middle" x="223.5" y="-7.1" font-family="Helvetica,sans-Serif" font-size="8.00">Controller.doSpecialKeyOperation</text>
</a>
</g>
</g>
<!-- Node9&#45;&gt;Node10 -->
<g id="edge1" class="edge"><title>Node9&#45;&gt;Node10</title>
<path fill="none" stroke="midnightblue" d="M129.543,-13.5C137.914,-13.5 146.459,-13.5 154.81,-13.5"/>
<polygon fill="midnightblue" stroke="midnightblue" points="129.444,-10.0001 119.444,-13.5 129.444,-17.0001 129.444,-10.0001"/>
</g>
<!-- Node11 -->
<g id="node3" class="node"><title>Node11</title>
<g id="a_node3"><a xlink:href="../../da/d1e/a00149.html#a6262e65e0cfc1e2830af1ab11eabf116" target="_top" xlink:title="Performs operations for communication with a client. ">
<polygon fill="white" stroke="black" points="328,-5 328,-22 459,-22 459,-5 328,-5"/>
<text text-anchor="middle" x="393.5" y="-11.6" font-family="Helvetica,sans-Serif" font-size="8.00">project.pc.net.ServerThread.run</text>
</a>
</g>
</g>
<!-- Node10&#45;&gt;Node11 -->
<g id="edge2" class="edge"><title>Node10&#45;&gt;Node11</title>
<path fill="none" stroke="midnightblue" d="M302.622,-13.5C311.096,-13.5 319.651,-13.5 327.938,-13.5"/>
<polygon fill="midnightblue" stroke="midnightblue" points="302.348,-10.0001 292.348,-13.5 302.348,-17.0001 302.348,-10.0001"/>
</g>
</g>
</svg>
