<?xml version="1.0" encoding="UTF-8" standalone="no"?>
<!DOCTYPE svg PUBLIC "-//W3C//DTD SVG 1.1//EN"
 "http://www.w3.org/Graphics/SVG/1.1/DTD/svg11.dtd">
<!-- Generated by graphviz version 2.38.0 (20140413.2041)
 -->
<!-- Title: project.pc.net.ServerThread Pages: 1 -->
<svg width="125pt" height="193pt"
 viewBox="0.00 0.00 125.00 193.00" xmlns="http://www.w3.org/2000/svg" xmlns:xlink="http://www.w3.org/1999/xlink">
<g id="graph0" class="graph" transform="scale(1 1) rotate(0) translate(4 189)">
<title>project.pc.net.ServerThread</title>
<polygon fill="white" stroke="none" points="-4,4 -4,-189 121,-189 121,4 -4,4"/>
<!-- Node0 -->
<g id="node1" class="node"><title>Node0</title>
<polygon fill="#bfbfbf" stroke="black" points="0,-0.5 0,-96.5 117,-96.5 117,-0.5 0,-0.5"/>
<text text-anchor="middle" x="58.5" y="-86.1" font-family="Helvetica,sans-Serif" font-size="8.00">project.pc.net.ServerThread</text>
<polyline fill="none" stroke="black" points="0,-79.5 117,-79.5 "/>
<text text-anchor="middle" x="58.5" y="-69.1" font-family="Helvetica,sans-Serif" font-size="8.00"> </text>
<polyline fill="none" stroke="black" points="0,-62.5 117,-62.5 "/>
<text text-anchor="start" x="8" y="-52.1" font-family="Helvetica,sans-Serif" font-size="8.00">+ getDialog()</text>
<text text-anchor="start" x="8" y="-43.1" font-family="Helvetica,sans-Serif" font-size="8.00">+ run()</text>
<text text-anchor="start" x="8" y="-34.1" font-family="Helvetica,sans-Serif" font-size="8.00">+ setDialog()</text>
<text text-anchor="start" x="8" y="-25.1" font-family="Helvetica,sans-Serif" font-size="8.00">~ ServerThread()</text>
<text text-anchor="start" x="8" y="-16.1" font-family="Helvetica,sans-Serif" font-size="8.00">~ getTimeout()</text>
<text text-anchor="start" x="8" y="-7.1" font-family="Helvetica,sans-Serif" font-size="8.00">~ setStopFlag()</text>
</g>
<!-- Node1 -->
<g id="node2" class="node"><title>Node1</title>
<polygon fill="white" stroke="#bfbfbf" points="33,-133.5 33,-184.5 84,-184.5 84,-133.5 33,-133.5"/>
<text text-anchor="middle" x="58.5" y="-174.1" font-family="Helvetica,sans-Serif" font-size="8.00">Runnable</text>
<polyline fill="none" stroke="#bfbfbf" points="33,-167.5 84,-167.5 "/>
<text text-anchor="middle" x="58.5" y="-157.1" font-family="Helvetica,sans-Serif" font-size="8.00"> </text>
<polyline fill="none" stroke="#bfbfbf" points="33,-150.5 84,-150.5 "/>
<text text-anchor="middle" x="58.5" y="-140.1" font-family="Helvetica,sans-Serif" font-size="8.00"> </text>
</g>
<!-- Node1&#45;&gt;Node0 -->
<g id="edge1" class="edge"><title>Node1&#45;&gt;Node0</title>
<path fill="none" stroke="midnightblue" d="M58.5,-123.158C58.5,-114.726 58.5,-105.573 58.5,-96.6779"/>
<polygon fill="none" stroke="midnightblue" points="55.0001,-123.38 58.5,-133.38 62.0001,-123.38 55.0001,-123.38"/>
</g>
</g>
</svg>
