<?xml version="1.0" encoding="UTF-8" standalone="no"?>
<!DOCTYPE svg PUBLIC "-//W3C//DTD SVG 1.1//EN"
 "http://www.w3.org/Graphics/SVG/1.1/DTD/svg11.dtd">
<!-- Generated by graphviz version 2.38.0 (20140413.2041)
 -->
<!-- Title: project.pc.net.NetworkThread.run Pages: 1 -->
<svg width="475pt" height="35pt"
 viewBox="0.00 0.00 475.00 35.00" xmlns="http://www.w3.org/2000/svg" xmlns:xlink="http://www.w3.org/1999/xlink">
<g id="graph0" class="graph" transform="scale(1 1) rotate(0) translate(4 31)">
<title>project.pc.net.NetworkThread.run</title>
<polygon fill="white" stroke="none" points="-4,4 -4,-31 471,-31 471,4 -4,4"/>
<!-- Node2 -->
<g id="node1" class="node"><title>Node2</title>
<polygon fill="#bfbfbf" stroke="black" points="0,-5 0,-22 137,-22 137,-5 0,-5"/>
<text text-anchor="middle" x="68.5" y="-11.6" font-family="Helvetica,sans-Serif" font-size="8.00">project.pc.net.NetworkThread.run</text>
</g>
<!-- Node3 -->
<g id="node2" class="node"><title>Node3</title>
<g id="a_node2"><a xlink:href="../../d9/d47/a00129.html#af39b8e1bff9c55e0feb196be7dd63814" target="_top" xlink:title="Method to start server. ">
<polygon fill="white" stroke="black" points="173,-0.5 173,-26.5 320,-26.5 320,-0.5 173,-0.5"/>
<text text-anchor="start" x="181" y="-16.1" font-family="Helvetica,sans-Serif" font-size="8.00">project.pc.net.NetworkManager.start</text>
<text text-anchor="middle" x="246.5" y="-7.1" font-family="Helvetica,sans-Serif" font-size="8.00">Server</text>
</a>
</g>
</g>
<!-- Node2&#45;&gt;Node3 -->
<g id="edge1" class="edge"><title>Node2&#45;&gt;Node3</title>
<path fill="none" stroke="midnightblue" d="M137.043,-13.5C145.474,-13.5 154.169,-13.5 162.797,-13.5"/>
<polygon fill="midnightblue" stroke="midnightblue" points="162.874,-17.0001 172.874,-13.5 162.874,-10.0001 162.874,-17.0001"/>
</g>
<!-- Node4 -->
<g id="node3" class="node"><title>Node4</title>
<g id="a_node3"><a xlink:href="../../d5/d4e/a00141.html#a47d01e582fdfd69b05248ca8eb5f5ea3" target="_top" xlink:title="Listens continuously on the TCP PORT. ">
<polygon fill="white" stroke="black" points="356,-5 356,-22 467,-22 467,-5 356,-5"/>
<text text-anchor="middle" x="411.5" y="-11.6" font-family="Helvetica,sans-Serif" font-size="8.00">project.pc.net.Server.listen</text>
</a>
</g>
</g>
<!-- Node3&#45;&gt;Node4 -->
<g id="edge2" class="edge"><title>Node3&#45;&gt;Node4</title>
<path fill="none" stroke="midnightblue" d="M320.418,-13.5C328.855,-13.5 337.416,-13.5 345.734,-13.5"/>
<polygon fill="midnightblue" stroke="midnightblue" points="345.734,-17.0001 355.734,-13.5 345.734,-10.0001 345.734,-17.0001"/>
</g>
</g>
</svg>
