<?xml version="1.0" encoding="UTF-8" standalone="no"?>
<!DOCTYPE svg PUBLIC "-//W3C//DTD SVG 1.1//EN"
 "http://www.w3.org/Graphics/SVG/1.1/DTD/svg11.dtd">
<!-- Generated by graphviz version 2.38.0 (20140413.2041)
 -->
<!-- Title: project.pc.sensor.representation.Vector3f.getY Pages: 1 -->
<!--zoomable 302 -->
<svg id="main" version="1.1" xmlns="http://www.w3.org/2000/svg" xmlns:xlink="http://www.w3.org/1999/xlink" xml:space="preserve" onload="init(evt)">
<style type="text/css"><![CDATA[
.edge:hover path { stroke: red; }
.edge:hover polygon { stroke: red; fill: red; }
]]></style>
<script type="text/javascript"><![CDATA[
var edges = document.getElementsByTagName('g');
if (edges && edges.length) {
  for (var i=0;i<edges.length;i++) {
    if (edges[i].id.substr(0,4)=='edge') {
      edges[i].setAttribute('class','edge');
    }
  }
}
]]></script>
        <defs>
                <circle id="rim" cx="0" cy="0" r="7"/>
                <circle id="rim2" cx="0" cy="0" r="3.5"/>
                <g id="zoomPlus">
                        <use xlink:href="#rim" fill="#404040">
                                <set attributeName="fill" to="#808080" begin="zoomplus.mouseover" end="zoomplus.mouseout"/>
                        </use>
                        <path d="M-4,0h8M0,-4v8" fill="none" stroke="white" stroke-width="1.5" pointer-events="none"/>
                </g>
                <g id="zoomMin">
                        <use xlink:href="#rim" fill="#404040">
                                <set attributeName="fill" to="#808080" begin="zoomminus.mouseover" end="zoomminus.mouseout"/>
                        </use>
                        <path d="M-4,0h8" fill="none" stroke="white" stroke-width="1.5" pointer-events="none"/>
                </g>
                <g id="dirArrow">
                        <path fill="none" stroke="white" stroke-width="1.5" d="M0,-3.0v7 M-2.5,-0.5L0,-3.0L2.5,-0.5"/>
                </g>
               <g id="resetDef">
                       <use xlink:href="#rim2" fill="#404040">
                               <set attributeName="fill" to="#808080" begin="reset.mouseover" end="reset.mouseout"/>
                       </use>
               </g>
        </defs>

<script type="text/javascript">
var viewWidth = 846;
var viewHeight = 302;
var sectionId = 'dynsection-6';
</script>
<script xlink:href="../../svgpan.js"/>
<svg id="graph" class="graph">
<g id="viewport">
<title>project.pc.sensor.representation.Vector3f.getY</title>
<polygon fill="white" stroke="none" points="-4,4 -4,-298 842,-298 842,4 -4,4"/>
<!-- Node32 -->
<g id="node1" class="node"><title>Node32</title>
<polygon fill="#bfbfbf" stroke="black" points="0,-151.5 0,-177.5 134,-177.5 134,-151.5 0,-151.5"/>
<text text-anchor="start" x="8" y="-167.1" font-family="Helvetica,sans-Serif" font-size="8.00">project.pc.sensor.representation.</text>
<text text-anchor="middle" x="67" y="-158.1" font-family="Helvetica,sans-Serif" font-size="8.00">Vector3f.getY</text>
</g>
<!-- Node33 -->
<g id="node2" class="node"><title>Node33</title>
<g id="a_node2"><a xlink:href="../../d7/d3f/a00173.html#a8080165fcc9bcca528eb672a1e15ec96" target="_top" xlink:title="Returns a String representing this Quaternion. ">
<polygon fill="white" stroke="black" points="341,-129.5 341,-155.5 475,-155.5 475,-129.5 341,-129.5"/>
<text text-anchor="start" x="349" y="-145.1" font-family="Helvetica,sans-Serif" font-size="8.00">project.pc.sensor.representation.</text>
<text text-anchor="middle" x="408" y="-136.1" font-family="Helvetica,sans-Serif" font-size="8.00">Quaternion.toString</text>
</a>
</g>
</g>
<!-- Node32&#45;&gt;Node33 -->
<g id="edge1" class="edge"><title>Node32&#45;&gt;Node33</title>
<path fill="none" stroke="midnightblue" d="M89.3991,-144.673C108.785,-128.163 138.987,-105.89 170,-96.5 227,-79.2417 245.753,-84.0843 304,-96.5 333.497,-102.787 364.779,-118.157 385.024,-129.406"/>
<polygon fill="midnightblue" stroke="midnightblue" points="87.0003,-142.122 81.782,-151.342 91.6114,-147.388 87.0003,-142.122"/>
</g>
<!-- Node34 -->
<g id="node3" class="node"><title>Node34</title>
<g id="a_node3"><a xlink:href="../../d7/d3f/a00173.html#a8a6671613dce4e8f950f2a51d4ba31c0" target="_top" xlink:title="Rotates a 3&#45;D vector by this Quaternion. ">
<polygon fill="white" stroke="black" points="170,-235.5 170,-261.5 304,-261.5 304,-235.5 170,-235.5"/>
<text text-anchor="start" x="178" y="-251.1" font-family="Helvetica,sans-Serif" font-size="8.00">project.pc.sensor.representation.</text>
<text text-anchor="middle" x="237" y="-242.1" font-family="Helvetica,sans-Serif" font-size="8.00">Quaternion.rotateVector</text>
</a>
</g>
</g>
<!-- Node32&#45;&gt;Node34 -->
<g id="edge2" class="edge"><title>Node32&#45;&gt;Node34</title>
<path fill="none" stroke="midnightblue" d="M99.0256,-182.599C119.021,-193.996 145.727,-208.725 170,-220.5 180.751,-225.715 192.72,-230.957 203.481,-235.471"/>
<polygon fill="midnightblue" stroke="midnightblue" points="100.76,-179.558 90.3438,-177.619 97.277,-185.631 100.76,-179.558"/>
</g>
<!-- Node35 -->
<g id="node4" class="node"><title>Node35</title>
<g id="a_node4"><a xlink:href="../../de/df3/a00185.html#ab05bb45ac0b4f0a4b9024959af5e8f1a" target="_top" xlink:title="Constructor. ">
<polygon fill="white" stroke="black" points="340,-267.5 340,-293.5 476,-293.5 476,-267.5 340,-267.5"/>
<text text-anchor="start" x="348" y="-283.1" font-family="Helvetica,sans-Serif" font-size="8.00">project.pc.sensor.Sensor</text>
<text text-anchor="middle" x="408" y="-274.1" font-family="Helvetica,sans-Serif" font-size="8.00">DataHandler.SensorDataHandler</text>
</a>
</g>
</g>
<!-- Node32&#45;&gt;Node35 -->
<g id="edge13" class="edge"><title>Node32&#45;&gt;Node35</title>
<path fill="none" stroke="midnightblue" d="M81.301,-186.491C98.2567,-212.212 130.202,-253.553 170,-271.5 223.394,-295.578 290.627,-295.676 339.832,-291.01"/>
<polygon fill="midnightblue" stroke="midnightblue" points="84.0784,-184.337 75.7456,-177.794 78.1792,-188.106 84.0784,-184.337"/>
</g>
<!-- Node36 -->
<g id="node5" class="node"><title>Node36</title>
<g id="a_node5"><a xlink:href="../../de/df3/a00185.html#ada934d56bb8ee100d1b467f16be30885" target="_top" xlink:title="Determines pointer location from current Quaternion object. ">
<polygon fill="white" stroke="black" points="350,-203.5 350,-229.5 466,-229.5 466,-203.5 350,-203.5"/>
<text text-anchor="start" x="358" y="-219.1" font-family="Helvetica,sans-Serif" font-size="8.00">project.pc.sensor.Sensor</text>
<text text-anchor="middle" x="408" y="-210.1" font-family="Helvetica,sans-Serif" font-size="8.00">DataHandler.pointerUpdate</text>
</a>
</g>
</g>
<!-- Node32&#45;&gt;Node36 -->
<g id="edge14" class="edge"><title>Node32&#45;&gt;Node36</title>
<path fill="none" stroke="midnightblue" d="M134.1,-179.628C146.016,-182.106 158.351,-184.51 170,-186.5 231.119,-196.939 301.679,-205.417 349.809,-210.664"/>
<polygon fill="midnightblue" stroke="midnightblue" points="134.722,-176.182 124.214,-177.536 133.273,-183.03 134.722,-176.182"/>
</g>
<!-- Node39 -->
<g id="node8" class="node"><title>Node39</title>
<g id="a_node8"><a xlink:href="../../d8/d64/a00181.html#ac2b29e7dca2ed61db349156364face88" target="_top" xlink:title="Constructor. ">
<polygon fill="white" stroke="black" points="170,-106.5 170,-132.5 304,-132.5 304,-106.5 170,-106.5"/>
<text text-anchor="start" x="178" y="-122.1" font-family="Helvetica,sans-Serif" font-size="8.00">project.pc.sensor.representation.</text>
<text text-anchor="middle" x="237" y="-113.1" font-family="Helvetica,sans-Serif" font-size="8.00">Vector4f.Vector4f</text>
</a>
</g>
</g>
<!-- Node32&#45;&gt;Node39 -->
<g id="edge7" class="edge"><title>Node32&#45;&gt;Node39</title>
<path fill="none" stroke="midnightblue" d="M126.443,-148.846C146.282,-143.532 168.223,-137.655 187.226,-132.564"/>
<polygon fill="midnightblue" stroke="midnightblue" points="125.346,-145.516 116.593,-151.484 127.158,-152.278 125.346,-145.516"/>
</g>
<!-- Node40 -->
<g id="node9" class="node"><title>Node40</title>
<g id="a_node9"><a xlink:href="../../d8/d64/a00181.html#aa4cbf79fc5af52ed0ca437bf7f0722d2" target="_top" xlink:title="Copies another Vector4f to this one. ">
<polygon fill="white" stroke="black" points="170,-22.5 170,-48.5 304,-48.5 304,-22.5 170,-22.5"/>
<text text-anchor="start" x="178" y="-38.1" font-family="Helvetica,sans-Serif" font-size="8.00">project.pc.sensor.representation.</text>
<text text-anchor="middle" x="237" y="-29.1" font-family="Helvetica,sans-Serif" font-size="8.00">Vector4f.copyVec4</text>
</a>
</g>
</g>
<!-- Node32&#45;&gt;Node40 -->
<g id="edge8" class="edge"><title>Node32&#45;&gt;Node40</title>
<path fill="none" stroke="midnightblue" d="M84.8862,-143.582C103.727,-121.333 136.05,-86.2735 170,-63.5 178.683,-57.6757 188.773,-52.6589 198.413,-48.5468"/>
<polygon fill="midnightblue" stroke="midnightblue" points="82.0607,-141.505 78.3502,-151.429 87.4394,-145.985 82.0607,-141.505"/>
</g>
<!-- Node43 -->
<g id="node12" class="node"><title>Node43</title>
<g id="a_node12"><a xlink:href="../../d8/d64/a00181.html#a656119fae3c21e9123357636d5673d86" target="_top" xlink:title="Copies a Vector3f to this Vector4f using a separate value for W&#45;dimension. ">
<polygon fill="white" stroke="black" points="170,-151.5 170,-177.5 304,-177.5 304,-151.5 170,-151.5"/>
<text text-anchor="start" x="178" y="-167.1" font-family="Helvetica,sans-Serif" font-size="8.00">project.pc.sensor.representation.</text>
<text text-anchor="middle" x="237" y="-158.1" font-family="Helvetica,sans-Serif" font-size="8.00">Vector4f.copyFromV3f</text>
</a>
</g>
</g>
<!-- Node32&#45;&gt;Node43 -->
<g id="edge11" class="edge"><title>Node32&#45;&gt;Node43</title>
<path fill="none" stroke="midnightblue" d="M144.595,-164.5C153.013,-164.5 161.532,-164.5 169.809,-164.5"/>
<polygon fill="midnightblue" stroke="midnightblue" points="144.398,-161 134.398,-164.5 144.398,-168 144.398,-161"/>
</g>
<!-- Node34&#45;&gt;Node35 -->
<g id="edge3" class="edge"><title>Node34&#45;&gt;Node35</title>
<path fill="none" stroke="midnightblue" d="M314.233,-262.935C322.75,-264.547 331.38,-266.181 339.772,-267.771"/>
<polygon fill="midnightblue" stroke="midnightblue" points="314.785,-259.477 304.308,-261.055 313.482,-266.355 314.785,-259.477"/>
</g>
<!-- Node34&#45;&gt;Node36 -->
<g id="edge4" class="edge"><title>Node34&#45;&gt;Node36</title>
<path fill="none" stroke="midnightblue" d="M314.295,-234.054C326.272,-231.786 338.47,-229.476 349.916,-227.309"/>
<polygon fill="midnightblue" stroke="midnightblue" points="313.482,-230.645 304.308,-235.945 314.785,-237.523 313.482,-230.645"/>
</g>
<!-- Node37 -->
<g id="node6" class="node"><title>Node37</title>
<g id="a_node6"><a xlink:href="../../d1/d84/a00097.html#ab76fce85b9d26d9601b0cc113d524bd6" target="_top" xlink:title="Method to perform mouse move on the basis of 3&#45;D input from the mobile device. ">
<polygon fill="white" stroke="black" points="512,-208 512,-225 671,-225 671,-208 512,-208"/>
<text text-anchor="middle" x="591.5" y="-214.6" font-family="Helvetica,sans-Serif" font-size="8.00">project.pc.device.MouseController.move</text>
</a>
</g>
</g>
<!-- Node36&#45;&gt;Node37 -->
<g id="edge5" class="edge"><title>Node36&#45;&gt;Node37</title>
<path fill="none" stroke="midnightblue" d="M476.77,-216.5C488.217,-216.5 500.186,-216.5 511.881,-216.5"/>
<polygon fill="midnightblue" stroke="midnightblue" points="476.428,-213 466.428,-216.5 476.428,-220 476.428,-213"/>
</g>
<!-- Node38 -->
<g id="node7" class="node"><title>Node38</title>
<g id="a_node7"><a xlink:href="../../da/d1e/a00149.html#a6262e65e0cfc1e2830af1ab11eabf116" target="_top" xlink:title="Performs operations for communication with a client. ">
<polygon fill="white" stroke="black" points="707,-208 707,-225 838,-225 838,-208 707,-208"/>
<text text-anchor="middle" x="772.5" y="-214.6" font-family="Helvetica,sans-Serif" font-size="8.00">project.pc.net.ServerThread.run</text>
</a>
</g>
</g>
<!-- Node37&#45;&gt;Node38 -->
<g id="edge6" class="edge"><title>Node37&#45;&gt;Node38</title>
<path fill="none" stroke="midnightblue" d="M681.121,-216.5C689.754,-216.5 698.397,-216.5 706.73,-216.5"/>
<polygon fill="midnightblue" stroke="midnightblue" points="681.012,-213 671.012,-216.5 681.012,-220 681.012,-213"/>
</g>
<!-- Node41 -->
<g id="node10" class="node"><title>Node41</title>
<g id="a_node10"><a xlink:href="../../d7/d3f/a00173.html#a5f8b12122f1991e0d0d7d038c715172f" target="_top" xlink:title="Copies the values from the given Quaternion to this one. ">
<polygon fill="white" stroke="black" points="341,-0.5 341,-26.5 475,-26.5 475,-0.5 341,-0.5"/>
<text text-anchor="start" x="349" y="-16.1" font-family="Helvetica,sans-Serif" font-size="8.00">project.pc.sensor.representation.</text>
<text text-anchor="middle" x="408" y="-7.1" font-family="Helvetica,sans-Serif" font-size="8.00">Quaternion.set</text>
</a>
</g>
</g>
<!-- Node40&#45;&gt;Node41 -->
<g id="edge9" class="edge"><title>Node40&#45;&gt;Node41</title>
<path fill="none" stroke="midnightblue" d="M314.264,-25.5721C323.147,-24.4158 332.153,-23.2434 340.883,-22.1069"/>
<polygon fill="midnightblue" stroke="midnightblue" points="313.773,-22.1065 304.308,-26.8682 314.676,-29.0479 313.773,-22.1065"/>
</g>
<!-- Node42 -->
<g id="node11" class="node"><title>Node42</title>
<g id="a_node11"><a xlink:href="../../d7/d3f/a00173.html#a4c2f6e25f0ebc2e3deecfad8d16a6a41" target="_top" xlink:title="Multiplies this Quaternion by the input one. ">
<polygon fill="white" stroke="black" points="341,-45.5 341,-71.5 475,-71.5 475,-45.5 341,-45.5"/>
<text text-anchor="start" x="349" y="-61.1" font-family="Helvetica,sans-Serif" font-size="8.00">project.pc.sensor.representation.</text>
<text text-anchor="middle" x="408" y="-52.1" font-family="Helvetica,sans-Serif" font-size="8.00">Quaternion.multiplyByQuat</text>
</a>
</g>
</g>
<!-- Node40&#45;&gt;Node42 -->
<g id="edge10" class="edge"><title>Node40&#45;&gt;Node42</title>
<path fill="none" stroke="midnightblue" d="M314.264,-45.8791C323.147,-47.0881 332.153,-48.3137 340.883,-49.5018"/>
<polygon fill="midnightblue" stroke="midnightblue" points="314.689,-42.4048 304.308,-44.5242 313.745,-49.3408 314.689,-42.4048"/>
</g>
<!-- Node43&#45;&gt;Node33 -->
<g id="edge12" class="edge"><title>Node43&#45;&gt;Node33</title>
<path fill="none" stroke="midnightblue" d="M314.264,-154.572C323.147,-153.416 332.153,-152.243 340.883,-151.107"/>
<polygon fill="midnightblue" stroke="midnightblue" points="313.773,-151.106 304.308,-155.868 314.676,-158.048 313.773,-151.106"/>
</g>
</g>
</svg>
        <g id="navigator" transform="translate(0 0)" fill="#404254">
                <rect fill="#f2f5e9" fill-opacity="0.5" stroke="#606060" stroke-width=".5" x="0" y="0" width="60" height="60"/>
                <use id="zoomplus" xlink:href="#zoomPlus" x="17" y="9" onmousedown="handleZoom(evt,'in')"/>
                <use id="zoomminus" xlink:href="#zoomMin" x="42" y="9" onmousedown="handleZoom(evt,'out')"/>
                <use id="reset" xlink:href="#resetDef" x="30" y="36" onmousedown="handleReset()"/>
                <g id="arrowUp" xlink:href="#dirArrow" transform="translate(30 24)" onmousedown="handlePan(0,-1)">
                  <use xlink:href="#rim" fill="#404040">
                        <set attributeName="fill" to="#808080" begin="arrowUp.mouseover" end="arrowUp.mouseout"/>
                  </use>
                  <path fill="none" stroke="white" stroke-width="1.5" d="M0,-3.0v7 M-2.5,-0.5L0,-3.0L2.5,-0.5"/>
                </g>
                <g id="arrowRight" xlink:href="#dirArrow" transform="rotate(90) translate(36 -43)" onmousedown="handlePan(1,0)">
                  <use xlink:href="#rim" fill="#404040">
                        <set attributeName="fill" to="#808080" begin="arrowRight.mouseover" end="arrowRight.mouseout"/>
                  </use>
                  <path fill="none" stroke="white" stroke-width="1.5" d="M0,-3.0v7 M-2.5,-0.5L0,-3.0L2.5,-0.5"/>
                </g>
                <g id="arrowDown" xlink:href="#dirArrow" transform="rotate(180) translate(-30 -48)" onmousedown="handlePan(0,1)">
                  <use xlink:href="#rim" fill="#404040">
                        <set attributeName="fill" to="#808080" begin="arrowDown.mouseover" end="arrowDown.mouseout"/>
                  </use>
                  <path fill="none" stroke="white" stroke-width="1.5" d="M0,-3.0v7 M-2.5,-0.5L0,-3.0L2.5,-0.5"/>
                </g>
                <g id="arrowLeft" xlink:href="#dirArrow" transform="rotate(270) translate(-36 17)" onmousedown="handlePan(-1,0)">
                  <use xlink:href="#rim" fill="#404040">
                        <set attributeName="fill" to="#808080" begin="arrowLeft.mouseover" end="arrowLeft.mouseout"/>
                  </use>
                  <path fill="none" stroke="white" stroke-width="1.5" d="M0,-3.0v7 M-2.5,-0.5L0,-3.0L2.5,-0.5"/>
                </g>
        </g>
        <svg viewBox="0 0 15 15" width="100%" height="30px" preserveAspectRatio="xMaxYMin meet">
         <g id="arrow_out" transform="scale(0.3 0.3)">
          <a xlink:href="a00177_af1f7d78724c9d942780ff7d2f67a8cd8_icgraph_org.svg" target="_base">
           <rect id="button" ry="5" rx="5" y="6" x="6" height="38" width="38"
                fill="#f2f5e9" fill-opacity="0.5" stroke="#606060" stroke-width="1.0"/>
           <path id="arrow"
             d="M 11.500037,31.436501 C 11.940474,20.09759 22.043105,11.32322 32.158766,21.979434 L 37.068811,17.246167 C 37.068811,17.246167 37.088388,32 37.088388,32 L 22.160133,31.978069 C 22.160133,31.978069 26.997745,27.140456 26.997745,27.140456 C 18.528582,18.264221 13.291696,25.230495 11.500037,31.436501 z"
             style="fill:#404040;"/>
          </a>
         </g>
        </svg>
</svg>
