<?xml version="1.0" encoding="UTF-8" standalone="no"?>
<!DOCTYPE svg PUBLIC "-//W3C//DTD SVG 1.1//EN"
 "http://www.w3.org/Graphics/SVG/1.1/DTD/svg11.dtd">
<!-- Generated by graphviz version 2.38.0 (20140413.2041)
 -->
<!-- Title: project.pc.sensor.representation.Vector3f.getZ Pages: 1 -->
<!--zoomable 246 -->
<svg id="main" version="1.1" xmlns="http://www.w3.org/2000/svg" xmlns:xlink="http://www.w3.org/1999/xlink" xml:space="preserve" onload="init(evt)">
<style type="text/css"><![CDATA[
.edge:hover path { stroke: red; }
.edge:hover polygon { stroke: red; fill: red; }
]]></style>
<script type="text/javascript"><![CDATA[
var edges = document.getElementsByTagName('g');
if (edges && edges.length) {
  for (var i=0;i<edges.length;i++) {
    if (edges[i].id.substr(0,4)=='edge') {
      edges[i].setAttribute('class','edge');
    }
  }
}
]]></script>
        <defs>
                <circle id="rim" cx="0" cy="0" r="7"/>
                <circle id="rim2" cx="0" cy="0" r="3.5"/>
                <g id="zoomPlus">
                        <use xlink:href="#rim" fill="#404040">
                                <set attributeName="fill" to="#808080" begin="zoomplus.mouseover" end="zoomplus.mouseout"/>
                        </use>
                        <path d="M-4,0h8M0,-4v8" fill="none" stroke="white" stroke-width="1.5" pointer-events="none"/>
                </g>
                <g id="zoomMin">
                        <use xlink:href="#rim" fill="#404040">
                                <set attributeName="fill" to="#808080" begin="zoomminus.mouseover" end="zoomminus.mouseout"/>
                        </use>
                        <path d="M-4,0h8" fill="none" stroke="white" stroke-width="1.5" pointer-events="none"/>
                </g>
                <g id="dirArrow">
                        <path fill="none" stroke="white" stroke-width="1.5" d="M0,-3.0v7 M-2.5,-0.5L0,-3.0L2.5,-0.5"/>
                </g>
               <g id="resetDef">
                       <use xlink:href="#rim2" fill="#404040">
                               <set attributeName="fill" to="#808080" begin="reset.mouseover" end="reset.mouseout"/>
                       </use>
               </g>
        </defs>

<script type="text/javascript">
var viewWidth = 846;
var viewHeight = 246;
var sectionId = 'dynsection-7';
</script>
<script xlink:href="../../svgpan.js"/>
<svg id="graph" class="graph">
<g id="viewport">
<title>project.pc.sensor.representation.Vector3f.getZ</title>
<polygon fill="white" stroke="none" points="-4,4 -4,-242 842,-242 842,4 -4,4"/>
<!-- Node45 -->
<g id="node1" class="node"><title>Node45</title>
<polygon fill="#bfbfbf" stroke="black" points="0,-93.5 0,-119.5 134,-119.5 134,-93.5 0,-93.5"/>
<text text-anchor="start" x="8" y="-109.1" font-family="Helvetica,sans-Serif" font-size="8.00">project.pc.sensor.representation.</text>
<text text-anchor="middle" x="67" y="-100.1" font-family="Helvetica,sans-Serif" font-size="8.00">Vector3f.getZ</text>
</g>
<!-- Node46 -->
<g id="node2" class="node"><title>Node46</title>
<g id="a_node2"><a xlink:href="../../d7/d3f/a00173.html#a8080165fcc9bcca528eb672a1e15ec96" target="_top" xlink:title="Returns a String representing this Quaternion. ">
<polygon fill="white" stroke="black" points="341,-111.5 341,-137.5 475,-137.5 475,-111.5 341,-111.5"/>
<text text-anchor="start" x="349" y="-127.1" font-family="Helvetica,sans-Serif" font-size="8.00">project.pc.sensor.representation.</text>
<text text-anchor="middle" x="408" y="-118.1" font-family="Helvetica,sans-Serif" font-size="8.00">Quaternion.toString</text>
</a>
</g>
</g>
<!-- Node45&#45;&gt;Node46 -->
<g id="edge1" class="edge"><title>Node45&#45;&gt;Node46</title>
<path fill="none" stroke="midnightblue" d="M128.04,-121.665C141.742,-124.506 156.302,-127.04 170,-128.5 227.492,-134.63 293.265,-132.826 340.912,-129.951"/>
<polygon fill="midnightblue" stroke="midnightblue" points="128.753,-118.238 118.24,-119.553 127.278,-125.081 128.753,-118.238"/>
</g>
<!-- Node47 -->
<g id="node3" class="node"><title>Node47</title>
<g id="a_node3"><a xlink:href="../../d7/d3f/a00173.html#a8a6671613dce4e8f950f2a51d4ba31c0" target="_top" xlink:title="Rotates a 3&#45;D vector by this Quaternion. ">
<polygon fill="white" stroke="black" points="170,-177.5 170,-203.5 304,-203.5 304,-177.5 170,-177.5"/>
<text text-anchor="start" x="178" y="-193.1" font-family="Helvetica,sans-Serif" font-size="8.00">project.pc.sensor.representation.</text>
<text text-anchor="middle" x="237" y="-184.1" font-family="Helvetica,sans-Serif" font-size="8.00">Quaternion.rotateVector</text>
</a>
</g>
</g>
<!-- Node45&#45;&gt;Node47 -->
<g id="edge2" class="edge"><title>Node45&#45;&gt;Node47</title>
<path fill="none" stroke="midnightblue" d="M99.0256,-124.599C119.021,-135.996 145.727,-150.725 170,-162.5 180.751,-167.715 192.72,-172.957 203.481,-177.471"/>
<polygon fill="midnightblue" stroke="midnightblue" points="100.76,-121.558 90.3438,-119.619 97.277,-127.631 100.76,-121.558"/>
</g>
<!-- Node52 -->
<g id="node8" class="node"><title>Node52</title>
<g id="a_node8"><a xlink:href="../../d8/d64/a00181.html#ac2b29e7dca2ed61db349156364face88" target="_top" xlink:title="Constructor. ">
<polygon fill="white" stroke="black" points="170,-93.5 170,-119.5 304,-119.5 304,-93.5 170,-93.5"/>
<text text-anchor="start" x="178" y="-109.1" font-family="Helvetica,sans-Serif" font-size="8.00">project.pc.sensor.representation.</text>
<text text-anchor="middle" x="237" y="-100.1" font-family="Helvetica,sans-Serif" font-size="8.00">Vector4f.Vector4f</text>
</a>
</g>
</g>
<!-- Node45&#45;&gt;Node52 -->
<g id="edge7" class="edge"><title>Node45&#45;&gt;Node52</title>
<path fill="none" stroke="midnightblue" d="M144.595,-106.5C153.013,-106.5 161.532,-106.5 169.809,-106.5"/>
<polygon fill="midnightblue" stroke="midnightblue" points="144.398,-103 134.398,-106.5 144.398,-110 144.398,-103"/>
</g>
<!-- Node53 -->
<g id="node9" class="node"><title>Node53</title>
<g id="a_node9"><a xlink:href="../../d8/d64/a00181.html#aa4cbf79fc5af52ed0ca437bf7f0722d2" target="_top" xlink:title="Copies another Vector4f to this one. ">
<polygon fill="white" stroke="black" points="170,-3.5 170,-29.5 304,-29.5 304,-3.5 170,-3.5"/>
<text text-anchor="start" x="178" y="-19.1" font-family="Helvetica,sans-Serif" font-size="8.00">project.pc.sensor.representation.</text>
<text text-anchor="middle" x="237" y="-10.1" font-family="Helvetica,sans-Serif" font-size="8.00">Vector4f.copyVec4</text>
</a>
</g>
</g>
<!-- Node45&#45;&gt;Node53 -->
<g id="edge8" class="edge"><title>Node45&#45;&gt;Node53</title>
<path fill="none" stroke="midnightblue" d="M92.7111,-87.291C112.698,-72.4447 142.021,-52.184 170,-38.5 176.727,-35.2099 184.067,-32.2231 191.328,-29.5856"/>
<polygon fill="midnightblue" stroke="midnightblue" points="90.3671,-84.6748 84.4859,-93.4874 94.5791,-90.2658 90.3671,-84.6748"/>
</g>
<!-- Node56 -->
<g id="node12" class="node"><title>Node56</title>
<g id="a_node12"><a xlink:href="../../d8/d64/a00181.html#a656119fae3c21e9123357636d5673d86" target="_top" xlink:title="Copies a Vector3f to this Vector4f using a separate value for W&#45;dimension. ">
<polygon fill="white" stroke="black" points="170,-48.5 170,-74.5 304,-74.5 304,-48.5 170,-48.5"/>
<text text-anchor="start" x="178" y="-64.1" font-family="Helvetica,sans-Serif" font-size="8.00">project.pc.sensor.representation.</text>
<text text-anchor="middle" x="237" y="-55.1" font-family="Helvetica,sans-Serif" font-size="8.00">Vector4f.copyFromV3f</text>
</a>
</g>
</g>
<!-- Node45&#45;&gt;Node56 -->
<g id="edge11" class="edge"><title>Node45&#45;&gt;Node56</title>
<path fill="none" stroke="midnightblue" d="M126.443,-90.8455C146.282,-85.5316 168.223,-79.6547 187.226,-74.5645"/>
<polygon fill="midnightblue" stroke="midnightblue" points="125.346,-87.5159 116.593,-93.4841 127.158,-94.2775 125.346,-87.5159"/>
</g>
<!-- Node48 -->
<g id="node4" class="node"><title>Node48</title>
<g id="a_node4"><a xlink:href="../../de/df3/a00185.html#ab05bb45ac0b4f0a4b9024959af5e8f1a" target="_top" xlink:title="Constructor. ">
<polygon fill="white" stroke="black" points="340,-166.5 340,-192.5 476,-192.5 476,-166.5 340,-166.5"/>
<text text-anchor="start" x="348" y="-182.1" font-family="Helvetica,sans-Serif" font-size="8.00">project.pc.sensor.Sensor</text>
<text text-anchor="middle" x="408" y="-173.1" font-family="Helvetica,sans-Serif" font-size="8.00">DataHandler.SensorDataHandler</text>
</a>
</g>
</g>
<!-- Node47&#45;&gt;Node48 -->
<g id="edge3" class="edge"><title>Node47&#45;&gt;Node48</title>
<path fill="none" stroke="midnightblue" d="M314.511,-185.52C322.938,-184.972 331.471,-184.416 339.772,-183.876"/>
<polygon fill="midnightblue" stroke="midnightblue" points="314.06,-182.042 304.308,-186.184 314.514,-189.027 314.06,-182.042"/>
</g>
<!-- Node49 -->
<g id="node5" class="node"><title>Node49</title>
<g id="a_node5"><a xlink:href="../../de/df3/a00185.html#ada934d56bb8ee100d1b467f16be30885" target="_top" xlink:title="Determines pointer location from current Quaternion object. ">
<polygon fill="white" stroke="black" points="350,-211.5 350,-237.5 466,-237.5 466,-211.5 350,-211.5"/>
<text text-anchor="start" x="358" y="-227.1" font-family="Helvetica,sans-Serif" font-size="8.00">project.pc.sensor.Sensor</text>
<text text-anchor="middle" x="408" y="-218.1" font-family="Helvetica,sans-Serif" font-size="8.00">DataHandler.pointerUpdate</text>
</a>
</g>
</g>
<!-- Node47&#45;&gt;Node49 -->
<g id="edge4" class="edge"><title>Node47&#45;&gt;Node49</title>
<path fill="none" stroke="midnightblue" d="M312.738,-205.536C325.161,-208.035 337.869,-210.592 349.77,-212.986"/>
<polygon fill="midnightblue" stroke="midnightblue" points="313.35,-202.089 302.856,-203.548 311.97,-208.952 313.35,-202.089"/>
</g>
<!-- Node50 -->
<g id="node6" class="node"><title>Node50</title>
<g id="a_node6"><a xlink:href="../../d1/d84/a00097.html#ab76fce85b9d26d9601b0cc113d524bd6" target="_top" xlink:title="Method to perform mouse move on the basis of 3&#45;D input from the mobile device. ">
<polygon fill="white" stroke="black" points="512,-216 512,-233 671,-233 671,-216 512,-216"/>
<text text-anchor="middle" x="591.5" y="-222.6" font-family="Helvetica,sans-Serif" font-size="8.00">project.pc.device.MouseController.move</text>
</a>
</g>
</g>
<!-- Node49&#45;&gt;Node50 -->
<g id="edge5" class="edge"><title>Node49&#45;&gt;Node50</title>
<path fill="none" stroke="midnightblue" d="M476.77,-224.5C488.217,-224.5 500.186,-224.5 511.881,-224.5"/>
<polygon fill="midnightblue" stroke="midnightblue" points="476.428,-221 466.428,-224.5 476.428,-228 476.428,-221"/>
</g>
<!-- Node51 -->
<g id="node7" class="node"><title>Node51</title>
<g id="a_node7"><a xlink:href="../../da/d1e/a00149.html#a6262e65e0cfc1e2830af1ab11eabf116" target="_top" xlink:title="Performs operations for communication with a client. ">
<polygon fill="white" stroke="black" points="707,-216 707,-233 838,-233 838,-216 707,-216"/>
<text text-anchor="middle" x="772.5" y="-222.6" font-family="Helvetica,sans-Serif" font-size="8.00">project.pc.net.ServerThread.run</text>
</a>
</g>
</g>
<!-- Node50&#45;&gt;Node51 -->
<g id="edge6" class="edge"><title>Node50&#45;&gt;Node51</title>
<path fill="none" stroke="midnightblue" d="M681.121,-224.5C689.754,-224.5 698.397,-224.5 706.73,-224.5"/>
<polygon fill="midnightblue" stroke="midnightblue" points="681.012,-221 671.012,-224.5 681.012,-228 681.012,-221"/>
</g>
<!-- Node54 -->
<g id="node10" class="node"><title>Node54</title>
<g id="a_node10"><a xlink:href="../../d7/d3f/a00173.html#a5f8b12122f1991e0d0d7d038c715172f" target="_top" xlink:title="Copies the values from the given Quaternion to this one. ">
<polygon fill="white" stroke="black" points="341,-0.5 341,-26.5 475,-26.5 475,-0.5 341,-0.5"/>
<text text-anchor="start" x="349" y="-16.1" font-family="Helvetica,sans-Serif" font-size="8.00">project.pc.sensor.representation.</text>
<text text-anchor="middle" x="408" y="-7.1" font-family="Helvetica,sans-Serif" font-size="8.00">Quaternion.set</text>
</a>
</g>
</g>
<!-- Node53&#45;&gt;Node54 -->
<g id="edge9" class="edge"><title>Node53&#45;&gt;Node54</title>
<path fill="none" stroke="midnightblue" d="M314.551,-15.1411C323.341,-14.9851 332.246,-14.827 340.883,-14.6737"/>
<polygon fill="midnightblue" stroke="midnightblue" points="314.244,-11.6459 304.308,-15.3229 314.369,-18.6448 314.244,-11.6459"/>
</g>
<!-- Node55 -->
<g id="node11" class="node"><title>Node55</title>
<g id="a_node11"><a xlink:href="../../d7/d3f/a00173.html#a4c2f6e25f0ebc2e3deecfad8d16a6a41" target="_top" xlink:title="Multiplies this Quaternion by the input one. ">
<polygon fill="white" stroke="black" points="341,-45.5 341,-71.5 475,-71.5 475,-45.5 341,-45.5"/>
<text text-anchor="start" x="349" y="-61.1" font-family="Helvetica,sans-Serif" font-size="8.00">project.pc.sensor.representation.</text>
<text text-anchor="middle" x="408" y="-52.1" font-family="Helvetica,sans-Serif" font-size="8.00">Quaternion.multiplyByQuat</text>
</a>
</g>
</g>
<!-- Node53&#45;&gt;Node55 -->
<g id="edge10" class="edge"><title>Node53&#45;&gt;Node55</title>
<path fill="none" stroke="midnightblue" d="M300.275,-31.9765C318.088,-36.4036 337.32,-41.1831 354.486,-45.4492"/>
<polygon fill="midnightblue" stroke="midnightblue" points="301.095,-28.5741 290.546,-29.5588 299.407,-35.3674 301.095,-28.5741"/>
</g>
<!-- Node56&#45;&gt;Node46 -->
<g id="edge12" class="edge"><title>Node56&#45;&gt;Node46</title>
<path fill="none" stroke="midnightblue" d="M287.972,-77.8214C293.397,-79.6931 298.824,-81.6089 304,-83.5 328.224,-92.3505 355.309,-103.169 375.623,-111.471"/>
<polygon fill="midnightblue" stroke="midnightblue" points="288.859,-74.4263 278.265,-74.515 286.602,-81.0525 288.859,-74.4263"/>
</g>
</g>
</svg>
        <g id="navigator" transform="translate(0 0)" fill="#404254">
                <rect fill="#f2f5e9" fill-opacity="0.5" stroke="#606060" stroke-width=".5" x="0" y="0" width="60" height="60"/>
                <use id="zoomplus" xlink:href="#zoomPlus" x="17" y="9" onmousedown="handleZoom(evt,'in')"/>
                <use id="zoomminus" xlink:href="#zoomMin" x="42" y="9" onmousedown="handleZoom(evt,'out')"/>
                <use id="reset" xlink:href="#resetDef" x="30" y="36" onmousedown="handleReset()"/>
                <g id="arrowUp" xlink:href="#dirArrow" transform="translate(30 24)" onmousedown="handlePan(0,-1)">
                  <use xlink:href="#rim" fill="#404040">
                        <set attributeName="fill" to="#808080" begin="arrowUp.mouseover" end="arrowUp.mouseout"/>
                  </use>
                  <path fill="none" stroke="white" stroke-width="1.5" d="M0,-3.0v7 M-2.5,-0.5L0,-3.0L2.5,-0.5"/>
                </g>
                <g id="arrowRight" xlink:href="#dirArrow" transform="rotate(90) translate(36 -43)" onmousedown="handlePan(1,0)">
                  <use xlink:href="#rim" fill="#404040">
                        <set attributeName="fill" to="#808080" begin="arrowRight.mouseover" end="arrowRight.mouseout"/>
                  </use>
                  <path fill="none" stroke="white" stroke-width="1.5" d="M0,-3.0v7 M-2.5,-0.5L0,-3.0L2.5,-0.5"/>
                </g>
                <g id="arrowDown" xlink:href="#dirArrow" transform="rotate(180) translate(-30 -48)" onmousedown="handlePan(0,1)">
                  <use xlink:href="#rim" fill="#404040">
                        <set attributeName="fill" to="#808080" begin="arrowDown.mouseover" end="arrowDown.mouseout"/>
                  </use>
                  <path fill="none" stroke="white" stroke-width="1.5" d="M0,-3.0v7 M-2.5,-0.5L0,-3.0L2.5,-0.5"/>
                </g>
                <g id="arrowLeft" xlink:href="#dirArrow" transform="rotate(270) translate(-36 17)" onmousedown="handlePan(-1,0)">
                  <use xlink:href="#rim" fill="#404040">
                        <set attributeName="fill" to="#808080" begin="arrowLeft.mouseover" end="arrowLeft.mouseout"/>
                  </use>
                  <path fill="none" stroke="white" stroke-width="1.5" d="M0,-3.0v7 M-2.5,-0.5L0,-3.0L2.5,-0.5"/>
                </g>
        </g>
        <svg viewBox="0 0 15 15" width="100%" height="30px" preserveAspectRatio="xMaxYMin meet">
         <g id="arrow_out" transform="scale(0.3 0.3)">
          <a xlink:href="a00177_a5fe713af4beb1b2632472b75517dcb88_icgraph_org.svg" target="_base">
           <rect id="button" ry="5" rx="5" y="6" x="6" height="38" width="38"
                fill="#f2f5e9" fill-opacity="0.5" stroke="#606060" stroke-width="1.0"/>
           <path id="arrow"
             d="M 11.500037,31.436501 C 11.940474,20.09759 22.043105,11.32322 32.158766,21.979434 L 37.068811,17.246167 C 37.068811,17.246167 37.088388,32 37.088388,32 L 22.160133,31.978069 C 22.160133,31.978069 26.997745,27.140456 26.997745,27.140456 C 18.528582,18.264221 13.291696,25.230495 11.500037,31.436501 z"
             style="fill:#404040;"/>
          </a>
         </g>
        </svg>
</svg>
