<?xml version="1.0" encoding="UTF-8" standalone="no"?>
<!DOCTYPE svg PUBLIC "-//W3C//DTD SVG 1.1//EN"
 "http://www.w3.org/Graphics/SVG/1.1/DTD/svg11.dtd">
<!-- Generated by graphviz version 2.38.0 (20140413.2041)
 -->
<!-- Title: project.pc.sensor.representation.Vector3f.dotProduct Pages: 1 -->
<svg width="312pt" height="125pt"
 viewBox="0.00 0.00 312.00 125.00" xmlns="http://www.w3.org/2000/svg" xmlns:xlink="http://www.w3.org/1999/xlink">
<g id="graph0" class="graph" transform="scale(1 1) rotate(0) translate(4 121)">
<title>project.pc.sensor.representation.Vector3f.dotProduct</title>
<polygon fill="white" stroke="none" points="-4,4 -4,-121 308,-121 308,4 -4,4"/>
<!-- Node13 -->
<g id="node1" class="node"><title>Node13</title>
<polygon fill="#bfbfbf" stroke="black" points="0,-45.5 0,-71.5 134,-71.5 134,-45.5 0,-45.5"/>
<text text-anchor="start" x="8" y="-61.1" font-family="Helvetica,sans-Serif" font-size="8.00">project.pc.sensor.representation.</text>
<text text-anchor="middle" x="67" y="-52.1" font-family="Helvetica,sans-Serif" font-size="8.00">Vector3f.dotProduct</text>
</g>
<!-- Node14 -->
<g id="node2" class="node"><title>Node14</title>
<g id="a_node2"><a xlink:href="../../dd/d4c/a00177.html#a5af9da6256ea1a6a78cc5baee432e405" target="_top" xlink:title="Sets the X&#45;dimension of this Vector3f. ">
<polygon fill="white" stroke="black" points="170,-90.5 170,-116.5 304,-116.5 304,-90.5 170,-90.5"/>
<text text-anchor="start" x="178" y="-106.1" font-family="Helvetica,sans-Serif" font-size="8.00">project.pc.sensor.representation.</text>
<text text-anchor="middle" x="237" y="-97.1" font-family="Helvetica,sans-Serif" font-size="8.00">Vector3f.setX</text>
</a>
</g>
</g>
<!-- Node13&#45;&gt;Node14 -->
<g id="edge1" class="edge"><title>Node13&#45;&gt;Node14</title>
<path fill="none" stroke="midnightblue" d="M116.593,-71.5159C135.577,-76.601 157.515,-82.4772 177.367,-87.7947"/>
<polygon fill="midnightblue" stroke="midnightblue" points="176.661,-91.2289 187.226,-90.4355 178.472,-84.4672 176.661,-91.2289"/>
</g>
<!-- Node15 -->
<g id="node3" class="node"><title>Node15</title>
<g id="a_node3"><a xlink:href="../../dd/d4c/a00177.html#a246061c705f72ccfe795b4222df0cf05" target="_top" xlink:title="Sets the Y&#45;dimension of this Vector3f. ">
<polygon fill="white" stroke="black" points="170,-45.5 170,-71.5 304,-71.5 304,-45.5 170,-45.5"/>
<text text-anchor="start" x="178" y="-61.1" font-family="Helvetica,sans-Serif" font-size="8.00">project.pc.sensor.representation.</text>
<text text-anchor="middle" x="237" y="-52.1" font-family="Helvetica,sans-Serif" font-size="8.00">Vector3f.setY</text>
</a>
</g>
</g>
<!-- Node13&#45;&gt;Node15 -->
<g id="edge2" class="edge"><title>Node13&#45;&gt;Node15</title>
<path fill="none" stroke="midnightblue" d="M134.398,-58.5C142.679,-58.5 151.199,-58.5 159.616,-58.5"/>
<polygon fill="midnightblue" stroke="midnightblue" points="159.809,-62.0001 169.809,-58.5 159.809,-55.0001 159.809,-62.0001"/>
</g>
<!-- Node16 -->
<g id="node4" class="node"><title>Node16</title>
<g id="a_node4"><a xlink:href="../../dd/d4c/a00177.html#a4064cab6b7c0665b4ad10ac114a7b964" target="_top" xlink:title="Sets the Z&#45;dimension of this Vector3f. ">
<polygon fill="white" stroke="black" points="170,-0.5 170,-26.5 304,-26.5 304,-0.5 170,-0.5"/>
<text text-anchor="start" x="178" y="-16.1" font-family="Helvetica,sans-Serif" font-size="8.00">project.pc.sensor.representation.</text>
<text text-anchor="middle" x="237" y="-7.1" font-family="Helvetica,sans-Serif" font-size="8.00">Vector3f.setZ</text>
</a>
</g>
</g>
<!-- Node13&#45;&gt;Node16 -->
<g id="edge3" class="edge"><title>Node13&#45;&gt;Node16</title>
<path fill="none" stroke="midnightblue" d="M116.593,-45.4841C135.577,-40.399 157.515,-34.5228 177.367,-29.2053"/>
<polygon fill="midnightblue" stroke="midnightblue" points="178.472,-32.5328 187.226,-26.5645 176.661,-25.7711 178.472,-32.5328"/>
</g>
</g>
</svg>
