<?xml version="1.0" encoding="UTF-8" standalone="no"?>
<!DOCTYPE svg PUBLIC "-//W3C//DTD SVG 1.1//EN"
 "http://www.w3.org/Graphics/SVG/1.1/DTD/svg11.dtd">
<!-- Generated by graphviz version 2.38.0 (20140413.2041)
 -->
<!-- Title: project.pc.net.NetworkManager.stopServer Pages: 1 -->
<!--zoomable 338 -->
<svg id="main" version="1.1" xmlns="http://www.w3.org/2000/svg" xmlns:xlink="http://www.w3.org/1999/xlink" xml:space="preserve" onload="init(evt)">
<style type="text/css"><![CDATA[
.edge:hover path { stroke: red; }
.edge:hover polygon { stroke: red; fill: red; }
]]></style>
<script type="text/javascript"><![CDATA[
var edges = document.getElementsByTagName('g');
if (edges && edges.length) {
  for (var i=0;i<edges.length;i++) {
    if (edges[i].id.substr(0,4)=='edge') {
      edges[i].setAttribute('class','edge');
    }
  }
}
]]></script>
        <defs>
                <circle id="rim" cx="0" cy="0" r="7"/>
                <circle id="rim2" cx="0" cy="0" r="3.5"/>
                <g id="zoomPlus">
                        <use xlink:href="#rim" fill="#404040">
                                <set attributeName="fill" to="#808080" begin="zoomplus.mouseover" end="zoomplus.mouseout"/>
                        </use>
                        <path d="M-4,0h8M0,-4v8" fill="none" stroke="white" stroke-width="1.5" pointer-events="none"/>
                </g>
                <g id="zoomMin">
                        <use xlink:href="#rim" fill="#404040">
                                <set attributeName="fill" to="#808080" begin="zoomminus.mouseover" end="zoomminus.mouseout"/>
                        </use>
                        <path d="M-4,0h8" fill="none" stroke="white" stroke-width="1.5" pointer-events="none"/>
                </g>
                <g id="dirArrow">
                        <path fill="none" stroke="white" stroke-width="1.5" d="M0,-3.0v7 M-2.5,-0.5L0,-3.0L2.5,-0.5"/>
                </g>
               <g id="resetDef">
                       <use xlink:href="#rim2" fill="#404040">
                               <set attributeName="fill" to="#808080" begin="reset.mouseover" end="reset.mouseout"/>
                       </use>
               </g>
        </defs>

<script type="text/javascript">
var viewWidth = 526;
var viewHeight = 338;
var sectionId = 'dynsection-6';
</script>
<script xlink:href="../../svgpan.js"/>
<svg id="graph" class="graph">
<g id="viewport">
<title>project.pc.net.NetworkManager.stopServer</title>
<polygon fill="white" stroke="none" points="-4,4 -4,-334 522,-334 522,4 -4,4"/>
<!-- Node17 -->
<g id="node1" class="node"><title>Node17</title>
<polygon fill="#bfbfbf" stroke="black" points="0,-168.5 0,-194.5 146,-194.5 146,-168.5 0,-168.5"/>
<text text-anchor="start" x="8" y="-184.1" font-family="Helvetica,sans-Serif" font-size="8.00">project.pc.net.NetworkManager.stop</text>
<text text-anchor="middle" x="73" y="-175.1" font-family="Helvetica,sans-Serif" font-size="8.00">Server</text>
</g>
<!-- Node18 -->
<g id="node2" class="node"><title>Node18</title>
<g id="a_node2"><a xlink:href="../../d9/d4b/a00117.html#a8404f199c060a916efffc04bb92032b8" target="_top" xlink:title="Stops the broadcast. ">
<polygon fill="white" stroke="black" points="215,-303.5 215,-329.5 318,-329.5 318,-303.5 215,-303.5"/>
<text text-anchor="start" x="223" y="-319.1" font-family="Helvetica,sans-Serif" font-size="8.00">project.pc.net.Broadcast</text>
<text text-anchor="middle" x="266.5" y="-310.1" font-family="Helvetica,sans-Serif" font-size="8.00">Thread.stopBroadcast</text>
</a>
</g>
</g>
<!-- Node17&#45;&gt;Node18 -->
<g id="edge1" class="edge"><title>Node17&#45;&gt;Node18</title>
<path fill="none" stroke="midnightblue" d="M82.7171,-194.563C99.2088,-218.228 137.353,-268.171 182,-294.5 189.069,-298.669 196.933,-302.06 204.928,-304.817"/>
<polygon fill="midnightblue" stroke="midnightblue" points="204.113,-308.229 214.702,-307.874 206.203,-301.548 204.113,-308.229"/>
</g>
<!-- Node20 -->
<g id="node4" class="node"><title>Node20</title>
<g id="a_node4"><a xlink:href="../../d9/d4b/a00117.html#a4bd5c7e3daf54b19982abbc2980f9e9b" target="_top" xlink:title="Returns the interval between two successive broadcasts. ">
<polygon fill="white" stroke="black" points="215,-258.5 215,-284.5 318,-284.5 318,-258.5 215,-258.5"/>
<text text-anchor="start" x="223" y="-274.1" font-family="Helvetica,sans-Serif" font-size="8.00">project.pc.net.Broadcast</text>
<text text-anchor="middle" x="266.5" y="-265.1" font-family="Helvetica,sans-Serif" font-size="8.00">Thread.getTimeout</text>
</a>
</g>
</g>
<!-- Node17&#45;&gt;Node20 -->
<g id="edge3" class="edge"><title>Node17&#45;&gt;Node20</title>
<path fill="none" stroke="midnightblue" d="M91.042,-194.554C111.589,-209.725 147.655,-234.582 182,-249.5 189.332,-252.685 197.232,-255.497 205.145,-257.954"/>
<polygon fill="midnightblue" stroke="midnightblue" points="204.186,-261.32 214.767,-260.776 206.156,-254.603 204.186,-261.32"/>
</g>
<!-- Node21 -->
<g id="node5" class="node"><title>Node21</title>
<g id="a_node5"><a xlink:href="../../d5/d4e/a00141.html#acc46bdb42c52665b6dc480df0778b579" target="_top" xlink:title="Sets the stop flag. ">
<polygon fill="white" stroke="black" points="214.5,-213.5 214.5,-239.5 318.5,-239.5 318.5,-213.5 214.5,-213.5"/>
<text text-anchor="start" x="222.5" y="-229.1" font-family="Helvetica,sans-Serif" font-size="8.00">project.pc.net.Server.set</text>
<text text-anchor="middle" x="266.5" y="-220.1" font-family="Helvetica,sans-Serif" font-size="8.00">StopFlag</text>
</a>
</g>
</g>
<!-- Node17&#45;&gt;Node21 -->
<g id="edge4" class="edge"><title>Node17&#45;&gt;Node21</title>
<path fill="none" stroke="midnightblue" d="M129.39,-194.516C152.982,-200.06 180.575,-206.544 204.727,-212.219"/>
<polygon fill="midnightblue" stroke="midnightblue" points="203.958,-215.634 214.494,-214.514 205.56,-208.819 203.958,-215.634"/>
</g>
<!-- Node22 -->
<g id="node6" class="node"><title>Node22</title>
<g id="a_node6"><a xlink:href="../../d5/d4e/a00141.html#aa9e4cda8a511c5e8cced84ea0f98f616" target="_top" xlink:title="Returns the timeout of the java.net.ServerSocket used by this Server. ">
<polygon fill="white" stroke="black" points="214.5,-168.5 214.5,-194.5 318.5,-194.5 318.5,-168.5 214.5,-168.5"/>
<text text-anchor="start" x="222.5" y="-184.1" font-family="Helvetica,sans-Serif" font-size="8.00">project.pc.net.Server.get</text>
<text text-anchor="middle" x="266.5" y="-175.1" font-family="Helvetica,sans-Serif" font-size="8.00">Timeout</text>
</a>
</g>
</g>
<!-- Node17&#45;&gt;Node22 -->
<g id="edge5" class="edge"><title>Node17&#45;&gt;Node22</title>
<path fill="none" stroke="midnightblue" d="M146.125,-181.5C165.269,-181.5 185.757,-181.5 204.26,-181.5"/>
<polygon fill="midnightblue" stroke="midnightblue" points="204.314,-185 214.314,-181.5 204.314,-178 204.314,-185"/>
</g>
<!-- Node23 -->
<g id="node7" class="node"><title>Node23</title>
<g id="a_node7"><a xlink:href="../../d5/d4e/a00141.html#ad90235e3b8adb261fe3d1bd8735e676e" target="_top" xlink:title="Closes the ServerSocket used by this Server. ">
<polygon fill="white" stroke="black" points="211,-132 211,-149 322,-149 322,-132 211,-132"/>
<text text-anchor="middle" x="266.5" y="-138.6" font-family="Helvetica,sans-Serif" font-size="8.00">project.pc.net.Server.close</text>
</a>
</g>
</g>
<!-- Node17&#45;&gt;Node23 -->
<g id="edge6" class="edge"><title>Node17&#45;&gt;Node23</title>
<path fill="none" stroke="midnightblue" d="M134.855,-168.471C160.941,-162.886 191.029,-156.444 215.751,-151.151"/>
<polygon fill="midnightblue" stroke="midnightblue" points="216.594,-154.55 225.64,-149.034 215.129,-147.705 216.594,-154.55"/>
</g>
<!-- Node24 -->
<g id="node8" class="node"><title>Node24</title>
<g id="a_node8"><a xlink:href="../../d0/de8/a00133.html#a36036bd99972c88f733ade697a6bf153" target="_top" xlink:title="Returns the Address Map. ">
<polygon fill="white" stroke="black" points="200,-86.5 200,-112.5 333,-112.5 333,-86.5 200,-86.5"/>
<text text-anchor="start" x="208" y="-102.1" font-family="Helvetica,sans-Serif" font-size="8.00">project.pc.net.NetworkState.gets</text>
<text text-anchor="middle" x="266.5" y="-93.1" font-family="Helvetica,sans-Serif" font-size="8.00">AddressMap</text>
</a>
</g>
</g>
<!-- Node17&#45;&gt;Node24 -->
<g id="edge7" class="edge"><title>Node17&#45;&gt;Node24</title>
<path fill="none" stroke="midnightblue" d="M94.4058,-168.484C115.616,-155.409 150.112,-135.399 182,-122.5 188.181,-120 194.726,-117.675 201.324,-115.541"/>
<polygon fill="midnightblue" stroke="midnightblue" points="202.471,-118.85 210.991,-112.552 200.404,-112.162 202.471,-118.85"/>
</g>
<!-- Node25 -->
<g id="node9" class="node"><title>Node25</title>
<g id="a_node9"><a xlink:href="../../d9/d47/a00129.html#a7213b1ea044d9c361299b497bc8308b3" target="_top" xlink:title="Method to disconnect a client. ">
<polygon fill="white" stroke="black" points="182,-50 182,-67 351,-67 351,-50 182,-50"/>
<text text-anchor="middle" x="266.5" y="-56.6" font-family="Helvetica,sans-Serif" font-size="8.00">project.pc.net.NetworkManager.disconnect</text>
</a>
</g>
</g>
<!-- Node17&#45;&gt;Node25 -->
<g id="edge8" class="edge"><title>Node17&#45;&gt;Node25</title>
<path fill="none" stroke="midnightblue" d="M83.3681,-168.484C100.329,-145.948 138.433,-99.8399 182,-76.5 186.461,-74.1103 191.216,-72.0378 196.108,-70.2404"/>
<polygon fill="midnightblue" stroke="midnightblue" points="197.232,-73.5553 205.643,-67.1121 195.05,-66.9041 197.232,-73.5553"/>
</g>
<!-- Node19 -->
<g id="node3" class="node"><title>Node19</title>
<g id="a_node3"><a xlink:href="../../da/ddb/a00145.html#a76ac782bc782201f0a76d6a37658d2a7" target="_top" xlink:title="Sets the status of the broadcast as inactive. ">
<polygon fill="white" stroke="black" points="394,-303.5 394,-329.5 511,-329.5 511,-303.5 394,-303.5"/>
<text text-anchor="start" x="402" y="-319.1" font-family="Helvetica,sans-Serif" font-size="8.00">project.pc.net.ServerInfo.set</text>
<text text-anchor="middle" x="452.5" y="-310.1" font-family="Helvetica,sans-Serif" font-size="8.00">StopFlag</text>
</a>
</g>
</g>
<!-- Node18&#45;&gt;Node19 -->
<g id="edge2" class="edge"><title>Node18&#45;&gt;Node19</title>
<path fill="none" stroke="midnightblue" d="M318.266,-316.5C338.468,-316.5 362.016,-316.5 383.647,-316.5"/>
<polygon fill="midnightblue" stroke="midnightblue" points="383.759,-320 393.759,-316.5 383.758,-313 383.759,-320"/>
</g>
<!-- Node26 -->
<g id="node10" class="node"><title>Node26</title>
<g id="a_node10"><a xlink:href="../../d0/de8/a00133.html#a98b2d231bf77423258ab8e2f3f3a5c0f" target="_top" xlink:title="Returns the ServerThread for a client connection. ">
<polygon fill="white" stroke="black" points="388,-90.5 388,-116.5 517,-116.5 517,-90.5 388,-90.5"/>
<text text-anchor="start" x="396" y="-106.1" font-family="Helvetica,sans-Serif" font-size="8.00">project.pc.net.NetworkState.get</text>
<text text-anchor="middle" x="452.5" y="-97.1" font-family="Helvetica,sans-Serif" font-size="8.00">ServerThread</text>
</a>
</g>
</g>
<!-- Node25&#45;&gt;Node26 -->
<g id="edge9" class="edge"><title>Node25&#45;&gt;Node26</title>
<path fill="none" stroke="midnightblue" d="M309.217,-67.0634C322.594,-69.9242 337.451,-73.2218 351,-76.5 365.339,-79.9693 380.755,-83.9724 395.103,-87.8158"/>
<polygon fill="midnightblue" stroke="midnightblue" points="394.273,-91.2169 404.839,-90.4426 396.096,-84.4585 394.273,-91.2169"/>
</g>
<!-- Node27 -->
<g id="node11" class="node"><title>Node27</title>
<g id="a_node11"><a xlink:href="../../da/d1e/a00149.html#ab57650eb365d7ac7bf6b60acd9e2c254" target="_top" xlink:title="Sets stop flag. ">
<polygon fill="white" stroke="black" points="387.5,-45.5 387.5,-71.5 517.5,-71.5 517.5,-45.5 387.5,-45.5"/>
<text text-anchor="start" x="395.5" y="-61.1" font-family="Helvetica,sans-Serif" font-size="8.00">project.pc.net.ServerThread.set</text>
<text text-anchor="middle" x="452.5" y="-52.1" font-family="Helvetica,sans-Serif" font-size="8.00">StopFlag</text>
</a>
</g>
</g>
<!-- Node25&#45;&gt;Node27 -->
<g id="edge10" class="edge"><title>Node25&#45;&gt;Node27</title>
<path fill="none" stroke="midnightblue" d="M351.155,-58.5C359.794,-58.5 368.532,-58.5 377.061,-58.5"/>
<polygon fill="midnightblue" stroke="midnightblue" points="377.34,-62.0001 387.339,-58.5 377.339,-55.0001 377.34,-62.0001"/>
</g>
<!-- Node28 -->
<g id="node12" class="node"><title>Node28</title>
<g id="a_node12"><a xlink:href="../../da/d1e/a00149.html#a5a16d19b6cd662841c8075f3ea7352f0" target="_top" xlink:title="Returns the timeout of the client Socket. ">
<polygon fill="white" stroke="black" points="387,-0.5 387,-26.5 518,-26.5 518,-0.5 387,-0.5"/>
<text text-anchor="start" x="395" y="-16.1" font-family="Helvetica,sans-Serif" font-size="8.00">project.pc.net.ServerThread.get</text>
<text text-anchor="middle" x="452.5" y="-7.1" font-family="Helvetica,sans-Serif" font-size="8.00">Timeout</text>
</a>
</g>
</g>
<!-- Node25&#45;&gt;Node28 -->
<g id="edge11" class="edge"><title>Node25&#45;&gt;Node28</title>
<path fill="none" stroke="midnightblue" d="M302.542,-49.9299C326.7,-44.0218 359.495,-36.0012 388.165,-28.9896"/>
<polygon fill="midnightblue" stroke="midnightblue" points="389.23,-32.3322 398.113,-26.5567 387.567,-25.5326 389.23,-32.3322"/>
</g>
</g>
</svg>
        <g id="navigator" transform="translate(0 0)" fill="#404254">
                <rect fill="#f2f5e9" fill-opacity="0.5" stroke="#606060" stroke-width=".5" x="0" y="0" width="60" height="60"/>
                <use id="zoomplus" xlink:href="#zoomPlus" x="17" y="9" onmousedown="handleZoom(evt,'in')"/>
                <use id="zoomminus" xlink:href="#zoomMin" x="42" y="9" onmousedown="handleZoom(evt,'out')"/>
                <use id="reset" xlink:href="#resetDef" x="30" y="36" onmousedown="handleReset()"/>
                <g id="arrowUp" xlink:href="#dirArrow" transform="translate(30 24)" onmousedown="handlePan(0,-1)">
                  <use xlink:href="#rim" fill="#404040">
                        <set attributeName="fill" to="#808080" begin="arrowUp.mouseover" end="arrowUp.mouseout"/>
                  </use>
                  <path fill="none" stroke="white" stroke-width="1.5" d="M0,-3.0v7 M-2.5,-0.5L0,-3.0L2.5,-0.5"/>
                </g>
                <g id="arrowRight" xlink:href="#dirArrow" transform="rotate(90) translate(36 -43)" onmousedown="handlePan(1,0)">
                  <use xlink:href="#rim" fill="#404040">
                        <set attributeName="fill" to="#808080" begin="arrowRight.mouseover" end="arrowRight.mouseout"/>
                  </use>
                  <path fill="none" stroke="white" stroke-width="1.5" d="M0,-3.0v7 M-2.5,-0.5L0,-3.0L2.5,-0.5"/>
                </g>
                <g id="arrowDown" xlink:href="#dirArrow" transform="rotate(180) translate(-30 -48)" onmousedown="handlePan(0,1)">
                  <use xlink:href="#rim" fill="#404040">
                        <set attributeName="fill" to="#808080" begin="arrowDown.mouseover" end="arrowDown.mouseout"/>
                  </use>
                  <path fill="none" stroke="white" stroke-width="1.5" d="M0,-3.0v7 M-2.5,-0.5L0,-3.0L2.5,-0.5"/>
                </g>
                <g id="arrowLeft" xlink:href="#dirArrow" transform="rotate(270) translate(-36 17)" onmousedown="handlePan(-1,0)">
                  <use xlink:href="#rim" fill="#404040">
                        <set attributeName="fill" to="#808080" begin="arrowLeft.mouseover" end="arrowLeft.mouseout"/>
                  </use>
                  <path fill="none" stroke="white" stroke-width="1.5" d="M0,-3.0v7 M-2.5,-0.5L0,-3.0L2.5,-0.5"/>
                </g>
        </g>
        <svg viewBox="0 0 15 15" width="100%" height="30px" preserveAspectRatio="xMaxYMin meet">
         <g id="arrow_out" transform="scale(0.3 0.3)">
          <a xlink:href="a00129_a61581904d96f5be8906b740585486ebc_cgraph_org.svg" target="_base">
           <rect id="button" ry="5" rx="5" y="6" x="6" height="38" width="38"
                fill="#f2f5e9" fill-opacity="0.5" stroke="#606060" stroke-width="1.0"/>
           <path id="arrow"
             d="M 11.500037,31.436501 C 11.940474,20.09759 22.043105,11.32322 32.158766,21.979434 L 37.068811,17.246167 C 37.068811,17.246167 37.088388,32 37.088388,32 L 22.160133,31.978069 C 22.160133,31.978069 26.997745,27.140456 26.997745,27.140456 C 18.528582,18.264221 13.291696,25.230495 11.500037,31.436501 z"
             style="fill:#404040;"/>
          </a>
         </g>
        </svg>
</svg>
