<?xml version="1.0" encoding="UTF-8" standalone="no"?>
<!DOCTYPE svg PUBLIC "-//W3C//DTD SVG 1.1//EN"
 "http://www.w3.org/Graphics/SVG/1.1/DTD/svg11.dtd">
<!-- Generated by graphviz version 2.38.0 (20140413.2041)
 -->
<!-- Title: project.pc.net.NetworkManager.stopServer Pages: 1 -->
<svg width="331pt" height="80pt"
 viewBox="0.00 0.00 331.00 80.00" xmlns="http://www.w3.org/2000/svg" xmlns:xlink="http://www.w3.org/1999/xlink">
<g id="graph0" class="graph" transform="scale(1 1) rotate(0) translate(4 76)">
<title>project.pc.net.NetworkManager.stopServer</title>
<polygon fill="white" stroke="none" points="-4,4 -4,-76 327,-76 327,4 -4,4"/>
<!-- Node29 -->
<g id="node1" class="node"><title>Node29</title>
<polygon fill="#bfbfbf" stroke="black" points="0,-22.5 0,-48.5 146,-48.5 146,-22.5 0,-22.5"/>
<text text-anchor="start" x="8" y="-38.1" font-family="Helvetica,sans-Serif" font-size="8.00">project.pc.net.NetworkManager.stop</text>
<text text-anchor="middle" x="73" y="-29.1" font-family="Helvetica,sans-Serif" font-size="8.00">Server</text>
</g>
<!-- Node30 -->
<g id="node2" class="node"><title>Node30</title>
<g id="a_node2"><a xlink:href="../../dd/d42/a00109.html#af518df4286470e49c976c3410c72100b" target="_top" xlink:title="Invoked when an action occurs. ">
<polygon fill="white" stroke="black" points="185,-45.5 185,-71.5 320,-71.5 320,-45.5 185,-45.5"/>
<text text-anchor="start" x="193" y="-61.1" font-family="Helvetica,sans-Serif" font-size="8.00">project.pc.gui.MainWindow.action</text>
<text text-anchor="middle" x="252.5" y="-52.1" font-family="Helvetica,sans-Serif" font-size="8.00">Performed</text>
</a>
</g>
</g>
<!-- Node29&#45;&gt;Node30 -->
<g id="edge1" class="edge"><title>Node29&#45;&gt;Node30</title>
<path fill="none" stroke="midnightblue" d="M156.145,-46.1441C165.746,-47.3882 175.45,-48.6457 184.806,-49.8579"/>
<polygon fill="midnightblue" stroke="midnightblue" points="156.563,-42.6691 146.196,-44.855 155.663,-49.6111 156.563,-42.6691"/>
</g>
<!-- Node31 -->
<g id="node3" class="node"><title>Node31</title>
<g id="a_node3"><a xlink:href="../../dd/d42/a00109.html#a9b7fdbe2729882c790a6366878b5c5c3" target="_top" xlink:title="Gracefully terminates the application. ">
<polygon fill="white" stroke="black" points="182,-0.5 182,-26.5 323,-26.5 323,-0.5 182,-0.5"/>
<text text-anchor="start" x="190" y="-16.1" font-family="Helvetica,sans-Serif" font-size="8.00">project.pc.gui.MainWindow.window</text>
<text text-anchor="middle" x="252.5" y="-7.1" font-family="Helvetica,sans-Serif" font-size="8.00">Closing</text>
</a>
</g>
</g>
<!-- Node29&#45;&gt;Node31 -->
<g id="edge2" class="edge"><title>Node29&#45;&gt;Node31</title>
<path fill="none" stroke="midnightblue" d="M156.234,-25.3077C164.833,-24.2418 173.514,-23.1658 181.952,-22.12"/>
<polygon fill="midnightblue" stroke="midnightblue" points="155.69,-21.8482 146.196,-26.5518 156.551,-28.7951 155.69,-21.8482"/>
</g>
</g>
</svg>
