<?xml version="1.0" encoding="UTF-8" standalone="no"?>
<!DOCTYPE svg PUBLIC "-//W3C//DTD SVG 1.1//EN"
 "http://www.w3.org/Graphics/SVG/1.1/DTD/svg11.dtd">
<!-- Generated by graphviz version 2.38.0 (20140413.2041)
 -->
<!-- Title: project.pc.net.NetworkManager.getNetworkState Pages: 1 -->
<svg width="301pt" height="35pt"
 viewBox="0.00 0.00 301.00 35.00" xmlns="http://www.w3.org/2000/svg" xmlns:xlink="http://www.w3.org/1999/xlink">
<g id="graph0" class="graph" transform="scale(1 1) rotate(0) translate(4 31)">
<title>project.pc.net.NetworkManager.getNetworkState</title>
<polygon fill="white" stroke="none" points="-4,4 -4,-31 297,-31 297,4 -4,4"/>
<!-- Node11 -->
<g id="node1" class="node"><title>Node11</title>
<polygon fill="#bfbfbf" stroke="black" points="0,-0.5 0,-26.5 143,-26.5 143,-0.5 0,-0.5"/>
<text text-anchor="start" x="8" y="-16.1" font-family="Helvetica,sans-Serif" font-size="8.00">project.pc.net.NetworkManager.get</text>
<text text-anchor="middle" x="71.5" y="-7.1" font-family="Helvetica,sans-Serif" font-size="8.00">NetworkState</text>
</g>
<!-- Node12 -->
<g id="node2" class="node"><title>Node12</title>
<g id="a_node2"><a xlink:href="../../dd/d42/a00109.html#af925cf373c44b19199a7245f618adc35" target="_top" xlink:title="Constructor. ">
<polygon fill="white" stroke="black" points="179,-0.5 179,-26.5 293,-26.5 293,-0.5 179,-0.5"/>
<text text-anchor="start" x="187" y="-16.1" font-family="Helvetica,sans-Serif" font-size="8.00">project.pc.gui.MainWindow.</text>
<text text-anchor="middle" x="236" y="-7.1" font-family="Helvetica,sans-Serif" font-size="8.00">MainWindow</text>
</a>
</g>
</g>
<!-- Node11&#45;&gt;Node12 -->
<g id="edge1" class="edge"><title>Node11&#45;&gt;Node12</title>
<path fill="none" stroke="midnightblue" d="M153.309,-13.5C161.855,-13.5 170.408,-13.5 178.589,-13.5"/>
<polygon fill="midnightblue" stroke="midnightblue" points="153.302,-10.0001 143.302,-13.5 153.302,-17.0001 153.302,-10.0001"/>
</g>
</g>
</svg>
