<?xml version="1.0" encoding="UTF-8" standalone="no"?>
<!DOCTYPE svg PUBLIC "-//W3C//DTD SVG 1.1//EN"
 "http://www.w3.org/Graphics/SVG/1.1/DTD/svg11.dtd">
<!-- Generated by graphviz version 2.38.0 (20140413.2041)
 -->
<!-- Title: project.pc.net.NetworkManager.disconnect Pages: 1 -->
<svg width="344pt" height="125pt"
 viewBox="0.00 0.00 344.00 125.00" xmlns="http://www.w3.org/2000/svg" xmlns:xlink="http://www.w3.org/1999/xlink">
<g id="graph0" class="graph" transform="scale(1 1) rotate(0) translate(4 121)">
<title>project.pc.net.NetworkManager.disconnect</title>
<polygon fill="white" stroke="none" points="-4,4 -4,-121 340,-121 340,4 -4,4"/>
<!-- Node2 -->
<g id="node1" class="node"><title>Node2</title>
<polygon fill="#bfbfbf" stroke="black" points="0,-50 0,-67 169,-67 169,-50 0,-50"/>
<text text-anchor="middle" x="84.5" y="-56.6" font-family="Helvetica,sans-Serif" font-size="8.00">project.pc.net.NetworkManager.disconnect</text>
</g>
<!-- Node3 -->
<g id="node2" class="node"><title>Node3</title>
<g id="a_node2"><a xlink:href="../../d0/de8/a00133.html#a98b2d231bf77423258ab8e2f3f3a5c0f" target="_top" xlink:title="Returns the ServerThread for a client connection. ">
<polygon fill="white" stroke="black" points="206,-90.5 206,-116.5 335,-116.5 335,-90.5 206,-90.5"/>
<text text-anchor="start" x="214" y="-106.1" font-family="Helvetica,sans-Serif" font-size="8.00">project.pc.net.NetworkState.get</text>
<text text-anchor="middle" x="270.5" y="-97.1" font-family="Helvetica,sans-Serif" font-size="8.00">ServerThread</text>
</a>
</g>
</g>
<!-- Node2&#45;&gt;Node3 -->
<g id="edge1" class="edge"><title>Node2&#45;&gt;Node3</title>
<path fill="none" stroke="midnightblue" d="M120.542,-67.0701C144.7,-72.9782 177.495,-80.9988 206.165,-88.0104"/>
<polygon fill="midnightblue" stroke="midnightblue" points="205.567,-91.4674 216.113,-90.4433 207.23,-84.6678 205.567,-91.4674"/>
</g>
<!-- Node4 -->
<g id="node3" class="node"><title>Node4</title>
<g id="a_node3"><a xlink:href="../../da/d1e/a00149.html#ab57650eb365d7ac7bf6b60acd9e2c254" target="_top" xlink:title="Sets stop flag. ">
<polygon fill="white" stroke="black" points="205.5,-45.5 205.5,-71.5 335.5,-71.5 335.5,-45.5 205.5,-45.5"/>
<text text-anchor="start" x="213.5" y="-61.1" font-family="Helvetica,sans-Serif" font-size="8.00">project.pc.net.ServerThread.set</text>
<text text-anchor="middle" x="270.5" y="-52.1" font-family="Helvetica,sans-Serif" font-size="8.00">StopFlag</text>
</a>
</g>
</g>
<!-- Node2&#45;&gt;Node4 -->
<g id="edge2" class="edge"><title>Node2&#45;&gt;Node4</title>
<path fill="none" stroke="midnightblue" d="M169.155,-58.5C177.794,-58.5 186.532,-58.5 195.061,-58.5"/>
<polygon fill="midnightblue" stroke="midnightblue" points="195.34,-62.0001 205.339,-58.5 195.339,-55.0001 195.34,-62.0001"/>
</g>
<!-- Node5 -->
<g id="node4" class="node"><title>Node5</title>
<g id="a_node4"><a xlink:href="../../da/d1e/a00149.html#a5a16d19b6cd662841c8075f3ea7352f0" target="_top" xlink:title="Returns the timeout of the client Socket. ">
<polygon fill="white" stroke="black" points="205,-0.5 205,-26.5 336,-26.5 336,-0.5 205,-0.5"/>
<text text-anchor="start" x="213" y="-16.1" font-family="Helvetica,sans-Serif" font-size="8.00">project.pc.net.ServerThread.get</text>
<text text-anchor="middle" x="270.5" y="-7.1" font-family="Helvetica,sans-Serif" font-size="8.00">Timeout</text>
</a>
</g>
</g>
<!-- Node2&#45;&gt;Node5 -->
<g id="edge3" class="edge"><title>Node2&#45;&gt;Node5</title>
<path fill="none" stroke="midnightblue" d="M120.542,-49.9299C144.7,-44.0218 177.495,-36.0012 206.165,-28.9896"/>
<polygon fill="midnightblue" stroke="midnightblue" points="207.23,-32.3322 216.113,-26.5567 205.567,-25.5326 207.23,-32.3322"/>
</g>
</g>
</svg>
