<?xml version="1.0" encoding="UTF-8" standalone="no"?>
<!DOCTYPE svg PUBLIC "-//W3C//DTD SVG 1.1//EN"
 "http://www.w3.org/Graphics/SVG/1.1/DTD/svg11.dtd">
<!-- Generated by graphviz version 2.38.0 (20140413.2041)
 -->
<!-- Title: project.pc.net.NetworkManager.disconnect Pages: 1 -->
<svg width="536pt" height="80pt"
 viewBox="0.00 0.00 536.00 80.00" xmlns="http://www.w3.org/2000/svg" xmlns:xlink="http://www.w3.org/1999/xlink">
<g id="graph0" class="graph" transform="scale(1 1) rotate(0) translate(4 76)">
<title>project.pc.net.NetworkManager.disconnect</title>
<polygon fill="white" stroke="none" points="-4,4 -4,-76 532,-76 532,4 -4,4"/>
<!-- Node6 -->
<g id="node1" class="node"><title>Node6</title>
<polygon fill="#bfbfbf" stroke="black" points="0,-29 0,-46 169,-46 169,-29 0,-29"/>
<text text-anchor="middle" x="84.5" y="-35.6" font-family="Helvetica,sans-Serif" font-size="8.00">project.pc.net.NetworkManager.disconnect</text>
</g>
<!-- Node7 -->
<g id="node2" class="node"><title>Node7</title>
<g id="a_node2"><a xlink:href="../../dd/d42/a00109.html#af518df4286470e49c976c3410c72100b" target="_top" xlink:title="Invoked when an action occurs. ">
<polygon fill="white" stroke="black" points="390,-45.5 390,-71.5 525,-71.5 525,-45.5 390,-45.5"/>
<text text-anchor="start" x="398" y="-61.1" font-family="Helvetica,sans-Serif" font-size="8.00">project.pc.gui.MainWindow.action</text>
<text text-anchor="middle" x="457.5" y="-52.1" font-family="Helvetica,sans-Serif" font-size="8.00">Performed</text>
</a>
</g>
</g>
<!-- Node6&#45;&gt;Node7 -->
<g id="edge1" class="edge"><title>Node6&#45;&gt;Node7</title>
<path fill="none" stroke="midnightblue" d="M179.57,-42.8247C245.176,-46.5383 331.129,-51.4036 389.764,-54.7225"/>
<polygon fill="midnightblue" stroke="midnightblue" points="179.404,-39.3098 169.222,-42.239 179.008,-46.2986 179.404,-39.3098"/>
</g>
<!-- Node8 -->
<g id="node3" class="node"><title>Node8</title>
<g id="a_node3"><a xlink:href="../../d9/d47/a00129.html#a61581904d96f5be8906b740585486ebc" target="_top" xlink:title="Method to stop server. ">
<polygon fill="white" stroke="black" points="205,-3.5 205,-29.5 351,-29.5 351,-3.5 205,-3.5"/>
<text text-anchor="start" x="213" y="-19.1" font-family="Helvetica,sans-Serif" font-size="8.00">project.pc.net.NetworkManager.stop</text>
<text text-anchor="middle" x="278" y="-10.1" font-family="Helvetica,sans-Serif" font-size="8.00">Server</text>
</a>
</g>
</g>
<!-- Node6&#45;&gt;Node8 -->
<g id="edge2" class="edge"><title>Node6&#45;&gt;Node8</title>
<path fill="none" stroke="midnightblue" d="M173.208,-27.8819C183.795,-26.7209 194.515,-25.5454 204.844,-24.4127"/>
<polygon fill="midnightblue" stroke="midnightblue" points="172.673,-24.4195 163.114,-28.9888 173.436,-31.3778 172.673,-24.4195"/>
</g>
<!-- Node8&#45;&gt;Node7 -->
<g id="edge3" class="edge"><title>Node8&#45;&gt;Node7</title>
<path fill="none" stroke="midnightblue" d="M344.147,-31.9151C362.929,-36.3593 383.232,-41.1634 401.345,-45.4492"/>
<polygon fill="midnightblue" stroke="midnightblue" points="344.726,-28.4556 334.189,-29.5588 343.114,-35.2675 344.726,-28.4556"/>
</g>
<!-- Node9 -->
<g id="node4" class="node"><title>Node9</title>
<g id="a_node4"><a xlink:href="../../dd/d42/a00109.html#a9b7fdbe2729882c790a6366878b5c5c3" target="_top" xlink:title="Gracefully terminates the application. ">
<polygon fill="white" stroke="black" points="387,-0.5 387,-26.5 528,-26.5 528,-0.5 387,-0.5"/>
<text text-anchor="start" x="395" y="-16.1" font-family="Helvetica,sans-Serif" font-size="8.00">project.pc.gui.MainWindow.window</text>
<text text-anchor="middle" x="457.5" y="-7.1" font-family="Helvetica,sans-Serif" font-size="8.00">Closing</text>
</a>
</g>
</g>
<!-- Node8&#45;&gt;Node9 -->
<g id="edge4" class="edge"><title>Node8&#45;&gt;Node9</title>
<path fill="none" stroke="midnightblue" d="M361.234,-15.1101C369.833,-14.9648 378.514,-14.8181 386.952,-14.6755"/>
<polygon fill="midnightblue" stroke="midnightblue" points="361.135,-11.6112 351.196,-15.2798 361.254,-18.6102 361.135,-11.6112"/>
</g>
</g>
</svg>
