<?xml version="1.0" encoding="UTF-8" standalone="no"?>
<!DOCTYPE svg PUBLIC "-//W3C//DTD SVG 1.1//EN"
 "http://www.w3.org/Graphics/SVG/1.1/DTD/svg11.dtd">
<!-- Generated by graphviz version 2.38.0 (20140413.2041)
 -->
<!-- Title: project.pc.gui.MainWindow Pages: 1 -->
<svg width="230pt" height="256pt"
 viewBox="0.00 0.00 230.00 256.00" xmlns="http://www.w3.org/2000/svg" xmlns:xlink="http://www.w3.org/1999/xlink">
<g id="graph0" class="graph" transform="scale(1 1) rotate(0) translate(4 252)">
<title>project.pc.gui.MainWindow</title>
<polygon fill="white" stroke="none" points="-4,4 -4,-252 226,-252 226,4 -4,4"/>
<!-- Node0 -->
<g id="node1" class="node"><title>Node0</title>
<polygon fill="#bfbfbf" stroke="black" points="32,-0.5 32,-159.5 160,-159.5 160,-0.5 32,-0.5"/>
<text text-anchor="middle" x="96" y="-149.1" font-family="Helvetica,sans-Serif" font-size="8.00">project.pc.gui.MainWindow</text>
<polyline fill="none" stroke="black" points="32,-142.5 160,-142.5 "/>
<text text-anchor="middle" x="96" y="-132.1" font-family="Helvetica,sans-Serif" font-size="8.00"> </text>
<polyline fill="none" stroke="black" points="32,-125.5 160,-125.5 "/>
<text text-anchor="start" x="40" y="-115.1" font-family="Helvetica,sans-Serif" font-size="8.00">+ MainWindow()</text>
<text text-anchor="start" x="40" y="-106.1" font-family="Helvetica,sans-Serif" font-size="8.00">+ actionPerformed()</text>
<text text-anchor="start" x="40" y="-97.1" font-family="Helvetica,sans-Serif" font-size="8.00">+ windowActivated()</text>
<text text-anchor="start" x="40" y="-88.1" font-family="Helvetica,sans-Serif" font-size="8.00">+ windowClosed()</text>
<text text-anchor="start" x="40" y="-79.1" font-family="Helvetica,sans-Serif" font-size="8.00">+ windowClosing()</text>
<text text-anchor="start" x="40" y="-70.1" font-family="Helvetica,sans-Serif" font-size="8.00">+ windowDeactivated()</text>
<text text-anchor="start" x="40" y="-61.1" font-family="Helvetica,sans-Serif" font-size="8.00">+ windowDeiconified()</text>
<text text-anchor="start" x="40" y="-52.1" font-family="Helvetica,sans-Serif" font-size="8.00">+ windowIconified()</text>
<text text-anchor="start" x="40" y="-43.1" font-family="Helvetica,sans-Serif" font-size="8.00">+ windowOpened()</text>
<text text-anchor="start" x="40" y="-34.1" font-family="Helvetica,sans-Serif" font-size="8.00">+ showConnectionConfirmation</text>
<text text-anchor="start" x="40" y="-25.1" font-family="Helvetica,sans-Serif" font-size="8.00">Dialog()</text>
<text text-anchor="start" x="40" y="-16.1" font-family="Helvetica,sans-Serif" font-size="8.00">+ showIncorrectPKeyDialog()</text>
<text text-anchor="start" x="40" y="-7.1" font-family="Helvetica,sans-Serif" font-size="8.00">+ showPairingKeyDialog()</text>
</g>
<!-- Node1 -->
<g id="node2" class="node"><title>Node1</title>
<polygon fill="white" stroke="#bfbfbf" points="0,-196.5 0,-247.5 44,-247.5 44,-196.5 0,-196.5"/>
<text text-anchor="middle" x="22" y="-237.1" font-family="Helvetica,sans-Serif" font-size="8.00">JFrame</text>
<polyline fill="none" stroke="#bfbfbf" points="0,-230.5 44,-230.5 "/>
<text text-anchor="middle" x="22" y="-220.1" font-family="Helvetica,sans-Serif" font-size="8.00"> </text>
<polyline fill="none" stroke="#bfbfbf" points="0,-213.5 44,-213.5 "/>
<text text-anchor="middle" x="22" y="-203.1" font-family="Helvetica,sans-Serif" font-size="8.00"> </text>
</g>
<!-- Node1&#45;&gt;Node0 -->
<g id="edge1" class="edge"><title>Node1&#45;&gt;Node0</title>
<path fill="none" stroke="midnightblue" d="M39.738,-187.442C44.2601,-178.886 49.3146,-169.324 54.4886,-159.535"/>
<polygon fill="none" stroke="midnightblue" points="36.6382,-185.817 35.0594,-196.293 42.8268,-189.088 36.6382,-185.817"/>
</g>
<!-- Node2 -->
<g id="node3" class="node"><title>Node2</title>
<polygon fill="white" stroke="#bfbfbf" points="62.5,-196.5 62.5,-247.5 129.5,-247.5 129.5,-196.5 62.5,-196.5"/>
<text text-anchor="middle" x="96" y="-237.1" font-family="Helvetica,sans-Serif" font-size="8.00">ActionListener</text>
<polyline fill="none" stroke="#bfbfbf" points="62.5,-230.5 129.5,-230.5 "/>
<text text-anchor="middle" x="96" y="-220.1" font-family="Helvetica,sans-Serif" font-size="8.00"> </text>
<polyline fill="none" stroke="#bfbfbf" points="62.5,-213.5 129.5,-213.5 "/>
<text text-anchor="middle" x="96" y="-203.1" font-family="Helvetica,sans-Serif" font-size="8.00"> </text>
</g>
<!-- Node2&#45;&gt;Node0 -->
<g id="edge2" class="edge"><title>Node2&#45;&gt;Node0</title>
<path fill="none" stroke="midnightblue" d="M96,-186.068C96,-177.868 96,-168.803 96,-159.535"/>
<polygon fill="none" stroke="midnightblue" points="92.5001,-186.293 96,-196.293 99.5001,-186.293 92.5001,-186.293"/>
</g>
<!-- Node3 -->
<g id="node4" class="node"><title>Node3</title>
<polygon fill="white" stroke="#bfbfbf" points="148,-196.5 148,-247.5 222,-247.5 222,-196.5 148,-196.5"/>
<text text-anchor="middle" x="185" y="-237.1" font-family="Helvetica,sans-Serif" font-size="8.00">WindowListener</text>
<polyline fill="none" stroke="#bfbfbf" points="148,-230.5 222,-230.5 "/>
<text text-anchor="middle" x="185" y="-220.1" font-family="Helvetica,sans-Serif" font-size="8.00"> </text>
<polyline fill="none" stroke="#bfbfbf" points="148,-213.5 222,-213.5 "/>
<text text-anchor="middle" x="185" y="-203.1" font-family="Helvetica,sans-Serif" font-size="8.00"> </text>
</g>
<!-- Node3&#45;&gt;Node0 -->
<g id="edge3" class="edge"><title>Node3&#45;&gt;Node0</title>
<path fill="none" stroke="midnightblue" d="M163.84,-187.714C158.357,-179.09 152.215,-169.428 145.926,-159.535"/>
<polygon fill="none" stroke="midnightblue" points="160.975,-189.732 169.293,-196.293 166.882,-185.976 160.975,-189.732"/>
</g>
</g>
</svg>
