<?xml version="1.0" encoding="UTF-8" standalone="no"?>
<!DOCTYPE svg PUBLIC "-//W3C//DTD SVG 1.1//EN"
 "http://www.w3.org/Graphics/SVG/1.1/DTD/svg11.dtd">
<!-- Generated by graphviz version 2.38.0 (20140413.2041)
 -->
<!-- Title: project.pc.gui.Cube.Cube Pages: 1 -->
<svg width="448pt" height="35pt"
 viewBox="0.00 0.00 448.00 35.00" xmlns="http://www.w3.org/2000/svg" xmlns:xlink="http://www.w3.org/1999/xlink">
<g id="graph0" class="graph" transform="scale(1 1) rotate(0) translate(4 31)">
<title>project.pc.gui.Cube.Cube</title>
<polygon fill="white" stroke="none" points="-4,4 -4,-31 444,-31 444,4 -4,4"/>
<!-- Node1 -->
<g id="node1" class="node"><title>Node1</title>
<polygon fill="#bfbfbf" stroke="black" points="0,-5 0,-22 107,-22 107,-5 0,-5"/>
<text text-anchor="middle" x="53.5" y="-11.6" font-family="Helvetica,sans-Serif" font-size="8.00">project.pc.gui.Cube.Cube</text>
</g>
<!-- Node2 -->
<g id="node2" class="node"><title>Node2</title>
<g id="a_node2"><a xlink:href="../../d3/d32/a00105.html#ac332931bf5edd05e3096d1df86b23c1d" target="_top" xlink:title="Renders the cube on canvas. ">
<polygon fill="white" stroke="black" points="143,-5 143,-22 269,-22 269,-5 143,-5"/>
<text text-anchor="middle" x="206" y="-11.6" font-family="Helvetica,sans-Serif" font-size="8.00">project.pc.gui.Cube.showCube</text>
</a>
</g>
</g>
<!-- Node1&#45;&gt;Node2 -->
<g id="edge1" class="edge"><title>Node1&#45;&gt;Node2</title>
<path fill="none" stroke="midnightblue" d="M117.301,-13.5C125.744,-13.5 134.403,-13.5 142.835,-13.5"/>
<polygon fill="midnightblue" stroke="midnightblue" points="117.138,-10.0001 107.138,-13.5 117.138,-17.0001 117.138,-10.0001"/>
</g>
<!-- Node3 -->
<g id="node3" class="node"><title>Node3</title>
<g id="a_node3"><a xlink:href="../../dd/d42/a00109.html#af518df4286470e49c976c3410c72100b" target="_top" xlink:title="Invoked when an action occurs. ">
<polygon fill="white" stroke="black" points="305,-0.5 305,-26.5 440,-26.5 440,-0.5 305,-0.5"/>
<text text-anchor="start" x="313" y="-16.1" font-family="Helvetica,sans-Serif" font-size="8.00">project.pc.gui.MainWindow.action</text>
<text text-anchor="middle" x="372.5" y="-7.1" font-family="Helvetica,sans-Serif" font-size="8.00">Performed</text>
</a>
</g>
</g>
<!-- Node2&#45;&gt;Node3 -->
<g id="edge2" class="edge"><title>Node2&#45;&gt;Node3</title>
<path fill="none" stroke="midnightblue" d="M279.408,-13.5C287.862,-13.5 296.457,-13.5 304.829,-13.5"/>
<polygon fill="midnightblue" stroke="midnightblue" points="279.19,-10.0001 269.19,-13.5 279.19,-17.0001 279.19,-10.0001"/>
</g>
</g>
</svg>
