<?xml version="1.0" encoding="UTF-8" standalone="no"?>
<!DOCTYPE svg PUBLIC "-//W3C//DTD SVG 1.1//EN"
 "http://www.w3.org/Graphics/SVG/1.1/DTD/svg11.dtd">
<!-- Generated by graphviz version 2.38.0 (20140413.2041)
 -->
<!-- Title: project.pc.gui.Cube.display Pages: 1 -->
<svg width="290pt" height="170pt"
 viewBox="0.00 0.00 290.00 170.00" xmlns="http://www.w3.org/2000/svg" xmlns:xlink="http://www.w3.org/1999/xlink">
<g id="graph0" class="graph" transform="scale(1 1) rotate(0) translate(4 166)">
<title>project.pc.gui.Cube.display</title>
<polygon fill="white" stroke="none" points="-4,4 -4,-166 286,-166 286,4 -4,4"/>
<!-- Node4 -->
<g id="node1" class="node"><title>Node4</title>
<polygon fill="#bfbfbf" stroke="black" points="0,-72 0,-89 112,-89 112,-72 0,-72"/>
<text text-anchor="middle" x="56" y="-78.6" font-family="Helvetica,sans-Serif" font-size="8.00">project.pc.gui.Cube.display</text>
</g>
<!-- Node5 -->
<g id="node2" class="node"><title>Node5</title>
<g id="a_node2"><a xlink:href="../../d8/d64/a00181.html#a48e9fceb563581330e4e3ea84974a430" target="_top" xlink:title="Returns the W&#45;dimension of this Vector4f. ">
<polygon fill="white" stroke="black" points="148,-135.5 148,-161.5 282,-161.5 282,-135.5 148,-135.5"/>
<text text-anchor="start" x="156" y="-151.1" font-family="Helvetica,sans-Serif" font-size="8.00">project.pc.sensor.representation.</text>
<text text-anchor="middle" x="215" y="-142.1" font-family="Helvetica,sans-Serif" font-size="8.00">Vector4f.getW</text>
</a>
</g>
</g>
<!-- Node4&#45;&gt;Node5 -->
<g id="edge1" class="edge"><title>Node4&#45;&gt;Node5</title>
<path fill="none" stroke="midnightblue" d="M72.1349,-89.0139C89.9369,-98.8236 120.549,-115.059 148,-126.5 152.501,-128.376 157.224,-130.208 161.987,-131.962"/>
<polygon fill="midnightblue" stroke="midnightblue" points="161.167,-135.385 171.762,-135.444 163.516,-128.791 161.167,-135.385"/>
</g>
<!-- Node6 -->
<g id="node3" class="node"><title>Node6</title>
<g id="a_node3"><a xlink:href="../../d8/d64/a00181.html#a39d6f5ec8dd92c6e5c45fc3e608e271d" target="_top" xlink:title="Returns the X&#45;dimension of this Vector4f. ">
<polygon fill="white" stroke="black" points="148,-90.5 148,-116.5 282,-116.5 282,-90.5 148,-90.5"/>
<text text-anchor="start" x="156" y="-106.1" font-family="Helvetica,sans-Serif" font-size="8.00">project.pc.sensor.representation.</text>
<text text-anchor="middle" x="215" y="-97.1" font-family="Helvetica,sans-Serif" font-size="8.00">Vector4f.getX</text>
</a>
</g>
</g>
<!-- Node4&#45;&gt;Node6 -->
<g id="edge2" class="edge"><title>Node4&#45;&gt;Node6</title>
<path fill="none" stroke="midnightblue" d="M112.352,-88.6089C120.601,-89.8174 129.225,-91.0807 137.811,-92.3386"/>
<polygon fill="midnightblue" stroke="midnightblue" points="137.448,-95.8227 147.85,-93.8092 138.463,-88.8966 137.448,-95.8227"/>
</g>
<!-- Node7 -->
<g id="node4" class="node"><title>Node7</title>
<g id="a_node4"><a xlink:href="../../d8/d64/a00181.html#abecc3cdd45a1c08b935d73403074d80e" target="_top" xlink:title="Returns the Z&#45;dimension of this Vector4f. ">
<polygon fill="white" stroke="black" points="148,-45.5 148,-71.5 282,-71.5 282,-45.5 148,-45.5"/>
<text text-anchor="start" x="156" y="-61.1" font-family="Helvetica,sans-Serif" font-size="8.00">project.pc.sensor.representation.</text>
<text text-anchor="middle" x="215" y="-52.1" font-family="Helvetica,sans-Serif" font-size="8.00">Vector4f.getZ</text>
</a>
</g>
</g>
<!-- Node4&#45;&gt;Node7 -->
<g id="edge3" class="edge"><title>Node4&#45;&gt;Node7</title>
<path fill="none" stroke="midnightblue" d="M112.352,-72.7436C120.601,-71.5877 129.225,-70.3793 137.811,-69.1761"/>
<polygon fill="midnightblue" stroke="midnightblue" points="138.432,-72.6234 147.85,-67.7695 137.461,-65.6911 138.432,-72.6234"/>
</g>
<!-- Node8 -->
<g id="node5" class="node"><title>Node8</title>
<g id="a_node5"><a xlink:href="../../d8/d64/a00181.html#a2ff229e91866dceffbfe26646e7b5291" target="_top" xlink:title="Returns the Y&#45;dimension of this Vector4f. ">
<polygon fill="white" stroke="black" points="148,-0.5 148,-26.5 282,-26.5 282,-0.5 148,-0.5"/>
<text text-anchor="start" x="156" y="-16.1" font-family="Helvetica,sans-Serif" font-size="8.00">project.pc.sensor.representation.</text>
<text text-anchor="middle" x="215" y="-7.1" font-family="Helvetica,sans-Serif" font-size="8.00">Vector4f.getY</text>
</a>
</g>
</g>
<!-- Node4&#45;&gt;Node8 -->
<g id="edge4" class="edge"><title>Node4&#45;&gt;Node8</title>
<path fill="none" stroke="midnightblue" d="M73.181,-71.9753C91.1797,-62.659 121.251,-47.5846 148,-36.5 153.386,-34.2681 159.075,-32.0638 164.764,-29.9554"/>
<polygon fill="midnightblue" stroke="midnightblue" points="166.072,-33.2042 174.284,-26.5096 163.689,-26.6221 166.072,-33.2042"/>
</g>
</g>
</svg>
