<?xml version="1.0" encoding="UTF-8" standalone="no"?>
<!DOCTYPE svg PUBLIC "-//W3C//DTD SVG 1.1//EN"
 "http://www.w3.org/Graphics/SVG/1.1/DTD/svg11.dtd">
<!-- Generated by graphviz version 2.38.0 (20140413.2041)
 -->
<!-- Title: project.pc.net.ServerThread.setStopFlag Pages: 1 -->
<svg width="702pt" height="88pt"
 viewBox="0.00 0.00 702.00 87.50" xmlns="http://www.w3.org/2000/svg" xmlns:xlink="http://www.w3.org/1999/xlink">
<g id="graph0" class="graph" transform="scale(1 1) rotate(0) translate(4 83.5)">
<title>project.pc.net.ServerThread.setStopFlag</title>
<polygon fill="white" stroke="none" points="-4,4 -4,-83.5 698,-83.5 698,4 -4,4"/>
<!-- Node67 -->
<g id="node1" class="node"><title>Node67</title>
<polygon fill="#bfbfbf" stroke="black" points="0,-14 0,-40 130,-40 130,-14 0,-14"/>
<text text-anchor="start" x="8" y="-29.6" font-family="Helvetica,sans-Serif" font-size="8.00">project.pc.net.ServerThread.set</text>
<text text-anchor="middle" x="65" y="-20.6" font-family="Helvetica,sans-Serif" font-size="8.00">StopFlag</text>
</g>
<!-- Node68 -->
<g id="node2" class="node"><title>Node68</title>
<g id="a_node2"><a xlink:href="../../d9/d47/a00129.html#a7213b1ea044d9c361299b497bc8308b3" target="_top" xlink:title="Method to disconnect a client. ">
<polygon fill="white" stroke="black" points="166,-36.5 166,-53.5 335,-53.5 335,-36.5 166,-36.5"/>
<text text-anchor="middle" x="250.5" y="-43.1" font-family="Helvetica,sans-Serif" font-size="8.00">project.pc.net.NetworkManager.disconnect</text>
</a>
</g>
</g>
<!-- Node67&#45;&gt;Node68 -->
<g id="edge1" class="edge"><title>Node67&#45;&gt;Node68</title>
<path fill="none" stroke="midnightblue" d="M140.267,-34.2851C148.635,-35.1059 157.205,-35.9465 165.683,-36.7782"/>
<polygon fill="midnightblue" stroke="midnightblue" points="140.473,-30.7886 130.179,-33.2955 139.79,-37.7551 140.473,-30.7886"/>
</g>
<!-- Node72 -->
<g id="node6" class="node"><title>Node72</title>
<g id="a_node6"><a xlink:href="../../da/d1e/a00149.html#a6262e65e0cfc1e2830af1ab11eabf116" target="_top" xlink:title="Performs operations for communication with a client. ">
<polygon fill="white" stroke="black" points="185,-0.5 185,-17.5 316,-17.5 316,-0.5 185,-0.5"/>
<text text-anchor="middle" x="250.5" y="-7.1" font-family="Helvetica,sans-Serif" font-size="8.00">project.pc.net.ServerThread.run</text>
</a>
</g>
</g>
<!-- Node67&#45;&gt;Node72 -->
<g id="edge6" class="edge"><title>Node67&#45;&gt;Node72</title>
<path fill="none" stroke="midnightblue" d="M140.26,-19.7157C154.992,-18.2705 170.35,-16.764 184.736,-15.3529"/>
<polygon fill="midnightblue" stroke="midnightblue" points="139.79,-16.2449 130.179,-20.7045 140.473,-23.2114 139.79,-16.2449"/>
</g>
<!-- Node69 -->
<g id="node3" class="node"><title>Node69</title>
<g id="a_node3"><a xlink:href="../../dd/d42/a00109.html#af518df4286470e49c976c3410c72100b" target="_top" xlink:title="Invoked when an action occurs. ">
<polygon fill="white" stroke="black" points="556,-53 556,-79 691,-79 691,-53 556,-53"/>
<text text-anchor="start" x="564" y="-68.6" font-family="Helvetica,sans-Serif" font-size="8.00">project.pc.gui.MainWindow.action</text>
<text text-anchor="middle" x="623.5" y="-59.6" font-family="Helvetica,sans-Serif" font-size="8.00">Performed</text>
</a>
</g>
</g>
<!-- Node68&#45;&gt;Node69 -->
<g id="edge2" class="edge"><title>Node68&#45;&gt;Node69</title>
<path fill="none" stroke="midnightblue" d="M345.57,-50.3247C411.176,-54.0383 497.129,-58.9036 555.764,-62.2225"/>
<polygon fill="midnightblue" stroke="midnightblue" points="345.404,-46.8098 335.222,-49.739 345.008,-53.7986 345.404,-46.8098"/>
</g>
<!-- Node70 -->
<g id="node4" class="node"><title>Node70</title>
<g id="a_node4"><a xlink:href="../../d9/d47/a00129.html#a61581904d96f5be8906b740585486ebc" target="_top" xlink:title="Method to stop server. ">
<polygon fill="white" stroke="black" points="371,-11 371,-37 517,-37 517,-11 371,-11"/>
<text text-anchor="start" x="379" y="-26.6" font-family="Helvetica,sans-Serif" font-size="8.00">project.pc.net.NetworkManager.stop</text>
<text text-anchor="middle" x="444" y="-17.6" font-family="Helvetica,sans-Serif" font-size="8.00">Server</text>
</a>
</g>
</g>
<!-- Node68&#45;&gt;Node70 -->
<g id="edge3" class="edge"><title>Node68&#45;&gt;Node70</title>
<path fill="none" stroke="midnightblue" d="M339.208,-35.3819C349.795,-34.2209 360.515,-33.0454 370.844,-31.9127"/>
<polygon fill="midnightblue" stroke="midnightblue" points="338.673,-31.9195 329.114,-36.4888 339.436,-38.8778 338.673,-31.9195"/>
</g>
<!-- Node70&#45;&gt;Node69 -->
<g id="edge4" class="edge"><title>Node70&#45;&gt;Node69</title>
<path fill="none" stroke="midnightblue" d="M510.147,-39.4151C528.929,-43.8593 549.232,-48.6634 567.345,-52.9492"/>
<polygon fill="midnightblue" stroke="midnightblue" points="510.726,-35.9556 500.189,-37.0588 509.114,-42.7675 510.726,-35.9556"/>
</g>
<!-- Node71 -->
<g id="node5" class="node"><title>Node71</title>
<g id="a_node5"><a xlink:href="../../dd/d42/a00109.html#a9b7fdbe2729882c790a6366878b5c5c3" target="_top" xlink:title="Gracefully terminates the application. ">
<polygon fill="white" stroke="black" points="553,-8 553,-34 694,-34 694,-8 553,-8"/>
<text text-anchor="start" x="561" y="-23.6" font-family="Helvetica,sans-Serif" font-size="8.00">project.pc.gui.MainWindow.window</text>
<text text-anchor="middle" x="623.5" y="-14.6" font-family="Helvetica,sans-Serif" font-size="8.00">Closing</text>
</a>
</g>
</g>
<!-- Node70&#45;&gt;Node71 -->
<g id="edge5" class="edge"><title>Node70&#45;&gt;Node71</title>
<path fill="none" stroke="midnightblue" d="M527.234,-22.6101C535.833,-22.4648 544.514,-22.3181 552.952,-22.1755"/>
<polygon fill="midnightblue" stroke="midnightblue" points="527.135,-19.1112 517.196,-22.7798 527.254,-26.1102 527.135,-19.1112"/>
</g>
</g>
</svg>
