<?xml version="1.0" encoding="UTF-8" standalone="no"?>
<!DOCTYPE svg PUBLIC "-//W3C//DTD SVG 1.1//EN"
 "http://www.w3.org/Graphics/SVG/1.1/DTD/svg11.dtd">
<!-- Generated by graphviz version 2.38.0 (20140413.2041)
 -->
<!-- Title: project.pc.net.ServerThread.getTimeout Pages: 1 -->
<svg width="703pt" height="80pt"
 viewBox="0.00 0.00 703.00 80.00" xmlns="http://www.w3.org/2000/svg" xmlns:xlink="http://www.w3.org/1999/xlink">
<g id="graph0" class="graph" transform="scale(1 1) rotate(0) translate(4 76)">
<title>project.pc.net.ServerThread.getTimeout</title>
<polygon fill="white" stroke="none" points="-4,4 -4,-76 699,-76 699,4 -4,4"/>
<!-- Node19 -->
<g id="node1" class="node"><title>Node19</title>
<polygon fill="#bfbfbf" stroke="black" points="0,-24.5 0,-50.5 131,-50.5 131,-24.5 0,-24.5"/>
<text text-anchor="start" x="8" y="-40.1" font-family="Helvetica,sans-Serif" font-size="8.00">project.pc.net.ServerThread.get</text>
<text text-anchor="middle" x="65.5" y="-31.1" font-family="Helvetica,sans-Serif" font-size="8.00">Timeout</text>
</g>
<!-- Node20 -->
<g id="node2" class="node"><title>Node20</title>
<g id="a_node2"><a xlink:href="../../d9/d47/a00129.html#a7213b1ea044d9c361299b497bc8308b3" target="_top" xlink:title="Method to disconnect a client. ">
<polygon fill="white" stroke="black" points="167,-29 167,-46 336,-46 336,-29 167,-29"/>
<text text-anchor="middle" x="251.5" y="-35.6" font-family="Helvetica,sans-Serif" font-size="8.00">project.pc.net.NetworkManager.disconnect</text>
</a>
</g>
</g>
<!-- Node19&#45;&gt;Node20 -->
<g id="edge1" class="edge"><title>Node19&#45;&gt;Node20</title>
<path fill="none" stroke="midnightblue" d="M141.31,-37.5C149.768,-37.5 158.428,-37.5 166.988,-37.5"/>
<polygon fill="midnightblue" stroke="midnightblue" points="141.113,-34.0001 131.113,-37.5 141.113,-41.0001 141.113,-34.0001"/>
</g>
<!-- Node21 -->
<g id="node3" class="node"><title>Node21</title>
<g id="a_node3"><a xlink:href="../../dd/d42/a00109.html#af518df4286470e49c976c3410c72100b" target="_top" xlink:title="Invoked when an action occurs. ">
<polygon fill="white" stroke="black" points="557,-45.5 557,-71.5 692,-71.5 692,-45.5 557,-45.5"/>
<text text-anchor="start" x="565" y="-61.1" font-family="Helvetica,sans-Serif" font-size="8.00">project.pc.gui.MainWindow.action</text>
<text text-anchor="middle" x="624.5" y="-52.1" font-family="Helvetica,sans-Serif" font-size="8.00">Performed</text>
</a>
</g>
</g>
<!-- Node20&#45;&gt;Node21 -->
<g id="edge2" class="edge"><title>Node20&#45;&gt;Node21</title>
<path fill="none" stroke="midnightblue" d="M346.57,-42.8247C412.176,-46.5383 498.129,-51.4036 556.764,-54.7225"/>
<polygon fill="midnightblue" stroke="midnightblue" points="346.404,-39.3098 336.222,-42.239 346.008,-46.2986 346.404,-39.3098"/>
</g>
<!-- Node22 -->
<g id="node4" class="node"><title>Node22</title>
<g id="a_node4"><a xlink:href="../../d9/d47/a00129.html#a61581904d96f5be8906b740585486ebc" target="_top" xlink:title="Method to stop server. ">
<polygon fill="white" stroke="black" points="372,-3.5 372,-29.5 518,-29.5 518,-3.5 372,-3.5"/>
<text text-anchor="start" x="380" y="-19.1" font-family="Helvetica,sans-Serif" font-size="8.00">project.pc.net.NetworkManager.stop</text>
<text text-anchor="middle" x="445" y="-10.1" font-family="Helvetica,sans-Serif" font-size="8.00">Server</text>
</a>
</g>
</g>
<!-- Node20&#45;&gt;Node22 -->
<g id="edge3" class="edge"><title>Node20&#45;&gt;Node22</title>
<path fill="none" stroke="midnightblue" d="M340.208,-27.8819C350.795,-26.7209 361.515,-25.5454 371.844,-24.4127"/>
<polygon fill="midnightblue" stroke="midnightblue" points="339.673,-24.4195 330.114,-28.9888 340.436,-31.3778 339.673,-24.4195"/>
</g>
<!-- Node22&#45;&gt;Node21 -->
<g id="edge4" class="edge"><title>Node22&#45;&gt;Node21</title>
<path fill="none" stroke="midnightblue" d="M511.147,-31.9151C529.929,-36.3593 550.232,-41.1634 568.345,-45.4492"/>
<polygon fill="midnightblue" stroke="midnightblue" points="511.726,-28.4556 501.189,-29.5588 510.114,-35.2675 511.726,-28.4556"/>
</g>
<!-- Node23 -->
<g id="node5" class="node"><title>Node23</title>
<g id="a_node5"><a xlink:href="../../dd/d42/a00109.html#a9b7fdbe2729882c790a6366878b5c5c3" target="_top" xlink:title="Gracefully terminates the application. ">
<polygon fill="white" stroke="black" points="554,-0.5 554,-26.5 695,-26.5 695,-0.5 554,-0.5"/>
<text text-anchor="start" x="562" y="-16.1" font-family="Helvetica,sans-Serif" font-size="8.00">project.pc.gui.MainWindow.window</text>
<text text-anchor="middle" x="624.5" y="-7.1" font-family="Helvetica,sans-Serif" font-size="8.00">Closing</text>
</a>
</g>
</g>
<!-- Node22&#45;&gt;Node23 -->
<g id="edge5" class="edge"><title>Node22&#45;&gt;Node23</title>
<path fill="none" stroke="midnightblue" d="M528.234,-15.1101C536.833,-14.9648 545.514,-14.8181 553.952,-14.6755"/>
<polygon fill="midnightblue" stroke="midnightblue" points="528.135,-11.6112 518.196,-15.2798 528.254,-18.6102 528.135,-11.6112"/>
</g>
</g>
</svg>
