<?xml version="1.0" encoding="UTF-8" standalone="no"?>
<!DOCTYPE svg PUBLIC "-//W3C//DTD SVG 1.1//EN"
 "http://www.w3.org/Graphics/SVG/1.1/DTD/svg11.dtd">
<!-- Generated by graphviz version 2.38.0 (20140413.2041)
 -->
<!-- Title: project.pc.net.ServerThread.ServerThread Pages: 1 -->
<svg width="487pt" height="297pt"
 viewBox="0.00 0.00 487.00 297.00" xmlns="http://www.w3.org/2000/svg" xmlns:xlink="http://www.w3.org/1999/xlink">
<g id="graph0" class="graph" transform="scale(1 1) rotate(0) translate(4 293)">
<title>project.pc.net.ServerThread.ServerThread</title>
<polygon fill="white" stroke="none" points="-4,4 -4,-293 483,-293 483,4 -4,4"/>
<!-- Node0 -->
<g id="node1" class="node"><title>Node0</title>
<polygon fill="#bfbfbf" stroke="black" points="0,-127.5 0,-153.5 119,-153.5 119,-127.5 0,-127.5"/>
<text text-anchor="start" x="8" y="-143.1" font-family="Helvetica,sans-Serif" font-size="8.00">project.pc.net.ServerThread.</text>
<text text-anchor="middle" x="59.5" y="-134.1" font-family="Helvetica,sans-Serif" font-size="8.00">ServerThread</text>
</g>
<!-- Node1 -->
<g id="node2" class="node"><title>Node1</title>
<g id="a_node2"><a xlink:href="../../da/d01/a00153.html#a7b612b8772ef017393e75ca8e33350a8" target="_top" xlink:title="Method to decrypt cipher text using AES&#45;256 bit decryption algorithm. ">
<polygon fill="white" stroke="black" points="155,-262.5 155,-288.5 312,-288.5 312,-262.5 155,-262.5"/>
<text text-anchor="start" x="163" y="-278.1" font-family="Helvetica,sans-Serif" font-size="8.00">project.pc.security.EKEProvider.decrypt</text>
<text text-anchor="middle" x="233.5" y="-269.1" font-family="Helvetica,sans-Serif" font-size="8.00">String</text>
</a>
</g>
</g>
<!-- Node0&#45;&gt;Node1 -->
<g id="edge1" class="edge"><title>Node0&#45;&gt;Node1</title>
<path fill="none" stroke="midnightblue" d="M67.7574,-153.514C81.5861,-177.099 114.021,-226.917 155,-253.5 157.614,-255.196 160.361,-256.763 163.197,-258.212"/>
<polygon fill="midnightblue" stroke="midnightblue" points="161.952,-261.491 172.504,-262.444 164.85,-255.119 161.952,-261.491"/>
</g>
<!-- Node2 -->
<g id="node3" class="node"><title>Node2</title>
<g id="a_node3"><a xlink:href="../../d8/dfa/a00121.html#a6036266a6ec66852427a016c37d4feeb" target="_top" xlink:title="Returns the canonical hostname of the client. ">
<polygon fill="white" stroke="black" points="176.5,-217.5 176.5,-243.5 290.5,-243.5 290.5,-217.5 176.5,-217.5"/>
<text text-anchor="start" x="184.5" y="-233.1" font-family="Helvetica,sans-Serif" font-size="8.00">project.pc.net.ClientInfo.get</text>
<text text-anchor="middle" x="233.5" y="-224.1" font-family="Helvetica,sans-Serif" font-size="8.00">ClientInfo</text>
</a>
</g>
</g>
<!-- Node0&#45;&gt;Node2 -->
<g id="edge2" class="edge"><title>Node0&#45;&gt;Node2</title>
<path fill="none" stroke="midnightblue" d="M75.168,-153.573C92.9121,-168.763 124.244,-193.637 155,-208.5 159.077,-210.47 163.362,-212.294 167.738,-213.977"/>
<polygon fill="midnightblue" stroke="midnightblue" points="166.821,-217.366 177.416,-217.438 169.178,-210.775 166.821,-217.366"/>
</g>
<!-- Node3 -->
<g id="node4" class="node"><title>Node3</title>
<g id="a_node4"><a xlink:href="../../da/d01/a00153.html#a19f87f26aff06bf22806c998a059f5a3" target="_top" xlink:title="Generates and returns a randomly generated pairing key. ">
<polygon fill="white" stroke="black" points="162.5,-172.5 162.5,-198.5 304.5,-198.5 304.5,-172.5 162.5,-172.5"/>
<text text-anchor="start" x="170.5" y="-188.1" font-family="Helvetica,sans-Serif" font-size="8.00">project.pc.security.EKEProvider.get</text>
<text text-anchor="middle" x="233.5" y="-179.1" font-family="Helvetica,sans-Serif" font-size="8.00">PairingKey</text>
</a>
</g>
</g>
<!-- Node0&#45;&gt;Node3 -->
<g id="edge3" class="edge"><title>Node0&#45;&gt;Node3</title>
<path fill="none" stroke="midnightblue" d="M110.25,-153.516C129.775,-158.624 152.351,-164.531 172.749,-169.868"/>
<polygon fill="midnightblue" stroke="midnightblue" points="172.004,-173.29 182.565,-172.436 173.776,-166.518 172.004,-173.29"/>
</g>
<!-- Node4 -->
<g id="node5" class="node"><title>Node4</title>
<g id="a_node5"><a xlink:href="../../d8/dfa/a00121.html#a7f53b43ca9f84e2468069ca675961270" target="_top" xlink:title="Returns the public key of the client. ">
<polygon fill="white" stroke="black" points="176.5,-127.5 176.5,-153.5 290.5,-153.5 290.5,-127.5 176.5,-127.5"/>
<text text-anchor="start" x="184.5" y="-143.1" font-family="Helvetica,sans-Serif" font-size="8.00">project.pc.net.ClientInfo.get</text>
<text text-anchor="middle" x="233.5" y="-134.1" font-family="Helvetica,sans-Serif" font-size="8.00">PublicKey</text>
</a>
</g>
</g>
<!-- Node0&#45;&gt;Node4 -->
<g id="edge4" class="edge"><title>Node0&#45;&gt;Node4</title>
<path fill="none" stroke="midnightblue" d="M119.212,-140.5C134.38,-140.5 150.811,-140.5 166.331,-140.5"/>
<polygon fill="midnightblue" stroke="midnightblue" points="166.376,-144 176.376,-140.5 166.376,-137 166.376,-144"/>
</g>
<!-- Node5 -->
<g id="node6" class="node"><title>Node5</title>
<g id="a_node6"><a xlink:href="../../dd/d42/a00109.html#ae27e3d2453405f787a49ec39170b0b90" target="_top" xlink:title="Shows a dialog window displaying the pairing key. ">
<polygon fill="white" stroke="black" points="167,-82.5 167,-108.5 300,-108.5 300,-82.5 167,-82.5"/>
<text text-anchor="start" x="175" y="-98.1" font-family="Helvetica,sans-Serif" font-size="8.00">project.pc.gui.MainWindow.show</text>
<text text-anchor="middle" x="233.5" y="-89.1" font-family="Helvetica,sans-Serif" font-size="8.00">PairingKeyDialog</text>
</a>
</g>
</g>
<!-- Node0&#45;&gt;Node5 -->
<g id="edge5" class="edge"><title>Node0&#45;&gt;Node5</title>
<path fill="none" stroke="midnightblue" d="M110.25,-127.484C129.775,-122.376 152.351,-116.469 172.749,-111.132"/>
<polygon fill="midnightblue" stroke="midnightblue" points="173.776,-114.482 182.565,-108.564 172.004,-107.71 173.776,-114.482"/>
</g>
<!-- Node8 -->
<g id="node9" class="node"><title>Node8</title>
<g id="a_node9"><a xlink:href="../../d0/de8/a00133.html#abcc7cdb069e839a0101249d4c5f8dbe7" target="_top" xlink:title="Removes a client connection from this NetworkState. ">
<polygon fill="white" stroke="black" points="161,-46 161,-63 306,-63 306,-46 161,-46"/>
<text text-anchor="middle" x="233.5" y="-52.6" font-family="Helvetica,sans-Serif" font-size="8.00">project.pc.net.NetworkState.remove</text>
</a>
</g>
</g>
<!-- Node0&#45;&gt;Node8 -->
<g id="edge8" class="edge"><title>Node0&#45;&gt;Node8</title>
<path fill="none" stroke="midnightblue" d="M75.1131,-127.439C92.8043,-112.299 124.086,-87.6248 155,-73.5 161.497,-70.5315 168.521,-67.988 175.596,-65.8187"/>
<polygon fill="midnightblue" stroke="midnightblue" points="176.564,-69.1823 185.23,-63.0878 174.655,-62.4476 176.564,-69.1823"/>
</g>
<!-- Node9 -->
<g id="node10" class="node"><title>Node9</title>
<g id="a_node10"><a xlink:href="../../da/d01/a00153.html#a358af2d8a6e28fff1cad953d1524f2f5" target="_top" xlink:title="Method to encrypt plaintext using AES 256&#45;bit encryption algorithm. ">
<polygon fill="white" stroke="black" points="155,-0.5 155,-26.5 312,-26.5 312,-0.5 155,-0.5"/>
<text text-anchor="start" x="163" y="-16.1" font-family="Helvetica,sans-Serif" font-size="8.00">project.pc.security.EKEProvider.encrypt</text>
<text text-anchor="middle" x="233.5" y="-7.1" font-family="Helvetica,sans-Serif" font-size="8.00">String</text>
</a>
</g>
</g>
<!-- Node0&#45;&gt;Node9 -->
<g id="edge9" class="edge"><title>Node0&#45;&gt;Node9</title>
<path fill="none" stroke="midnightblue" d="M68.9753,-127.195C83.7514,-105.074 116.368,-60.7662 155,-36.5 158.38,-34.377 161.965,-32.4419 165.668,-30.6791"/>
<polygon fill="midnightblue" stroke="midnightblue" points="167.259,-33.805 175.067,-26.6433 164.497,-27.3729 167.259,-33.805"/>
</g>
<!-- Node6 -->
<g id="node7" class="node"><title>Node6</title>
<g id="a_node7"><a xlink:href="../../da/d1e/a00149.html#a8b402f7ddbbf9b77b0e1b501237fcc51" target="_top" xlink:title="Returns the javax.swing.JDialog object used for displaying notifications. ">
<polygon fill="white" stroke="black" points="348,-104.5 348,-130.5 479,-130.5 479,-104.5 348,-104.5"/>
<text text-anchor="start" x="356" y="-120.1" font-family="Helvetica,sans-Serif" font-size="8.00">project.pc.net.ServerThread.get</text>
<text text-anchor="middle" x="413.5" y="-111.1" font-family="Helvetica,sans-Serif" font-size="8.00">Dialog</text>
</a>
</g>
</g>
<!-- Node5&#45;&gt;Node6 -->
<g id="edge6" class="edge"><title>Node5&#45;&gt;Node6</title>
<path fill="none" stroke="midnightblue" d="M300.022,-103.598C312.303,-105.116 325.225,-106.713 337.76,-108.262"/>
<polygon fill="midnightblue" stroke="midnightblue" points="337.356,-111.739 347.71,-109.492 338.215,-104.792 337.356,-111.739"/>
</g>
<!-- Node7 -->
<g id="node8" class="node"><title>Node7</title>
<g id="a_node8"><a xlink:href="../../da/d1e/a00149.html#a50960f7dd8b9f80a7962f2520170ddb5" target="_top" xlink:title="Sets a dialog window. ">
<polygon fill="white" stroke="black" points="348.5,-59.5 348.5,-85.5 478.5,-85.5 478.5,-59.5 348.5,-59.5"/>
<text text-anchor="start" x="356.5" y="-75.1" font-family="Helvetica,sans-Serif" font-size="8.00">project.pc.net.ServerThread.set</text>
<text text-anchor="middle" x="413.5" y="-66.1" font-family="Helvetica,sans-Serif" font-size="8.00">Dialog</text>
</a>
</g>
</g>
<!-- Node5&#45;&gt;Node7 -->
<g id="edge7" class="edge"><title>Node5&#45;&gt;Node7</title>
<path fill="none" stroke="midnightblue" d="M300.022,-87.0336C312.459,-85.4266 325.554,-83.7345 338.239,-82.0955"/>
<polygon fill="midnightblue" stroke="midnightblue" points="338.834,-85.5478 348.303,-80.7951 337.937,-78.6055 338.834,-85.5478"/>
</g>
</g>
</svg>
