<?xml version="1.0" encoding="UTF-8" standalone="no"?>
<!DOCTYPE svg PUBLIC "-//W3C//DTD SVG 1.1//EN"
 "http://www.w3.org/Graphics/SVG/1.1/DTD/svg11.dtd">
<!-- Generated by graphviz version 2.38.0 (20140413.2041)
 -->
<!-- Title: project.pc.net.ServerThread.run Pages: 1 -->
<svg width="844pt" height="887pt"
 viewBox="0.00 0.00 844.00 887.00" xmlns="http://www.w3.org/2000/svg" xmlns:xlink="http://www.w3.org/1999/xlink">
<g id="graph0" class="graph" transform="scale(1 1) rotate(0) translate(4 883)">
<title>project.pc.net.ServerThread.run</title>
<polygon fill="white" stroke="none" points="-4,4 -4,-883 840,-883 840,4 -4,4"/>
<!-- Node24 -->
<g id="node1" class="node"><title>Node24</title>
<polygon fill="#bfbfbf" stroke="black" points="0,-446 0,-463 131,-463 131,-446 0,-446"/>
<text text-anchor="middle" x="65.5" y="-452.6" font-family="Helvetica,sans-Serif" font-size="8.00">project.pc.net.ServerThread.run</text>
</g>
<!-- Node25 -->
<g id="node2" class="node"><title>Node25</title>
<g id="a_node2"><a xlink:href="../../d9/d4b/a00117.html#a515aa8a56cf37d12ecc99906dc6ce5e5" target="_top" xlink:title="Returns the status of the broadcast. ">
<polygon fill="white" stroke="black" points="192.5,-852.5 192.5,-878.5 300.5,-878.5 300.5,-852.5 192.5,-852.5"/>
<text text-anchor="start" x="200.5" y="-868.1" font-family="Helvetica,sans-Serif" font-size="8.00">project.pc.net.Broadcast</text>
<text text-anchor="middle" x="246.5" y="-859.1" font-family="Helvetica,sans-Serif" font-size="8.00">Thread.getBroadcastFlag</text>
</a>
</g>
</g>
<!-- Node24&#45;&gt;Node25 -->
<g id="edge1" class="edge"><title>Node24&#45;&gt;Node25</title>
<path fill="none" stroke="midnightblue" d="M67.575,-463.258C74.1582,-515.527 110.617,-785.954 167,-843.5 171.55,-848.144 176.995,-851.83 182.867,-854.752"/>
<polygon fill="midnightblue" stroke="midnightblue" points="181.804,-858.101 192.379,-858.743 184.512,-851.646 181.804,-858.101"/>
</g>
<!-- Node26 -->
<g id="node3" class="node"><title>Node26</title>
<g id="a_node3"><a xlink:href="../../d8/dfa/a00121.html#a2c117e3f059891739f2aae7c381a0935" target="_top" xlink:title="Adds java.net.Socket of the client. ">
<polygon fill="white" stroke="black" points="190,-807.5 190,-833.5 303,-833.5 303,-807.5 190,-807.5"/>
<text text-anchor="start" x="198" y="-823.1" font-family="Helvetica,sans-Serif" font-size="8.00">project.pc.net.ClientInfo.set</text>
<text text-anchor="middle" x="246.5" y="-814.1" font-family="Helvetica,sans-Serif" font-size="8.00">Socket</text>
</a>
</g>
</g>
<!-- Node24&#45;&gt;Node26 -->
<g id="edge2" class="edge"><title>Node24&#45;&gt;Node26</title>
<path fill="none" stroke="midnightblue" d="M66.2046,-463.203C65.2356,-506.374 66.8043,-699.4 167,-798.5 170.962,-802.419 175.563,-805.653 180.511,-808.32"/>
<polygon fill="midnightblue" stroke="midnightblue" points="179.182,-811.56 189.732,-812.533 182.092,-805.194 179.182,-811.56"/>
</g>
<!-- Node27 -->
<g id="node4" class="node"><title>Node27</title>
<g id="a_node4"><a xlink:href="../../da/d01/a00153.html#a358af2d8a6e28fff1cad953d1524f2f5" target="_top" xlink:title="Method to encrypt plaintext using AES 256&#45;bit encryption algorithm. ">
<polygon fill="white" stroke="black" points="168,-762.5 168,-788.5 325,-788.5 325,-762.5 168,-762.5"/>
<text text-anchor="start" x="176" y="-778.1" font-family="Helvetica,sans-Serif" font-size="8.00">project.pc.security.EKEProvider.encrypt</text>
<text text-anchor="middle" x="246.5" y="-769.1" font-family="Helvetica,sans-Serif" font-size="8.00">String</text>
</a>
</g>
</g>
<!-- Node24&#45;&gt;Node27 -->
<g id="edge3" class="edge"><title>Node24&#45;&gt;Node27</title>
<path fill="none" stroke="midnightblue" d="M66.6423,-463.12C67.7781,-502.714 77.8765,-668.811 167,-753.5 168.27,-754.707 169.6,-755.848 170.982,-756.927"/>
<polygon fill="midnightblue" stroke="midnightblue" points="169.124,-759.894 179.404,-762.459 172.967,-754.044 169.124,-759.894"/>
</g>
<!-- Node28 -->
<g id="node5" class="node"><title>Node28</title>
<g id="a_node5"><a xlink:href="../../dd/d42/a00109.html#a7c92096c43058ae8785238f7e6986289" target="_top" xlink:title="Shows a dialog window displaying the information that a client is successfully connected. ">
<polygon fill="white" stroke="black" points="180,-717.5 180,-743.5 313,-743.5 313,-717.5 180,-717.5"/>
<text text-anchor="start" x="188" y="-733.1" font-family="Helvetica,sans-Serif" font-size="8.00">project.pc.gui.MainWindow.show</text>
<text text-anchor="middle" x="246.5" y="-724.1" font-family="Helvetica,sans-Serif" font-size="8.00">ConnectionConfirmationDialog</text>
</a>
</g>
</g>
<!-- Node24&#45;&gt;Node28 -->
<g id="edge4" class="edge"><title>Node24&#45;&gt;Node28</title>
<path fill="none" stroke="midnightblue" d="M67.2094,-463.021C70.6517,-498.764 88.8037,-638.007 167,-708.5 168.337,-709.705 169.735,-710.845 171.185,-711.923"/>
<polygon fill="midnightblue" stroke="midnightblue" points="169.654,-715.095 179.985,-717.444 173.374,-709.165 169.654,-715.095"/>
</g>
<!-- Node31 -->
<g id="node8" class="node"><title>Node31</title>
<g id="a_node8"><a xlink:href="../../d8/dfa/a00121.html#a6036266a6ec66852427a016c37d4feeb" target="_top" xlink:title="Returns the canonical hostname of the client. ">
<polygon fill="white" stroke="black" points="372,-627.5 372,-653.5 486,-653.5 486,-627.5 372,-627.5"/>
<text text-anchor="start" x="380" y="-643.1" font-family="Helvetica,sans-Serif" font-size="8.00">project.pc.net.ClientInfo.get</text>
<text text-anchor="middle" x="429" y="-634.1" font-family="Helvetica,sans-Serif" font-size="8.00">ClientInfo</text>
</a>
</g>
</g>
<!-- Node24&#45;&gt;Node31 -->
<g id="edge7" class="edge"><title>Node24&#45;&gt;Node31</title>
<path fill="none" stroke="midnightblue" d="M68.5692,-463.225C75.9726,-492.27 104.121,-586.03 167,-624.5 225.42,-660.242 305.625,-659.415 361.651,-652.707"/>
<polygon fill="midnightblue" stroke="midnightblue" points="362.351,-656.146 371.82,-651.393 361.454,-649.203 362.351,-656.146"/>
</g>
<!-- Node32 -->
<g id="node9" class="node"><title>Node32</title>
<g id="a_node9"><a xlink:href="../../d0/de8/a00133.html#a7295c2727c8359a1228c006a8a58df25" target="_top" xlink:title="Adds a client connection to this NetworkState. ">
<polygon fill="white" stroke="black" points="181,-598 181,-615 312,-615 312,-598 181,-598"/>
<text text-anchor="middle" x="246.5" y="-604.6" font-family="Helvetica,sans-Serif" font-size="8.00">project.pc.net.NetworkState.add</text>
</a>
</g>
</g>
<!-- Node24&#45;&gt;Node32 -->
<g id="edge8" class="edge"><title>Node24&#45;&gt;Node32</title>
<path fill="none" stroke="midnightblue" d="M70.2657,-463.042C81.3034,-487.025 116.041,-555.379 167,-588.5 170.334,-590.667 173.896,-592.574 177.594,-594.254"/>
<polygon fill="midnightblue" stroke="midnightblue" points="176.428,-597.556 187.014,-597.975 178.999,-591.046 176.428,-597.556"/>
</g>
<!-- Node34 -->
<g id="node11" class="node"><title>Node34</title>
<g id="a_node11"><a xlink:href="../../dd/d42/a00109.html#aa4cbd50f8430b8a0d741a86312f29c1d" target="_top" xlink:title="Shows a dialog window displaying the error that an incorrect pairing key is sent by the client...">
<polygon fill="white" stroke="black" points="180,-672.5 180,-698.5 313,-698.5 313,-672.5 180,-672.5"/>
<text text-anchor="start" x="188" y="-688.1" font-family="Helvetica,sans-Serif" font-size="8.00">project.pc.gui.MainWindow.show</text>
<text text-anchor="middle" x="246.5" y="-679.1" font-family="Helvetica,sans-Serif" font-size="8.00">IncorrectPKeyDialog</text>
</a>
</g>
</g>
<!-- Node24&#45;&gt;Node34 -->
<g id="edge11" class="edge"><title>Node24&#45;&gt;Node34</title>
<path fill="none" stroke="midnightblue" d="M68.3468,-463.25C75.359,-494.362 103.231,-600.792 167,-657.5 171.502,-661.504 176.617,-664.946 182.026,-667.903"/>
<polygon fill="midnightblue" stroke="midnightblue" points="180.825,-671.211 191.349,-672.436 183.886,-664.916 180.825,-671.211"/>
</g>
<!-- Node35 -->
<g id="node12" class="node"><title>Node35</title>
<g id="a_node12"><a xlink:href="../../da/d01/a00153.html#a7b612b8772ef017393e75ca8e33350a8" target="_top" xlink:title="Method to decrypt cipher text using AES&#45;256 bit decryption algorithm. ">
<polygon fill="white" stroke="black" points="168,-552.5 168,-578.5 325,-578.5 325,-552.5 168,-552.5"/>
<text text-anchor="start" x="176" y="-568.1" font-family="Helvetica,sans-Serif" font-size="8.00">project.pc.security.EKEProvider.decrypt</text>
<text text-anchor="middle" x="246.5" y="-559.1" font-family="Helvetica,sans-Serif" font-size="8.00">String</text>
</a>
</g>
</g>
<!-- Node24&#45;&gt;Node35 -->
<g id="edge14" class="edge"><title>Node24&#45;&gt;Node35</title>
<path fill="none" stroke="midnightblue" d="M73.6299,-463.002C88.9038,-480.668 126.686,-521.528 167,-543.5 170.466,-545.389 174.109,-547.128 177.848,-548.726"/>
<polygon fill="midnightblue" stroke="midnightblue" points="176.71,-552.039 187.298,-552.417 179.257,-545.519 176.71,-552.039"/>
</g>
<!-- Node36 -->
<g id="node13" class="node"><title>Node36</title>
<g id="a_node13"><a xlink:href="../../dc/dfe/a00125.html#aaf36ebdf066fddb71a0e6a6a7ba29eef" target="_top" xlink:title="Returns the type of operation field of this DataWrapper. ">
<polygon fill="white" stroke="black" points="182,-507.5 182,-533.5 311,-533.5 311,-507.5 182,-507.5"/>
<text text-anchor="start" x="190" y="-523.1" font-family="Helvetica,sans-Serif" font-size="8.00">project.pc.net.DataWrapper.get</text>
<text text-anchor="middle" x="246.5" y="-514.1" font-family="Helvetica,sans-Serif" font-size="8.00">OperationType</text>
</a>
</g>
</g>
<!-- Node24&#45;&gt;Node36 -->
<g id="edge15" class="edge"><title>Node24&#45;&gt;Node36</title>
<path fill="none" stroke="midnightblue" d="M83.9897,-463.049C103.806,-472.523 137.224,-487.868 167,-498.5 172.861,-500.593 179.024,-502.615 185.213,-504.531"/>
<polygon fill="midnightblue" stroke="midnightblue" points="184.335,-507.922 194.92,-507.446 186.349,-501.217 184.335,-507.922"/>
</g>
<!-- Node37 -->
<g id="node14" class="node"><title>Node37</title>
<g id="a_node14"><a xlink:href="../../da/d1e/a00149.html#ab57650eb365d7ac7bf6b60acd9e2c254" target="_top" xlink:title="Sets stop flag. ">
<polygon fill="white" stroke="black" points="181.5,-462.5 181.5,-488.5 311.5,-488.5 311.5,-462.5 181.5,-462.5"/>
<text text-anchor="start" x="189.5" y="-478.1" font-family="Helvetica,sans-Serif" font-size="8.00">project.pc.net.ServerThread.set</text>
<text text-anchor="middle" x="246.5" y="-469.1" font-family="Helvetica,sans-Serif" font-size="8.00">StopFlag</text>
</a>
</g>
</g>
<!-- Node24&#45;&gt;Node37 -->
<g id="edge16" class="edge"><title>Node24&#45;&gt;Node37</title>
<path fill="none" stroke="midnightblue" d="M131.123,-462.081C144.131,-463.607 157.899,-465.223 171.206,-466.784"/>
<polygon fill="midnightblue" stroke="midnightblue" points="170.932,-470.276 181.272,-467.965 171.748,-463.323 170.932,-470.276"/>
</g>
<!-- Node38 -->
<g id="node15" class="node"><title>Node38</title>
<g id="a_node15"><a xlink:href="../../d1/d84/a00097.html#ab76fce85b9d26d9601b0cc113d524bd6" target="_top" xlink:title="Method to perform mouse move on the basis of 3&#45;D input from the mobile device. ">
<polygon fill="white" stroke="black" points="167,-426 167,-443 326,-443 326,-426 167,-426"/>
<text text-anchor="middle" x="246.5" y="-432.6" font-family="Helvetica,sans-Serif" font-size="8.00">project.pc.device.MouseController.move</text>
</a>
</g>
</g>
<!-- Node24&#45;&gt;Node38 -->
<g id="edge17" class="edge"><title>Node24&#45;&gt;Node38</title>
<path fill="none" stroke="midnightblue" d="M131.123,-447.28C140.242,-446.261 149.736,-445.2 159.182,-444.144"/>
<polygon fill="midnightblue" stroke="midnightblue" points="159.844,-447.592 169.393,-443.004 159.066,-440.636 159.844,-447.592"/>
</g>
<!-- Node46 -->
<g id="node23" class="node"><title>Node46</title>
<g id="a_node23"><a xlink:href="../../dc/dfe/a00125.html#a09bcf20a6aa13bd9c8ef1bfaa8e0194f" target="_top" xlink:title="Returns the project.pc.sensor.representation.Quaternion object stored in this DataWrapper. ">
<polygon fill="white" stroke="black" points="182,-380.5 182,-406.5 311,-406.5 311,-380.5 182,-380.5"/>
<text text-anchor="start" x="190" y="-396.1" font-family="Helvetica,sans-Serif" font-size="8.00">project.pc.net.DataWrapper.get</text>
<text text-anchor="middle" x="246.5" y="-387.1" font-family="Helvetica,sans-Serif" font-size="8.00">QuaternionObject</text>
</a>
</g>
</g>
<!-- Node24&#45;&gt;Node46 -->
<g id="edge27" class="edge"><title>Node24&#45;&gt;Node46</title>
<path fill="none" stroke="midnightblue" d="M87.894,-445.866C108.124,-437.832 139.408,-425.744 167,-416.5 174.116,-414.116 181.639,-411.736 189.098,-409.461"/>
<polygon fill="midnightblue" stroke="midnightblue" points="190.257,-412.767 198.827,-406.537 188.242,-406.063 190.257,-412.767"/>
</g>
<!-- Node47 -->
<g id="node24" class="node"><title>Node47</title>
<g id="a_node24"><a xlink:href="../../dc/dfe/a00125.html#a21ab6a8749638b0a2e90c6e8ea9ace0e" target="_top" xlink:title="Checks if the stored project.pc.sensor.representation.Quaternion object is the initial one...">
<polygon fill="white" stroke="black" points="185,-335.5 185,-361.5 308,-361.5 308,-335.5 185,-335.5"/>
<text text-anchor="start" x="193" y="-351.1" font-family="Helvetica,sans-Serif" font-size="8.00">project.pc.net.DataWrapper.is</text>
<text text-anchor="middle" x="246.5" y="-342.1" font-family="Helvetica,sans-Serif" font-size="8.00">InitQuat</text>
</a>
</g>
</g>
<!-- Node24&#45;&gt;Node47 -->
<g id="edge28" class="edge"><title>Node24&#45;&gt;Node47</title>
<path fill="none" stroke="midnightblue" d="M74.2162,-445.984C89.9906,-429.085 127.765,-391.162 167,-370.5 170.561,-368.625 174.3,-366.894 178.133,-365.3"/>
<polygon fill="midnightblue" stroke="midnightblue" points="179.709,-368.445 187.806,-361.612 177.216,-361.904 179.709,-368.445"/>
</g>
<!-- Node48 -->
<g id="node25" class="node"><title>Node48</title>
<g id="a_node25"><a xlink:href="../../dc/dfe/a00125.html#a32a66618dc0a8c892e539426c4f24b1b" target="_top" xlink:title="Returns the mouse movement sensitivity value stored in this DataWrapper. ">
<polygon fill="white" stroke="black" points="182,-290.5 182,-316.5 311,-316.5 311,-290.5 182,-290.5"/>
<text text-anchor="start" x="190" y="-306.1" font-family="Helvetica,sans-Serif" font-size="8.00">project.pc.net.DataWrapper.get</text>
<text text-anchor="middle" x="246.5" y="-297.1" font-family="Helvetica,sans-Serif" font-size="8.00">Sensitivity</text>
</a>
</g>
</g>
<!-- Node24&#45;&gt;Node48 -->
<g id="edge29" class="edge"><title>Node24&#45;&gt;Node48</title>
<path fill="none" stroke="midnightblue" d="M70.7732,-445.73C82.6108,-422.38 118.203,-358.25 167,-325.5 169.424,-323.873 171.967,-322.366 174.594,-320.969"/>
<polygon fill="midnightblue" stroke="midnightblue" points="176.243,-324.061 183.798,-316.634 173.26,-317.728 176.243,-324.061"/>
</g>
<!-- Node49 -->
<g id="node26" class="node"><title>Node49</title>
<g id="a_node26"><a xlink:href="../../dc/dfe/a00125.html#a00d64709351558cbf911e0eb42e12bcb" target="_top" xlink:title="Returns the displacement value along x&#45;axis stored in this DataWrapper. ">
<polygon fill="white" stroke="black" points="179.5,-254 179.5,-271 313.5,-271 313.5,-254 179.5,-254"/>
<text text-anchor="middle" x="246.5" y="-260.6" font-family="Helvetica,sans-Serif" font-size="8.00">project.pc.net.DataWrapper.getX</text>
</a>
</g>
</g>
<!-- Node24&#45;&gt;Node49 -->
<g id="edge30" class="edge"><title>Node24&#45;&gt;Node49</title>
<path fill="none" stroke="midnightblue" d="M68.7655,-445.969C76.7895,-417.503 106.671,-325.063 167,-280.5 169.643,-278.548 172.462,-276.802 175.403,-275.242"/>
<polygon fill="midnightblue" stroke="midnightblue" points="176.877,-278.416 184.536,-271.095 173.983,-272.043 176.877,-278.416"/>
</g>
<!-- Node50 -->
<g id="node27" class="node"><title>Node50</title>
<g id="a_node27"><a xlink:href="../../dc/dfe/a00125.html#acf9e81c8f715548c0846bb1caad4e54a" target="_top" xlink:title="Returns the displacement value along y&#45;axis stored in this DataWrapper. ">
<polygon fill="white" stroke="black" points="179.5,-218 179.5,-235 313.5,-235 313.5,-218 179.5,-218"/>
<text text-anchor="middle" x="246.5" y="-224.6" font-family="Helvetica,sans-Serif" font-size="8.00">project.pc.net.DataWrapper.getY</text>
</a>
</g>
</g>
<!-- Node24&#45;&gt;Node50 -->
<g id="edge31" class="edge"><title>Node24&#45;&gt;Node50</title>
<path fill="none" stroke="midnightblue" d="M67.9384,-445.632C73.6983,-413.128 98.206,-299.555 167,-244.5 169.303,-242.657 171.759,-240.996 174.328,-239.498"/>
<polygon fill="midnightblue" stroke="midnightblue" points="176.01,-242.572 183.436,-235.015 172.918,-236.291 176.01,-242.572"/>
</g>
<!-- Node51 -->
<g id="node28" class="node"><title>Node51</title>
<g id="a_node28"><a xlink:href="../../d1/d84/a00097.html#aaaacdf40d241e6b2b72a6380f915c341" target="_top" xlink:title="Method to perform mouse button click operations. ">
<polygon fill="white" stroke="black" points="172,-172.5 172,-198.5 321,-198.5 321,-172.5 172,-172.5"/>
<text text-anchor="start" x="180" y="-188.1" font-family="Helvetica,sans-Serif" font-size="8.00">project.pc.device.MouseController.do</text>
<text text-anchor="middle" x="246.5" y="-179.1" font-family="Helvetica,sans-Serif" font-size="8.00">Operation</text>
</a>
</g>
</g>
<!-- Node24&#45;&gt;Node51 -->
<g id="edge32" class="edge"><title>Node24&#45;&gt;Node51</title>
<path fill="none" stroke="midnightblue" d="M67.3767,-445.792C71.4013,-410.507 91.2949,-276.795 167,-208.5 168.756,-206.916 170.616,-205.44 172.559,-204.066"/>
<polygon fill="midnightblue" stroke="midnightblue" points="174.775,-206.817 181.544,-198.666 171.17,-200.817 174.775,-206.817"/>
</g>
<!-- Node52 -->
<g id="node29" class="node"><title>Node52</title>
<g id="a_node29"><a xlink:href="../../dc/dfe/a00125.html#ac0d2ebd067b1765a1810195c5af02180" target="_top" xlink:title="Returns the data field of this DataWrapper for keyboard and mouse button click operations. ">
<polygon fill="white" stroke="black" points="173.5,-136 173.5,-153 319.5,-153 319.5,-136 173.5,-136"/>
<text text-anchor="middle" x="246.5" y="-142.6" font-family="Helvetica,sans-Serif" font-size="8.00">project.pc.net.DataWrapper.getData</text>
</a>
</g>
</g>
<!-- Node24&#45;&gt;Node52 -->
<g id="edge33" class="edge"><title>Node24&#45;&gt;Node52</title>
<path fill="none" stroke="midnightblue" d="M66.6252,-445.98C67.6853,-406.866 77.4996,-242.977 167,-162.5 168.732,-160.943 170.57,-159.512 172.495,-158.198"/>
<polygon fill="midnightblue" stroke="midnightblue" points="174.435,-161.122 181.416,-153.152 170.989,-155.029 174.435,-161.122"/>
</g>
<!-- Node53 -->
<g id="node30" class="node"><title>Node53</title>
<g id="a_node30"><a xlink:href="../../db/dab/a00089.html#ae930289f82ce2481eda6c76760d5c9e6" target="_top" xlink:title="Method to perform the keyboard input operations. ">
<polygon fill="white" stroke="black" points="190,-90.5 190,-116.5 303,-116.5 303,-90.5 190,-90.5"/>
<text text-anchor="start" x="198" y="-106.1" font-family="Helvetica,sans-Serif" font-size="8.00">project.pc.device.Keyboard</text>
<text text-anchor="middle" x="246.5" y="-97.1" font-family="Helvetica,sans-Serif" font-size="8.00">Controller.doKeyOperation</text>
</a>
</g>
</g>
<!-- Node24&#45;&gt;Node53 -->
<g id="edge34" class="edge"><title>Node24&#45;&gt;Node53</title>
<path fill="none" stroke="midnightblue" d="M66.3718,-445.939C66.2307,-404.299 71.2397,-221.089 167,-126.5 170.978,-122.57 175.59,-119.305 180.546,-116.594"/>
<polygon fill="midnightblue" stroke="midnightblue" points="182.194,-119.687 189.776,-112.286 179.234,-113.344 182.194,-119.687"/>
</g>
<!-- Node54 -->
<g id="node31" class="node"><title>Node54</title>
<g id="a_node31"><a xlink:href="../../db/dab/a00089.html#a4520a89e12855f0b6dabcb788604fba9" target="_top" xlink:title="Method to perform keyboard input operations for different function keys. ">
<polygon fill="white" stroke="black" points="178,-45.5 178,-71.5 315,-71.5 315,-45.5 178,-45.5"/>
<text text-anchor="start" x="186" y="-61.1" font-family="Helvetica,sans-Serif" font-size="8.00">project.pc.device.Keyboard</text>
<text text-anchor="middle" x="246.5" y="-52.1" font-family="Helvetica,sans-Serif" font-size="8.00">Controller.doSpecialKeyOperation</text>
</a>
</g>
</g>
<!-- Node24&#45;&gt;Node54 -->
<g id="edge35" class="edge"><title>Node24&#45;&gt;Node54</title>
<path fill="none" stroke="midnightblue" d="M67.6707,-445.746C74.6675,-394.677 112.503,-135.585 167,-80.5 168.089,-79.3995 169.228,-78.3529 170.411,-77.3576"/>
<polygon fill="midnightblue" stroke="midnightblue" points="172.596,-80.1007 178.79,-71.5054 168.588,-74.3618 172.596,-80.1007"/>
</g>
<!-- Node29 -->
<g id="node6" class="node"><title>Node29</title>
<g id="a_node6"><a xlink:href="../../da/d1e/a00149.html#a8b402f7ddbbf9b77b0e1b501237fcc51" target="_top" xlink:title="Returns the javax.swing.JDialog object used for displaying notifications. ">
<polygon fill="white" stroke="black" points="363.5,-717.5 363.5,-743.5 494.5,-743.5 494.5,-717.5 363.5,-717.5"/>
<text text-anchor="start" x="371.5" y="-733.1" font-family="Helvetica,sans-Serif" font-size="8.00">project.pc.net.ServerThread.get</text>
<text text-anchor="middle" x="429" y="-724.1" font-family="Helvetica,sans-Serif" font-size="8.00">Dialog</text>
</a>
</g>
</g>
<!-- Node28&#45;&gt;Node29 -->
<g id="edge5" class="edge"><title>Node28&#45;&gt;Node29</title>
<path fill="none" stroke="midnightblue" d="M313.175,-730.5C326.188,-730.5 339.938,-730.5 353.227,-730.5"/>
<polygon fill="midnightblue" stroke="midnightblue" points="353.28,-734 363.28,-730.5 353.279,-727 353.28,-734"/>
</g>
<!-- Node30 -->
<g id="node7" class="node"><title>Node30</title>
<g id="a_node7"><a xlink:href="../../da/d1e/a00149.html#a50960f7dd8b9f80a7962f2520170ddb5" target="_top" xlink:title="Sets a dialog window. ">
<polygon fill="white" stroke="black" points="364,-672.5 364,-698.5 494,-698.5 494,-672.5 364,-672.5"/>
<text text-anchor="start" x="372" y="-688.1" font-family="Helvetica,sans-Serif" font-size="8.00">project.pc.net.ServerThread.set</text>
<text text-anchor="middle" x="429" y="-679.1" font-family="Helvetica,sans-Serif" font-size="8.00">Dialog</text>
</a>
</g>
</g>
<!-- Node28&#45;&gt;Node30 -->
<g id="edge6" class="edge"><title>Node28&#45;&gt;Node30</title>
<path fill="none" stroke="midnightblue" d="M299.708,-717.484C320.384,-712.329 344.322,-706.362 365.88,-700.987"/>
<polygon fill="midnightblue" stroke="midnightblue" points="366.741,-704.38 375.597,-698.564 365.047,-697.588 366.741,-704.38"/>
</g>
<!-- Node32&#45;&gt;Node31 -->
<g id="edge10" class="edge"><title>Node32&#45;&gt;Node31</title>
<path fill="none" stroke="midnightblue" d="M293.048,-615.08C313.881,-619.004 338.966,-623.729 361.827,-628.035"/>
<polygon fill="midnightblue" stroke="midnightblue" points="361.334,-631.504 371.809,-629.915 362.629,-624.625 361.334,-631.504"/>
</g>
<!-- Node33 -->
<g id="node10" class="node"><title>Node33</title>
<g id="a_node10"><a xlink:href="../../d8/dfa/a00121.html#a9c964c18e633743493ad49ab9e7a2d53" target="_top" xlink:title="Returns the client Socket. ">
<polygon fill="white" stroke="black" points="372,-582.5 372,-608.5 486,-608.5 486,-582.5 372,-582.5"/>
<text text-anchor="start" x="380" y="-598.1" font-family="Helvetica,sans-Serif" font-size="8.00">project.pc.net.ClientInfo.get</text>
<text text-anchor="middle" x="429" y="-589.1" font-family="Helvetica,sans-Serif" font-size="8.00">Socket</text>
</a>
</g>
</g>
<!-- Node32&#45;&gt;Node33 -->
<g id="edge9" class="edge"><title>Node32&#45;&gt;Node33</title>
<path fill="none" stroke="midnightblue" d="M312.155,-602.56C328.17,-601.584 345.358,-600.536 361.461,-599.555"/>
<polygon fill="midnightblue" stroke="midnightblue" points="362.095,-603.023 371.864,-598.921 361.669,-596.036 362.095,-603.023"/>
</g>
<!-- Node34&#45;&gt;Node29 -->
<g id="edge12" class="edge"><title>Node34&#45;&gt;Node29</title>
<path fill="none" stroke="midnightblue" d="M299.708,-698.516C320.384,-703.671 344.322,-709.638 365.88,-715.013"/>
<polygon fill="midnightblue" stroke="midnightblue" points="365.047,-718.412 375.597,-717.436 366.741,-711.62 365.047,-718.412"/>
</g>
<!-- Node34&#45;&gt;Node30 -->
<g id="edge13" class="edge"><title>Node34&#45;&gt;Node30</title>
<path fill="none" stroke="midnightblue" d="M313.175,-685.5C326.348,-685.5 340.278,-685.5 353.719,-685.5"/>
<polygon fill="midnightblue" stroke="midnightblue" points="353.882,-689 363.882,-685.5 353.882,-682 353.882,-689"/>
</g>
<!-- Node39 -->
<g id="node16" class="node"><title>Node39</title>
<g id="a_node16"><a xlink:href="../../de/df3/a00185.html#ada934d56bb8ee100d1b467f16be30885" target="_top" xlink:title="Determines pointer location from current Quaternion object. ">
<polygon fill="white" stroke="black" points="371,-466.5 371,-492.5 487,-492.5 487,-466.5 371,-466.5"/>
<text text-anchor="start" x="379" y="-482.1" font-family="Helvetica,sans-Serif" font-size="8.00">project.pc.sensor.Sensor</text>
<text text-anchor="middle" x="429" y="-473.1" font-family="Helvetica,sans-Serif" font-size="8.00">DataHandler.pointerUpdate</text>
</a>
</g>
</g>
<!-- Node38&#45;&gt;Node39 -->
<g id="edge18" class="edge"><title>Node38&#45;&gt;Node39</title>
<path fill="none" stroke="midnightblue" d="M283.083,-443.016C296.538,-446.262 311.984,-450.017 326,-453.5 339.486,-456.851 353.961,-460.505 367.646,-463.987"/>
<polygon fill="midnightblue" stroke="midnightblue" points="366.891,-467.406 377.446,-466.485 368.62,-460.623 366.891,-467.406"/>
</g>
<!-- Node44 -->
<g id="node21" class="node"><title>Node44</title>
<g id="a_node21"><a xlink:href="../../d6/d7d/a00161.html#a62c0872f133e2ffc3f16211de4288b5f" target="_top" xlink:title="Returns the x&#45;coordinate of this point. ">
<polygon fill="white" stroke="black" points="362,-421.5 362,-447.5 496,-447.5 496,-421.5 362,-421.5"/>
<text text-anchor="start" x="370" y="-437.1" font-family="Helvetica,sans-Serif" font-size="8.00">project.pc.sensor.representation.</text>
<text text-anchor="middle" x="429" y="-428.1" font-family="Helvetica,sans-Serif" font-size="8.00">Cartesian2D.getX</text>
</a>
</g>
</g>
<!-- Node38&#45;&gt;Node44 -->
<g id="edge25" class="edge"><title>Node38&#45;&gt;Node44</title>
<path fill="none" stroke="midnightblue" d="M326.145,-434.5C334.587,-434.5 343.168,-434.5 351.584,-434.5"/>
<polygon fill="midnightblue" stroke="midnightblue" points="351.747,-438 361.747,-434.5 351.747,-431 351.747,-438"/>
</g>
<!-- Node45 -->
<g id="node22" class="node"><title>Node45</title>
<g id="a_node22"><a xlink:href="../../d6/d7d/a00161.html#a2001b342b42f29a044c197d3edba612c" target="_top" xlink:title="Returns the y&#45;coordinate of this point. ">
<polygon fill="white" stroke="black" points="362,-376.5 362,-402.5 496,-402.5 496,-376.5 362,-376.5"/>
<text text-anchor="start" x="370" y="-392.1" font-family="Helvetica,sans-Serif" font-size="8.00">project.pc.sensor.representation.</text>
<text text-anchor="middle" x="429" y="-383.1" font-family="Helvetica,sans-Serif" font-size="8.00">Cartesian2D.getY</text>
</a>
</g>
</g>
<!-- Node38&#45;&gt;Node45 -->
<g id="edge26" class="edge"><title>Node38&#45;&gt;Node45</title>
<path fill="none" stroke="midnightblue" d="M283.083,-425.984C296.538,-422.738 311.984,-418.983 326,-415.5 339.486,-412.149 353.961,-408.495 367.646,-405.013"/>
<polygon fill="midnightblue" stroke="midnightblue" points="368.62,-408.377 377.446,-402.515 366.891,-401.594 368.62,-408.377"/>
</g>
<!-- Node40 -->
<g id="node17" class="node"><title>Node40</title>
<g id="a_node17"><a xlink:href="../../d7/d3f/a00173.html#a8a6671613dce4e8f950f2a51d4ba31c0" target="_top" xlink:title="Rotates a 3&#45;D vector by this Quaternion. ">
<polygon fill="white" stroke="black" points="532,-466.5 532,-492.5 666,-492.5 666,-466.5 532,-466.5"/>
<text text-anchor="start" x="540" y="-482.1" font-family="Helvetica,sans-Serif" font-size="8.00">project.pc.sensor.representation.</text>
<text text-anchor="middle" x="599" y="-473.1" font-family="Helvetica,sans-Serif" font-size="8.00">Quaternion.rotateVector</text>
</a>
</g>
</g>
<!-- Node39&#45;&gt;Node40 -->
<g id="edge19" class="edge"><title>Node39&#45;&gt;Node40</title>
<path fill="none" stroke="midnightblue" d="M487.346,-479.5C498.448,-479.5 510.242,-479.5 521.835,-479.5"/>
<polygon fill="midnightblue" stroke="midnightblue" points="521.95,-483 531.95,-479.5 521.949,-476 521.95,-483"/>
</g>
<!-- Node41 -->
<g id="node18" class="node"><title>Node41</title>
<g id="a_node18"><a xlink:href="../../dd/d4c/a00177.html#a3cad02da7bcd7671731cef01eb04fdaf" target="_top" xlink:title="Returns the X&#45;dimension of this Vector3f. ">
<polygon fill="white" stroke="black" points="702,-511.5 702,-537.5 836,-537.5 836,-511.5 702,-511.5"/>
<text text-anchor="start" x="710" y="-527.1" font-family="Helvetica,sans-Serif" font-size="8.00">project.pc.sensor.representation.</text>
<text text-anchor="middle" x="769" y="-518.1" font-family="Helvetica,sans-Serif" font-size="8.00">Vector3f.getX</text>
</a>
</g>
</g>
<!-- Node39&#45;&gt;Node41 -->
<g id="edge23" class="edge"><title>Node39&#45;&gt;Node41</title>
<path fill="none" stroke="midnightblue" d="M481.64,-492.501C497.693,-496.176 515.506,-499.883 532,-502.5 585.103,-510.926 645.479,-516.482 691.869,-519.903"/>
<polygon fill="midnightblue" stroke="midnightblue" points="691.621,-523.394 701.846,-520.621 692.124,-516.412 691.621,-523.394"/>
</g>
<!-- Node42 -->
<g id="node19" class="node"><title>Node42</title>
<g id="a_node19"><a xlink:href="../../dd/d4c/a00177.html#af1f7d78724c9d942780ff7d2f67a8cd8" target="_top" xlink:title="Returns the Y&#45;dimension of this Vector3f. ">
<polygon fill="white" stroke="black" points="702,-421.5 702,-447.5 836,-447.5 836,-421.5 702,-421.5"/>
<text text-anchor="start" x="710" y="-437.1" font-family="Helvetica,sans-Serif" font-size="8.00">project.pc.sensor.representation.</text>
<text text-anchor="middle" x="769" y="-428.1" font-family="Helvetica,sans-Serif" font-size="8.00">Vector3f.getY</text>
</a>
</g>
</g>
<!-- Node39&#45;&gt;Node42 -->
<g id="edge24" class="edge"><title>Node39&#45;&gt;Node42</title>
<path fill="none" stroke="midnightblue" d="M484.837,-466.458C500.045,-463.173 516.607,-459.902 532,-457.5 585.146,-449.207 645.52,-443.388 691.9,-439.678"/>
<polygon fill="midnightblue" stroke="midnightblue" points="692.179,-443.167 701.875,-438.895 691.631,-436.188 692.179,-443.167"/>
</g>
<!-- Node40&#45;&gt;Node41 -->
<g id="edge20" class="edge"><title>Node40&#45;&gt;Node41</title>
<path fill="none" stroke="midnightblue" d="M648.593,-492.516C667.577,-497.601 689.515,-503.477 709.367,-508.795"/>
<polygon fill="midnightblue" stroke="midnightblue" points="708.661,-512.229 719.226,-511.436 710.472,-505.467 708.661,-512.229"/>
</g>
<!-- Node40&#45;&gt;Node42 -->
<g id="edge21" class="edge"><title>Node40&#45;&gt;Node42</title>
<path fill="none" stroke="midnightblue" d="M648.593,-466.484C667.577,-461.399 689.515,-455.523 709.367,-450.205"/>
<polygon fill="midnightblue" stroke="midnightblue" points="710.472,-453.533 719.226,-447.564 708.661,-446.771 710.472,-453.533"/>
</g>
<!-- Node43 -->
<g id="node20" class="node"><title>Node43</title>
<g id="a_node20"><a xlink:href="../../dd/d4c/a00177.html#a5fe713af4beb1b2632472b75517dcb88" target="_top" xlink:title="Returns the Z&#45;dimension of this Vector3f. ">
<polygon fill="white" stroke="black" points="702,-466.5 702,-492.5 836,-492.5 836,-466.5 702,-466.5"/>
<text text-anchor="start" x="710" y="-482.1" font-family="Helvetica,sans-Serif" font-size="8.00">project.pc.sensor.representation.</text>
<text text-anchor="middle" x="769" y="-473.1" font-family="Helvetica,sans-Serif" font-size="8.00">Vector3f.getZ</text>
</a>
</g>
</g>
<!-- Node40&#45;&gt;Node43 -->
<g id="edge22" class="edge"><title>Node40&#45;&gt;Node43</title>
<path fill="none" stroke="midnightblue" d="M666.398,-479.5C674.679,-479.5 683.199,-479.5 691.616,-479.5"/>
<polygon fill="midnightblue" stroke="midnightblue" points="691.809,-483 701.809,-479.5 691.809,-476 691.809,-483"/>
</g>
<!-- Node55 -->
<g id="node32" class="node"><title>Node55</title>
<g id="a_node32"><a xlink:href="../../d4/d7d/a00093.html#a2ebdf487b91420f50009ac775f2f85ea" target="_top" xlink:title="Checks if Shift key needs to be pressed for typing a character. ">
<polygon fill="white" stroke="black" points="369.5,-90.5 369.5,-116.5 488.5,-116.5 488.5,-90.5 369.5,-90.5"/>
<text text-anchor="start" x="377.5" y="-106.1" font-family="Helvetica,sans-Serif" font-size="8.00">project.pc.device.KeyCode.is</text>
<text text-anchor="middle" x="429" y="-97.1" font-family="Helvetica,sans-Serif" font-size="8.00">ShiftKey</text>
</a>
</g>
</g>
<!-- Node54&#45;&gt;Node55 -->
<g id="edge36" class="edge"><title>Node54&#45;&gt;Node55</title>
<path fill="none" stroke="midnightblue" d="M299.708,-71.5159C320.384,-76.6706 344.322,-82.6384 365.88,-88.0129"/>
<polygon fill="midnightblue" stroke="midnightblue" points="365.047,-91.4124 375.597,-90.4355 366.741,-84.6203 365.047,-91.4124"/>
</g>
<!-- Node56 -->
<g id="node33" class="node"><title>Node56</title>
<g id="a_node33"><a xlink:href="../../d4/d7d/a00093.html#af2f91211ca763bed7e49fec52ad2c784" target="_top" xlink:title="Checks the Shift Key Map and obtains the shift key code for a character. ">
<polygon fill="white" stroke="black" points="366.5,-45.5 366.5,-71.5 491.5,-71.5 491.5,-45.5 366.5,-45.5"/>
<text text-anchor="start" x="374.5" y="-61.1" font-family="Helvetica,sans-Serif" font-size="8.00">project.pc.device.KeyCode.get</text>
<text text-anchor="middle" x="429" y="-52.1" font-family="Helvetica,sans-Serif" font-size="8.00">ShiftCode</text>
</a>
</g>
</g>
<!-- Node54&#45;&gt;Node56 -->
<g id="edge37" class="edge"><title>Node54&#45;&gt;Node56</title>
<path fill="none" stroke="midnightblue" d="M315.225,-58.5C328.617,-58.5 342.716,-58.5 356.237,-58.5"/>
<polygon fill="midnightblue" stroke="midnightblue" points="356.442,-62.0001 366.442,-58.5 356.442,-55.0001 356.442,-62.0001"/>
</g>
<!-- Node57 -->
<g id="node34" class="node"><title>Node57</title>
<g id="a_node34"><a xlink:href="../../d4/d7d/a00093.html#a13e2b73c6da0cea92a43ee3bccd3ccb9" target="_top" xlink:title="Checks the Key Map and obtains the key code for a character (if Shift key press is not required)...">
<polygon fill="white" stroke="black" points="366.5,-0.5 366.5,-26.5 491.5,-26.5 491.5,-0.5 366.5,-0.5"/>
<text text-anchor="start" x="374.5" y="-16.1" font-family="Helvetica,sans-Serif" font-size="8.00">project.pc.device.KeyCode.get</text>
<text text-anchor="middle" x="429" y="-7.1" font-family="Helvetica,sans-Serif" font-size="8.00">CodeByChar</text>
</a>
</g>
</g>
<!-- Node54&#45;&gt;Node57 -->
<g id="edge38" class="edge"><title>Node54&#45;&gt;Node57</title>
<path fill="none" stroke="midnightblue" d="M299.708,-45.4841C320.384,-40.3294 344.322,-34.3616 365.88,-28.9871"/>
<polygon fill="midnightblue" stroke="midnightblue" points="366.741,-32.3797 375.597,-26.5645 365.047,-25.5876 366.741,-32.3797"/>
</g>
</g>
</svg>
