<?xml version="1.0" encoding="UTF-8" standalone="no"?>
<!DOCTYPE svg PUBLIC "-//W3C//DTD SVG 1.1//EN"
 "http://www.w3.org/Graphics/SVG/1.1/DTD/svg11.dtd">
<!-- Generated by graphviz version 2.38.0 (20140413.2041)
 -->
<!-- Title: project.pc.net.ServerThread.setDialog Pages: 1 -->
<svg width="474pt" height="125pt"
 viewBox="0.00 0.00 474.00 125.00" xmlns="http://www.w3.org/2000/svg" xmlns:xlink="http://www.w3.org/1999/xlink">
<g id="graph0" class="graph" transform="scale(1 1) rotate(0) translate(4 121)">
<title>project.pc.net.ServerThread.setDialog</title>
<polygon fill="white" stroke="none" points="-4,4 -4,-121 470,-121 470,4 -4,4"/>
<!-- Node60 -->
<g id="node1" class="node"><title>Node60</title>
<polygon fill="#bfbfbf" stroke="black" points="0,-45.5 0,-71.5 130,-71.5 130,-45.5 0,-45.5"/>
<text text-anchor="start" x="8" y="-61.1" font-family="Helvetica,sans-Serif" font-size="8.00">project.pc.net.ServerThread.set</text>
<text text-anchor="middle" x="65" y="-52.1" font-family="Helvetica,sans-Serif" font-size="8.00">Dialog</text>
</g>
<!-- Node61 -->
<g id="node2" class="node"><title>Node61</title>
<g id="a_node2"><a xlink:href="../../dd/d42/a00109.html#ae27e3d2453405f787a49ec39170b0b90" target="_top" xlink:title="Shows a dialog window displaying the pairing key. ">
<polygon fill="white" stroke="black" points="166,-90.5 166,-116.5 299,-116.5 299,-90.5 166,-90.5"/>
<text text-anchor="start" x="174" y="-106.1" font-family="Helvetica,sans-Serif" font-size="8.00">project.pc.gui.MainWindow.show</text>
<text text-anchor="middle" x="232.5" y="-97.1" font-family="Helvetica,sans-Serif" font-size="8.00">PairingKeyDialog</text>
</a>
</g>
</g>
<!-- Node60&#45;&gt;Node61 -->
<g id="edge1" class="edge"><title>Node60&#45;&gt;Node61</title>
<path fill="none" stroke="midnightblue" d="M123.574,-74.1545C143.117,-79.4684 164.731,-85.3453 183.452,-90.4355"/>
<polygon fill="midnightblue" stroke="midnightblue" points="124.437,-70.7623 113.869,-71.5159 122.601,-77.5171 124.437,-70.7623"/>
</g>
<!-- Node63 -->
<g id="node4" class="node"><title>Node63</title>
<g id="a_node4"><a xlink:href="../../dd/d42/a00109.html#aa4cbd50f8430b8a0d741a86312f29c1d" target="_top" xlink:title="Shows a dialog window displaying the error that an incorrect pairing key is sent by the client...">
<polygon fill="white" stroke="black" points="166,-45.5 166,-71.5 299,-71.5 299,-45.5 166,-45.5"/>
<text text-anchor="start" x="174" y="-61.1" font-family="Helvetica,sans-Serif" font-size="8.00">project.pc.gui.MainWindow.show</text>
<text text-anchor="middle" x="232.5" y="-52.1" font-family="Helvetica,sans-Serif" font-size="8.00">IncorrectPKeyDialog</text>
</a>
</g>
</g>
<!-- Node60&#45;&gt;Node63 -->
<g id="edge3" class="edge"><title>Node60&#45;&gt;Node63</title>
<path fill="none" stroke="midnightblue" d="M140.638,-58.5C149.047,-58.5 157.569,-58.5 165.852,-58.5"/>
<polygon fill="midnightblue" stroke="midnightblue" points="140.461,-55.0001 130.461,-58.5 140.46,-62.0001 140.461,-55.0001"/>
</g>
<!-- Node65 -->
<g id="node6" class="node"><title>Node65</title>
<g id="a_node6"><a xlink:href="../../dd/d42/a00109.html#a7c92096c43058ae8785238f7e6986289" target="_top" xlink:title="Shows a dialog window displaying the information that a client is successfully connected. ">
<polygon fill="white" stroke="black" points="166,-0.5 166,-26.5 299,-26.5 299,-0.5 166,-0.5"/>
<text text-anchor="start" x="174" y="-16.1" font-family="Helvetica,sans-Serif" font-size="8.00">project.pc.gui.MainWindow.show</text>
<text text-anchor="middle" x="232.5" y="-7.1" font-family="Helvetica,sans-Serif" font-size="8.00">ConnectionConfirmationDialog</text>
</a>
</g>
</g>
<!-- Node60&#45;&gt;Node65 -->
<g id="edge5" class="edge"><title>Node60&#45;&gt;Node65</title>
<path fill="none" stroke="midnightblue" d="M123.574,-42.8455C143.117,-37.5316 164.731,-31.6547 183.452,-26.5645"/>
<polygon fill="midnightblue" stroke="midnightblue" points="122.601,-39.4829 113.869,-45.4841 124.437,-46.2377 122.601,-39.4829"/>
</g>
<!-- Node62 -->
<g id="node3" class="node"><title>Node62</title>
<g id="a_node3"><a xlink:href="../../da/d1e/a00149.html#a386a1fb7b5607e2c4f68846c76e7cebd" target="_top" xlink:title="Constructor. ">
<polygon fill="white" stroke="black" points="341,-90.5 341,-116.5 460,-116.5 460,-90.5 341,-90.5"/>
<text text-anchor="start" x="349" y="-106.1" font-family="Helvetica,sans-Serif" font-size="8.00">project.pc.net.ServerThread.</text>
<text text-anchor="middle" x="400.5" y="-97.1" font-family="Helvetica,sans-Serif" font-size="8.00">ServerThread</text>
</a>
</g>
</g>
<!-- Node61&#45;&gt;Node62 -->
<g id="edge2" class="edge"><title>Node61&#45;&gt;Node62</title>
<path fill="none" stroke="midnightblue" d="M309.211,-103.5C319.824,-103.5 330.597,-103.5 340.829,-103.5"/>
<polygon fill="midnightblue" stroke="midnightblue" points="309.108,-100 299.108,-103.5 309.108,-107 309.108,-100"/>
</g>
<!-- Node64 -->
<g id="node5" class="node"><title>Node64</title>
<g id="a_node5"><a xlink:href="../../da/d1e/a00149.html#a6262e65e0cfc1e2830af1ab11eabf116" target="_top" xlink:title="Performs operations for communication with a client. ">
<polygon fill="white" stroke="black" points="335,-28 335,-45 466,-45 466,-28 335,-28"/>
<text text-anchor="middle" x="400.5" y="-34.6" font-family="Helvetica,sans-Serif" font-size="8.00">project.pc.net.ServerThread.run</text>
</a>
</g>
</g>
<!-- Node63&#45;&gt;Node64 -->
<g id="edge4" class="edge"><title>Node63&#45;&gt;Node64</title>
<path fill="none" stroke="midnightblue" d="M309.219,-48.4649C317.895,-47.3152 326.677,-46.1513 335.183,-45.024"/>
<polygon fill="midnightblue" stroke="midnightblue" points="308.561,-45.0215 299.108,-49.805 309.481,-51.9608 308.561,-45.0215"/>
</g>
<!-- Node65&#45;&gt;Node64 -->
<g id="edge6" class="edge"><title>Node65&#45;&gt;Node64</title>
<path fill="none" stroke="midnightblue" d="M309.155,-23.9823C318.864,-25.3276 328.709,-26.6916 338.152,-28"/>
<polygon fill="midnightblue" stroke="midnightblue" points="309.493,-20.4958 299.108,-22.5902 308.533,-27.4296 309.493,-20.4958"/>
</g>
</g>
</svg>
