<?xml version="1.0" encoding="UTF-8" standalone="no"?>
<!DOCTYPE svg PUBLIC "-//W3C//DTD SVG 1.1//EN"
 "http://www.w3.org/Graphics/SVG/1.1/DTD/svg11.dtd">
<!-- Generated by graphviz version 2.38.0 (20140413.2041)
 -->
<!-- Title: project.pc.net.ServerThread.getDialog Pages: 1 -->
<svg width="475pt" height="125pt"
 viewBox="0.00 0.00 475.00 125.00" xmlns="http://www.w3.org/2000/svg" xmlns:xlink="http://www.w3.org/1999/xlink">
<g id="graph0" class="graph" transform="scale(1 1) rotate(0) translate(4 121)">
<title>project.pc.net.ServerThread.getDialog</title>
<polygon fill="white" stroke="none" points="-4,4 -4,-121 471,-121 471,4 -4,4"/>
<!-- Node12 -->
<g id="node1" class="node"><title>Node12</title>
<polygon fill="#bfbfbf" stroke="black" points="0,-45.5 0,-71.5 131,-71.5 131,-45.5 0,-45.5"/>
<text text-anchor="start" x="8" y="-61.1" font-family="Helvetica,sans-Serif" font-size="8.00">project.pc.net.ServerThread.get</text>
<text text-anchor="middle" x="65.5" y="-52.1" font-family="Helvetica,sans-Serif" font-size="8.00">Dialog</text>
</g>
<!-- Node13 -->
<g id="node2" class="node"><title>Node13</title>
<g id="a_node2"><a xlink:href="../../dd/d42/a00109.html#ae27e3d2453405f787a49ec39170b0b90" target="_top" xlink:title="Shows a dialog window displaying the pairing key. ">
<polygon fill="white" stroke="black" points="167,-90.5 167,-116.5 300,-116.5 300,-90.5 167,-90.5"/>
<text text-anchor="start" x="175" y="-106.1" font-family="Helvetica,sans-Serif" font-size="8.00">project.pc.gui.MainWindow.show</text>
<text text-anchor="middle" x="233.5" y="-97.1" font-family="Helvetica,sans-Serif" font-size="8.00">PairingKeyDialog</text>
</a>
</g>
</g>
<!-- Node12&#45;&gt;Node13 -->
<g id="edge1" class="edge"><title>Node12&#45;&gt;Node13</title>
<path fill="none" stroke="midnightblue" d="M124.248,-74.1545C143.85,-79.4684 165.53,-85.3453 184.307,-90.4355"/>
<polygon fill="midnightblue" stroke="midnightblue" points="125.082,-70.7543 114.514,-71.5159 123.25,-77.5104 125.082,-70.7543"/>
</g>
<!-- Node15 -->
<g id="node4" class="node"><title>Node15</title>
<g id="a_node4"><a xlink:href="../../dd/d42/a00109.html#aa4cbd50f8430b8a0d741a86312f29c1d" target="_top" xlink:title="Shows a dialog window displaying the error that an incorrect pairing key is sent by the client...">
<polygon fill="white" stroke="black" points="167,-45.5 167,-71.5 300,-71.5 300,-45.5 167,-45.5"/>
<text text-anchor="start" x="175" y="-61.1" font-family="Helvetica,sans-Serif" font-size="8.00">project.pc.gui.MainWindow.show</text>
<text text-anchor="middle" x="233.5" y="-52.1" font-family="Helvetica,sans-Serif" font-size="8.00">IncorrectPKeyDialog</text>
</a>
</g>
</g>
<!-- Node12&#45;&gt;Node15 -->
<g id="edge3" class="edge"><title>Node12&#45;&gt;Node15</title>
<path fill="none" stroke="midnightblue" d="M141.164,-58.5C149.756,-58.5 158.468,-58.5 166.928,-58.5"/>
<polygon fill="midnightblue" stroke="midnightblue" points="141.155,-55.0001 131.155,-58.5 141.155,-62.0001 141.155,-55.0001"/>
</g>
<!-- Node17 -->
<g id="node6" class="node"><title>Node17</title>
<g id="a_node6"><a xlink:href="../../dd/d42/a00109.html#a7c92096c43058ae8785238f7e6986289" target="_top" xlink:title="Shows a dialog window displaying the information that a client is successfully connected. ">
<polygon fill="white" stroke="black" points="167,-0.5 167,-26.5 300,-26.5 300,-0.5 167,-0.5"/>
<text text-anchor="start" x="175" y="-16.1" font-family="Helvetica,sans-Serif" font-size="8.00">project.pc.gui.MainWindow.show</text>
<text text-anchor="middle" x="233.5" y="-7.1" font-family="Helvetica,sans-Serif" font-size="8.00">ConnectionConfirmationDialog</text>
</a>
</g>
</g>
<!-- Node12&#45;&gt;Node17 -->
<g id="edge5" class="edge"><title>Node12&#45;&gt;Node17</title>
<path fill="none" stroke="midnightblue" d="M124.248,-42.8455C143.85,-37.5316 165.53,-31.6547 184.307,-26.5645"/>
<polygon fill="midnightblue" stroke="midnightblue" points="123.25,-39.4896 114.514,-45.4841 125.082,-46.2457 123.25,-39.4896"/>
</g>
<!-- Node14 -->
<g id="node3" class="node"><title>Node14</title>
<g id="a_node3"><a xlink:href="../../da/d1e/a00149.html#a386a1fb7b5607e2c4f68846c76e7cebd" target="_top" xlink:title="Constructor. ">
<polygon fill="white" stroke="black" points="342,-90.5 342,-116.5 461,-116.5 461,-90.5 342,-90.5"/>
<text text-anchor="start" x="350" y="-106.1" font-family="Helvetica,sans-Serif" font-size="8.00">project.pc.net.ServerThread.</text>
<text text-anchor="middle" x="401.5" y="-97.1" font-family="Helvetica,sans-Serif" font-size="8.00">ServerThread</text>
</a>
</g>
</g>
<!-- Node13&#45;&gt;Node14 -->
<g id="edge2" class="edge"><title>Node13&#45;&gt;Node14</title>
<path fill="none" stroke="midnightblue" d="M310.211,-103.5C320.824,-103.5 331.597,-103.5 341.829,-103.5"/>
<polygon fill="midnightblue" stroke="midnightblue" points="310.108,-100 300.108,-103.5 310.108,-107 310.108,-100"/>
</g>
<!-- Node16 -->
<g id="node5" class="node"><title>Node16</title>
<g id="a_node5"><a xlink:href="../../da/d1e/a00149.html#a6262e65e0cfc1e2830af1ab11eabf116" target="_top" xlink:title="Performs operations for communication with a client. ">
<polygon fill="white" stroke="black" points="336,-28 336,-45 467,-45 467,-28 336,-28"/>
<text text-anchor="middle" x="401.5" y="-34.6" font-family="Helvetica,sans-Serif" font-size="8.00">project.pc.net.ServerThread.run</text>
</a>
</g>
</g>
<!-- Node15&#45;&gt;Node16 -->
<g id="edge4" class="edge"><title>Node15&#45;&gt;Node16</title>
<path fill="none" stroke="midnightblue" d="M310.219,-48.4649C318.895,-47.3152 327.677,-46.1513 336.183,-45.024"/>
<polygon fill="midnightblue" stroke="midnightblue" points="309.561,-45.0215 300.108,-49.805 310.481,-51.9608 309.561,-45.0215"/>
</g>
<!-- Node17&#45;&gt;Node16 -->
<g id="edge6" class="edge"><title>Node17&#45;&gt;Node16</title>
<path fill="none" stroke="midnightblue" d="M310.155,-23.9823C319.864,-25.3276 329.709,-26.6916 339.152,-28"/>
<polygon fill="midnightblue" stroke="midnightblue" points="310.493,-20.4958 300.108,-22.5902 309.533,-27.4296 310.493,-20.4958"/>
</g>
</g>
</svg>
