<?xml version="1.0" encoding="UTF-8" standalone="no"?>
<!DOCTYPE svg PUBLIC "-//W3C//DTD SVG 1.1//EN"
 "http://www.w3.org/Graphics/SVG/1.1/DTD/svg11.dtd">
<!-- Generated by graphviz version 2.38.0 (20140413.2041)
 -->
<!-- Title: project.pc.net.BroadcastThread Pages: 1 -->
<svg width="111pt" height="193pt"
 viewBox="0.00 0.00 111.00 193.00" xmlns="http://www.w3.org/2000/svg" xmlns:xlink="http://www.w3.org/1999/xlink">
<g id="graph0" class="graph" transform="scale(1 1) rotate(0) translate(4 189)">
<title>project.pc.net.BroadcastThread</title>
<polygon fill="white" stroke="none" points="-4,4 -4,-189 107,-189 107,4 -4,4"/>
<!-- Node0 -->
<g id="node1" class="node"><title>Node0</title>
<polygon fill="#bfbfbf" stroke="black" points="0,-0.5 0,-96.5 103,-96.5 103,-0.5 0,-0.5"/>
<text text-anchor="start" x="8" y="-86.1" font-family="Helvetica,sans-Serif" font-size="8.00">project.pc.net.Broadcast</text>
<text text-anchor="middle" x="51.5" y="-77.1" font-family="Helvetica,sans-Serif" font-size="8.00">Thread</text>
<polyline fill="none" stroke="black" points="0,-70.5 103,-70.5 "/>
<text text-anchor="middle" x="51.5" y="-60.1" font-family="Helvetica,sans-Serif" font-size="8.00"> </text>
<polyline fill="none" stroke="black" points="0,-53.5 103,-53.5 "/>
<text text-anchor="start" x="8" y="-43.1" font-family="Helvetica,sans-Serif" font-size="8.00">+ run()</text>
<text text-anchor="start" x="8" y="-34.1" font-family="Helvetica,sans-Serif" font-size="8.00">~ BroadcastThread()</text>
<text text-anchor="start" x="8" y="-25.1" font-family="Helvetica,sans-Serif" font-size="8.00">~ getBroadcastFlag()</text>
<text text-anchor="start" x="8" y="-16.1" font-family="Helvetica,sans-Serif" font-size="8.00">~ getTimeout()</text>
<text text-anchor="start" x="8" y="-7.1" font-family="Helvetica,sans-Serif" font-size="8.00">~ stopBroadcast()</text>
</g>
<!-- Node1 -->
<g id="node2" class="node"><title>Node1</title>
<polygon fill="white" stroke="#bfbfbf" points="26,-133.5 26,-184.5 77,-184.5 77,-133.5 26,-133.5"/>
<text text-anchor="middle" x="51.5" y="-174.1" font-family="Helvetica,sans-Serif" font-size="8.00">Runnable</text>
<polyline fill="none" stroke="#bfbfbf" points="26,-167.5 77,-167.5 "/>
<text text-anchor="middle" x="51.5" y="-157.1" font-family="Helvetica,sans-Serif" font-size="8.00"> </text>
<polyline fill="none" stroke="#bfbfbf" points="26,-150.5 77,-150.5 "/>
<text text-anchor="middle" x="51.5" y="-140.1" font-family="Helvetica,sans-Serif" font-size="8.00"> </text>
</g>
<!-- Node1&#45;&gt;Node0 -->
<g id="edge1" class="edge"><title>Node1&#45;&gt;Node0</title>
<path fill="none" stroke="midnightblue" d="M51.5,-123.158C51.5,-114.726 51.5,-105.573 51.5,-96.6779"/>
<polygon fill="none" stroke="midnightblue" points="48.0001,-123.38 51.5,-133.38 55.0001,-123.38 48.0001,-123.38"/>
</g>
</g>
</svg>
