<?xml version="1.0" encoding="UTF-8" standalone="no"?>
<!DOCTYPE svg PUBLIC "-//W3C//DTD SVG 1.1//EN"
 "http://www.w3.org/Graphics/SVG/1.1/DTD/svg11.dtd">
<!-- Generated by graphviz version 2.38.0 (20140413.2041)
 -->
<!-- Title: project.pc.net.NetworkState.add Pages: 1 -->
<svg width="289pt" height="80pt"
 viewBox="0.00 0.00 289.00 80.00" xmlns="http://www.w3.org/2000/svg" xmlns:xlink="http://www.w3.org/1999/xlink">
<g id="graph0" class="graph" transform="scale(1 1) rotate(0) translate(4 76)">
<title>project.pc.net.NetworkState.add</title>
<polygon fill="white" stroke="none" points="-4,4 -4,-76 285,-76 285,4 -4,4"/>
<!-- Node2 -->
<g id="node1" class="node"><title>Node2</title>
<polygon fill="#bfbfbf" stroke="black" points="0,-27 0,-44 131,-44 131,-27 0,-27"/>
<text text-anchor="middle" x="65.5" y="-33.6" font-family="Helvetica,sans-Serif" font-size="8.00">project.pc.net.NetworkState.add</text>
</g>
<!-- Node3 -->
<g id="node2" class="node"><title>Node3</title>
<g id="a_node2"><a xlink:href="../../d8/dfa/a00121.html#a9c964c18e633743493ad49ab9e7a2d53" target="_top" xlink:title="Returns the client Socket. ">
<polygon fill="white" stroke="black" points="167,-45.5 167,-71.5 281,-71.5 281,-45.5 167,-45.5"/>
<text text-anchor="start" x="175" y="-61.1" font-family="Helvetica,sans-Serif" font-size="8.00">project.pc.net.ClientInfo.get</text>
<text text-anchor="middle" x="224" y="-52.1" font-family="Helvetica,sans-Serif" font-size="8.00">Socket</text>
</a>
</g>
</g>
<!-- Node2&#45;&gt;Node3 -->
<g id="edge1" class="edge"><title>Node2&#45;&gt;Node3</title>
<path fill="none" stroke="midnightblue" d="M124.775,-44.0644C135.18,-45.5936 146.091,-47.1971 156.701,-48.7564"/>
<polygon fill="midnightblue" stroke="midnightblue" points="156.353,-52.2427 166.756,-50.234 157.371,-45.3171 156.353,-52.2427"/>
</g>
<!-- Node4 -->
<g id="node3" class="node"><title>Node4</title>
<g id="a_node3"><a xlink:href="../../d8/dfa/a00121.html#a6036266a6ec66852427a016c37d4feeb" target="_top" xlink:title="Returns the canonical hostname of the client. ">
<polygon fill="white" stroke="black" points="167,-0.5 167,-26.5 281,-26.5 281,-0.5 167,-0.5"/>
<text text-anchor="start" x="175" y="-16.1" font-family="Helvetica,sans-Serif" font-size="8.00">project.pc.net.ClientInfo.get</text>
<text text-anchor="middle" x="224" y="-7.1" font-family="Helvetica,sans-Serif" font-size="8.00">ClientInfo</text>
</a>
</g>
</g>
<!-- Node2&#45;&gt;Node4 -->
<g id="edge2" class="edge"><title>Node2&#45;&gt;Node4</title>
<path fill="none" stroke="midnightblue" d="M127.007,-26.9942C136.71,-25.6302 146.798,-24.2121 156.63,-22.83"/>
<polygon fill="midnightblue" stroke="midnightblue" points="157.34,-26.2646 166.756,-21.4066 156.366,-19.3328 157.34,-26.2646"/>
</g>
</g>
</svg>
