<?xml version="1.0" encoding="UTF-8" standalone="no"?>
<!DOCTYPE svg PUBLIC "-//W3C//DTD SVG 1.1//EN"
 "http://www.w3.org/Graphics/SVG/1.1/DTD/svg11.dtd">
<!-- Generated by graphviz version 2.38.0 (20140413.2041)
 -->
<!-- Title: project.pc.net.NetworkState.getsAddressMap Pages: 1 -->
<svg width="500pt" height="80pt"
 viewBox="0.00 0.00 500.00 80.00" xmlns="http://www.w3.org/2000/svg" xmlns:xlink="http://www.w3.org/1999/xlink">
<g id="graph0" class="graph" transform="scale(1 1) rotate(0) translate(4 76)">
<title>project.pc.net.NetworkState.getsAddressMap</title>
<polygon fill="white" stroke="none" points="-4,4 -4,-76 496,-76 496,4 -4,4"/>
<!-- Node13 -->
<g id="node1" class="node"><title>Node13</title>
<polygon fill="#bfbfbf" stroke="black" points="0,-22.5 0,-48.5 133,-48.5 133,-22.5 0,-22.5"/>
<text text-anchor="start" x="8" y="-38.1" font-family="Helvetica,sans-Serif" font-size="8.00">project.pc.net.NetworkState.gets</text>
<text text-anchor="middle" x="66.5" y="-29.1" font-family="Helvetica,sans-Serif" font-size="8.00">AddressMap</text>
</g>
<!-- Node14 -->
<g id="node2" class="node"><title>Node14</title>
<g id="a_node2"><a xlink:href="../../d9/d47/a00129.html#a61581904d96f5be8906b740585486ebc" target="_top" xlink:title="Method to stop server. ">
<polygon fill="white" stroke="black" points="169,-22.5 169,-48.5 315,-48.5 315,-22.5 169,-22.5"/>
<text text-anchor="start" x="177" y="-38.1" font-family="Helvetica,sans-Serif" font-size="8.00">project.pc.net.NetworkManager.stop</text>
<text text-anchor="middle" x="242" y="-29.1" font-family="Helvetica,sans-Serif" font-size="8.00">Server</text>
</a>
</g>
</g>
<!-- Node13&#45;&gt;Node14 -->
<g id="edge1" class="edge"><title>Node13&#45;&gt;Node14</title>
<path fill="none" stroke="midnightblue" d="M143.36,-35.5C151.853,-35.5 160.488,-35.5 168.932,-35.5"/>
<polygon fill="midnightblue" stroke="midnightblue" points="143.093,-32.0001 133.093,-35.5 143.093,-39.0001 143.093,-32.0001"/>
</g>
<!-- Node15 -->
<g id="node3" class="node"><title>Node15</title>
<g id="a_node3"><a xlink:href="../../dd/d42/a00109.html#af518df4286470e49c976c3410c72100b" target="_top" xlink:title="Invoked when an action occurs. ">
<polygon fill="white" stroke="black" points="354,-45.5 354,-71.5 489,-71.5 489,-45.5 354,-45.5"/>
<text text-anchor="start" x="362" y="-61.1" font-family="Helvetica,sans-Serif" font-size="8.00">project.pc.gui.MainWindow.action</text>
<text text-anchor="middle" x="421.5" y="-52.1" font-family="Helvetica,sans-Serif" font-size="8.00">Performed</text>
</a>
</g>
</g>
<!-- Node14&#45;&gt;Node15 -->
<g id="edge2" class="edge"><title>Node14&#45;&gt;Node15</title>
<path fill="none" stroke="midnightblue" d="M325.145,-46.1441C334.746,-47.3882 344.45,-48.6457 353.806,-49.8579"/>
<polygon fill="midnightblue" stroke="midnightblue" points="325.563,-42.6691 315.196,-44.855 324.663,-49.6111 325.563,-42.6691"/>
</g>
<!-- Node16 -->
<g id="node4" class="node"><title>Node16</title>
<g id="a_node4"><a xlink:href="../../dd/d42/a00109.html#a9b7fdbe2729882c790a6366878b5c5c3" target="_top" xlink:title="Gracefully terminates the application. ">
<polygon fill="white" stroke="black" points="351,-0.5 351,-26.5 492,-26.5 492,-0.5 351,-0.5"/>
<text text-anchor="start" x="359" y="-16.1" font-family="Helvetica,sans-Serif" font-size="8.00">project.pc.gui.MainWindow.window</text>
<text text-anchor="middle" x="421.5" y="-7.1" font-family="Helvetica,sans-Serif" font-size="8.00">Closing</text>
</a>
</g>
</g>
<!-- Node14&#45;&gt;Node16 -->
<g id="edge3" class="edge"><title>Node14&#45;&gt;Node16</title>
<path fill="none" stroke="midnightblue" d="M325.234,-25.3077C333.833,-24.2418 342.514,-23.1658 350.952,-22.12"/>
<polygon fill="midnightblue" stroke="midnightblue" points="324.69,-21.8482 315.196,-26.5518 325.551,-28.7951 324.69,-21.8482"/>
</g>
</g>
</svg>
