<?xml version="1.0" encoding="UTF-8" standalone="no"?>
<!DOCTYPE svg PUBLIC "-//W3C//DTD SVG 1.1//EN"
 "http://www.w3.org/Graphics/SVG/1.1/DTD/svg11.dtd">
<!-- Generated by graphviz version 2.38.0 (20140413.2041)
 -->
<!-- Title: project.pc.net.NetworkState.getListModel Pages: 1 -->
<svg width="287pt" height="35pt"
 viewBox="0.00 0.00 287.00 35.00" xmlns="http://www.w3.org/2000/svg" xmlns:xlink="http://www.w3.org/1999/xlink">
<g id="graph0" class="graph" transform="scale(1 1) rotate(0) translate(4 31)">
<title>project.pc.net.NetworkState.getListModel</title>
<polygon fill="white" stroke="none" points="-4,4 -4,-31 283,-31 283,4 -4,4"/>
<!-- Node10 -->
<g id="node1" class="node"><title>Node10</title>
<polygon fill="#bfbfbf" stroke="black" points="0,-0.5 0,-26.5 129,-26.5 129,-0.5 0,-0.5"/>
<text text-anchor="start" x="8" y="-16.1" font-family="Helvetica,sans-Serif" font-size="8.00">project.pc.net.NetworkState.get</text>
<text text-anchor="middle" x="64.5" y="-7.1" font-family="Helvetica,sans-Serif" font-size="8.00">ListModel</text>
</g>
<!-- Node11 -->
<g id="node2" class="node"><title>Node11</title>
<g id="a_node2"><a xlink:href="../../dd/d42/a00109.html#af925cf373c44b19199a7245f618adc35" target="_top" xlink:title="Constructor. ">
<polygon fill="white" stroke="black" points="165,-0.5 165,-26.5 279,-26.5 279,-0.5 165,-0.5"/>
<text text-anchor="start" x="173" y="-16.1" font-family="Helvetica,sans-Serif" font-size="8.00">project.pc.gui.MainWindow.</text>
<text text-anchor="middle" x="222" y="-7.1" font-family="Helvetica,sans-Serif" font-size="8.00">MainWindow</text>
</a>
</g>
</g>
<!-- Node10&#45;&gt;Node11 -->
<g id="edge1" class="edge"><title>Node10&#45;&gt;Node11</title>
<path fill="none" stroke="midnightblue" d="M139.463,-13.5C147.927,-13.5 156.45,-13.5 164.631,-13.5"/>
<polygon fill="midnightblue" stroke="midnightblue" points="139.197,-10.0001 129.196,-13.5 139.196,-17.0001 139.197,-10.0001"/>
</g>
</g>
</svg>
