<?xml version="1.0" encoding="UTF-8" standalone="no"?>
<!DOCTYPE svg PUBLIC "-//W3C//DTD SVG 1.1//EN"
 "http://www.w3.org/Graphics/SVG/1.1/DTD/svg11.dtd">
<!-- Generated by graphviz version 2.38.0 (20140413.2041)
 -->
<!-- Title: project.pc.net.NetworkState.getServerThread Pages: 1 -->
<!--zoomable 80 -->
<svg id="main" version="1.1" xmlns="http://www.w3.org/2000/svg" xmlns:xlink="http://www.w3.org/1999/xlink" xml:space="preserve" onload="init(evt)">
<style type="text/css"><![CDATA[
.edge:hover path { stroke: red; }
.edge:hover polygon { stroke: red; fill: red; }
]]></style>
<script type="text/javascript"><![CDATA[
var edges = document.getElementsByTagName('g');
if (edges && edges.length) {
  for (var i=0;i<edges.length;i++) {
    if (edges[i].id.substr(0,4)=='edge') {
      edges[i].setAttribute('class','edge');
    }
  }
}
]]></script>
        <defs>
                <circle id="rim" cx="0" cy="0" r="7"/>
                <circle id="rim2" cx="0" cy="0" r="3.5"/>
                <g id="zoomPlus">
                        <use xlink:href="#rim" fill="#404040">
                                <set attributeName="fill" to="#808080" begin="zoomplus.mouseover" end="zoomplus.mouseout"/>
                        </use>
                        <path d="M-4,0h8M0,-4v8" fill="none" stroke="white" stroke-width="1.5" pointer-events="none"/>
                </g>
                <g id="zoomMin">
                        <use xlink:href="#rim" fill="#404040">
                                <set attributeName="fill" to="#808080" begin="zoomminus.mouseover" end="zoomminus.mouseout"/>
                        </use>
                        <path d="M-4,0h8" fill="none" stroke="white" stroke-width="1.5" pointer-events="none"/>
                </g>
                <g id="dirArrow">
                        <path fill="none" stroke="white" stroke-width="1.5" d="M0,-3.0v7 M-2.5,-0.5L0,-3.0L2.5,-0.5"/>
                </g>
               <g id="resetDef">
                       <use xlink:href="#rim2" fill="#404040">
                               <set attributeName="fill" to="#808080" begin="reset.mouseover" end="reset.mouseout"/>
                       </use>
               </g>
        </defs>

<script type="text/javascript">
var viewWidth = 701;
var viewHeight = 80;
var sectionId = 'dynsection-5';
</script>
<script xlink:href="../../svgpan.js"/>
<svg id="graph" class="graph">
<g id="viewport">
<title>project.pc.net.NetworkState.getServerThread</title>
<polygon fill="white" stroke="none" points="-4,4 -4,-76 697,-76 697,4 -4,4"/>
<!-- Node18 -->
<g id="node1" class="node"><title>Node18</title>
<polygon fill="#bfbfbf" stroke="black" points="0,-24.5 0,-50.5 129,-50.5 129,-24.5 0,-24.5"/>
<text text-anchor="start" x="8" y="-40.1" font-family="Helvetica,sans-Serif" font-size="8.00">project.pc.net.NetworkState.get</text>
<text text-anchor="middle" x="64.5" y="-31.1" font-family="Helvetica,sans-Serif" font-size="8.00">ServerThread</text>
</g>
<!-- Node19 -->
<g id="node2" class="node"><title>Node19</title>
<g id="a_node2"><a xlink:href="../../d9/d47/a00129.html#a7213b1ea044d9c361299b497bc8308b3" target="_top" xlink:title="Method to disconnect a client. ">
<polygon fill="white" stroke="black" points="165,-29 165,-46 334,-46 334,-29 165,-29"/>
<text text-anchor="middle" x="249.5" y="-35.6" font-family="Helvetica,sans-Serif" font-size="8.00">project.pc.net.NetworkManager.disconnect</text>
</a>
</g>
</g>
<!-- Node18&#45;&gt;Node19 -->
<g id="edge1" class="edge"><title>Node18&#45;&gt;Node19</title>
<path fill="none" stroke="midnightblue" d="M139.318,-37.5C147.672,-37.5 156.232,-37.5 164.702,-37.5"/>
<polygon fill="midnightblue" stroke="midnightblue" points="139.248,-34.0001 129.248,-37.5 139.248,-41.0001 139.248,-34.0001"/>
</g>
<!-- Node20 -->
<g id="node3" class="node"><title>Node20</title>
<g id="a_node3"><a xlink:href="../../dd/d42/a00109.html#af518df4286470e49c976c3410c72100b" target="_top" xlink:title="Invoked when an action occurs. ">
<polygon fill="white" stroke="black" points="555,-45.5 555,-71.5 690,-71.5 690,-45.5 555,-45.5"/>
<text text-anchor="start" x="563" y="-61.1" font-family="Helvetica,sans-Serif" font-size="8.00">project.pc.gui.MainWindow.action</text>
<text text-anchor="middle" x="622.5" y="-52.1" font-family="Helvetica,sans-Serif" font-size="8.00">Performed</text>
</a>
</g>
</g>
<!-- Node19&#45;&gt;Node20 -->
<g id="edge2" class="edge"><title>Node19&#45;&gt;Node20</title>
<path fill="none" stroke="midnightblue" d="M344.57,-42.8247C410.176,-46.5383 496.129,-51.4036 554.764,-54.7225"/>
<polygon fill="midnightblue" stroke="midnightblue" points="344.404,-39.3098 334.222,-42.239 344.008,-46.2986 344.404,-39.3098"/>
</g>
<!-- Node21 -->
<g id="node4" class="node"><title>Node21</title>
<g id="a_node4"><a xlink:href="../../d9/d47/a00129.html#a61581904d96f5be8906b740585486ebc" target="_top" xlink:title="Method to stop server. ">
<polygon fill="white" stroke="black" points="370,-3.5 370,-29.5 516,-29.5 516,-3.5 370,-3.5"/>
<text text-anchor="start" x="378" y="-19.1" font-family="Helvetica,sans-Serif" font-size="8.00">project.pc.net.NetworkManager.stop</text>
<text text-anchor="middle" x="443" y="-10.1" font-family="Helvetica,sans-Serif" font-size="8.00">Server</text>
</a>
</g>
</g>
<!-- Node19&#45;&gt;Node21 -->
<g id="edge3" class="edge"><title>Node19&#45;&gt;Node21</title>
<path fill="none" stroke="midnightblue" d="M338.208,-27.8819C348.795,-26.7209 359.515,-25.5454 369.844,-24.4127"/>
<polygon fill="midnightblue" stroke="midnightblue" points="337.673,-24.4195 328.114,-28.9888 338.436,-31.3778 337.673,-24.4195"/>
</g>
<!-- Node21&#45;&gt;Node20 -->
<g id="edge4" class="edge"><title>Node21&#45;&gt;Node20</title>
<path fill="none" stroke="midnightblue" d="M509.147,-31.9151C527.929,-36.3593 548.232,-41.1634 566.345,-45.4492"/>
<polygon fill="midnightblue" stroke="midnightblue" points="509.726,-28.4556 499.189,-29.5588 508.114,-35.2675 509.726,-28.4556"/>
</g>
<!-- Node22 -->
<g id="node5" class="node"><title>Node22</title>
<g id="a_node5"><a xlink:href="../../dd/d42/a00109.html#a9b7fdbe2729882c790a6366878b5c5c3" target="_top" xlink:title="Gracefully terminates the application. ">
<polygon fill="white" stroke="black" points="552,-0.5 552,-26.5 693,-26.5 693,-0.5 552,-0.5"/>
<text text-anchor="start" x="560" y="-16.1" font-family="Helvetica,sans-Serif" font-size="8.00">project.pc.gui.MainWindow.window</text>
<text text-anchor="middle" x="622.5" y="-7.1" font-family="Helvetica,sans-Serif" font-size="8.00">Closing</text>
</a>
</g>
</g>
<!-- Node21&#45;&gt;Node22 -->
<g id="edge5" class="edge"><title>Node21&#45;&gt;Node22</title>
<path fill="none" stroke="midnightblue" d="M526.234,-15.1101C534.833,-14.9648 543.514,-14.8181 551.952,-14.6755"/>
<polygon fill="midnightblue" stroke="midnightblue" points="526.135,-11.6112 516.196,-15.2798 526.254,-18.6102 526.135,-11.6112"/>
</g>
</g>
</svg>
        <g id="navigator" transform="translate(0 0)" fill="#404254">
                <rect fill="#f2f5e9" fill-opacity="0.5" stroke="#606060" stroke-width=".5" x="0" y="0" width="60" height="60"/>
                <use id="zoomplus" xlink:href="#zoomPlus" x="17" y="9" onmousedown="handleZoom(evt,'in')"/>
                <use id="zoomminus" xlink:href="#zoomMin" x="42" y="9" onmousedown="handleZoom(evt,'out')"/>
                <use id="reset" xlink:href="#resetDef" x="30" y="36" onmousedown="handleReset()"/>
                <g id="arrowUp" xlink:href="#dirArrow" transform="translate(30 24)" onmousedown="handlePan(0,-1)">
                  <use xlink:href="#rim" fill="#404040">
                        <set attributeName="fill" to="#808080" begin="arrowUp.mouseover" end="arrowUp.mouseout"/>
                  </use>
                  <path fill="none" stroke="white" stroke-width="1.5" d="M0,-3.0v7 M-2.5,-0.5L0,-3.0L2.5,-0.5"/>
                </g>
                <g id="arrowRight" xlink:href="#dirArrow" transform="rotate(90) translate(36 -43)" onmousedown="handlePan(1,0)">
                  <use xlink:href="#rim" fill="#404040">
                        <set attributeName="fill" to="#808080" begin="arrowRight.mouseover" end="arrowRight.mouseout"/>
                  </use>
                  <path fill="none" stroke="white" stroke-width="1.5" d="M0,-3.0v7 M-2.5,-0.5L0,-3.0L2.5,-0.5"/>
                </g>
                <g id="arrowDown" xlink:href="#dirArrow" transform="rotate(180) translate(-30 -48)" onmousedown="handlePan(0,1)">
                  <use xlink:href="#rim" fill="#404040">
                        <set attributeName="fill" to="#808080" begin="arrowDown.mouseover" end="arrowDown.mouseout"/>
                  </use>
                  <path fill="none" stroke="white" stroke-width="1.5" d="M0,-3.0v7 M-2.5,-0.5L0,-3.0L2.5,-0.5"/>
                </g>
                <g id="arrowLeft" xlink:href="#dirArrow" transform="rotate(270) translate(-36 17)" onmousedown="handlePan(-1,0)">
                  <use xlink:href="#rim" fill="#404040">
                        <set attributeName="fill" to="#808080" begin="arrowLeft.mouseover" end="arrowLeft.mouseout"/>
                  </use>
                  <path fill="none" stroke="white" stroke-width="1.5" d="M0,-3.0v7 M-2.5,-0.5L0,-3.0L2.5,-0.5"/>
                </g>
        </g>
        <svg viewBox="0 0 15 15" width="100%" height="30px" preserveAspectRatio="xMaxYMin meet">
         <g id="arrow_out" transform="scale(0.3 0.3)">
          <a xlink:href="a00133_a98b2d231bf77423258ab8e2f3f3a5c0f_icgraph_org.svg" target="_base">
           <rect id="button" ry="5" rx="5" y="6" x="6" height="38" width="38"
                fill="#f2f5e9" fill-opacity="0.5" stroke="#606060" stroke-width="1.0"/>
           <path id="arrow"
             d="M 11.500037,31.436501 C 11.940474,20.09759 22.043105,11.32322 32.158766,21.979434 L 37.068811,17.246167 C 37.068811,17.246167 37.088388,32 37.088388,32 L 22.160133,31.978069 C 22.160133,31.978069 26.997745,27.140456 26.997745,27.140456 C 18.528582,18.264221 13.291696,25.230495 11.500037,31.436501 z"
             style="fill:#404040;"/>
          </a>
         </g>
        </svg>
</svg>
