<?xml version="1.0" encoding="UTF-8" standalone="no"?>
<!DOCTYPE svg PUBLIC "-//W3C//DTD SVG 1.1//EN"
 "http://www.w3.org/Graphics/SVG/1.1/DTD/svg11.dtd">
<!-- Generated by graphviz version 2.38.0 (20140413.2041)
 -->
<!-- Title: project.pc.sensor.representation.Cartesian2D.getY Pages: 1 -->
<svg width="504pt" height="35pt"
 viewBox="0.00 0.00 504.00 35.00" xmlns="http://www.w3.org/2000/svg" xmlns:xlink="http://www.w3.org/1999/xlink">
<g id="graph0" class="graph" transform="scale(1 1) rotate(0) translate(4 31)">
<title>project.pc.sensor.representation.Cartesian2D.getY</title>
<polygon fill="white" stroke="none" points="-4,4 -4,-31 500,-31 500,4 -4,4"/>
<!-- Node7 -->
<g id="node1" class="node"><title>Node7</title>
<polygon fill="#bfbfbf" stroke="black" points="0,-0.5 0,-26.5 134,-26.5 134,-0.5 0,-0.5"/>
<text text-anchor="start" x="8" y="-16.1" font-family="Helvetica,sans-Serif" font-size="8.00">project.pc.sensor.representation.</text>
<text text-anchor="middle" x="67" y="-7.1" font-family="Helvetica,sans-Serif" font-size="8.00">Cartesian2D.getY</text>
</g>
<!-- Node8 -->
<g id="node2" class="node"><title>Node8</title>
<g id="a_node2"><a xlink:href="../../d1/d84/a00097.html#ab76fce85b9d26d9601b0cc113d524bd6" target="_top" xlink:title="Method to perform mouse move on the basis of 3&#45;D input from the mobile device. ">
<polygon fill="white" stroke="black" points="170,-5 170,-22 329,-22 329,-5 170,-5"/>
<text text-anchor="middle" x="249.5" y="-11.6" font-family="Helvetica,sans-Serif" font-size="8.00">project.pc.device.MouseController.move</text>
</a>
</g>
</g>
<!-- Node7&#45;&gt;Node8 -->
<g id="edge1" class="edge"><title>Node7&#45;&gt;Node8</title>
<path fill="none" stroke="midnightblue" d="M144.343,-13.5C152.753,-13.5 161.328,-13.5 169.767,-13.5"/>
<polygon fill="midnightblue" stroke="midnightblue" points="144.187,-10.0001 134.187,-13.5 144.187,-17.0001 144.187,-10.0001"/>
</g>
<!-- Node9 -->
<g id="node3" class="node"><title>Node9</title>
<g id="a_node3"><a xlink:href="../../da/d1e/a00149.html#a6262e65e0cfc1e2830af1ab11eabf116" target="_top" xlink:title="Performs operations for communication with a client. ">
<polygon fill="white" stroke="black" points="365,-5 365,-22 496,-22 496,-5 365,-5"/>
<text text-anchor="middle" x="430.5" y="-11.6" font-family="Helvetica,sans-Serif" font-size="8.00">project.pc.net.ServerThread.run</text>
</a>
</g>
</g>
<!-- Node8&#45;&gt;Node9 -->
<g id="edge2" class="edge"><title>Node8&#45;&gt;Node9</title>
<path fill="none" stroke="midnightblue" d="M339.121,-13.5C347.754,-13.5 356.397,-13.5 364.73,-13.5"/>
<polygon fill="midnightblue" stroke="midnightblue" points="339.012,-10.0001 329.012,-13.5 339.012,-17.0001 339.012,-10.0001"/>
</g>
</g>
</svg>
