<?xml version="1.0" encoding="UTF-8" standalone="no"?>
<!DOCTYPE svg PUBLIC "-//W3C//DTD SVG 1.1//EN"
 "http://www.w3.org/Graphics/SVG/1.1/DTD/svg11.dtd">
<!-- Generated by graphviz version 2.38.0 (20140413.2041)
 -->
<!-- Title: project.pc.net.NetworkState Pages: 1 -->
<svg width="124pt" height="123pt"
 viewBox="0.00 0.00 124.00 123.00" xmlns="http://www.w3.org/2000/svg" xmlns:xlink="http://www.w3.org/1999/xlink">
<g id="graph0" class="graph" transform="scale(1 1) rotate(0) translate(4 119)">
<title>project.pc.net.NetworkState</title>
<polygon fill="white" stroke="none" points="-4,4 -4,-119 120,-119 120,4 -4,4"/>
<!-- Node0 -->
<g id="node1" class="node"><title>Node0</title>
<polygon fill="#bfbfbf" stroke="black" points="-7.10543e-15,-0.5 -7.10543e-15,-114.5 116,-114.5 116,-0.5 -7.10543e-15,-0.5"/>
<text text-anchor="middle" x="58" y="-104.1" font-family="Helvetica,sans-Serif" font-size="8.00">project.pc.net.NetworkState</text>
<polyline fill="none" stroke="black" points="-7.10543e-15,-97.5 116,-97.5 "/>
<text text-anchor="middle" x="58" y="-87.1" font-family="Helvetica,sans-Serif" font-size="8.00"> </text>
<polyline fill="none" stroke="black" points="-7.10543e-15,-80.5 116,-80.5 "/>
<text text-anchor="start" x="8" y="-70.1" font-family="Helvetica,sans-Serif" font-size="8.00">+ getListModel()</text>
<text text-anchor="start" x="8" y="-61.1" font-family="Helvetica,sans-Serif" font-size="8.00">+ isNoClientConnected()</text>
<text text-anchor="start" x="8" y="-52.1" font-family="Helvetica,sans-Serif" font-size="8.00">~ NetworkState()</text>
<text text-anchor="start" x="8" y="-43.1" font-family="Helvetica,sans-Serif" font-size="8.00">~ add()</text>
<text text-anchor="start" x="8" y="-34.1" font-family="Helvetica,sans-Serif" font-size="8.00">~ getConnectionMap()</text>
<text text-anchor="start" x="8" y="-25.1" font-family="Helvetica,sans-Serif" font-size="8.00">~ getsAddressMap()</text>
<text text-anchor="start" x="8" y="-16.1" font-family="Helvetica,sans-Serif" font-size="8.00">~ getServerThread()</text>
<text text-anchor="start" x="8" y="-7.1" font-family="Helvetica,sans-Serif" font-size="8.00">~ remove()</text>
</g>
</g>
</svg>
