<?xml version="1.0" encoding="UTF-8" standalone="no"?>
<!DOCTYPE svg PUBLIC "-//W3C//DTD SVG 1.1//EN"
 "http://www.w3.org/Graphics/SVG/1.1/DTD/svg11.dtd">
<!-- Generated by graphviz version 2.38.0 (20140413.2041)
 -->
<!-- Title: project.pc.gui.MainWindow.showPairingKeyDialog Pages: 1 -->
<svg width="296pt" height="35pt"
 viewBox="0.00 0.00 296.00 35.00" xmlns="http://www.w3.org/2000/svg" xmlns:xlink="http://www.w3.org/1999/xlink">
<g id="graph0" class="graph" transform="scale(1 1) rotate(0) translate(4 31)">
<title>project.pc.gui.MainWindow.showPairingKeyDialog</title>
<polygon fill="white" stroke="none" points="-4,4 -4,-31 292,-31 292,4 -4,4"/>
<!-- Node35 -->
<g id="node1" class="node"><title>Node35</title>
<polygon fill="#bfbfbf" stroke="black" points="0,-0.5 0,-26.5 133,-26.5 133,-0.5 0,-0.5"/>
<text text-anchor="start" x="8" y="-16.1" font-family="Helvetica,sans-Serif" font-size="8.00">project.pc.gui.MainWindow.show</text>
<text text-anchor="middle" x="66.5" y="-7.1" font-family="Helvetica,sans-Serif" font-size="8.00">PairingKeyDialog</text>
</g>
<!-- Node36 -->
<g id="node2" class="node"><title>Node36</title>
<g id="a_node2"><a xlink:href="../../da/d1e/a00149.html#a386a1fb7b5607e2c4f68846c76e7cebd" target="_top" xlink:title="Constructor. ">
<polygon fill="white" stroke="black" points="169,-0.5 169,-26.5 288,-26.5 288,-0.5 169,-0.5"/>
<text text-anchor="start" x="177" y="-16.1" font-family="Helvetica,sans-Serif" font-size="8.00">project.pc.net.ServerThread.</text>
<text text-anchor="middle" x="228.5" y="-7.1" font-family="Helvetica,sans-Serif" font-size="8.00">ServerThread</text>
</a>
</g>
</g>
<!-- Node35&#45;&gt;Node36 -->
<g id="edge1" class="edge"><title>Node35&#45;&gt;Node36</title>
<path fill="none" stroke="midnightblue" d="M143.169,-13.5C151.845,-13.5 160.589,-13.5 168.992,-13.5"/>
<polygon fill="midnightblue" stroke="midnightblue" points="143.04,-10.0001 133.04,-13.5 143.04,-17.0001 143.04,-10.0001"/>
</g>
</g>
</svg>
