<?xml version="1.0" encoding="UTF-8" standalone="no"?>
<!DOCTYPE svg PUBLIC "-//W3C//DTD SVG 1.1//EN"
 "http://www.w3.org/Graphics/SVG/1.1/DTD/svg11.dtd">
<!-- Generated by graphviz version 2.38.0 (20140413.2041)
 -->
<!-- Title: project.pc.gui.MainWindow.actionPerformed Pages: 1 -->
<!--zoomable 398 -->
<svg id="main" version="1.1" xmlns="http://www.w3.org/2000/svg" xmlns:xlink="http://www.w3.org/1999/xlink" xml:space="preserve" onload="init(evt)">
<style type="text/css"><![CDATA[
.edge:hover path { stroke: red; }
.edge:hover polygon { stroke: red; fill: red; }
]]></style>
<script type="text/javascript"><![CDATA[
var edges = document.getElementsByTagName('g');
if (edges && edges.length) {
  for (var i=0;i<edges.length;i++) {
    if (edges[i].id.substr(0,4)=='edge') {
      edges[i].setAttribute('class','edge');
    }
  }
}
]]></script>
        <defs>
                <circle id="rim" cx="0" cy="0" r="7"/>
                <circle id="rim2" cx="0" cy="0" r="3.5"/>
                <g id="zoomPlus">
                        <use xlink:href="#rim" fill="#404040">
                                <set attributeName="fill" to="#808080" begin="zoomplus.mouseover" end="zoomplus.mouseout"/>
                        </use>
                        <path d="M-4,0h8M0,-4v8" fill="none" stroke="white" stroke-width="1.5" pointer-events="none"/>
                </g>
                <g id="zoomMin">
                        <use xlink:href="#rim" fill="#404040">
                                <set attributeName="fill" to="#808080" begin="zoomminus.mouseover" end="zoomminus.mouseout"/>
                        </use>
                        <path d="M-4,0h8" fill="none" stroke="white" stroke-width="1.5" pointer-events="none"/>
                </g>
                <g id="dirArrow">
                        <path fill="none" stroke="white" stroke-width="1.5" d="M0,-3.0v7 M-2.5,-0.5L0,-3.0L2.5,-0.5"/>
                </g>
               <g id="resetDef">
                       <use xlink:href="#rim2" fill="#404040">
                               <set attributeName="fill" to="#808080" begin="reset.mouseover" end="reset.mouseout"/>
                       </use>
               </g>
        </defs>

<script type="text/javascript">
var viewWidth = 697;
var viewHeight = 398;
var sectionId = 'dynsection-2';
</script>
<script xlink:href="../../svgpan.js"/>
<svg id="graph" class="graph">
<g id="viewport">
<title>project.pc.gui.MainWindow.actionPerformed</title>
<polygon fill="white" stroke="none" points="-4,4 -4,-393.5 693,-393.5 693,4 -4,4"/>
<!-- Node4 -->
<g id="node1" class="node"><title>Node4</title>
<polygon fill="#bfbfbf" stroke="black" points="0,-119 0,-145 135,-145 135,-119 0,-119"/>
<text text-anchor="start" x="8" y="-134.6" font-family="Helvetica,sans-Serif" font-size="8.00">project.pc.gui.MainWindow.action</text>
<text text-anchor="middle" x="67.5" y="-125.6" font-family="Helvetica,sans-Serif" font-size="8.00">Performed</text>
</g>
<!-- Node5 -->
<g id="node2" class="node"><title>Node5</title>
<g id="a_node2"><a xlink:href="../../d9/d47/a00129.html#a7213b1ea044d9c361299b497bc8308b3" target="_top" xlink:title="Method to disconnect a client. ">
<polygon fill="white" stroke="black" points="353,-299.5 353,-316.5 522,-316.5 522,-299.5 353,-299.5"/>
<text text-anchor="middle" x="437.5" y="-306.1" font-family="Helvetica,sans-Serif" font-size="8.00">project.pc.net.NetworkManager.disconnect</text>
</a>
</g>
</g>
<!-- Node4&#45;&gt;Node5 -->
<g id="edge1" class="edge"><title>Node4&#45;&gt;Node5</title>
<path fill="none" stroke="midnightblue" d="M87.129,-145.141C131.135,-175.523 245.89,-250.932 353,-289 361.642,-292.071 370.967,-294.766 380.145,-297.086"/>
<polygon fill="midnightblue" stroke="midnightblue" points="379.465,-300.523 390.006,-299.458 381.102,-293.717 379.465,-300.523"/>
</g>
<!-- Node9 -->
<g id="node6" class="node"><title>Node9</title>
<g id="a_node6"><a xlink:href="../../d9/d47/a00129.html#a61581904d96f5be8906b740585486ebc" target="_top" xlink:title="Method to stop server. ">
<polygon fill="white" stroke="black" points="171,-164 171,-190 317,-190 317,-164 171,-164"/>
<text text-anchor="start" x="179" y="-179.6" font-family="Helvetica,sans-Serif" font-size="8.00">project.pc.net.NetworkManager.stop</text>
<text text-anchor="middle" x="244" y="-170.6" font-family="Helvetica,sans-Serif" font-size="8.00">Server</text>
</a>
</g>
</g>
<!-- Node4&#45;&gt;Node9 -->
<g id="edge5" class="edge"><title>Node4&#45;&gt;Node9</title>
<path fill="none" stroke="midnightblue" d="M118.973,-145.016C138.782,-150.124 161.686,-156.031 182.381,-161.368"/>
<polygon fill="midnightblue" stroke="midnightblue" points="181.782,-164.827 192.339,-163.936 183.53,-158.049 181.782,-164.827"/>
</g>
<!-- Node17 -->
<g id="node14" class="node"><title>Node17</title>
<g id="a_node14"><a xlink:href="../../d0/de8/a00133.html#af4cc4667abd04a7a988a4d626e1ddf48" target="_top" xlink:title="Checks if any client is connected. ">
<polygon fill="white" stroke="black" points="182.5,-119 182.5,-145 305.5,-145 305.5,-119 182.5,-119"/>
<text text-anchor="start" x="190.5" y="-134.6" font-family="Helvetica,sans-Serif" font-size="8.00">project.pc.net.NetworkState.is</text>
<text text-anchor="middle" x="244" y="-125.6" font-family="Helvetica,sans-Serif" font-size="8.00">NoClientConnected</text>
</a>
</g>
</g>
<!-- Node4&#45;&gt;Node17 -->
<g id="edge14" class="edge"><title>Node4&#45;&gt;Node17</title>
<path fill="none" stroke="midnightblue" d="M135.467,-132C147.556,-132 160.196,-132 172.385,-132"/>
<polygon fill="midnightblue" stroke="midnightblue" points="172.496,-135.5 182.496,-132 172.496,-128.5 172.496,-135.5"/>
</g>
<!-- Node18 -->
<g id="node15" class="node"><title>Node18</title>
<g id="a_node15"><a xlink:href="../../d3/d32/a00105.html#a50efb8f189cb639486da4780c53fad02" target="_top" xlink:title="Checks if rendering has been started. ">
<polygon fill="white" stroke="black" points="184.5,-82.5 184.5,-99.5 303.5,-99.5 303.5,-82.5 184.5,-82.5"/>
<text text-anchor="middle" x="244" y="-89.1" font-family="Helvetica,sans-Serif" font-size="8.00">project.pc.gui.Cube.isStarted</text>
</a>
</g>
</g>
<!-- Node4&#45;&gt;Node18 -->
<g id="edge15" class="edge"><title>Node4&#45;&gt;Node18</title>
<path fill="none" stroke="midnightblue" d="M124.193,-118.915C147.633,-113.407 174.586,-107.074 196.888,-101.834"/>
<polygon fill="midnightblue" stroke="midnightblue" points="197.844,-105.205 206.778,-99.5106 196.243,-98.3907 197.844,-105.205"/>
</g>
<!-- Node19 -->
<g id="node16" class="node"><title>Node19</title>
<g id="a_node16"><a xlink:href="../../d3/d32/a00105.html#ac332931bf5edd05e3096d1df86b23c1d" target="_top" xlink:title="Renders the cube on canvas. ">
<polygon fill="white" stroke="black" points="181,-23.5 181,-40.5 307,-40.5 307,-23.5 181,-23.5"/>
<text text-anchor="middle" x="244" y="-30.1" font-family="Helvetica,sans-Serif" font-size="8.00">project.pc.gui.Cube.showCube</text>
</a>
</g>
</g>
<!-- Node4&#45;&gt;Node19 -->
<g id="edge16" class="edge"><title>Node4&#45;&gt;Node19</title>
<path fill="none" stroke="midnightblue" d="M91.2805,-118.847C112.04,-106.87 143.559,-88.7106 171,-73 186.924,-63.883 204.856,-53.6718 218.84,-45.7206"/>
<polygon fill="midnightblue" stroke="midnightblue" points="220.854,-48.6022 227.818,-40.6181 217.395,-42.5164 220.854,-48.6022"/>
</g>
<!-- Node6 -->
<g id="node3" class="node"><title>Node6</title>
<g id="a_node3"><a xlink:href="../../d0/de8/a00133.html#a98b2d231bf77423258ab8e2f3f3a5c0f" target="_top" xlink:title="Returns the ServerThread for a client connection. ">
<polygon fill="white" stroke="black" points="559,-363 559,-389 688,-389 688,-363 559,-363"/>
<text text-anchor="start" x="567" y="-378.6" font-family="Helvetica,sans-Serif" font-size="8.00">project.pc.net.NetworkState.get</text>
<text text-anchor="middle" x="623.5" y="-369.6" font-family="Helvetica,sans-Serif" font-size="8.00">ServerThread</text>
</a>
</g>
</g>
<!-- Node5&#45;&gt;Node6 -->
<g id="edge2" class="edge"><title>Node5&#45;&gt;Node6</title>
<path fill="none" stroke="midnightblue" d="M459.994,-316.562C483.844,-325.996 523.519,-341.488 558,-354 563.144,-355.866 568.534,-357.777 573.914,-359.654"/>
<polygon fill="midnightblue" stroke="midnightblue" points="572.937,-363.019 583.532,-362.98 575.225,-356.404 572.937,-363.019"/>
</g>
<!-- Node7 -->
<g id="node4" class="node"><title>Node7</title>
<g id="a_node4"><a xlink:href="../../da/d1e/a00149.html#ab57650eb365d7ac7bf6b60acd9e2c254" target="_top" xlink:title="Sets stop flag. ">
<polygon fill="white" stroke="black" points="558.5,-318 558.5,-344 688.5,-344 688.5,-318 558.5,-318"/>
<text text-anchor="start" x="566.5" y="-333.6" font-family="Helvetica,sans-Serif" font-size="8.00">project.pc.net.ServerThread.set</text>
<text text-anchor="middle" x="623.5" y="-324.6" font-family="Helvetica,sans-Serif" font-size="8.00">StopFlag</text>
</a>
</g>
</g>
<!-- Node5&#45;&gt;Node7 -->
<g id="edge3" class="edge"><title>Node5&#45;&gt;Node7</title>
<path fill="none" stroke="midnightblue" d="M506.753,-316.532C520.201,-318.213 534.375,-319.984 548.016,-321.689"/>
<polygon fill="midnightblue" stroke="midnightblue" points="547.965,-325.21 558.322,-322.978 548.833,-318.264 547.965,-325.21"/>
</g>
<!-- Node8 -->
<g id="node5" class="node"><title>Node8</title>
<g id="a_node5"><a xlink:href="../../da/d1e/a00149.html#a5a16d19b6cd662841c8075f3ea7352f0" target="_top" xlink:title="Returns the timeout of the client Socket. ">
<polygon fill="white" stroke="black" points="558,-273 558,-299 689,-299 689,-273 558,-273"/>
<text text-anchor="start" x="566" y="-288.6" font-family="Helvetica,sans-Serif" font-size="8.00">project.pc.net.ServerThread.get</text>
<text text-anchor="middle" x="623.5" y="-279.6" font-family="Helvetica,sans-Serif" font-size="8.00">Timeout</text>
</a>
</g>
</g>
<!-- Node5&#45;&gt;Node8 -->
<g id="edge4" class="edge"><title>Node5&#45;&gt;Node8</title>
<path fill="none" stroke="midnightblue" d="M509.639,-299.494C522.167,-297.996 535.24,-296.433 547.861,-294.924"/>
<polygon fill="midnightblue" stroke="midnightblue" points="548.352,-298.391 557.866,-293.728 547.521,-291.44 548.352,-298.391"/>
</g>
<!-- Node9&#45;&gt;Node5 -->
<g id="edge13" class="edge"><title>Node9&#45;&gt;Node5</title>
<path fill="none" stroke="midnightblue" d="M258.482,-190.064C273.109,-204.335 297.046,-227.968 317,-249 333.462,-266.351 332.374,-276.891 353,-289 357.728,-291.776 362.826,-294.146 368.09,-296.17"/>
<polygon fill="midnightblue" stroke="midnightblue" points="367.105,-299.532 377.7,-299.452 369.368,-292.907 367.105,-299.532"/>
</g>
<!-- Node10 -->
<g id="node7" class="node"><title>Node10</title>
<g id="a_node7"><a xlink:href="../../d9/d4b/a00117.html#a8404f199c060a916efffc04bb92032b8" target="_top" xlink:title="Stops the broadcast. ">
<polygon fill="white" stroke="black" points="386,-254 386,-280 489,-280 489,-254 386,-254"/>
<text text-anchor="start" x="394" y="-269.6" font-family="Helvetica,sans-Serif" font-size="8.00">project.pc.net.Broadcast</text>
<text text-anchor="middle" x="437.5" y="-260.6" font-family="Helvetica,sans-Serif" font-size="8.00">Thread.stopBroadcast</text>
</a>
</g>
</g>
<!-- Node9&#45;&gt;Node10 -->
<g id="edge6" class="edge"><title>Node9&#45;&gt;Node10</title>
<path fill="none" stroke="midnightblue" d="M262.47,-190.046C283.136,-204.94 319.033,-229.155 353,-244 360.347,-247.211 368.255,-250.082 376.173,-252.615"/>
<polygon fill="midnightblue" stroke="midnightblue" points="375.213,-255.981 385.798,-255.538 377.247,-249.284 375.213,-255.981"/>
</g>
<!-- Node12 -->
<g id="node9" class="node"><title>Node12</title>
<g id="a_node9"><a xlink:href="../../d9/d4b/a00117.html#a4bd5c7e3daf54b19982abbc2980f9e9b" target="_top" xlink:title="Returns the interval between two successive broadcasts. ">
<polygon fill="white" stroke="black" points="386,-209 386,-235 489,-235 489,-209 386,-209"/>
<text text-anchor="start" x="394" y="-224.6" font-family="Helvetica,sans-Serif" font-size="8.00">project.pc.net.Broadcast</text>
<text text-anchor="middle" x="437.5" y="-215.6" font-family="Helvetica,sans-Serif" font-size="8.00">Thread.getTimeout</text>
</a>
</g>
</g>
<!-- Node9&#45;&gt;Node12 -->
<g id="edge8" class="edge"><title>Node9&#45;&gt;Node12</title>
<path fill="none" stroke="midnightblue" d="M300.39,-190.016C324.079,-195.583 351.803,-202.097 376.025,-207.789"/>
<polygon fill="midnightblue" stroke="midnightblue" points="375.282,-211.21 385.818,-210.09 376.883,-204.395 375.282,-211.21"/>
</g>
<!-- Node13 -->
<g id="node10" class="node"><title>Node13</title>
<g id="a_node10"><a xlink:href="../../d5/d4e/a00141.html#acc46bdb42c52665b6dc480df0778b579" target="_top" xlink:title="Sets the stop flag. ">
<polygon fill="white" stroke="black" points="385.5,-164 385.5,-190 489.5,-190 489.5,-164 385.5,-164"/>
<text text-anchor="start" x="393.5" y="-179.6" font-family="Helvetica,sans-Serif" font-size="8.00">project.pc.net.Server.set</text>
<text text-anchor="middle" x="437.5" y="-170.6" font-family="Helvetica,sans-Serif" font-size="8.00">StopFlag</text>
</a>
</g>
</g>
<!-- Node9&#45;&gt;Node13 -->
<g id="edge9" class="edge"><title>Node9&#45;&gt;Node13</title>
<path fill="none" stroke="midnightblue" d="M317.125,-177C336.269,-177 356.757,-177 375.26,-177"/>
<polygon fill="midnightblue" stroke="midnightblue" points="375.314,-180.5 385.314,-177 375.314,-173.5 375.314,-180.5"/>
</g>
<!-- Node14 -->
<g id="node11" class="node"><title>Node14</title>
<g id="a_node11"><a xlink:href="../../d5/d4e/a00141.html#aa9e4cda8a511c5e8cced84ea0f98f616" target="_top" xlink:title="Returns the timeout of the java.net.ServerSocket used by this Server. ">
<polygon fill="white" stroke="black" points="385.5,-119 385.5,-145 489.5,-145 489.5,-119 385.5,-119"/>
<text text-anchor="start" x="393.5" y="-134.6" font-family="Helvetica,sans-Serif" font-size="8.00">project.pc.net.Server.get</text>
<text text-anchor="middle" x="437.5" y="-125.6" font-family="Helvetica,sans-Serif" font-size="8.00">Timeout</text>
</a>
</g>
</g>
<!-- Node9&#45;&gt;Node14 -->
<g id="edge10" class="edge"><title>Node9&#45;&gt;Node14</title>
<path fill="none" stroke="midnightblue" d="M300.39,-163.984C323.982,-158.44 351.575,-151.956 375.727,-146.281"/>
<polygon fill="midnightblue" stroke="midnightblue" points="376.56,-149.681 385.494,-143.986 374.958,-142.866 376.56,-149.681"/>
</g>
<!-- Node15 -->
<g id="node12" class="node"><title>Node15</title>
<g id="a_node12"><a xlink:href="../../d5/d4e/a00141.html#ad90235e3b8adb261fe3d1bd8735e676e" target="_top" xlink:title="Closes the ServerSocket used by this Server. ">
<polygon fill="white" stroke="black" points="382,-82.5 382,-99.5 493,-99.5 493,-82.5 382,-82.5"/>
<text text-anchor="middle" x="437.5" y="-89.1" font-family="Helvetica,sans-Serif" font-size="8.00">project.pc.net.Server.close</text>
</a>
</g>
</g>
<!-- Node9&#45;&gt;Node15 -->
<g id="edge11" class="edge"><title>Node9&#45;&gt;Node15</title>
<path fill="none" stroke="midnightblue" d="M298.211,-163.986C304.827,-161.238 311.27,-157.942 317,-154 338.101,-139.483 331.221,-122.479 353,-109 358.846,-105.382 365.313,-102.484 371.984,-100.164"/>
<polygon fill="midnightblue" stroke="midnightblue" points="373.307,-103.42 381.856,-97.1622 371.27,-96.7231 373.307,-103.42"/>
</g>
<!-- Node16 -->
<g id="node13" class="node"><title>Node16</title>
<g id="a_node13"><a xlink:href="../../d0/de8/a00133.html#a36036bd99972c88f733ade697a6bf153" target="_top" xlink:title="Returns the Address Map. ">
<polygon fill="white" stroke="black" points="371,-37 371,-63 504,-63 504,-37 371,-37"/>
<text text-anchor="start" x="379" y="-52.6" font-family="Helvetica,sans-Serif" font-size="8.00">project.pc.net.NetworkState.gets</text>
<text text-anchor="middle" x="437.5" y="-43.6" font-family="Helvetica,sans-Serif" font-size="8.00">AddressMap</text>
</a>
</g>
</g>
<!-- Node9&#45;&gt;Node16 -->
<g id="edge12" class="edge"><title>Node9&#45;&gt;Node16</title>
<path fill="none" stroke="midnightblue" d="M302.147,-163.916C307.527,-161.208 312.603,-157.942 317,-154 346.333,-127.702 323.141,-98.6995 353,-73 355.703,-70.6734 358.622,-68.5805 361.694,-66.698"/>
<polygon fill="midnightblue" stroke="midnightblue" points="363.501,-69.7016 370.702,-61.9302 360.226,-63.5147 363.501,-69.7016"/>
</g>
<!-- Node11 -->
<g id="node8" class="node"><title>Node11</title>
<g id="a_node8"><a xlink:href="../../da/ddb/a00145.html#a76ac782bc782201f0a76d6a37658d2a7" target="_top" xlink:title="Sets the status of the broadcast as inactive. ">
<polygon fill="white" stroke="black" points="565,-228 565,-254 682,-254 682,-228 565,-228"/>
<text text-anchor="start" x="573" y="-243.6" font-family="Helvetica,sans-Serif" font-size="8.00">project.pc.net.ServerInfo.set</text>
<text text-anchor="middle" x="623.5" y="-234.6" font-family="Helvetica,sans-Serif" font-size="8.00">StopFlag</text>
</a>
</g>
</g>
<!-- Node10&#45;&gt;Node11 -->
<g id="edge7" class="edge"><title>Node10&#45;&gt;Node11</title>
<path fill="none" stroke="midnightblue" d="M489.266,-259.827C509.468,-256.972 533.016,-253.645 554.647,-250.588"/>
<polygon fill="midnightblue" stroke="midnightblue" points="555.347,-254.024 564.759,-249.159 554.367,-247.093 555.347,-254.024"/>
</g>
<!-- Node20 -->
<g id="node17" class="node"><title>Node20</title>
<g id="a_node17"><a xlink:href="../../d3/d32/a00105.html#aad770a0934b4b3a7c89063e4b92c9a6c" target="_top" xlink:title="Constructor. ">
<polygon fill="white" stroke="black" points="384,-0.5 384,-17.5 491,-17.5 491,-0.5 384,-0.5"/>
<text text-anchor="middle" x="437.5" y="-7.1" font-family="Helvetica,sans-Serif" font-size="8.00">project.pc.gui.Cube.Cube</text>
</a>
</g>
</g>
<!-- Node19&#45;&gt;Node20 -->
<g id="edge17" class="edge"><title>Node19&#45;&gt;Node20</title>
<path fill="none" stroke="midnightblue" d="M307.175,-24.5326C328.576,-21.9621 352.541,-19.0839 373.971,-16.5101"/>
<polygon fill="midnightblue" stroke="midnightblue" points="374.43,-19.9801 383.941,-15.3125 373.595,-13.0301 374.43,-19.9801"/>
</g>
</g>
</svg>
        <g id="navigator" transform="translate(0 0)" fill="#404254">
                <rect fill="#f2f5e9" fill-opacity="0.5" stroke="#606060" stroke-width=".5" x="0" y="0" width="60" height="60"/>
                <use id="zoomplus" xlink:href="#zoomPlus" x="17" y="9" onmousedown="handleZoom(evt,'in')"/>
                <use id="zoomminus" xlink:href="#zoomMin" x="42" y="9" onmousedown="handleZoom(evt,'out')"/>
                <use id="reset" xlink:href="#resetDef" x="30" y="36" onmousedown="handleReset()"/>
                <g id="arrowUp" xlink:href="#dirArrow" transform="translate(30 24)" onmousedown="handlePan(0,-1)">
                  <use xlink:href="#rim" fill="#404040">
                        <set attributeName="fill" to="#808080" begin="arrowUp.mouseover" end="arrowUp.mouseout"/>
                  </use>
                  <path fill="none" stroke="white" stroke-width="1.5" d="M0,-3.0v7 M-2.5,-0.5L0,-3.0L2.5,-0.5"/>
                </g>
                <g id="arrowRight" xlink:href="#dirArrow" transform="rotate(90) translate(36 -43)" onmousedown="handlePan(1,0)">
                  <use xlink:href="#rim" fill="#404040">
                        <set attributeName="fill" to="#808080" begin="arrowRight.mouseover" end="arrowRight.mouseout"/>
                  </use>
                  <path fill="none" stroke="white" stroke-width="1.5" d="M0,-3.0v7 M-2.5,-0.5L0,-3.0L2.5,-0.5"/>
                </g>
                <g id="arrowDown" xlink:href="#dirArrow" transform="rotate(180) translate(-30 -48)" onmousedown="handlePan(0,1)">
                  <use xlink:href="#rim" fill="#404040">
                        <set attributeName="fill" to="#808080" begin="arrowDown.mouseover" end="arrowDown.mouseout"/>
                  </use>
                  <path fill="none" stroke="white" stroke-width="1.5" d="M0,-3.0v7 M-2.5,-0.5L0,-3.0L2.5,-0.5"/>
                </g>
                <g id="arrowLeft" xlink:href="#dirArrow" transform="rotate(270) translate(-36 17)" onmousedown="handlePan(-1,0)">
                  <use xlink:href="#rim" fill="#404040">
                        <set attributeName="fill" to="#808080" begin="arrowLeft.mouseover" end="arrowLeft.mouseout"/>
                  </use>
                  <path fill="none" stroke="white" stroke-width="1.5" d="M0,-3.0v7 M-2.5,-0.5L0,-3.0L2.5,-0.5"/>
                </g>
        </g>
        <svg viewBox="0 0 15 15" width="100%" height="30px" preserveAspectRatio="xMaxYMin meet">
         <g id="arrow_out" transform="scale(0.3 0.3)">
          <a xlink:href="a00109_af518df4286470e49c976c3410c72100b_cgraph_org.svg" target="_base">
           <rect id="button" ry="5" rx="5" y="6" x="6" height="38" width="38"
                fill="#f2f5e9" fill-opacity="0.5" stroke="#606060" stroke-width="1.0"/>
           <path id="arrow"
             d="M 11.500037,31.436501 C 11.940474,20.09759 22.043105,11.32322 32.158766,21.979434 L 37.068811,17.246167 C 37.068811,17.246167 37.088388,32 37.088388,32 L 22.160133,31.978069 C 22.160133,31.978069 26.997745,27.140456 26.997745,27.140456 C 18.528582,18.264221 13.291696,25.230495 11.500037,31.436501 z"
             style="fill:#404040;"/>
          </a>
         </g>
        </svg>
</svg>
