<?xml version="1.0" encoding="UTF-8" standalone="no"?>
<!DOCTYPE svg PUBLIC "-//W3C//DTD SVG 1.1//EN"
 "http://www.w3.org/Graphics/SVG/1.1/DTD/svg11.dtd">
<!-- Generated by graphviz version 2.38.0 (20140413.2041)
 -->
<!-- Title: project.pc.gui.MainWindow.MainWindow Pages: 1 -->
<svg width="301pt" height="80pt"
 viewBox="0.00 0.00 301.00 80.00" xmlns="http://www.w3.org/2000/svg" xmlns:xlink="http://www.w3.org/1999/xlink">
<g id="graph0" class="graph" transform="scale(1 1) rotate(0) translate(4 76)">
<title>project.pc.gui.MainWindow.MainWindow</title>
<polygon fill="white" stroke="none" points="-4,4 -4,-76 297,-76 297,4 -4,4"/>
<!-- Node0 -->
<g id="node1" class="node"><title>Node0</title>
<polygon fill="#bfbfbf" stroke="black" points="0,-22.5 0,-48.5 114,-48.5 114,-22.5 0,-22.5"/>
<text text-anchor="start" x="8" y="-38.1" font-family="Helvetica,sans-Serif" font-size="8.00">project.pc.gui.MainWindow.</text>
<text text-anchor="middle" x="57" y="-29.1" font-family="Helvetica,sans-Serif" font-size="8.00">MainWindow</text>
</g>
<!-- Node1 -->
<g id="node2" class="node"><title>Node1</title>
<g id="a_node2"><a xlink:href="../../d9/d47/a00129.html#a3c0a5a39f7a2e55680b1a187c4b7cfd3" target="_top" xlink:title="Returns the NetworkState of this network. ">
<polygon fill="white" stroke="black" points="150,-45.5 150,-71.5 293,-71.5 293,-45.5 150,-45.5"/>
<text text-anchor="start" x="158" y="-61.1" font-family="Helvetica,sans-Serif" font-size="8.00">project.pc.net.NetworkManager.get</text>
<text text-anchor="middle" x="221.5" y="-52.1" font-family="Helvetica,sans-Serif" font-size="8.00">NetworkState</text>
</a>
</g>
</g>
<!-- Node0&#45;&gt;Node1 -->
<g id="edge1" class="edge"><title>Node0&#45;&gt;Node1</title>
<path fill="none" stroke="midnightblue" d="M114.379,-43.4797C122.614,-44.6454 131.227,-45.8645 139.832,-47.0823"/>
<polygon fill="midnightblue" stroke="midnightblue" points="139.514,-50.5721 149.905,-48.5082 140.495,-43.6412 139.514,-50.5721"/>
</g>
<!-- Node2 -->
<g id="node3" class="node"><title>Node2</title>
<g id="a_node3"><a xlink:href="../../d0/de8/a00133.html#aa21cbecace9dda557427316791e75d08" target="_top" xlink:title="Returns the javax.swing.ListModel. ">
<polygon fill="white" stroke="black" points="157,-0.5 157,-26.5 286,-26.5 286,-0.5 157,-0.5"/>
<text text-anchor="start" x="165" y="-16.1" font-family="Helvetica,sans-Serif" font-size="8.00">project.pc.net.NetworkState.get</text>
<text text-anchor="middle" x="221.5" y="-7.1" font-family="Helvetica,sans-Serif" font-size="8.00">ListModel</text>
</a>
</g>
</g>
<!-- Node0&#45;&gt;Node2 -->
<g id="edge2" class="edge"><title>Node0&#45;&gt;Node2</title>
<path fill="none" stroke="midnightblue" d="M114.379,-27.8672C124.906,-26.442 136.05,-24.9332 147.004,-23.4502"/>
<polygon fill="midnightblue" stroke="midnightblue" points="147.548,-26.9086 156.988,-22.0986 146.609,-19.9719 147.548,-26.9086"/>
</g>
</g>
</svg>
