<?xml version="1.0" encoding="UTF-8" standalone="no"?>
<!DOCTYPE svg PUBLIC "-//W3C//DTD SVG 1.1//EN"
 "http://www.w3.org/Graphics/SVG/1.1/DTD/svg11.dtd">
<!-- Generated by graphviz version 2.38.0 (20140413.2041)
 -->
<!-- Title: project.pc.gui.MainWindow.windowClosing Pages: 1 -->
<!--zoomable 338 -->
<svg id="main" version="1.1" xmlns="http://www.w3.org/2000/svg" xmlns:xlink="http://www.w3.org/1999/xlink" xml:space="preserve" onload="init(evt)">
<style type="text/css"><![CDATA[
.edge:hover path { stroke: red; }
.edge:hover polygon { stroke: red; fill: red; }
]]></style>
<script type="text/javascript"><![CDATA[
var edges = document.getElementsByTagName('g');
if (edges && edges.length) {
  for (var i=0;i<edges.length;i++) {
    if (edges[i].id.substr(0,4)=='edge') {
      edges[i].setAttribute('class','edge');
    }
  }
}
]]></script>
        <defs>
                <circle id="rim" cx="0" cy="0" r="7"/>
                <circle id="rim2" cx="0" cy="0" r="3.5"/>
                <g id="zoomPlus">
                        <use xlink:href="#rim" fill="#404040">
                                <set attributeName="fill" to="#808080" begin="zoomplus.mouseover" end="zoomplus.mouseout"/>
                        </use>
                        <path d="M-4,0h8M0,-4v8" fill="none" stroke="white" stroke-width="1.5" pointer-events="none"/>
                </g>
                <g id="zoomMin">
                        <use xlink:href="#rim" fill="#404040">
                                <set attributeName="fill" to="#808080" begin="zoomminus.mouseover" end="zoomminus.mouseout"/>
                        </use>
                        <path d="M-4,0h8" fill="none" stroke="white" stroke-width="1.5" pointer-events="none"/>
                </g>
                <g id="dirArrow">
                        <path fill="none" stroke="white" stroke-width="1.5" d="M0,-3.0v7 M-2.5,-0.5L0,-3.0L2.5,-0.5"/>
                </g>
               <g id="resetDef">
                       <use xlink:href="#rim2" fill="#404040">
                               <set attributeName="fill" to="#808080" begin="reset.mouseover" end="reset.mouseout"/>
                       </use>
               </g>
        </defs>

<script type="text/javascript">
var viewWidth = 703;
var viewHeight = 338;
var sectionId = 'dynsection-9';
</script>
<script xlink:href="../../svgpan.js"/>
<svg id="graph" class="graph">
<g id="viewport">
<title>project.pc.gui.MainWindow.windowClosing</title>
<polygon fill="white" stroke="none" points="-4,4 -4,-334 699,-334 699,4 -4,4"/>
<!-- Node37 -->
<g id="node1" class="node"><title>Node37</title>
<polygon fill="#bfbfbf" stroke="black" points="0,-168.5 0,-194.5 141,-194.5 141,-168.5 0,-168.5"/>
<text text-anchor="start" x="8" y="-184.1" font-family="Helvetica,sans-Serif" font-size="8.00">project.pc.gui.MainWindow.window</text>
<text text-anchor="middle" x="70.5" y="-175.1" font-family="Helvetica,sans-Serif" font-size="8.00">Closing</text>
</g>
<!-- Node38 -->
<g id="node2" class="node"><title>Node38</title>
<g id="a_node2"><a xlink:href="../../d9/d47/a00129.html#a61581904d96f5be8906b740585486ebc" target="_top" xlink:title="Method to stop server. ">
<polygon fill="white" stroke="black" points="177,-168.5 177,-194.5 323,-194.5 323,-168.5 177,-168.5"/>
<text text-anchor="start" x="185" y="-184.1" font-family="Helvetica,sans-Serif" font-size="8.00">project.pc.net.NetworkManager.stop</text>
<text text-anchor="middle" x="250" y="-175.1" font-family="Helvetica,sans-Serif" font-size="8.00">Server</text>
</a>
</g>
</g>
<!-- Node37&#45;&gt;Node38 -->
<g id="edge1" class="edge"><title>Node37&#45;&gt;Node38</title>
<path fill="none" stroke="midnightblue" d="M141.143,-181.5C149.59,-181.5 158.279,-181.5 166.885,-181.5"/>
<polygon fill="midnightblue" stroke="midnightblue" points="166.929,-185 176.929,-181.5 166.929,-178 166.929,-185"/>
</g>
<!-- Node39 -->
<g id="node3" class="node"><title>Node39</title>
<g id="a_node3"><a xlink:href="../../d9/d4b/a00117.html#a8404f199c060a916efffc04bb92032b8" target="_top" xlink:title="Stops the broadcast. ">
<polygon fill="white" stroke="black" points="392,-303.5 392,-329.5 495,-329.5 495,-303.5 392,-303.5"/>
<text text-anchor="start" x="400" y="-319.1" font-family="Helvetica,sans-Serif" font-size="8.00">project.pc.net.Broadcast</text>
<text text-anchor="middle" x="443.5" y="-310.1" font-family="Helvetica,sans-Serif" font-size="8.00">Thread.stopBroadcast</text>
</a>
</g>
</g>
<!-- Node38&#45;&gt;Node39 -->
<g id="edge2" class="edge"><title>Node38&#45;&gt;Node39</title>
<path fill="none" stroke="midnightblue" d="M259.717,-194.563C276.209,-218.228 314.353,-268.171 359,-294.5 366.069,-298.669 373.933,-302.06 381.928,-304.817"/>
<polygon fill="midnightblue" stroke="midnightblue" points="381.113,-308.229 391.702,-307.874 383.203,-301.548 381.113,-308.229"/>
</g>
<!-- Node41 -->
<g id="node5" class="node"><title>Node41</title>
<g id="a_node5"><a xlink:href="../../d9/d4b/a00117.html#a4bd5c7e3daf54b19982abbc2980f9e9b" target="_top" xlink:title="Returns the interval between two successive broadcasts. ">
<polygon fill="white" stroke="black" points="392,-258.5 392,-284.5 495,-284.5 495,-258.5 392,-258.5"/>
<text text-anchor="start" x="400" y="-274.1" font-family="Helvetica,sans-Serif" font-size="8.00">project.pc.net.Broadcast</text>
<text text-anchor="middle" x="443.5" y="-265.1" font-family="Helvetica,sans-Serif" font-size="8.00">Thread.getTimeout</text>
</a>
</g>
</g>
<!-- Node38&#45;&gt;Node41 -->
<g id="edge4" class="edge"><title>Node38&#45;&gt;Node41</title>
<path fill="none" stroke="midnightblue" d="M268.042,-194.554C288.589,-209.725 324.655,-234.582 359,-249.5 366.332,-252.685 374.232,-255.497 382.145,-257.954"/>
<polygon fill="midnightblue" stroke="midnightblue" points="381.186,-261.32 391.767,-260.776 383.156,-254.603 381.186,-261.32"/>
</g>
<!-- Node42 -->
<g id="node6" class="node"><title>Node42</title>
<g id="a_node6"><a xlink:href="../../d5/d4e/a00141.html#acc46bdb42c52665b6dc480df0778b579" target="_top" xlink:title="Sets the stop flag. ">
<polygon fill="white" stroke="black" points="391.5,-213.5 391.5,-239.5 495.5,-239.5 495.5,-213.5 391.5,-213.5"/>
<text text-anchor="start" x="399.5" y="-229.1" font-family="Helvetica,sans-Serif" font-size="8.00">project.pc.net.Server.set</text>
<text text-anchor="middle" x="443.5" y="-220.1" font-family="Helvetica,sans-Serif" font-size="8.00">StopFlag</text>
</a>
</g>
</g>
<!-- Node38&#45;&gt;Node42 -->
<g id="edge5" class="edge"><title>Node38&#45;&gt;Node42</title>
<path fill="none" stroke="midnightblue" d="M306.39,-194.516C329.982,-200.06 357.575,-206.544 381.727,-212.219"/>
<polygon fill="midnightblue" stroke="midnightblue" points="380.958,-215.634 391.494,-214.514 382.56,-208.819 380.958,-215.634"/>
</g>
<!-- Node43 -->
<g id="node7" class="node"><title>Node43</title>
<g id="a_node7"><a xlink:href="../../d5/d4e/a00141.html#aa9e4cda8a511c5e8cced84ea0f98f616" target="_top" xlink:title="Returns the timeout of the java.net.ServerSocket used by this Server. ">
<polygon fill="white" stroke="black" points="391.5,-168.5 391.5,-194.5 495.5,-194.5 495.5,-168.5 391.5,-168.5"/>
<text text-anchor="start" x="399.5" y="-184.1" font-family="Helvetica,sans-Serif" font-size="8.00">project.pc.net.Server.get</text>
<text text-anchor="middle" x="443.5" y="-175.1" font-family="Helvetica,sans-Serif" font-size="8.00">Timeout</text>
</a>
</g>
</g>
<!-- Node38&#45;&gt;Node43 -->
<g id="edge6" class="edge"><title>Node38&#45;&gt;Node43</title>
<path fill="none" stroke="midnightblue" d="M323.125,-181.5C342.269,-181.5 362.757,-181.5 381.26,-181.5"/>
<polygon fill="midnightblue" stroke="midnightblue" points="381.314,-185 391.314,-181.5 381.314,-178 381.314,-185"/>
</g>
<!-- Node44 -->
<g id="node8" class="node"><title>Node44</title>
<g id="a_node8"><a xlink:href="../../d5/d4e/a00141.html#ad90235e3b8adb261fe3d1bd8735e676e" target="_top" xlink:title="Closes the ServerSocket used by this Server. ">
<polygon fill="white" stroke="black" points="388,-132 388,-149 499,-149 499,-132 388,-132"/>
<text text-anchor="middle" x="443.5" y="-138.6" font-family="Helvetica,sans-Serif" font-size="8.00">project.pc.net.Server.close</text>
</a>
</g>
</g>
<!-- Node38&#45;&gt;Node44 -->
<g id="edge7" class="edge"><title>Node38&#45;&gt;Node44</title>
<path fill="none" stroke="midnightblue" d="M311.855,-168.471C337.941,-162.886 368.029,-156.444 392.751,-151.151"/>
<polygon fill="midnightblue" stroke="midnightblue" points="393.594,-154.55 402.64,-149.034 392.129,-147.705 393.594,-154.55"/>
</g>
<!-- Node45 -->
<g id="node9" class="node"><title>Node45</title>
<g id="a_node9"><a xlink:href="../../d0/de8/a00133.html#a36036bd99972c88f733ade697a6bf153" target="_top" xlink:title="Returns the Address Map. ">
<polygon fill="white" stroke="black" points="377,-86.5 377,-112.5 510,-112.5 510,-86.5 377,-86.5"/>
<text text-anchor="start" x="385" y="-102.1" font-family="Helvetica,sans-Serif" font-size="8.00">project.pc.net.NetworkState.gets</text>
<text text-anchor="middle" x="443.5" y="-93.1" font-family="Helvetica,sans-Serif" font-size="8.00">AddressMap</text>
</a>
</g>
</g>
<!-- Node38&#45;&gt;Node45 -->
<g id="edge8" class="edge"><title>Node38&#45;&gt;Node45</title>
<path fill="none" stroke="midnightblue" d="M271.406,-168.484C292.616,-155.409 327.112,-135.399 359,-122.5 365.181,-120 371.726,-117.675 378.324,-115.541"/>
<polygon fill="midnightblue" stroke="midnightblue" points="379.471,-118.85 387.991,-112.552 377.404,-112.162 379.471,-118.85"/>
</g>
<!-- Node46 -->
<g id="node10" class="node"><title>Node46</title>
<g id="a_node10"><a xlink:href="../../d9/d47/a00129.html#a7213b1ea044d9c361299b497bc8308b3" target="_top" xlink:title="Method to disconnect a client. ">
<polygon fill="white" stroke="black" points="359,-50 359,-67 528,-67 528,-50 359,-50"/>
<text text-anchor="middle" x="443.5" y="-56.6" font-family="Helvetica,sans-Serif" font-size="8.00">project.pc.net.NetworkManager.disconnect</text>
</a>
</g>
</g>
<!-- Node38&#45;&gt;Node46 -->
<g id="edge9" class="edge"><title>Node38&#45;&gt;Node46</title>
<path fill="none" stroke="midnightblue" d="M260.368,-168.484C277.329,-145.948 315.433,-99.8399 359,-76.5 363.461,-74.1103 368.216,-72.0378 373.108,-70.2404"/>
<polygon fill="midnightblue" stroke="midnightblue" points="374.232,-73.5553 382.643,-67.1121 372.05,-66.9041 374.232,-73.5553"/>
</g>
<!-- Node40 -->
<g id="node4" class="node"><title>Node40</title>
<g id="a_node4"><a xlink:href="../../da/ddb/a00145.html#a76ac782bc782201f0a76d6a37658d2a7" target="_top" xlink:title="Sets the status of the broadcast as inactive. ">
<polygon fill="white" stroke="black" points="571,-303.5 571,-329.5 688,-329.5 688,-303.5 571,-303.5"/>
<text text-anchor="start" x="579" y="-319.1" font-family="Helvetica,sans-Serif" font-size="8.00">project.pc.net.ServerInfo.set</text>
<text text-anchor="middle" x="629.5" y="-310.1" font-family="Helvetica,sans-Serif" font-size="8.00">StopFlag</text>
</a>
</g>
</g>
<!-- Node39&#45;&gt;Node40 -->
<g id="edge3" class="edge"><title>Node39&#45;&gt;Node40</title>
<path fill="none" stroke="midnightblue" d="M495.266,-316.5C515.468,-316.5 539.016,-316.5 560.647,-316.5"/>
<polygon fill="midnightblue" stroke="midnightblue" points="560.759,-320 570.759,-316.5 560.758,-313 560.759,-320"/>
</g>
<!-- Node47 -->
<g id="node11" class="node"><title>Node47</title>
<g id="a_node11"><a xlink:href="../../d0/de8/a00133.html#a98b2d231bf77423258ab8e2f3f3a5c0f" target="_top" xlink:title="Returns the ServerThread for a client connection. ">
<polygon fill="white" stroke="black" points="565,-90.5 565,-116.5 694,-116.5 694,-90.5 565,-90.5"/>
<text text-anchor="start" x="573" y="-106.1" font-family="Helvetica,sans-Serif" font-size="8.00">project.pc.net.NetworkState.get</text>
<text text-anchor="middle" x="629.5" y="-97.1" font-family="Helvetica,sans-Serif" font-size="8.00">ServerThread</text>
</a>
</g>
</g>
<!-- Node46&#45;&gt;Node47 -->
<g id="edge10" class="edge"><title>Node46&#45;&gt;Node47</title>
<path fill="none" stroke="midnightblue" d="M486.217,-67.0634C499.594,-69.9242 514.451,-73.2218 528,-76.5 542.339,-79.9693 557.755,-83.9724 572.103,-87.8158"/>
<polygon fill="midnightblue" stroke="midnightblue" points="571.273,-91.2169 581.839,-90.4426 573.096,-84.4585 571.273,-91.2169"/>
</g>
<!-- Node48 -->
<g id="node12" class="node"><title>Node48</title>
<g id="a_node12"><a xlink:href="../../da/d1e/a00149.html#ab57650eb365d7ac7bf6b60acd9e2c254" target="_top" xlink:title="Sets stop flag. ">
<polygon fill="white" stroke="black" points="564.5,-45.5 564.5,-71.5 694.5,-71.5 694.5,-45.5 564.5,-45.5"/>
<text text-anchor="start" x="572.5" y="-61.1" font-family="Helvetica,sans-Serif" font-size="8.00">project.pc.net.ServerThread.set</text>
<text text-anchor="middle" x="629.5" y="-52.1" font-family="Helvetica,sans-Serif" font-size="8.00">StopFlag</text>
</a>
</g>
</g>
<!-- Node46&#45;&gt;Node48 -->
<g id="edge11" class="edge"><title>Node46&#45;&gt;Node48</title>
<path fill="none" stroke="midnightblue" d="M528.155,-58.5C536.794,-58.5 545.532,-58.5 554.061,-58.5"/>
<polygon fill="midnightblue" stroke="midnightblue" points="554.34,-62.0001 564.339,-58.5 554.339,-55.0001 554.34,-62.0001"/>
</g>
<!-- Node49 -->
<g id="node13" class="node"><title>Node49</title>
<g id="a_node13"><a xlink:href="../../da/d1e/a00149.html#a5a16d19b6cd662841c8075f3ea7352f0" target="_top" xlink:title="Returns the timeout of the client Socket. ">
<polygon fill="white" stroke="black" points="564,-0.5 564,-26.5 695,-26.5 695,-0.5 564,-0.5"/>
<text text-anchor="start" x="572" y="-16.1" font-family="Helvetica,sans-Serif" font-size="8.00">project.pc.net.ServerThread.get</text>
<text text-anchor="middle" x="629.5" y="-7.1" font-family="Helvetica,sans-Serif" font-size="8.00">Timeout</text>
</a>
</g>
</g>
<!-- Node46&#45;&gt;Node49 -->
<g id="edge12" class="edge"><title>Node46&#45;&gt;Node49</title>
<path fill="none" stroke="midnightblue" d="M479.542,-49.9299C503.7,-44.0218 536.495,-36.0012 565.165,-28.9896"/>
<polygon fill="midnightblue" stroke="midnightblue" points="566.23,-32.3322 575.113,-26.5567 564.567,-25.5326 566.23,-32.3322"/>
</g>
</g>
</svg>
        <g id="navigator" transform="translate(0 0)" fill="#404254">
                <rect fill="#f2f5e9" fill-opacity="0.5" stroke="#606060" stroke-width=".5" x="0" y="0" width="60" height="60"/>
                <use id="zoomplus" xlink:href="#zoomPlus" x="17" y="9" onmousedown="handleZoom(evt,'in')"/>
                <use id="zoomminus" xlink:href="#zoomMin" x="42" y="9" onmousedown="handleZoom(evt,'out')"/>
                <use id="reset" xlink:href="#resetDef" x="30" y="36" onmousedown="handleReset()"/>
                <g id="arrowUp" xlink:href="#dirArrow" transform="translate(30 24)" onmousedown="handlePan(0,-1)">
                  <use xlink:href="#rim" fill="#404040">
                        <set attributeName="fill" to="#808080" begin="arrowUp.mouseover" end="arrowUp.mouseout"/>
                  </use>
                  <path fill="none" stroke="white" stroke-width="1.5" d="M0,-3.0v7 M-2.5,-0.5L0,-3.0L2.5,-0.5"/>
                </g>
                <g id="arrowRight" xlink:href="#dirArrow" transform="rotate(90) translate(36 -43)" onmousedown="handlePan(1,0)">
                  <use xlink:href="#rim" fill="#404040">
                        <set attributeName="fill" to="#808080" begin="arrowRight.mouseover" end="arrowRight.mouseout"/>
                  </use>
                  <path fill="none" stroke="white" stroke-width="1.5" d="M0,-3.0v7 M-2.5,-0.5L0,-3.0L2.5,-0.5"/>
                </g>
                <g id="arrowDown" xlink:href="#dirArrow" transform="rotate(180) translate(-30 -48)" onmousedown="handlePan(0,1)">
                  <use xlink:href="#rim" fill="#404040">
                        <set attributeName="fill" to="#808080" begin="arrowDown.mouseover" end="arrowDown.mouseout"/>
                  </use>
                  <path fill="none" stroke="white" stroke-width="1.5" d="M0,-3.0v7 M-2.5,-0.5L0,-3.0L2.5,-0.5"/>
                </g>
                <g id="arrowLeft" xlink:href="#dirArrow" transform="rotate(270) translate(-36 17)" onmousedown="handlePan(-1,0)">
                  <use xlink:href="#rim" fill="#404040">
                        <set attributeName="fill" to="#808080" begin="arrowLeft.mouseover" end="arrowLeft.mouseout"/>
                  </use>
                  <path fill="none" stroke="white" stroke-width="1.5" d="M0,-3.0v7 M-2.5,-0.5L0,-3.0L2.5,-0.5"/>
                </g>
        </g>
        <svg viewBox="0 0 15 15" width="100%" height="30px" preserveAspectRatio="xMaxYMin meet">
         <g id="arrow_out" transform="scale(0.3 0.3)">
          <a xlink:href="a00109_a9b7fdbe2729882c790a6366878b5c5c3_cgraph_org.svg" target="_base">
           <rect id="button" ry="5" rx="5" y="6" x="6" height="38" width="38"
                fill="#f2f5e9" fill-opacity="0.5" stroke="#606060" stroke-width="1.0"/>
           <path id="arrow"
             d="M 11.500037,31.436501 C 11.940474,20.09759 22.043105,11.32322 32.158766,21.979434 L 37.068811,17.246167 C 37.068811,17.246167 37.088388,32 37.088388,32 L 22.160133,31.978069 C 22.160133,31.978069 26.997745,27.140456 26.997745,27.140456 C 18.528582,18.264221 13.291696,25.230495 11.500037,31.436501 z"
             style="fill:#404040;"/>
          </a>
         </g>
        </svg>
</svg>
