<?xml version="1.0" encoding="UTF-8" standalone="no"?>
<!DOCTYPE svg PUBLIC "-//W3C//DTD SVG 1.1//EN"
 "http://www.w3.org/Graphics/SVG/1.1/DTD/svg11.dtd">
<!-- Generated by graphviz version 2.38.0 (20140413.2041)
 -->
<!-- Title: project.pc.gui.MainWindow.showPairingKeyDialog Pages: 1 -->
<svg width="308pt" height="80pt"
 viewBox="0.00 0.00 308.00 80.00" xmlns="http://www.w3.org/2000/svg" xmlns:xlink="http://www.w3.org/1999/xlink">
<g id="graph0" class="graph" transform="scale(1 1) rotate(0) translate(4 76)">
<title>project.pc.gui.MainWindow.showPairingKeyDialog</title>
<polygon fill="white" stroke="none" points="-4,4 -4,-76 304,-76 304,4 -4,4"/>
<!-- Node32 -->
<g id="node1" class="node"><title>Node32</title>
<polygon fill="#bfbfbf" stroke="black" points="0,-22.5 0,-48.5 133,-48.5 133,-22.5 0,-22.5"/>
<text text-anchor="start" x="8" y="-38.1" font-family="Helvetica,sans-Serif" font-size="8.00">project.pc.gui.MainWindow.show</text>
<text text-anchor="middle" x="66.5" y="-29.1" font-family="Helvetica,sans-Serif" font-size="8.00">PairingKeyDialog</text>
</g>
<!-- Node33 -->
<g id="node2" class="node"><title>Node33</title>
<g id="a_node2"><a xlink:href="../../da/d1e/a00149.html#a8b402f7ddbbf9b77b0e1b501237fcc51" target="_top" xlink:title="Returns the javax.swing.JDialog object used for displaying notifications. ">
<polygon fill="white" stroke="black" points="169,-45.5 169,-71.5 300,-71.5 300,-45.5 169,-45.5"/>
<text text-anchor="start" x="177" y="-61.1" font-family="Helvetica,sans-Serif" font-size="8.00">project.pc.net.ServerThread.get</text>
<text text-anchor="middle" x="234.5" y="-52.1" font-family="Helvetica,sans-Serif" font-size="8.00">Dialog</text>
</a>
</g>
</g>
<!-- Node32&#45;&gt;Node33 -->
<g id="edge1" class="edge"><title>Node32&#45;&gt;Node33</title>
<path fill="none" stroke="midnightblue" d="M133.108,-44.5902C141.575,-45.7635 150.296,-46.9717 158.895,-48.1632"/>
<polygon fill="midnightblue" stroke="midnightblue" points="158.526,-51.6454 168.912,-49.551 159.487,-44.7116 158.526,-51.6454"/>
</g>
<!-- Node34 -->
<g id="node3" class="node"><title>Node34</title>
<g id="a_node3"><a xlink:href="../../da/d1e/a00149.html#a50960f7dd8b9f80a7962f2520170ddb5" target="_top" xlink:title="Sets a dialog window. ">
<polygon fill="white" stroke="black" points="169.5,-0.5 169.5,-26.5 299.5,-26.5 299.5,-0.5 169.5,-0.5"/>
<text text-anchor="start" x="177.5" y="-16.1" font-family="Helvetica,sans-Serif" font-size="8.00">project.pc.net.ServerThread.set</text>
<text text-anchor="middle" x="234.5" y="-7.1" font-family="Helvetica,sans-Serif" font-size="8.00">Dialog</text>
</a>
</g>
</g>
<!-- Node32&#45;&gt;Node34 -->
<g id="edge2" class="edge"><title>Node32&#45;&gt;Node34</title>
<path fill="none" stroke="midnightblue" d="M133.108,-26.805C141.706,-25.6655 150.564,-24.4915 159.292,-23.3348"/>
<polygon fill="midnightblue" stroke="midnightblue" points="160,-26.7716 169.454,-21.9881 159.08,-19.8323 160,-26.7716"/>
</g>
</g>
</svg>
