<?xml version="1.0" encoding="UTF-8" standalone="no"?>
<!DOCTYPE svg PUBLIC "-//W3C//DTD SVG 1.1//EN"
 "http://www.w3.org/Graphics/SVG/1.1/DTD/svg11.dtd">
<!-- Generated by graphviz version 2.38.0 (20140413.2041)
 -->
<!-- Title: project.pc.net.ServerInfo.setStopFlag Pages: 1 -->
<!--zoomable 80 -->
<svg id="main" version="1.1" xmlns="http://www.w3.org/2000/svg" xmlns:xlink="http://www.w3.org/1999/xlink" xml:space="preserve" onload="init(evt)">
<style type="text/css"><![CDATA[
.edge:hover path { stroke: red; }
.edge:hover polygon { stroke: red; fill: red; }
]]></style>
<script type="text/javascript"><![CDATA[
var edges = document.getElementsByTagName('g');
if (edges && edges.length) {
  for (var i=0;i<edges.length;i++) {
    if (edges[i].id.substr(0,4)=='edge') {
      edges[i].setAttribute('class','edge');
    }
  }
}
]]></script>
        <defs>
                <circle id="rim" cx="0" cy="0" r="7"/>
                <circle id="rim2" cx="0" cy="0" r="3.5"/>
                <g id="zoomPlus">
                        <use xlink:href="#rim" fill="#404040">
                                <set attributeName="fill" to="#808080" begin="zoomplus.mouseover" end="zoomplus.mouseout"/>
                        </use>
                        <path d="M-4,0h8M0,-4v8" fill="none" stroke="white" stroke-width="1.5" pointer-events="none"/>
                </g>
                <g id="zoomMin">
                        <use xlink:href="#rim" fill="#404040">
                                <set attributeName="fill" to="#808080" begin="zoomminus.mouseover" end="zoomminus.mouseout"/>
                        </use>
                        <path d="M-4,0h8" fill="none" stroke="white" stroke-width="1.5" pointer-events="none"/>
                </g>
                <g id="dirArrow">
                        <path fill="none" stroke="white" stroke-width="1.5" d="M0,-3.0v7 M-2.5,-0.5L0,-3.0L2.5,-0.5"/>
                </g>
               <g id="resetDef">
                       <use xlink:href="#rim2" fill="#404040">
                               <set attributeName="fill" to="#808080" begin="reset.mouseover" end="reset.mouseout"/>
                       </use>
               </g>
        </defs>

<script type="text/javascript">
var viewWidth = 623;
var viewHeight = 80;
var sectionId = 'dynsection-5';
</script>
<script xlink:href="../../svgpan.js"/>
<svg id="graph" class="graph">
<g id="viewport">
<title>project.pc.net.ServerInfo.setStopFlag</title>
<polygon fill="white" stroke="none" points="-4,4 -4,-76 619,-76 619,4 -4,4"/>
<!-- Node10 -->
<g id="node1" class="node"><title>Node10</title>
<polygon fill="#bfbfbf" stroke="black" points="0,-22.5 0,-48.5 117,-48.5 117,-22.5 0,-22.5"/>
<text text-anchor="start" x="8" y="-38.1" font-family="Helvetica,sans-Serif" font-size="8.00">project.pc.net.ServerInfo.set</text>
<text text-anchor="middle" x="58.5" y="-29.1" font-family="Helvetica,sans-Serif" font-size="8.00">StopFlag</text>
</g>
<!-- Node11 -->
<g id="node2" class="node"><title>Node11</title>
<g id="a_node2"><a xlink:href="../../d9/d4b/a00117.html#a8404f199c060a916efffc04bb92032b8" target="_top" xlink:title="Stops the broadcast. ">
<polygon fill="white" stroke="black" points="153,-22.5 153,-48.5 256,-48.5 256,-22.5 153,-22.5"/>
<text text-anchor="start" x="161" y="-38.1" font-family="Helvetica,sans-Serif" font-size="8.00">project.pc.net.Broadcast</text>
<text text-anchor="middle" x="204.5" y="-29.1" font-family="Helvetica,sans-Serif" font-size="8.00">Thread.stopBroadcast</text>
</a>
</g>
</g>
<!-- Node10&#45;&gt;Node11 -->
<g id="edge1" class="edge"><title>Node10&#45;&gt;Node11</title>
<path fill="none" stroke="midnightblue" d="M127.519,-35.5C136.001,-35.5 144.558,-35.5 152.715,-35.5"/>
<polygon fill="midnightblue" stroke="midnightblue" points="127.241,-32.0001 117.241,-35.5 127.241,-39.0001 127.241,-32.0001"/>
</g>
<!-- Node12 -->
<g id="node3" class="node"><title>Node12</title>
<g id="a_node3"><a xlink:href="../../d9/d47/a00129.html#a61581904d96f5be8906b740585486ebc" target="_top" xlink:title="Method to stop server. ">
<polygon fill="white" stroke="black" points="292,-22.5 292,-48.5 438,-48.5 438,-22.5 292,-22.5"/>
<text text-anchor="start" x="300" y="-38.1" font-family="Helvetica,sans-Serif" font-size="8.00">project.pc.net.NetworkManager.stop</text>
<text text-anchor="middle" x="365" y="-29.1" font-family="Helvetica,sans-Serif" font-size="8.00">Server</text>
</a>
</g>
</g>
<!-- Node11&#45;&gt;Node12 -->
<g id="edge2" class="edge"><title>Node11&#45;&gt;Node12</title>
<path fill="none" stroke="midnightblue" d="M266.188,-35.5C274.612,-35.5 283.333,-35.5 291.941,-35.5"/>
<polygon fill="midnightblue" stroke="midnightblue" points="266.086,-32.0001 256.086,-35.5 266.086,-39.0001 266.086,-32.0001"/>
</g>
<!-- Node13 -->
<g id="node4" class="node"><title>Node13</title>
<g id="a_node4"><a xlink:href="../../dd/d42/a00109.html#af518df4286470e49c976c3410c72100b" target="_top" xlink:title="Invoked when an action occurs. ">
<polygon fill="white" stroke="black" points="477,-45.5 477,-71.5 612,-71.5 612,-45.5 477,-45.5"/>
<text text-anchor="start" x="485" y="-61.1" font-family="Helvetica,sans-Serif" font-size="8.00">project.pc.gui.MainWindow.action</text>
<text text-anchor="middle" x="544.5" y="-52.1" font-family="Helvetica,sans-Serif" font-size="8.00">Performed</text>
</a>
</g>
</g>
<!-- Node12&#45;&gt;Node13 -->
<g id="edge3" class="edge"><title>Node12&#45;&gt;Node13</title>
<path fill="none" stroke="midnightblue" d="M448.145,-46.1441C457.746,-47.3882 467.45,-48.6457 476.806,-49.8579"/>
<polygon fill="midnightblue" stroke="midnightblue" points="448.563,-42.6691 438.196,-44.855 447.663,-49.6111 448.563,-42.6691"/>
</g>
<!-- Node14 -->
<g id="node5" class="node"><title>Node14</title>
<g id="a_node5"><a xlink:href="../../dd/d42/a00109.html#a9b7fdbe2729882c790a6366878b5c5c3" target="_top" xlink:title="Gracefully terminates the application. ">
<polygon fill="white" stroke="black" points="474,-0.5 474,-26.5 615,-26.5 615,-0.5 474,-0.5"/>
<text text-anchor="start" x="482" y="-16.1" font-family="Helvetica,sans-Serif" font-size="8.00">project.pc.gui.MainWindow.window</text>
<text text-anchor="middle" x="544.5" y="-7.1" font-family="Helvetica,sans-Serif" font-size="8.00">Closing</text>
</a>
</g>
</g>
<!-- Node12&#45;&gt;Node14 -->
<g id="edge4" class="edge"><title>Node12&#45;&gt;Node14</title>
<path fill="none" stroke="midnightblue" d="M448.234,-25.3077C456.833,-24.2418 465.514,-23.1658 473.952,-22.12"/>
<polygon fill="midnightblue" stroke="midnightblue" points="447.69,-21.8482 438.196,-26.5518 448.551,-28.7951 447.69,-21.8482"/>
</g>
</g>
</svg>
        <g id="navigator" transform="translate(0 0)" fill="#404254">
                <rect fill="#f2f5e9" fill-opacity="0.5" stroke="#606060" stroke-width=".5" x="0" y="0" width="60" height="60"/>
                <use id="zoomplus" xlink:href="#zoomPlus" x="17" y="9" onmousedown="handleZoom(evt,'in')"/>
                <use id="zoomminus" xlink:href="#zoomMin" x="42" y="9" onmousedown="handleZoom(evt,'out')"/>
                <use id="reset" xlink:href="#resetDef" x="30" y="36" onmousedown="handleReset()"/>
                <g id="arrowUp" xlink:href="#dirArrow" transform="translate(30 24)" onmousedown="handlePan(0,-1)">
                  <use xlink:href="#rim" fill="#404040">
                        <set attributeName="fill" to="#808080" begin="arrowUp.mouseover" end="arrowUp.mouseout"/>
                  </use>
                  <path fill="none" stroke="white" stroke-width="1.5" d="M0,-3.0v7 M-2.5,-0.5L0,-3.0L2.5,-0.5"/>
                </g>
                <g id="arrowRight" xlink:href="#dirArrow" transform="rotate(90) translate(36 -43)" onmousedown="handlePan(1,0)">
                  <use xlink:href="#rim" fill="#404040">
                        <set attributeName="fill" to="#808080" begin="arrowRight.mouseover" end="arrowRight.mouseout"/>
                  </use>
                  <path fill="none" stroke="white" stroke-width="1.5" d="M0,-3.0v7 M-2.5,-0.5L0,-3.0L2.5,-0.5"/>
                </g>
                <g id="arrowDown" xlink:href="#dirArrow" transform="rotate(180) translate(-30 -48)" onmousedown="handlePan(0,1)">
                  <use xlink:href="#rim" fill="#404040">
                        <set attributeName="fill" to="#808080" begin="arrowDown.mouseover" end="arrowDown.mouseout"/>
                  </use>
                  <path fill="none" stroke="white" stroke-width="1.5" d="M0,-3.0v7 M-2.5,-0.5L0,-3.0L2.5,-0.5"/>
                </g>
                <g id="arrowLeft" xlink:href="#dirArrow" transform="rotate(270) translate(-36 17)" onmousedown="handlePan(-1,0)">
                  <use xlink:href="#rim" fill="#404040">
                        <set attributeName="fill" to="#808080" begin="arrowLeft.mouseover" end="arrowLeft.mouseout"/>
                  </use>
                  <path fill="none" stroke="white" stroke-width="1.5" d="M0,-3.0v7 M-2.5,-0.5L0,-3.0L2.5,-0.5"/>
                </g>
        </g>
        <svg viewBox="0 0 15 15" width="100%" height="30px" preserveAspectRatio="xMaxYMin meet">
         <g id="arrow_out" transform="scale(0.3 0.3)">
          <a xlink:href="a00145_a76ac782bc782201f0a76d6a37658d2a7_icgraph_org.svg" target="_base">
           <rect id="button" ry="5" rx="5" y="6" x="6" height="38" width="38"
                fill="#f2f5e9" fill-opacity="0.5" stroke="#606060" stroke-width="1.0"/>
           <path id="arrow"
             d="M 11.500037,31.436501 C 11.940474,20.09759 22.043105,11.32322 32.158766,21.979434 L 37.068811,17.246167 C 37.068811,17.246167 37.088388,32 37.088388,32 L 22.160133,31.978069 C 22.160133,31.978069 26.997745,27.140456 26.997745,27.140456 C 18.528582,18.264221 13.291696,25.230495 11.500037,31.436501 z"
             style="fill:#404040;"/>
          </a>
         </g>
        </svg>
</svg>
