<?xml version="1.0" encoding="UTF-8" standalone="no"?>
<!DOCTYPE svg PUBLIC "-//W3C//DTD SVG 1.1//EN"
 "http://www.w3.org/Graphics/SVG/1.1/DTD/svg11.dtd">
<!-- Generated by graphviz version 2.38.0 (20140413.2041)
 -->
<!-- Title: project.pc.net.ServerInfo.ServerInfo Pages: 1 -->
<svg width="281pt" height="49pt"
 viewBox="0.00 0.00 281.00 48.50" xmlns="http://www.w3.org/2000/svg" xmlns:xlink="http://www.w3.org/1999/xlink">
<g id="graph0" class="graph" transform="scale(1 1) rotate(0) translate(4 44.5)">
<title>project.pc.net.ServerInfo.ServerInfo</title>
<polygon fill="white" stroke="none" points="-4,4 -4,-44.5 277,-44.5 277,4 -4,4"/>
<!-- Node1 -->
<g id="node1" class="node"><title>Node1</title>
<polygon fill="#bfbfbf" stroke="black" points="0,-0.5 0,-26.5 107,-26.5 107,-0.5 0,-0.5"/>
<text text-anchor="start" x="8" y="-16.1" font-family="Helvetica,sans-Serif" font-size="8.00">project.pc.net.ServerInfo.</text>
<text text-anchor="middle" x="53.5" y="-7.1" font-family="Helvetica,sans-Serif" font-size="8.00">ServerInfo</text>
</g>
<!-- Node2 -->
<g id="node2" class="node"><title>Node2</title>
<g id="a_node2"><a xlink:href="../../da/ddb/a00145.html#a2e395254c4feda686dd0591b0879f83f" target="_top" xlink:title="Compares two ServerInfo objects. ">
<polygon fill="white" stroke="black" points="143,-5 143,-22 273,-22 273,-5 143,-5"/>
<text text-anchor="middle" x="208" y="-11.6" font-family="Helvetica,sans-Serif" font-size="8.00">project.pc.net.ServerInfo.equals</text>
</a>
</g>
</g>
<!-- Node1&#45;&gt;Node2 -->
<g id="edge1" class="edge"><title>Node1&#45;&gt;Node2</title>
<path fill="none" stroke="midnightblue" d="M117.497,-13.5C125.881,-13.5 134.484,-13.5 142.886,-13.5"/>
<polygon fill="midnightblue" stroke="midnightblue" points="117.409,-10.0001 107.409,-13.5 117.409,-17.0001 117.409,-10.0001"/>
</g>
<!-- Node2&#45;&gt;Node2 -->
<g id="edge2" class="edge"><title>Node2&#45;&gt;Node2</title>
<path fill="none" stroke="midnightblue" d="M179.128,-30.2099C178.938,-35.9117 188.562,-40.5 208,-40.5 236.273,-40.5 243.784,-30.7925 230.53,-22.0709"/>
<polygon fill="midnightblue" stroke="midnightblue" points="182.084,-32.1103 185.47,-22.0709 176.562,-27.8078 182.084,-32.1103"/>
</g>
</g>
</svg>
