<?xml version="1.0" encoding="UTF-8" standalone="no"?>
<!DOCTYPE svg PUBLIC "-//W3C//DTD SVG 1.1//EN"
 "http://www.w3.org/Graphics/SVG/1.1/DTD/svg11.dtd">
<!-- Generated by graphviz version 2.38.0 (20140413.2041)
 -->
<!-- Title: project.pc.net.ServerInfo.clearStopFlag Pages: 1 -->
<svg width="271pt" height="35pt"
 viewBox="0.00 0.00 271.00 35.00" xmlns="http://www.w3.org/2000/svg" xmlns:xlink="http://www.w3.org/1999/xlink">
<g id="graph0" class="graph" transform="scale(1 1) rotate(0) translate(4 31)">
<title>project.pc.net.ServerInfo.clearStopFlag</title>
<polygon fill="white" stroke="none" points="-4,4 -4,-31 267,-31 267,4 -4,4"/>
<!-- Node4 -->
<g id="node1" class="node"><title>Node4</title>
<polygon fill="#bfbfbf" stroke="black" points="0,-0.5 0,-26.5 124,-26.5 124,-0.5 0,-0.5"/>
<text text-anchor="start" x="8" y="-16.1" font-family="Helvetica,sans-Serif" font-size="8.00">project.pc.net.ServerInfo.clear</text>
<text text-anchor="middle" x="62" y="-7.1" font-family="Helvetica,sans-Serif" font-size="8.00">StopFlag</text>
</g>
<!-- Node5 -->
<g id="node2" class="node"><title>Node5</title>
<g id="a_node2"><a xlink:href="../../d9/d4b/a00117.html#ab223de95f8e2d49b0459f223752141c1" target="_top" xlink:title="Operations performed by this thread. ">
<polygon fill="white" stroke="black" points="160,-0.5 160,-26.5 263,-26.5 263,-0.5 160,-0.5"/>
<text text-anchor="start" x="168" y="-16.1" font-family="Helvetica,sans-Serif" font-size="8.00">project.pc.net.Broadcast</text>
<text text-anchor="middle" x="211.5" y="-7.1" font-family="Helvetica,sans-Serif" font-size="8.00">Thread.run</text>
</a>
</g>
</g>
<!-- Node4&#45;&gt;Node5 -->
<g id="edge1" class="edge"><title>Node4&#45;&gt;Node5</title>
<path fill="none" stroke="midnightblue" d="M134.366,-13.5C143.007,-13.5 151.691,-13.5 159.944,-13.5"/>
<polygon fill="midnightblue" stroke="midnightblue" points="134.272,-10.0001 124.272,-13.5 134.272,-17.0001 134.272,-10.0001"/>
</g>
</g>
</svg>
