<?xml version="1.0" encoding="UTF-8" standalone="no"?>
<!DOCTYPE svg PUBLIC "-//W3C//DTD SVG 1.1//EN"
 "http://www.w3.org/Graphics/SVG/1.1/DTD/svg11.dtd">
<!-- Generated by graphviz version 2.38.0 (20140413.2041)
 -->
<!-- Title: project.pc.net.ServerInfo.equals Pages: 1 -->
<svg width="281pt" height="49pt"
 viewBox="0.00 0.00 281.00 48.50" xmlns="http://www.w3.org/2000/svg" xmlns:xlink="http://www.w3.org/1999/xlink">
<g id="graph0" class="graph" transform="scale(1 1) rotate(0) translate(4 44.5)">
<title>project.pc.net.ServerInfo.equals</title>
<polygon fill="white" stroke="none" points="-4,4 -4,-44.5 277,-44.5 277,4 -4,4"/>
<!-- Node6 -->
<g id="node1" class="node"><title>Node6</title>
<polygon fill="#bfbfbf" stroke="black" points="0,-5 0,-22 130,-22 130,-5 0,-5"/>
<text text-anchor="middle" x="65" y="-11.6" font-family="Helvetica,sans-Serif" font-size="8.00">project.pc.net.ServerInfo.equals</text>
</g>
<!-- Node6&#45;&gt;Node6 -->
<g id="edge2" class="edge"><title>Node6&#45;&gt;Node6</title>
<path fill="none" stroke="midnightblue" d="M42.4696,-22.0709C29.2164,-30.7925 36.7266,-40.5 65,-40.5 84.438,-40.5 94.0621,-35.9117 93.8722,-30.2099"/>
<polygon fill="midnightblue" stroke="midnightblue" points="96.4376,-27.8078 87.5304,-22.0709 90.9159,-32.1103 96.4376,-27.8078"/>
</g>
<!-- Node7 -->
<g id="node2" class="node"><title>Node7</title>
<g id="a_node2"><a xlink:href="../../da/ddb/a00145.html#a5c40e93ac5d001ae133d6fcc467358bf" target="_top" xlink:title="Constructor. ">
<polygon fill="white" stroke="black" points="166,-0.5 166,-26.5 273,-26.5 273,-0.5 166,-0.5"/>
<text text-anchor="start" x="174" y="-16.1" font-family="Helvetica,sans-Serif" font-size="8.00">project.pc.net.ServerInfo.</text>
<text text-anchor="middle" x="219.5" y="-7.1" font-family="Helvetica,sans-Serif" font-size="8.00">ServerInfo</text>
</a>
</g>
</g>
<!-- Node6&#45;&gt;Node7 -->
<g id="edge1" class="edge"><title>Node6&#45;&gt;Node7</title>
<path fill="none" stroke="midnightblue" d="M130.232,-13.5C138.681,-13.5 147.332,-13.5 155.756,-13.5"/>
<polygon fill="midnightblue" stroke="midnightblue" points="155.89,-17.0001 165.89,-13.5 155.89,-10.0001 155.89,-17.0001"/>
</g>
</g>
</svg>
