<?xml version="1.0" encoding="UTF-8" standalone="no"?>
<!DOCTYPE svg PUBLIC "-//W3C//DTD SVG 1.1//EN"
 "http://www.w3.org/Graphics/SVG/1.1/DTD/svg11.dtd">
<!-- Generated by graphviz version 2.38.0 (20140413.2041)
 -->
<!-- Title: project.pc.net.ServerInfo.setStopFlag Pages: 1 -->
<svg width="623pt" height="80pt"
 viewBox="0.00 0.00 623.00 80.00" xmlns="http://www.w3.org/2000/svg" xmlns:xlink="http://www.w3.org/1999/xlink">
<g id="graph0" class="graph" transform="scale(1 1) rotate(0) translate(4 76)">
<title>project.pc.net.ServerInfo.setStopFlag</title>
<polygon fill="white" stroke="none" points="-4,4 -4,-76 619,-76 619,4 -4,4"/>
<!-- Node10 -->
<g id="node1" class="node"><title>Node10</title>
<polygon fill="#bfbfbf" stroke="black" points="0,-22.5 0,-48.5 117,-48.5 117,-22.5 0,-22.5"/>
<text text-anchor="start" x="8" y="-38.1" font-family="Helvetica,sans-Serif" font-size="8.00">project.pc.net.ServerInfo.set</text>
<text text-anchor="middle" x="58.5" y="-29.1" font-family="Helvetica,sans-Serif" font-size="8.00">StopFlag</text>
</g>
<!-- Node11 -->
<g id="node2" class="node"><title>Node11</title>
<g id="a_node2"><a xlink:href="../../d9/d4b/a00117.html#a8404f199c060a916efffc04bb92032b8" target="_top" xlink:title="Stops the broadcast. ">
<polygon fill="white" stroke="black" points="153,-22.5 153,-48.5 256,-48.5 256,-22.5 153,-22.5"/>
<text text-anchor="start" x="161" y="-38.1" font-family="Helvetica,sans-Serif" font-size="8.00">project.pc.net.Broadcast</text>
<text text-anchor="middle" x="204.5" y="-29.1" font-family="Helvetica,sans-Serif" font-size="8.00">Thread.stopBroadcast</text>
</a>
</g>
</g>
<!-- Node10&#45;&gt;Node11 -->
<g id="edge1" class="edge"><title>Node10&#45;&gt;Node11</title>
<path fill="none" stroke="midnightblue" d="M127.519,-35.5C136.001,-35.5 144.558,-35.5 152.715,-35.5"/>
<polygon fill="midnightblue" stroke="midnightblue" points="127.241,-32.0001 117.241,-35.5 127.241,-39.0001 127.241,-32.0001"/>
</g>
<!-- Node12 -->
<g id="node3" class="node"><title>Node12</title>
<g id="a_node3"><a xlink:href="../../d9/d47/a00129.html#a61581904d96f5be8906b740585486ebc" target="_top" xlink:title="Method to stop server. ">
<polygon fill="white" stroke="black" points="292,-22.5 292,-48.5 438,-48.5 438,-22.5 292,-22.5"/>
<text text-anchor="start" x="300" y="-38.1" font-family="Helvetica,sans-Serif" font-size="8.00">project.pc.net.NetworkManager.stop</text>
<text text-anchor="middle" x="365" y="-29.1" font-family="Helvetica,sans-Serif" font-size="8.00">Server</text>
</a>
</g>
</g>
<!-- Node11&#45;&gt;Node12 -->
<g id="edge2" class="edge"><title>Node11&#45;&gt;Node12</title>
<path fill="none" stroke="midnightblue" d="M266.188,-35.5C274.612,-35.5 283.333,-35.5 291.941,-35.5"/>
<polygon fill="midnightblue" stroke="midnightblue" points="266.086,-32.0001 256.086,-35.5 266.086,-39.0001 266.086,-32.0001"/>
</g>
<!-- Node13 -->
<g id="node4" class="node"><title>Node13</title>
<g id="a_node4"><a xlink:href="../../dd/d42/a00109.html#af518df4286470e49c976c3410c72100b" target="_top" xlink:title="Invoked when an action occurs. ">
<polygon fill="white" stroke="black" points="477,-45.5 477,-71.5 612,-71.5 612,-45.5 477,-45.5"/>
<text text-anchor="start" x="485" y="-61.1" font-family="Helvetica,sans-Serif" font-size="8.00">project.pc.gui.MainWindow.action</text>
<text text-anchor="middle" x="544.5" y="-52.1" font-family="Helvetica,sans-Serif" font-size="8.00">Performed</text>
</a>
</g>
</g>
<!-- Node12&#45;&gt;Node13 -->
<g id="edge3" class="edge"><title>Node12&#45;&gt;Node13</title>
<path fill="none" stroke="midnightblue" d="M448.145,-46.1441C457.746,-47.3882 467.45,-48.6457 476.806,-49.8579"/>
<polygon fill="midnightblue" stroke="midnightblue" points="448.563,-42.6691 438.196,-44.855 447.663,-49.6111 448.563,-42.6691"/>
</g>
<!-- Node14 -->
<g id="node5" class="node"><title>Node14</title>
<g id="a_node5"><a xlink:href="../../dd/d42/a00109.html#a9b7fdbe2729882c790a6366878b5c5c3" target="_top" xlink:title="Gracefully terminates the application. ">
<polygon fill="white" stroke="black" points="474,-0.5 474,-26.5 615,-26.5 615,-0.5 474,-0.5"/>
<text text-anchor="start" x="482" y="-16.1" font-family="Helvetica,sans-Serif" font-size="8.00">project.pc.gui.MainWindow.window</text>
<text text-anchor="middle" x="544.5" y="-7.1" font-family="Helvetica,sans-Serif" font-size="8.00">Closing</text>
</a>
</g>
</g>
<!-- Node12&#45;&gt;Node14 -->
<g id="edge4" class="edge"><title>Node12&#45;&gt;Node14</title>
<path fill="none" stroke="midnightblue" d="M448.234,-25.3077C456.833,-24.2418 465.514,-23.1658 473.952,-22.12"/>
<polygon fill="midnightblue" stroke="midnightblue" points="447.69,-21.8482 438.196,-26.5518 448.551,-28.7951 447.69,-21.8482"/>
</g>
</g>
</svg>
