<?xml version="1.0" encoding="UTF-8" standalone="no"?>
<!DOCTYPE svg PUBLIC "-//W3C//DTD SVG 1.1//EN"
 "http://www.w3.org/Graphics/SVG/1.1/DTD/svg11.dtd">
<!-- Generated by graphviz version 2.38.0 (20140413.2041)
 -->
<!-- Title: project.pc.sensor.representation.Vector4f.setY Pages: 1 -->
<svg width="312pt" height="125pt"
 viewBox="0.00 0.00 312.00 125.00" xmlns="http://www.w3.org/2000/svg" xmlns:xlink="http://www.w3.org/1999/xlink">
<g id="graph0" class="graph" transform="scale(1 1) rotate(0) translate(4 121)">
<title>project.pc.sensor.representation.Vector4f.setY</title>
<polygon fill="white" stroke="none" points="-4,4 -4,-121 308,-121 308,4 -4,4"/>
<!-- Node68 -->
<g id="node1" class="node"><title>Node68</title>
<polygon fill="#bfbfbf" stroke="black" points="0,-45.5 0,-71.5 134,-71.5 134,-45.5 0,-45.5"/>
<text text-anchor="start" x="8" y="-61.1" font-family="Helvetica,sans-Serif" font-size="8.00">project.pc.sensor.representation.</text>
<text text-anchor="middle" x="67" y="-52.1" font-family="Helvetica,sans-Serif" font-size="8.00">Vector4f.setY</text>
</g>
<!-- Node69 -->
<g id="node2" class="node"><title>Node69</title>
<g id="a_node2"><a xlink:href="../../d7/d3f/a00173.html#a587ad2d9d4efce7ab90b761815c2350a" target="_top" xlink:title="Multiples this Quaternion with a scalar. ">
<polygon fill="white" stroke="black" points="170,-90.5 170,-116.5 304,-116.5 304,-90.5 170,-90.5"/>
<text text-anchor="start" x="178" y="-106.1" font-family="Helvetica,sans-Serif" font-size="8.00">project.pc.sensor.representation.</text>
<text text-anchor="middle" x="237" y="-97.1" font-family="Helvetica,sans-Serif" font-size="8.00">Quaternion.multiplyByScalar</text>
</a>
</g>
</g>
<!-- Node68&#45;&gt;Node69 -->
<g id="edge1" class="edge"><title>Node68&#45;&gt;Node69</title>
<path fill="none" stroke="midnightblue" d="M126.443,-74.1545C146.282,-79.4684 168.223,-85.3453 187.226,-90.4355"/>
<polygon fill="midnightblue" stroke="midnightblue" points="127.158,-70.7225 116.593,-71.5159 125.346,-77.4841 127.158,-70.7225"/>
</g>
<!-- Node70 -->
<g id="node3" class="node"><title>Node70</title>
<g id="a_node3"><a xlink:href="../../d7/d3f/a00173.html#aed8aaebaee10c25caacaa50b1ee55baf" target="_top" xlink:title="Returns the heading, attitude and bank of this Quaternion as euler angles in the double array respect...">
<polygon fill="white" stroke="black" points="170,-45.5 170,-71.5 304,-71.5 304,-45.5 170,-45.5"/>
<text text-anchor="start" x="178" y="-61.1" font-family="Helvetica,sans-Serif" font-size="8.00">project.pc.sensor.representation.</text>
<text text-anchor="middle" x="237" y="-52.1" font-family="Helvetica,sans-Serif" font-size="8.00">Quaternion.toEulerAngles</text>
</a>
</g>
</g>
<!-- Node68&#45;&gt;Node70 -->
<g id="edge2" class="edge"><title>Node68&#45;&gt;Node70</title>
<path fill="none" stroke="midnightblue" d="M144.595,-58.5C153.013,-58.5 161.532,-58.5 169.809,-58.5"/>
<polygon fill="midnightblue" stroke="midnightblue" points="144.398,-55.0001 134.398,-58.5 144.398,-62.0001 144.398,-55.0001"/>
</g>
<!-- Node71 -->
<g id="node4" class="node"><title>Node71</title>
<g id="a_node4"><a xlink:href="../../d7/d3f/a00173.html#a8080165fcc9bcca528eb672a1e15ec96" target="_top" xlink:title="Returns a String representing this Quaternion. ">
<polygon fill="white" stroke="black" points="170,-0.5 170,-26.5 304,-26.5 304,-0.5 170,-0.5"/>
<text text-anchor="start" x="178" y="-16.1" font-family="Helvetica,sans-Serif" font-size="8.00">project.pc.sensor.representation.</text>
<text text-anchor="middle" x="237" y="-7.1" font-family="Helvetica,sans-Serif" font-size="8.00">Quaternion.toString</text>
</a>
</g>
</g>
<!-- Node68&#45;&gt;Node71 -->
<g id="edge3" class="edge"><title>Node68&#45;&gt;Node71</title>
<path fill="none" stroke="midnightblue" d="M126.443,-42.8455C146.282,-37.5316 168.223,-31.6547 187.226,-26.5645"/>
<polygon fill="midnightblue" stroke="midnightblue" points="125.346,-39.5159 116.593,-45.4841 127.158,-46.2775 125.346,-39.5159"/>
</g>
</g>
</svg>
