<?xml version="1.0" encoding="UTF-8" standalone="no"?>
<!DOCTYPE svg PUBLIC "-//W3C//DTD SVG 1.1//EN"
 "http://www.w3.org/Graphics/SVG/1.1/DTD/svg11.dtd">
<!-- Generated by graphviz version 2.38.0 (20140413.2041)
 -->
<!-- Title: project.pc.sensor.representation.Vector4f.getW Pages: 1 -->
<svg width="312pt" height="252pt"
 viewBox="0.00 0.00 312.00 251.50" xmlns="http://www.w3.org/2000/svg" xmlns:xlink="http://www.w3.org/1999/xlink">
<g id="graph0" class="graph" transform="scale(1 1) rotate(0) translate(4 247.5)">
<title>project.pc.sensor.representation.Vector4f.getW</title>
<polygon fill="white" stroke="none" points="-4,4 -4,-247.5 308,-247.5 308,4 -4,4"/>
<!-- Node28 -->
<g id="node1" class="node"><title>Node28</title>
<polygon fill="#bfbfbf" stroke="black" points="0,-112.5 0,-138.5 134,-138.5 134,-112.5 0,-112.5"/>
<text text-anchor="start" x="8" y="-128.1" font-family="Helvetica,sans-Serif" font-size="8.00">project.pc.sensor.representation.</text>
<text text-anchor="middle" x="67" y="-119.1" font-family="Helvetica,sans-Serif" font-size="8.00">Vector4f.getW</text>
</g>
<!-- Node29 -->
<g id="node2" class="node"><title>Node29</title>
<g id="a_node2"><a xlink:href="../../d3/d32/a00105.html#a4c67f96bb7c71a251d95d4edc96d1107" target="_top" xlink:title="Displays the 3D cube. ">
<polygon fill="white" stroke="black" points="181,-226 181,-243 293,-243 293,-226 181,-226"/>
<text text-anchor="middle" x="237" y="-232.6" font-family="Helvetica,sans-Serif" font-size="8.00">project.pc.gui.Cube.display</text>
</a>
</g>
</g>
<!-- Node28&#45;&gt;Node29 -->
<g id="edge1" class="edge"><title>Node28&#45;&gt;Node29</title>
<path fill="none" stroke="midnightblue" d="M85.9576,-146.39C104.864,-167.106 136.49,-198.308 170,-216.5 177.202,-220.41 185.317,-223.52 193.328,-225.977"/>
<polygon fill="midnightblue" stroke="midnightblue" points="88.4008,-143.871 79.1261,-138.75 83.1825,-148.537 88.4008,-143.871"/>
</g>
<!-- Node30 -->
<g id="node3" class="node"><title>Node30</title>
<g id="a_node3"><a xlink:href="../../d7/d3f/a00173.html#a587ad2d9d4efce7ab90b761815c2350a" target="_top" xlink:title="Multiples this Quaternion with a scalar. ">
<polygon fill="white" stroke="black" points="170,-180.5 170,-206.5 304,-206.5 304,-180.5 170,-180.5"/>
<text text-anchor="start" x="178" y="-196.1" font-family="Helvetica,sans-Serif" font-size="8.00">project.pc.sensor.representation.</text>
<text text-anchor="middle" x="237" y="-187.1" font-family="Helvetica,sans-Serif" font-size="8.00">Quaternion.multiplyByScalar</text>
</a>
</g>
</g>
<!-- Node28&#45;&gt;Node30 -->
<g id="edge2" class="edge"><title>Node28&#45;&gt;Node30</title>
<path fill="none" stroke="midnightblue" d="M104.019,-142.826C123.374,-151.86 147.766,-162.807 170,-171.5 177.874,-174.579 186.377,-177.619 194.576,-180.411"/>
<polygon fill="midnightblue" stroke="midnightblue" points="105.492,-139.651 94.9537,-138.563 102.514,-145.986 105.492,-139.651"/>
</g>
<!-- Node31 -->
<g id="node4" class="node"><title>Node31</title>
<g id="a_node4"><a xlink:href="../../d7/d3f/a00173.html#a26ed2a81648fda38ce8be8ab04d17adc" target="_top" xlink:title="Gets an axis angle representation of this Quaternion. ">
<polygon fill="white" stroke="black" points="170,-135.5 170,-161.5 304,-161.5 304,-135.5 170,-135.5"/>
<text text-anchor="start" x="178" y="-151.1" font-family="Helvetica,sans-Serif" font-size="8.00">project.pc.sensor.representation.</text>
<text text-anchor="middle" x="237" y="-142.1" font-family="Helvetica,sans-Serif" font-size="8.00">Quaternion.toAxisAngle</text>
</a>
</g>
</g>
<!-- Node28&#45;&gt;Node31 -->
<g id="edge3" class="edge"><title>Node28&#45;&gt;Node31</title>
<path fill="none" stroke="midnightblue" d="M144.317,-135.948C152.826,-137.113 161.441,-138.293 169.809,-139.438"/>
<polygon fill="midnightblue" stroke="midnightblue" points="144.78,-132.479 134.398,-134.59 143.831,-139.414 144.78,-132.479"/>
</g>
<!-- Node32 -->
<g id="node5" class="node"><title>Node32</title>
<g id="a_node5"><a xlink:href="../../d7/d3f/a00173.html#aed8aaebaee10c25caacaa50b1ee55baf" target="_top" xlink:title="Returns the heading, attitude and bank of this Quaternion as euler angles in the double array respect...">
<polygon fill="white" stroke="black" points="170,-90.5 170,-116.5 304,-116.5 304,-90.5 170,-90.5"/>
<text text-anchor="start" x="178" y="-106.1" font-family="Helvetica,sans-Serif" font-size="8.00">project.pc.sensor.representation.</text>
<text text-anchor="middle" x="237" y="-97.1" font-family="Helvetica,sans-Serif" font-size="8.00">Quaternion.toEulerAngles</text>
</a>
</g>
</g>
<!-- Node28&#45;&gt;Node32 -->
<g id="edge4" class="edge"><title>Node28&#45;&gt;Node32</title>
<path fill="none" stroke="midnightblue" d="M144.317,-115.506C152.826,-114.392 161.441,-113.264 169.809,-112.168"/>
<polygon fill="midnightblue" stroke="midnightblue" points="143.859,-112.036 134.398,-116.805 144.768,-118.977 143.859,-112.036"/>
</g>
<!-- Node33 -->
<g id="node6" class="node"><title>Node33</title>
<g id="a_node6"><a xlink:href="../../d7/d3f/a00173.html#a8080165fcc9bcca528eb672a1e15ec96" target="_top" xlink:title="Returns a String representing this Quaternion. ">
<polygon fill="white" stroke="black" points="170,-45.5 170,-71.5 304,-71.5 304,-45.5 170,-45.5"/>
<text text-anchor="start" x="178" y="-61.1" font-family="Helvetica,sans-Serif" font-size="8.00">project.pc.sensor.representation.</text>
<text text-anchor="middle" x="237" y="-52.1" font-family="Helvetica,sans-Serif" font-size="8.00">Quaternion.toString</text>
</a>
</g>
</g>
<!-- Node28&#45;&gt;Node33 -->
<g id="edge5" class="edge"><title>Node28&#45;&gt;Node33</title>
<path fill="none" stroke="midnightblue" d="M106.039,-108.319C125.106,-99.9044 148.63,-89.8204 170,-81.5 178.707,-78.1101 188.147,-74.6786 197.091,-71.5373"/>
<polygon fill="midnightblue" stroke="midnightblue" points="104.509,-105.168 96.7884,-112.424 107.348,-111.566 104.509,-105.168"/>
</g>
<!-- Node34 -->
<g id="node7" class="node"><title>Node34</title>
<g id="a_node7"><a xlink:href="../../dd/d4c/a00177.html#af856865a4509c64592b3df78f8f14011" target="_top" xlink:title="Constructor. ">
<polygon fill="white" stroke="black" points="170,-0.5 170,-26.5 304,-26.5 304,-0.5 170,-0.5"/>
<text text-anchor="start" x="178" y="-16.1" font-family="Helvetica,sans-Serif" font-size="8.00">project.pc.sensor.representation.</text>
<text text-anchor="middle" x="237" y="-7.1" font-family="Helvetica,sans-Serif" font-size="8.00">Vector3f.Vector3f</text>
</a>
</g>
</g>
<!-- Node28&#45;&gt;Node34 -->
<g id="edge6" class="edge"><title>Node28&#45;&gt;Node34</title>
<path fill="none" stroke="midnightblue" d="M86.953,-104.901C106.206,-85.0244 137.71,-55.2628 170,-36.5 176.505,-32.7203 183.73,-29.4223 190.945,-26.5944"/>
<polygon fill="midnightblue" stroke="midnightblue" points="84.3214,-102.589 79.9606,-112.245 89.391,-107.416 84.3214,-102.589"/>
</g>
</g>
</svg>
