<?xml version="1.0" encoding="UTF-8" standalone="no"?>
<!DOCTYPE svg PUBLIC "-//W3C//DTD SVG 1.1//EN"
 "http://www.w3.org/Graphics/SVG/1.1/DTD/svg11.dtd">
<!-- Generated by graphviz version 2.38.0 (20140413.2041)
 -->
<!-- Title: project.pc.sensor.representation.Vector4f.getZ Pages: 1 -->
<svg width="312pt" height="162pt"
 viewBox="0.00 0.00 312.00 161.50" xmlns="http://www.w3.org/2000/svg" xmlns:xlink="http://www.w3.org/1999/xlink">
<g id="graph0" class="graph" transform="scale(1 1) rotate(0) translate(4 157.5)">
<title>project.pc.sensor.representation.Vector4f.getZ</title>
<polygon fill="white" stroke="none" points="-4,4 -4,-157.5 308,-157.5 308,4 -4,4"/>
<!-- Node48 -->
<g id="node1" class="node"><title>Node48</title>
<polygon fill="#bfbfbf" stroke="black" points="0,-67.5 0,-93.5 134,-93.5 134,-67.5 0,-67.5"/>
<text text-anchor="start" x="8" y="-83.1" font-family="Helvetica,sans-Serif" font-size="8.00">project.pc.sensor.representation.</text>
<text text-anchor="middle" x="67" y="-74.1" font-family="Helvetica,sans-Serif" font-size="8.00">Vector4f.getZ</text>
</g>
<!-- Node49 -->
<g id="node2" class="node"><title>Node49</title>
<g id="a_node2"><a xlink:href="../../d3/d32/a00105.html#a4c67f96bb7c71a251d95d4edc96d1107" target="_top" xlink:title="Displays the 3D cube. ">
<polygon fill="white" stroke="black" points="181,-136 181,-153 293,-153 293,-136 181,-136"/>
<text text-anchor="middle" x="237" y="-142.6" font-family="Helvetica,sans-Serif" font-size="8.00">project.pc.gui.Cube.display</text>
</a>
</g>
</g>
<!-- Node48&#45;&gt;Node49 -->
<g id="edge1" class="edge"><title>Node48&#45;&gt;Node49</title>
<path fill="none" stroke="midnightblue" d="M103.024,-97.9449C122.449,-107.199 147.22,-118.314 170,-126.5 179.836,-130.034 190.708,-133.266 200.743,-135.985"/>
<polygon fill="midnightblue" stroke="midnightblue" points="104.477,-94.7601 93.9487,-93.5727 101.438,-101.066 104.477,-94.7601"/>
</g>
<!-- Node50 -->
<g id="node3" class="node"><title>Node50</title>
<g id="a_node3"><a xlink:href="../../d7/d3f/a00173.html#a587ad2d9d4efce7ab90b761815c2350a" target="_top" xlink:title="Multiples this Quaternion with a scalar. ">
<polygon fill="white" stroke="black" points="170,-90.5 170,-116.5 304,-116.5 304,-90.5 170,-90.5"/>
<text text-anchor="start" x="178" y="-106.1" font-family="Helvetica,sans-Serif" font-size="8.00">project.pc.sensor.representation.</text>
<text text-anchor="middle" x="237" y="-97.1" font-family="Helvetica,sans-Serif" font-size="8.00">Quaternion.multiplyByScalar</text>
</a>
</g>
</g>
<!-- Node48&#45;&gt;Node50 -->
<g id="edge2" class="edge"><title>Node48&#45;&gt;Node50</title>
<path fill="none" stroke="midnightblue" d="M144.317,-90.9482C152.826,-92.1131 161.441,-93.2926 169.809,-94.4382"/>
<polygon fill="midnightblue" stroke="midnightblue" points="144.78,-87.479 134.398,-89.5902 143.831,-94.4143 144.78,-87.479"/>
</g>
<!-- Node51 -->
<g id="node4" class="node"><title>Node51</title>
<g id="a_node4"><a xlink:href="../../d7/d3f/a00173.html#a8080165fcc9bcca528eb672a1e15ec96" target="_top" xlink:title="Returns a String representing this Quaternion. ">
<polygon fill="white" stroke="black" points="170,-45.5 170,-71.5 304,-71.5 304,-45.5 170,-45.5"/>
<text text-anchor="start" x="178" y="-61.1" font-family="Helvetica,sans-Serif" font-size="8.00">project.pc.sensor.representation.</text>
<text text-anchor="middle" x="237" y="-52.1" font-family="Helvetica,sans-Serif" font-size="8.00">Quaternion.toString</text>
</a>
</g>
</g>
<!-- Node48&#45;&gt;Node51 -->
<g id="edge3" class="edge"><title>Node48&#45;&gt;Node51</title>
<path fill="none" stroke="midnightblue" d="M144.317,-70.5061C152.826,-69.3918 161.441,-68.2636 169.809,-67.1678"/>
<polygon fill="midnightblue" stroke="midnightblue" points="143.859,-67.0361 134.398,-71.805 144.768,-73.9769 143.859,-67.0361"/>
</g>
<!-- Node52 -->
<g id="node5" class="node"><title>Node52</title>
<g id="a_node5"><a xlink:href="../../dd/d4c/a00177.html#af856865a4509c64592b3df78f8f14011" target="_top" xlink:title="Constructor. ">
<polygon fill="white" stroke="black" points="170,-0.5 170,-26.5 304,-26.5 304,-0.5 170,-0.5"/>
<text text-anchor="start" x="178" y="-16.1" font-family="Helvetica,sans-Serif" font-size="8.00">project.pc.sensor.representation.</text>
<text text-anchor="middle" x="237" y="-7.1" font-family="Helvetica,sans-Serif" font-size="8.00">Vector3f.Vector3f</text>
</a>
</g>
</g>
<!-- Node48&#45;&gt;Node52 -->
<g id="edge4" class="edge"><title>Node48&#45;&gt;Node52</title>
<path fill="none" stroke="midnightblue" d="M106.039,-63.3185C125.106,-54.9044 148.63,-44.8204 170,-36.5 178.707,-33.1101 188.147,-29.6786 197.091,-26.5373"/>
<polygon fill="midnightblue" stroke="midnightblue" points="104.509,-60.1681 96.7884,-67.4236 107.348,-66.5664 104.509,-60.1681"/>
</g>
</g>
</svg>
