<?xml version="1.0" encoding="UTF-8" standalone="no"?>
<!DOCTYPE svg PUBLIC "-//W3C//DTD SVG 1.1//EN"
 "http://www.w3.org/Graphics/SVG/1.1/DTD/svg11.dtd">
<!-- Generated by graphviz version 2.38.0 (20140413.2041)
 -->
<!-- Title: project.pc.net.ClientInfo.getPublicKey Pages: 1 -->
<svg width="277pt" height="35pt"
 viewBox="0.00 0.00 277.00 35.00" xmlns="http://www.w3.org/2000/svg" xmlns:xlink="http://www.w3.org/1999/xlink">
<g id="graph0" class="graph" transform="scale(1 1) rotate(0) translate(4 31)">
<title>project.pc.net.ClientInfo.getPublicKey</title>
<polygon fill="white" stroke="none" points="-4,4 -4,-31 273,-31 273,4 -4,4"/>
<!-- Node8 -->
<g id="node1" class="node"><title>Node8</title>
<polygon fill="#bfbfbf" stroke="black" points="0,-0.5 0,-26.5 114,-26.5 114,-0.5 0,-0.5"/>
<text text-anchor="start" x="8" y="-16.1" font-family="Helvetica,sans-Serif" font-size="8.00">project.pc.net.ClientInfo.get</text>
<text text-anchor="middle" x="57" y="-7.1" font-family="Helvetica,sans-Serif" font-size="8.00">PublicKey</text>
</g>
<!-- Node9 -->
<g id="node2" class="node"><title>Node9</title>
<g id="a_node2"><a xlink:href="../../da/d1e/a00149.html#a386a1fb7b5607e2c4f68846c76e7cebd" target="_top" xlink:title="Constructor. ">
<polygon fill="white" stroke="black" points="150,-0.5 150,-26.5 269,-26.5 269,-0.5 150,-0.5"/>
<text text-anchor="start" x="158" y="-16.1" font-family="Helvetica,sans-Serif" font-size="8.00">project.pc.net.ServerThread.</text>
<text text-anchor="middle" x="209.5" y="-7.1" font-family="Helvetica,sans-Serif" font-size="8.00">ServerThread</text>
</a>
</g>
</g>
<!-- Node8&#45;&gt;Node9 -->
<g id="edge1" class="edge"><title>Node8&#45;&gt;Node9</title>
<path fill="none" stroke="midnightblue" d="M124.043,-13.5C132.65,-13.5 141.421,-13.5 149.895,-13.5"/>
<polygon fill="midnightblue" stroke="midnightblue" points="124.041,-10.0001 114.041,-13.5 124.041,-17.0001 124.041,-10.0001"/>
</g>
</g>
</svg>
