<?xml version="1.0" encoding="UTF-8" standalone="no"?>
<!DOCTYPE svg PUBLIC "-//W3C//DTD SVG 1.1//EN"
 "http://www.w3.org/Graphics/SVG/1.1/DTD/svg11.dtd">
<!-- Generated by graphviz version 2.38.0 (20140413.2041)
 -->
<!-- Title: project.pc.net.ClientInfo.getSocket Pages: 1 -->
<svg width="456pt" height="35pt"
 viewBox="0.00 0.00 456.00 35.00" xmlns="http://www.w3.org/2000/svg" xmlns:xlink="http://www.w3.org/1999/xlink">
<g id="graph0" class="graph" transform="scale(1 1) rotate(0) translate(4 31)">
<title>project.pc.net.ClientInfo.getSocket</title>
<polygon fill="white" stroke="none" points="-4,4 -4,-31 452,-31 452,4 -4,4"/>
<!-- Node11 -->
<g id="node1" class="node"><title>Node11</title>
<polygon fill="#bfbfbf" stroke="black" points="0,-0.5 0,-26.5 114,-26.5 114,-0.5 0,-0.5"/>
<text text-anchor="start" x="8" y="-16.1" font-family="Helvetica,sans-Serif" font-size="8.00">project.pc.net.ClientInfo.get</text>
<text text-anchor="middle" x="57" y="-7.1" font-family="Helvetica,sans-Serif" font-size="8.00">Socket</text>
</g>
<!-- Node12 -->
<g id="node2" class="node"><title>Node12</title>
<g id="a_node2"><a xlink:href="../../d0/de8/a00133.html#a7295c2727c8359a1228c006a8a58df25" target="_top" xlink:title="Adds a client connection to this NetworkState. ">
<polygon fill="white" stroke="black" points="150,-5 150,-22 281,-22 281,-5 150,-5"/>
<text text-anchor="middle" x="215.5" y="-11.6" font-family="Helvetica,sans-Serif" font-size="8.00">project.pc.net.NetworkState.add</text>
</a>
</g>
</g>
<!-- Node11&#45;&gt;Node12 -->
<g id="edge1" class="edge"><title>Node11&#45;&gt;Node12</title>
<path fill="none" stroke="midnightblue" d="M124.247,-13.5C132.701,-13.5 141.347,-13.5 149.776,-13.5"/>
<polygon fill="midnightblue" stroke="midnightblue" points="124.058,-10.0001 114.058,-13.5 124.058,-17.0001 124.058,-10.0001"/>
</g>
<!-- Node13 -->
<g id="node3" class="node"><title>Node13</title>
<g id="a_node3"><a xlink:href="../../da/d1e/a00149.html#a6262e65e0cfc1e2830af1ab11eabf116" target="_top" xlink:title="Performs operations for communication with a client. ">
<polygon fill="white" stroke="black" points="317,-5 317,-22 448,-22 448,-5 317,-5"/>
<text text-anchor="middle" x="382.5" y="-11.6" font-family="Helvetica,sans-Serif" font-size="8.00">project.pc.net.ServerThread.run</text>
</a>
</g>
</g>
<!-- Node12&#45;&gt;Node13 -->
<g id="edge2" class="edge"><title>Node12&#45;&gt;Node13</title>
<path fill="none" stroke="midnightblue" d="M291.239,-13.5C299.821,-13.5 308.516,-13.5 316.948,-13.5"/>
<polygon fill="midnightblue" stroke="midnightblue" points="291.239,-10.0001 281.239,-13.5 291.239,-17.0001 291.239,-10.0001"/>
</g>
</g>
</svg>
