<?xml version="1.0" encoding="UTF-8" standalone="no"?>
<!DOCTYPE svg PUBLIC "-//W3C//DTD SVG 1.1//EN"
 "http://www.w3.org/Graphics/SVG/1.1/DTD/svg11.dtd">
<!-- Generated by graphviz version 2.38.0 (20140413.2041)
 -->
<!-- Title: project.pc.net.ClientInfo.getClientInfo Pages: 1 -->
<svg width="456pt" height="110pt"
 viewBox="0.00 0.00 456.00 109.50" xmlns="http://www.w3.org/2000/svg" xmlns:xlink="http://www.w3.org/1999/xlink">
<g id="graph0" class="graph" transform="scale(1 1) rotate(0) translate(4 105.5)">
<title>project.pc.net.ClientInfo.getClientInfo</title>
<polygon fill="white" stroke="none" points="-4,4 -4,-105.5 452,-105.5 452,4 -4,4"/>
<!-- Node3 -->
<g id="node1" class="node"><title>Node3</title>
<polygon fill="#bfbfbf" stroke="black" points="0,-42.5 0,-68.5 114,-68.5 114,-42.5 0,-42.5"/>
<text text-anchor="start" x="8" y="-58.1" font-family="Helvetica,sans-Serif" font-size="8.00">project.pc.net.ClientInfo.get</text>
<text text-anchor="middle" x="57" y="-49.1" font-family="Helvetica,sans-Serif" font-size="8.00">ClientInfo</text>
</g>
<!-- Node4 -->
<g id="node2" class="node"><title>Node4</title>
<g id="a_node2"><a xlink:href="../../d0/de8/a00133.html#a7295c2727c8359a1228c006a8a58df25" target="_top" xlink:title="Adds a client connection to this NetworkState. ">
<polygon fill="white" stroke="black" points="150,-84 150,-101 281,-101 281,-84 150,-84"/>
<text text-anchor="middle" x="215.5" y="-90.6" font-family="Helvetica,sans-Serif" font-size="8.00">project.pc.net.NetworkState.add</text>
</a>
</g>
</g>
<!-- Node3&#45;&gt;Node4 -->
<g id="edge1" class="edge"><title>Node3&#45;&gt;Node4</title>
<path fill="none" stroke="midnightblue" d="M122.963,-70.8587C141.912,-75.3386 161.932,-80.0717 178.401,-83.9654"/>
<polygon fill="midnightblue" stroke="midnightblue" points="123.713,-67.4396 113.176,-68.5448 122.102,-74.2518 123.713,-67.4396"/>
</g>
<!-- Node5 -->
<g id="node3" class="node"><title>Node5</title>
<g id="a_node3"><a xlink:href="../../da/d1e/a00149.html#a6262e65e0cfc1e2830af1ab11eabf116" target="_top" xlink:title="Performs operations for communication with a client. ">
<polygon fill="white" stroke="black" points="317,-65 317,-82 448,-82 448,-65 317,-65"/>
<text text-anchor="middle" x="382.5" y="-71.6" font-family="Helvetica,sans-Serif" font-size="8.00">project.pc.net.ServerThread.run</text>
</a>
</g>
</g>
<!-- Node3&#45;&gt;Node5 -->
<g id="edge4" class="edge"><title>Node3&#45;&gt;Node5</title>
<path fill="none" stroke="midnightblue" d="M124.579,-59.2045C180.912,-62.339 261.148,-66.8034 316.909,-69.9061"/>
<polygon fill="midnightblue" stroke="midnightblue" points="124.528,-55.6964 114.349,-58.6354 124.139,-62.6856 124.528,-55.6964"/>
</g>
<!-- Node6 -->
<g id="node4" class="node"><title>Node6</title>
<g id="a_node4"><a xlink:href="../../da/d1e/a00149.html#a386a1fb7b5607e2c4f68846c76e7cebd" target="_top" xlink:title="Constructor. ">
<polygon fill="white" stroke="black" points="156,-0.5 156,-26.5 275,-26.5 275,-0.5 156,-0.5"/>
<text text-anchor="start" x="164" y="-16.1" font-family="Helvetica,sans-Serif" font-size="8.00">project.pc.net.ServerThread.</text>
<text text-anchor="middle" x="215.5" y="-7.1" font-family="Helvetica,sans-Serif" font-size="8.00">ServerThread</text>
</a>
</g>
</g>
<!-- Node3&#45;&gt;Node6 -->
<g id="edge3" class="edge"><title>Node3&#45;&gt;Node6</title>
<path fill="none" stroke="midnightblue" d="M116.586,-39.7772C132.823,-35.4196 150.268,-30.7379 165.87,-26.5508"/>
<polygon fill="midnightblue" stroke="midnightblue" points="115.411,-36.4687 106.66,-42.4412 117.225,-43.2295 115.411,-36.4687"/>
</g>
<!-- Node4&#45;&gt;Node5 -->
<g id="edge2" class="edge"><title>Node4&#45;&gt;Node5</title>
<path fill="none" stroke="midnightblue" d="M291.239,-83.8937C299.821,-82.9055 308.516,-81.9042 316.948,-80.9333"/>
<polygon fill="midnightblue" stroke="midnightblue" points="290.773,-80.4242 281.239,-85.0452 291.574,-87.3782 290.773,-80.4242"/>
</g>
</g>
</svg>
