<?xml version="1.0" encoding="UTF-8" standalone="no"?>
<!DOCTYPE svg PUBLIC "-//W3C//DTD SVG 1.1//EN"
 "http://www.w3.org/Graphics/SVG/1.1/DTD/svg11.dtd">
<!-- Generated by graphviz version 2.38.0 (20140413.2041)
 -->
<!-- Title: project.pc.net.DataWrapper.isInitQuat Pages: 1 -->
<svg width="298pt" height="72pt"
 viewBox="0.00 0.00 298.00 71.50" xmlns="http://www.w3.org/2000/svg" xmlns:xlink="http://www.w3.org/1999/xlink">
<g id="graph0" class="graph" transform="scale(1 1) rotate(0) translate(4 67.5)">
<title>project.pc.net.DataWrapper.isInitQuat</title>
<polygon fill="white" stroke="none" points="-4,4 -4,-67.5 294,-67.5 294,4 -4,4"/>
<!-- Node30 -->
<g id="node1" class="node"><title>Node30</title>
<polygon fill="#bfbfbf" stroke="black" points="0,-16 0,-42 123,-42 123,-16 0,-16"/>
<text text-anchor="start" x="8" y="-31.6" font-family="Helvetica,sans-Serif" font-size="8.00">project.pc.net.DataWrapper.is</text>
<text text-anchor="middle" x="61.5" y="-22.6" font-family="Helvetica,sans-Serif" font-size="8.00">InitQuat</text>
</g>
<!-- Node31 -->
<g id="node2" class="node"><title>Node31</title>
<g id="a_node2"><a xlink:href="../../dc/dfe/a00125.html#ab348827326f2a59b8a569537be80c8f0" target="_top" xlink:title="Constructor. ">
<polygon fill="white" stroke="black" points="165.5,-37 165.5,-63 283.5,-63 283.5,-37 165.5,-37"/>
<text text-anchor="start" x="173.5" y="-52.6" font-family="Helvetica,sans-Serif" font-size="8.00">project.pc.net.DataWrapper.</text>
<text text-anchor="middle" x="224.5" y="-43.6" font-family="Helvetica,sans-Serif" font-size="8.00">DataWrapper</text>
</a>
</g>
</g>
<!-- Node30&#45;&gt;Node31 -->
<g id="edge1" class="edge"><title>Node30&#45;&gt;Node31</title>
<path fill="none" stroke="midnightblue" d="M133.515,-38.2628C144.197,-39.6561 155.105,-41.079 165.473,-42.4313"/>
<polygon fill="midnightblue" stroke="midnightblue" points="133.736,-34.7621 123.367,-36.9392 132.83,-41.7033 133.736,-34.7621"/>
</g>
<!-- Node32 -->
<g id="node3" class="node"><title>Node32</title>
<g id="a_node3"><a xlink:href="../../da/d1e/a00149.html#a6262e65e0cfc1e2830af1ab11eabf116" target="_top" xlink:title="Performs operations for communication with a client. ">
<polygon fill="white" stroke="black" points="159,-0.5 159,-17.5 290,-17.5 290,-0.5 159,-0.5"/>
<text text-anchor="middle" x="224.5" y="-7.1" font-family="Helvetica,sans-Serif" font-size="8.00">project.pc.net.ServerThread.run</text>
</a>
</g>
</g>
<!-- Node30&#45;&gt;Node32 -->
<g id="edge2" class="edge"><title>Node30&#45;&gt;Node32</title>
<path fill="none" stroke="midnightblue" d="M133.525,-20.177C141.931,-19.1328 150.476,-18.0713 158.787,-17.0389"/>
<polygon fill="midnightblue" stroke="midnightblue" points="132.859,-16.7327 123.367,-21.4389 133.722,-23.6793 132.859,-16.7327"/>
</g>
</g>
</svg>
