<?xml version="1.0" encoding="UTF-8" standalone="no"?>
<!DOCTYPE svg PUBLIC "-//W3C//DTD SVG 1.1//EN"
 "http://www.w3.org/Graphics/SVG/1.1/DTD/svg11.dtd">
<!-- Generated by graphviz version 2.38.0 (20140413.2041)
 -->
<!-- Title: project.pc.net.DataWrapper.DataWrapper Pages: 1 -->
<svg width="285pt" height="35pt"
 viewBox="0.00 0.00 285.00 35.00" xmlns="http://www.w3.org/2000/svg" xmlns:xlink="http://www.w3.org/1999/xlink">
<g id="graph0" class="graph" transform="scale(1 1) rotate(0) translate(4 31)">
<title>project.pc.net.DataWrapper.DataWrapper</title>
<polygon fill="white" stroke="none" points="-4,4 -4,-31 281,-31 281,4 -4,4"/>
<!-- Node6 -->
<g id="node1" class="node"><title>Node6</title>
<polygon fill="#bfbfbf" stroke="black" points="0,-0.5 0,-26.5 118,-26.5 118,-0.5 0,-0.5"/>
<text text-anchor="start" x="8" y="-16.1" font-family="Helvetica,sans-Serif" font-size="8.00">project.pc.net.DataWrapper.</text>
<text text-anchor="middle" x="59" y="-7.1" font-family="Helvetica,sans-Serif" font-size="8.00">DataWrapper</text>
</g>
<!-- Node7 -->
<g id="node2" class="node"><title>Node7</title>
<g id="a_node2"><a xlink:href="../../dc/dfe/a00125.html#a21ab6a8749638b0a2e90c6e8ea9ace0e" target="_top" xlink:title="Checks if the stored project.pc.sensor.representation.Quaternion object is the initial one...">
<polygon fill="white" stroke="black" points="154,-0.5 154,-26.5 277,-26.5 277,-0.5 154,-0.5"/>
<text text-anchor="start" x="162" y="-16.1" font-family="Helvetica,sans-Serif" font-size="8.00">project.pc.net.DataWrapper.is</text>
<text text-anchor="middle" x="215.5" y="-7.1" font-family="Helvetica,sans-Serif" font-size="8.00">InitQuat</text>
</a>
</g>
</g>
<!-- Node6&#45;&gt;Node7 -->
<g id="edge1" class="edge"><title>Node6&#45;&gt;Node7</title>
<path fill="none" stroke="midnightblue" d="M118.41,-13.5C126.672,-13.5 135.24,-13.5 143.705,-13.5"/>
<polygon fill="midnightblue" stroke="midnightblue" points="143.95,-17.0001 153.95,-13.5 143.95,-10.0001 143.95,-17.0001"/>
</g>
</g>
</svg>
