<?xml version="1.0" encoding="UTF-8" standalone="no"?>
<!DOCTYPE svg PUBLIC "-//W3C//DTD SVG 1.1//EN"
 "http://www.w3.org/Graphics/SVG/1.1/DTD/svg11.dtd">
<!-- Generated by graphviz version 2.38.0 (20140413.2041)
 -->
<!-- Title: project.pc.security.EKEProvider.EKEProvider Pages: 1 -->
<svg width="291pt" height="125pt"
 viewBox="0.00 0.00 291.00 125.00" xmlns="http://www.w3.org/2000/svg" xmlns:xlink="http://www.w3.org/1999/xlink">
<g id="graph0" class="graph" transform="scale(1 1) rotate(0) translate(4 121)">
<title>project.pc.security.EKEProvider.EKEProvider</title>
<polygon fill="white" stroke="none" points="-4,4 -4,-121 287,-121 287,4 -4,4"/>
<!-- Node0 -->
<g id="node1" class="node"><title>Node0</title>
<polygon fill="#bfbfbf" stroke="black" points="0,-45.5 0,-71.5 131,-71.5 131,-45.5 0,-45.5"/>
<text text-anchor="start" x="8" y="-61.1" font-family="Helvetica,sans-Serif" font-size="8.00">project.pc.security.EKEProvider.</text>
<text text-anchor="middle" x="65.5" y="-52.1" font-family="Helvetica,sans-Serif" font-size="8.00">EKEProvider</text>
</g>
<!-- Node1 -->
<g id="node2" class="node"><title>Node1</title>
<g id="a_node2"><a xlink:href="../../d1/db7/a00157.html#ab473c2295187adfa176b7e110e56da87" target="_top" xlink:title="Checks if a KeyStore exists. ">
<polygon fill="white" stroke="black" points="167,-90.5 167,-116.5 283,-116.5 283,-90.5 167,-90.5"/>
<text text-anchor="start" x="175" y="-106.1" font-family="Helvetica,sans-Serif" font-size="8.00">project.pc.security.KeyStore</text>
<text text-anchor="middle" x="225" y="-97.1" font-family="Helvetica,sans-Serif" font-size="8.00">Manager.keyStoreExists</text>
</a>
</g>
</g>
<!-- Node0&#45;&gt;Node1 -->
<g id="edge1" class="edge"><title>Node0&#45;&gt;Node1</title>
<path fill="none" stroke="midnightblue" d="M112.056,-71.5159C129.691,-76.5545 150.045,-82.37 168.521,-87.6489"/>
<polygon fill="midnightblue" stroke="midnightblue" points="167.697,-91.0536 178.274,-90.4355 169.621,-84.3229 167.697,-91.0536"/>
</g>
<!-- Node2 -->
<g id="node3" class="node"><title>Node2</title>
<g id="a_node3"><a xlink:href="../../d1/db7/a00157.html#a80b3eb039c0a98aea2908ce7be12fb95" target="_top" xlink:title="Returns the private&#45;public key pair. ">
<polygon fill="white" stroke="black" points="167,-45.5 167,-71.5 283,-71.5 283,-45.5 167,-45.5"/>
<text text-anchor="start" x="175" y="-61.1" font-family="Helvetica,sans-Serif" font-size="8.00">project.pc.security.KeyStore</text>
<text text-anchor="middle" x="225" y="-52.1" font-family="Helvetica,sans-Serif" font-size="8.00">Manager.getKSKeyPair</text>
</a>
</g>
</g>
<!-- Node0&#45;&gt;Node2 -->
<g id="edge2" class="edge"><title>Node0&#45;&gt;Node2</title>
<path fill="none" stroke="midnightblue" d="M131.016,-58.5C139.471,-58.5 148.153,-58.5 156.654,-58.5"/>
<polygon fill="midnightblue" stroke="midnightblue" points="156.906,-62.0001 166.906,-58.5 156.906,-55.0001 156.906,-62.0001"/>
</g>
<!-- Node3 -->
<g id="node4" class="node"><title>Node3</title>
<g id="a_node4"><a xlink:href="../../d1/db7/a00157.html#a50d94b3fd26c27b53facae4bbb3a338c" target="_top" xlink:title="Method to store the private key and the certificate in the KeyStore. ">
<polygon fill="white" stroke="black" points="167,-0.5 167,-26.5 283,-26.5 283,-0.5 167,-0.5"/>
<text text-anchor="start" x="175" y="-16.1" font-family="Helvetica,sans-Serif" font-size="8.00">project.pc.security.KeyStore</text>
<text text-anchor="middle" x="225" y="-7.1" font-family="Helvetica,sans-Serif" font-size="8.00">Manager.setMasterKey</text>
</a>
</g>
</g>
<!-- Node0&#45;&gt;Node3 -->
<g id="edge3" class="edge"><title>Node0&#45;&gt;Node3</title>
<path fill="none" stroke="midnightblue" d="M112.056,-45.4841C129.691,-40.4455 150.045,-34.63 168.521,-29.3511"/>
<polygon fill="midnightblue" stroke="midnightblue" points="169.621,-32.6771 178.274,-26.5645 167.697,-25.9464 169.621,-32.6771"/>
</g>
</g>
</svg>
