<?xml version="1.0" encoding="UTF-8" standalone="no"?>
<!DOCTYPE svg PUBLIC "-//W3C//DTD SVG 1.1//EN"
 "http://www.w3.org/Graphics/SVG/1.1/DTD/svg11.dtd">
<!-- Generated by graphviz version 2.38.0 (20140413.2041)
 -->
<!-- Title: project.pc.security.EKEProvider.EKEProvider Pages: 1 -->
<svg width="291pt" height="35pt"
 viewBox="0.00 0.00 291.00 35.00" xmlns="http://www.w3.org/2000/svg" xmlns:xlink="http://www.w3.org/1999/xlink">
<g id="graph0" class="graph" transform="scale(1 1) rotate(0) translate(4 31)">
<title>project.pc.security.EKEProvider.EKEProvider</title>
<polygon fill="white" stroke="none" points="-4,4 -4,-31 287,-31 287,4 -4,4"/>
<!-- Node5 -->
<g id="node1" class="node"><title>Node5</title>
<polygon fill="#bfbfbf" stroke="black" points="0,-0.5 0,-26.5 131,-26.5 131,-0.5 0,-0.5"/>
<text text-anchor="start" x="8" y="-16.1" font-family="Helvetica,sans-Serif" font-size="8.00">project.pc.security.EKEProvider.</text>
<text text-anchor="middle" x="65.5" y="-7.1" font-family="Helvetica,sans-Serif" font-size="8.00">EKEProvider</text>
</g>
<!-- Node6 -->
<g id="node2" class="node"><title>Node6</title>
<g id="a_node2"><a xlink:href="../../d1/db7/a00157.html#a80b3eb039c0a98aea2908ce7be12fb95" target="_top" xlink:title="Returns the private&#45;public key pair. ">
<polygon fill="white" stroke="black" points="167,-0.5 167,-26.5 283,-26.5 283,-0.5 167,-0.5"/>
<text text-anchor="start" x="175" y="-16.1" font-family="Helvetica,sans-Serif" font-size="8.00">project.pc.security.KeyStore</text>
<text text-anchor="middle" x="225" y="-7.1" font-family="Helvetica,sans-Serif" font-size="8.00">Manager.getKSKeyPair</text>
</a>
</g>
</g>
<!-- Node5&#45;&gt;Node6 -->
<g id="edge1" class="edge"><title>Node5&#45;&gt;Node6</title>
<path fill="none" stroke="midnightblue" d="M131.016,-13.5C139.471,-13.5 148.153,-13.5 156.654,-13.5"/>
<polygon fill="midnightblue" stroke="midnightblue" points="156.906,-17.0001 166.906,-13.5 156.906,-10.0001 156.906,-17.0001"/>
</g>
</g>
</svg>
