<?xml version="1.0" encoding="UTF-8" standalone="no"?>
<!DOCTYPE svg PUBLIC "-//W3C//DTD SVG 1.1//EN"
 "http://www.w3.org/Graphics/SVG/1.1/DTD/svg11.dtd">
<!-- Generated by graphviz version 2.38.0 (20140413.2041)
 -->
<!-- Title: project.pc.security.EKEProvider.decryptString Pages: 1 -->
<svg width="332pt" height="72pt"
 viewBox="0.00 0.00 332.00 71.50" xmlns="http://www.w3.org/2000/svg" xmlns:xlink="http://www.w3.org/1999/xlink">
<g id="graph0" class="graph" transform="scale(1 1) rotate(0) translate(4 67.5)">
<title>project.pc.security.EKEProvider.decryptString</title>
<polygon fill="white" stroke="none" points="-4,4 -4,-67.5 328,-67.5 328,4 -4,4"/>
<!-- Node9 -->
<g id="node1" class="node"><title>Node9</title>
<polygon fill="#bfbfbf" stroke="black" points="0,-16 0,-42 157,-42 157,-16 0,-16"/>
<text text-anchor="start" x="8" y="-31.6" font-family="Helvetica,sans-Serif" font-size="8.00">project.pc.security.EKEProvider.decrypt</text>
<text text-anchor="middle" x="78.5" y="-22.6" font-family="Helvetica,sans-Serif" font-size="8.00">String</text>
</g>
<!-- Node10 -->
<g id="node2" class="node"><title>Node10</title>
<g id="a_node2"><a xlink:href="../../da/d1e/a00149.html#a386a1fb7b5607e2c4f68846c76e7cebd" target="_top" xlink:title="Constructor. ">
<polygon fill="white" stroke="black" points="199,-37 199,-63 318,-63 318,-37 199,-37"/>
<text text-anchor="start" x="207" y="-52.6" font-family="Helvetica,sans-Serif" font-size="8.00">project.pc.net.ServerThread.</text>
<text text-anchor="middle" x="258.5" y="-43.6" font-family="Helvetica,sans-Serif" font-size="8.00">ServerThread</text>
</a>
</g>
</g>
<!-- Node9&#45;&gt;Node10 -->
<g id="edge1" class="edge"><title>Node9&#45;&gt;Node10</title>
<path fill="none" stroke="midnightblue" d="M167.314,-39.36C178.042,-40.6257 188.792,-41.894 198.943,-43.0915"/>
<polygon fill="midnightblue" stroke="midnightblue" points="167.397,-35.8457 157.056,-38.1498 166.577,-42.7974 167.397,-35.8457"/>
</g>
<!-- Node11 -->
<g id="node3" class="node"><title>Node11</title>
<g id="a_node3"><a xlink:href="../../da/d1e/a00149.html#a6262e65e0cfc1e2830af1ab11eabf116" target="_top" xlink:title="Performs operations for communication with a client. ">
<polygon fill="white" stroke="black" points="193,-0.5 193,-17.5 324,-17.5 324,-0.5 193,-0.5"/>
<text text-anchor="middle" x="258.5" y="-7.1" font-family="Helvetica,sans-Serif" font-size="8.00">project.pc.net.ServerThread.run</text>
</a>
</g>
</g>
<!-- Node9&#45;&gt;Node11 -->
<g id="edge2" class="edge"><title>Node9&#45;&gt;Node11</title>
<path fill="none" stroke="midnightblue" d="M167.221,-19.1437C175.903,-18.1682 184.602,-17.1908 192.986,-16.2487"/>
<polygon fill="midnightblue" stroke="midnightblue" points="166.602,-15.6911 157.056,-20.2859 167.384,-22.6473 166.602,-15.6911"/>
</g>
</g>
</svg>
