<?xml version="1.0" encoding="UTF-8" standalone="no"?>
<!DOCTYPE svg PUBLIC "-//W3C//DTD SVG 1.1//EN"
 "http://www.w3.org/Graphics/SVG/1.1/DTD/svg11.dtd">
<!-- Generated by graphviz version 2.38.0 (20140413.2041)
 -->
<!-- Title: project.pc.security.EKEProvider.getPairingKey Pages: 1 -->
<svg width="305pt" height="35pt"
 viewBox="0.00 0.00 305.00 35.00" xmlns="http://www.w3.org/2000/svg" xmlns:xlink="http://www.w3.org/1999/xlink">
<g id="graph0" class="graph" transform="scale(1 1) rotate(0) translate(4 31)">
<title>project.pc.security.EKEProvider.getPairingKey</title>
<polygon fill="white" stroke="none" points="-4,4 -4,-31 301,-31 301,4 -4,4"/>
<!-- Node20 -->
<g id="node1" class="node"><title>Node20</title>
<polygon fill="#bfbfbf" stroke="black" points="0,-0.5 0,-26.5 142,-26.5 142,-0.5 0,-0.5"/>
<text text-anchor="start" x="8" y="-16.1" font-family="Helvetica,sans-Serif" font-size="8.00">project.pc.security.EKEProvider.get</text>
<text text-anchor="middle" x="71" y="-7.1" font-family="Helvetica,sans-Serif" font-size="8.00">PairingKey</text>
</g>
<!-- Node21 -->
<g id="node2" class="node"><title>Node21</title>
<g id="a_node2"><a xlink:href="../../da/d1e/a00149.html#a386a1fb7b5607e2c4f68846c76e7cebd" target="_top" xlink:title="Constructor. ">
<polygon fill="white" stroke="black" points="178,-0.5 178,-26.5 297,-26.5 297,-0.5 178,-0.5"/>
<text text-anchor="start" x="186" y="-16.1" font-family="Helvetica,sans-Serif" font-size="8.00">project.pc.net.ServerThread.</text>
<text text-anchor="middle" x="237.5" y="-7.1" font-family="Helvetica,sans-Serif" font-size="8.00">ServerThread</text>
</a>
</g>
</g>
<!-- Node20&#45;&gt;Node21 -->
<g id="edge1" class="edge"><title>Node20&#45;&gt;Node21</title>
<path fill="none" stroke="midnightblue" d="M152.319,-13.5C160.935,-13.5 169.579,-13.5 177.874,-13.5"/>
<polygon fill="midnightblue" stroke="midnightblue" points="152.24,-10.0001 142.24,-13.5 152.24,-17.0001 152.24,-10.0001"/>
</g>
</g>
</svg>
