<?xml version="1.0" encoding="UTF-8" standalone="no"?>
<!DOCTYPE svg PUBLIC "-//W3C//DTD SVG 1.1//EN"
 "http://www.w3.org/Graphics/SVG/1.1/DTD/svg11.dtd">
<!-- Generated by graphviz version 2.38.0 (20140413.2041)
 -->
<!-- Title: project.pc.sensor.representation.Quaternion.rotateVector Pages: 1 -->
<svg width="676pt" height="80pt"
 viewBox="0.00 0.00 676.00 80.00" xmlns="http://www.w3.org/2000/svg" xmlns:xlink="http://www.w3.org/1999/xlink">
<g id="graph0" class="graph" transform="scale(1 1) rotate(0) translate(4 76)">
<title>project.pc.sensor.representation.Quaternion.rotateVector</title>
<polygon fill="white" stroke="none" points="-4,4 -4,-76 672,-76 672,4 -4,4"/>
<!-- Node48 -->
<g id="node1" class="node"><title>Node48</title>
<polygon fill="#bfbfbf" stroke="black" points="0,-22.5 0,-48.5 134,-48.5 134,-22.5 0,-22.5"/>
<text text-anchor="start" x="8" y="-38.1" font-family="Helvetica,sans-Serif" font-size="8.00">project.pc.sensor.representation.</text>
<text text-anchor="middle" x="67" y="-29.1" font-family="Helvetica,sans-Serif" font-size="8.00">Quaternion.rotateVector</text>
</g>
<!-- Node49 -->
<g id="node2" class="node"><title>Node49</title>
<g id="a_node2"><a xlink:href="../../de/df3/a00185.html#ab05bb45ac0b4f0a4b9024959af5e8f1a" target="_top" xlink:title="Constructor. ">
<polygon fill="white" stroke="black" points="170,-45.5 170,-71.5 306,-71.5 306,-45.5 170,-45.5"/>
<text text-anchor="start" x="178" y="-61.1" font-family="Helvetica,sans-Serif" font-size="8.00">project.pc.sensor.Sensor</text>
<text text-anchor="middle" x="238" y="-52.1" font-family="Helvetica,sans-Serif" font-size="8.00">DataHandler.SensorDataHandler</text>
</a>
</g>
</g>
<!-- Node48&#45;&gt;Node49 -->
<g id="edge1" class="edge"><title>Node48&#45;&gt;Node49</title>
<path fill="none" stroke="midnightblue" d="M144.233,-45.8749C152.75,-47.034 161.38,-48.2085 169.772,-49.3507"/>
<polygon fill="midnightblue" stroke="midnightblue" points="144.689,-42.4048 134.308,-44.5242 143.745,-49.3408 144.689,-42.4048"/>
</g>
<!-- Node50 -->
<g id="node3" class="node"><title>Node50</title>
<g id="a_node3"><a xlink:href="../../de/df3/a00185.html#ada934d56bb8ee100d1b467f16be30885" target="_top" xlink:title="Determines pointer location from current Quaternion object. ">
<polygon fill="white" stroke="black" points="180,-0.5 180,-26.5 296,-26.5 296,-0.5 180,-0.5"/>
<text text-anchor="start" x="188" y="-16.1" font-family="Helvetica,sans-Serif" font-size="8.00">project.pc.sensor.Sensor</text>
<text text-anchor="middle" x="238" y="-7.1" font-family="Helvetica,sans-Serif" font-size="8.00">DataHandler.pointerUpdate</text>
</a>
</g>
</g>
<!-- Node48&#45;&gt;Node50 -->
<g id="edge2" class="edge"><title>Node48&#45;&gt;Node50</title>
<path fill="none" stroke="midnightblue" d="M144.295,-25.5681C156.272,-24.009 168.47,-22.4211 179.916,-20.9311"/>
<polygon fill="midnightblue" stroke="midnightblue" points="143.773,-22.1065 134.308,-26.8682 144.676,-29.0479 143.773,-22.1065"/>
</g>
<!-- Node51 -->
<g id="node4" class="node"><title>Node51</title>
<g id="a_node4"><a xlink:href="../../d1/d84/a00097.html#ab76fce85b9d26d9601b0cc113d524bd6" target="_top" xlink:title="Method to perform mouse move on the basis of 3&#45;D input from the mobile device. ">
<polygon fill="white" stroke="black" points="342,-5 342,-22 501,-22 501,-5 342,-5"/>
<text text-anchor="middle" x="421.5" y="-11.6" font-family="Helvetica,sans-Serif" font-size="8.00">project.pc.device.MouseController.move</text>
</a>
</g>
</g>
<!-- Node50&#45;&gt;Node51 -->
<g id="edge3" class="edge"><title>Node50&#45;&gt;Node51</title>
<path fill="none" stroke="midnightblue" d="M306.77,-13.5C318.217,-13.5 330.186,-13.5 341.881,-13.5"/>
<polygon fill="midnightblue" stroke="midnightblue" points="306.428,-10.0001 296.428,-13.5 306.428,-17.0001 306.428,-10.0001"/>
</g>
<!-- Node52 -->
<g id="node5" class="node"><title>Node52</title>
<g id="a_node5"><a xlink:href="../../da/d1e/a00149.html#a6262e65e0cfc1e2830af1ab11eabf116" target="_top" xlink:title="Performs operations for communication with a client. ">
<polygon fill="white" stroke="black" points="537,-5 537,-22 668,-22 668,-5 537,-5"/>
<text text-anchor="middle" x="602.5" y="-11.6" font-family="Helvetica,sans-Serif" font-size="8.00">project.pc.net.ServerThread.run</text>
</a>
</g>
</g>
<!-- Node51&#45;&gt;Node52 -->
<g id="edge4" class="edge"><title>Node51&#45;&gt;Node52</title>
<path fill="none" stroke="midnightblue" d="M511.121,-13.5C519.754,-13.5 528.397,-13.5 536.73,-13.5"/>
<polygon fill="midnightblue" stroke="midnightblue" points="511.012,-10.0001 501.012,-13.5 511.012,-17.0001 511.012,-10.0001"/>
</g>
</g>
</svg>
