<?xml version="1.0" encoding="UTF-8" standalone="no"?>
<!DOCTYPE svg PUBLIC "-//W3C//DTD SVG 1.1//EN"
 "http://www.w3.org/Graphics/SVG/1.1/DTD/svg11.dtd">
<!-- Generated by graphviz version 2.38.0 (20140413.2041)
 -->
<!-- Title: project.pc.sensor.representation.Quaternion.multiplyByScalar Pages: 1 -->
<!--zoomable 1070 -->
<svg id="main" version="1.1" xmlns="http://www.w3.org/2000/svg" xmlns:xlink="http://www.w3.org/1999/xlink" xml:space="preserve" onload="init(evt)">
<style type="text/css"><![CDATA[
.edge:hover path { stroke: red; }
.edge:hover polygon { stroke: red; fill: red; }
]]></style>
<script type="text/javascript"><![CDATA[
var edges = document.getElementsByTagName('g');
if (edges && edges.length) {
  for (var i=0;i<edges.length;i++) {
    if (edges[i].id.substr(0,4)=='edge') {
      edges[i].setAttribute('class','edge');
    }
  }
}
]]></script>
        <defs>
                <circle id="rim" cx="0" cy="0" r="7"/>
                <circle id="rim2" cx="0" cy="0" r="3.5"/>
                <g id="zoomPlus">
                        <use xlink:href="#rim" fill="#404040">
                                <set attributeName="fill" to="#808080" begin="zoomplus.mouseover" end="zoomplus.mouseout"/>
                        </use>
                        <path d="M-4,0h8M0,-4v8" fill="none" stroke="white" stroke-width="1.5" pointer-events="none"/>
                </g>
                <g id="zoomMin">
                        <use xlink:href="#rim" fill="#404040">
                                <set attributeName="fill" to="#808080" begin="zoomminus.mouseover" end="zoomminus.mouseout"/>
                        </use>
                        <path d="M-4,0h8" fill="none" stroke="white" stroke-width="1.5" pointer-events="none"/>
                </g>
                <g id="dirArrow">
                        <path fill="none" stroke="white" stroke-width="1.5" d="M0,-3.0v7 M-2.5,-0.5L0,-3.0L2.5,-0.5"/>
                </g>
               <g id="resetDef">
                       <use xlink:href="#rim2" fill="#404040">
                               <set attributeName="fill" to="#808080" begin="reset.mouseover" end="reset.mouseout"/>
                       </use>
               </g>
        </defs>

<script type="text/javascript">
var viewWidth = 312;
var viewHeight = 1070;
var sectionId = 'dynsection-4';
</script>
<script xlink:href="../../svgpan.js"/>
<svg id="graph" class="graph">
<g id="viewport">
<title>project.pc.sensor.representation.Quaternion.multiplyByScalar</title>
<polygon fill="white" stroke="none" points="-4,4 -4,-1066 308,-1066 308,4 -4,4"/>
<!-- Node15 -->
<g id="node1" class="node"><title>Node15</title>
<polygon fill="#bfbfbf" stroke="black" points="0,-517.5 0,-543.5 134,-543.5 134,-517.5 0,-517.5"/>
<text text-anchor="start" x="8" y="-533.1" font-family="Helvetica,sans-Serif" font-size="8.00">project.pc.sensor.representation.</text>
<text text-anchor="middle" x="67" y="-524.1" font-family="Helvetica,sans-Serif" font-size="8.00">Quaternion.multiplyByScalar</text>
</g>
<!-- Node16 -->
<g id="node2" class="node"><title>Node16</title>
<g id="a_node2"><a xlink:href="../../d8/d64/a00181.html#aa310e9a8132527db2a7c5aedecb01751" target="_top" xlink:title="Sets the X&#45;dimension of this Vector4f. ">
<polygon fill="white" stroke="black" points="170,-1035.5 170,-1061.5 304,-1061.5 304,-1035.5 170,-1035.5"/>
<text text-anchor="start" x="178" y="-1051.1" font-family="Helvetica,sans-Serif" font-size="8.00">project.pc.sensor.representation.</text>
<text text-anchor="middle" x="237" y="-1042.1" font-family="Helvetica,sans-Serif" font-size="8.00">Vector4f.setX</text>
</a>
</g>
</g>
<!-- Node15&#45;&gt;Node16 -->
<g id="edge1" class="edge"><title>Node15&#45;&gt;Node16</title>
<path fill="none" stroke="midnightblue" d="M68.97,-543.841C74.4122,-615.2 103.324,-951.382 170,-1026.5 170.879,-1027.49 171.805,-1028.44 172.77,-1029.34"/>
<polygon fill="midnightblue" stroke="midnightblue" points="170.783,-1032.23 180.869,-1035.47 175.007,-1026.64 170.783,-1032.23"/>
</g>
<!-- Node17 -->
<g id="node3" class="node"><title>Node17</title>
<g id="a_node3"><a xlink:href="../../d8/d64/a00181.html#a39d6f5ec8dd92c6e5c45fc3e608e271d" target="_top" xlink:title="Returns the X&#45;dimension of this Vector4f. ">
<polygon fill="white" stroke="black" points="170,-990.5 170,-1016.5 304,-1016.5 304,-990.5 170,-990.5"/>
<text text-anchor="start" x="178" y="-1006.1" font-family="Helvetica,sans-Serif" font-size="8.00">project.pc.sensor.representation.</text>
<text text-anchor="middle" x="237" y="-997.1" font-family="Helvetica,sans-Serif" font-size="8.00">Vector4f.getX</text>
</a>
</g>
</g>
<!-- Node15&#45;&gt;Node17 -->
<g id="edge2" class="edge"><title>Node15&#45;&gt;Node17</title>
<path fill="none" stroke="midnightblue" d="M69.2324,-543.507C75.8015,-610.256 108.716,-913.805 170,-981.5 170.889,-982.482 171.823,-983.421 172.797,-984.317"/>
<polygon fill="midnightblue" stroke="midnightblue" points="170.837,-987.222 180.943,-990.404 175.027,-981.614 170.837,-987.222"/>
</g>
<!-- Node18 -->
<g id="node4" class="node"><title>Node18</title>
<g id="a_node4"><a xlink:href="../../d8/d64/a00181.html#a8d5fddfc447490659870800d6ba5350b" target="_top" xlink:title="Sets the Y&#45;dimension of this Vector4f. ">
<polygon fill="white" stroke="black" points="170,-945.5 170,-971.5 304,-971.5 304,-945.5 170,-945.5"/>
<text text-anchor="start" x="178" y="-961.1" font-family="Helvetica,sans-Serif" font-size="8.00">project.pc.sensor.representation.</text>
<text text-anchor="middle" x="237" y="-952.1" font-family="Helvetica,sans-Serif" font-size="8.00">Vector4f.setY</text>
</a>
</g>
</g>
<!-- Node15&#45;&gt;Node18 -->
<g id="edge3" class="edge"><title>Node15&#45;&gt;Node18</title>
<path fill="none" stroke="midnightblue" d="M69.6262,-543.857C77.582,-607.161 114.289,-876.409 170,-936.5 170.901,-937.472 171.845,-938.4 172.829,-939.288"/>
<polygon fill="midnightblue" stroke="midnightblue" points="170.903,-942.216 181.032,-945.322 175.05,-936.577 170.903,-942.216"/>
</g>
<!-- Node19 -->
<g id="node5" class="node"><title>Node19</title>
<g id="a_node5"><a xlink:href="../../d8/d64/a00181.html#a2ff229e91866dceffbfe26646e7b5291" target="_top" xlink:title="Returns the Y&#45;dimension of this Vector4f. ">
<polygon fill="white" stroke="black" points="170,-900.5 170,-926.5 304,-926.5 304,-900.5 170,-900.5"/>
<text text-anchor="start" x="178" y="-916.1" font-family="Helvetica,sans-Serif" font-size="8.00">project.pc.sensor.representation.</text>
<text text-anchor="middle" x="237" y="-907.1" font-family="Helvetica,sans-Serif" font-size="8.00">Vector4f.getY</text>
</a>
</g>
</g>
<!-- Node15&#45;&gt;Node19 -->
<g id="edge4" class="edge"><title>Node15&#45;&gt;Node19</title>
<path fill="none" stroke="midnightblue" d="M67.6144,-543.761C66.8442,-595.745 71.0622,-787.864 170,-891.5 171.043,-892.592 172.141,-893.63 173.286,-894.616"/>
<polygon fill="midnightblue" stroke="midnightblue" points="171.273,-897.479 181.455,-900.407 175.321,-891.768 171.273,-897.479"/>
</g>
<!-- Node20 -->
<g id="node6" class="node"><title>Node20</title>
<g id="a_node6"><a xlink:href="../../d8/d64/a00181.html#a0a70cdaa3fc44849c5ca56b3a060338a" target="_top" xlink:title="Sets the Z&#45;dimension of this Vector4f. ">
<polygon fill="white" stroke="black" points="170,-855.5 170,-881.5 304,-881.5 304,-855.5 170,-855.5"/>
<text text-anchor="start" x="178" y="-871.1" font-family="Helvetica,sans-Serif" font-size="8.00">project.pc.sensor.representation.</text>
<text text-anchor="middle" x="237" y="-862.1" font-family="Helvetica,sans-Serif" font-size="8.00">Vector4f.setZ</text>
</a>
</g>
</g>
<!-- Node15&#45;&gt;Node20 -->
<g id="edge5" class="edge"><title>Node15&#45;&gt;Node20</title>
<path fill="none" stroke="midnightblue" d="M68.2399,-543.747C69.8326,-591.606 81.7626,-757.418 170,-846.5 171.089,-847.599 172.234,-848.644 173.428,-849.636"/>
<polygon fill="midnightblue" stroke="midnightblue" points="171.685,-852.685 181.911,-855.457 175.645,-846.913 171.685,-852.685"/>
</g>
<!-- Node21 -->
<g id="node7" class="node"><title>Node21</title>
<g id="a_node7"><a xlink:href="../../d8/d64/a00181.html#abecc3cdd45a1c08b935d73403074d80e" target="_top" xlink:title="Returns the Z&#45;dimension of this Vector4f. ">
<polygon fill="white" stroke="black" points="170,-810.5 170,-836.5 304,-836.5 304,-810.5 170,-810.5"/>
<text text-anchor="start" x="178" y="-826.1" font-family="Helvetica,sans-Serif" font-size="8.00">project.pc.sensor.representation.</text>
<text text-anchor="middle" x="237" y="-817.1" font-family="Helvetica,sans-Serif" font-size="8.00">Vector4f.getZ</text>
</a>
</g>
</g>
<!-- Node15&#45;&gt;Node21 -->
<g id="edge6" class="edge"><title>Node15&#45;&gt;Node21</title>
<path fill="none" stroke="midnightblue" d="M69.0474,-543.661C73.2008,-586.998 92.3084,-726.723 170,-801.5 171.256,-802.709 172.581,-803.852 173.962,-804.932"/>
<polygon fill="midnightblue" stroke="midnightblue" points="172.124,-807.912 182.409,-810.457 175.956,-802.054 172.124,-807.912"/>
</g>
<!-- Node22 -->
<g id="node8" class="node"><title>Node22</title>
<g id="a_node8"><a xlink:href="../../d8/d64/a00181.html#ac347b2a8b40966d32f15d5ba5b361489" target="_top" xlink:title="Sets the W&#45;dimension of this Vector4f. ">
<polygon fill="white" stroke="black" points="170,-765.5 170,-791.5 304,-791.5 304,-765.5 170,-765.5"/>
<text text-anchor="start" x="178" y="-781.1" font-family="Helvetica,sans-Serif" font-size="8.00">project.pc.sensor.representation.</text>
<text text-anchor="middle" x="237" y="-772.1" font-family="Helvetica,sans-Serif" font-size="8.00">Vector4f.setW</text>
</a>
</g>
</g>
<!-- Node15&#45;&gt;Node22 -->
<g id="edge7" class="edge"><title>Node15&#45;&gt;Node22</title>
<path fill="none" stroke="midnightblue" d="M70.1466,-543.626C77.1257,-582.114 102.737,-695.783 170,-756.5 171.325,-757.696 172.717,-758.828 174.165,-759.898"/>
<polygon fill="midnightblue" stroke="midnightblue" points="172.629,-763.065 182.967,-765.381 176.33,-757.123 172.629,-763.065"/>
</g>
<!-- Node23 -->
<g id="node9" class="node"><title>Node23</title>
<g id="a_node9"><a xlink:href="../../d8/d64/a00181.html#a48e9fceb563581330e4e3ea84974a430" target="_top" xlink:title="Returns the W&#45;dimension of this Vector4f. ">
<polygon fill="white" stroke="black" points="170,-720.5 170,-746.5 304,-746.5 304,-720.5 170,-720.5"/>
<text text-anchor="start" x="178" y="-736.1" font-family="Helvetica,sans-Serif" font-size="8.00">project.pc.sensor.representation.</text>
<text text-anchor="middle" x="237" y="-727.1" font-family="Helvetica,sans-Serif" font-size="8.00">Vector4f.getW</text>
</a>
</g>
</g>
<!-- Node15&#45;&gt;Node23 -->
<g id="edge8" class="edge"><title>Node15&#45;&gt;Node23</title>
<path fill="none" stroke="midnightblue" d="M71.7398,-543.587C81.8643,-576.687 112.957,-664.45 170,-711.5 171.572,-712.797 173.224,-714.018 174.938,-715.169"/>
<polygon fill="midnightblue" stroke="midnightblue" points="173.533,-718.398 183.946,-720.349 177.022,-712.33 173.533,-718.398"/>
</g>
<!-- Node24 -->
<g id="node10" class="node"><title>Node24</title>
<g id="a_node10"><a xlink:href="../../de/d53/a00169.html#ac3ac7a2e22ed935389a471b88ee8689e" target="_top" xlink:title="Sets the value of X0. ">
<polygon fill="white" stroke="black" points="170,-675.5 170,-701.5 304,-701.5 304,-675.5 170,-675.5"/>
<text text-anchor="start" x="178" y="-691.1" font-family="Helvetica,sans-Serif" font-size="8.00">project.pc.sensor.representation.</text>
<text text-anchor="middle" x="237" y="-682.1" font-family="Helvetica,sans-Serif" font-size="8.00">MatrixF4x4.setX0</text>
</a>
</g>
</g>
<!-- Node15&#45;&gt;Node24 -->
<g id="edge9" class="edge"><title>Node15&#45;&gt;Node24</title>
<path fill="none" stroke="midnightblue" d="M74.4491,-543.836C88.2119,-570.924 123.072,-632.676 170,-666.5 172.101,-668.014 174.312,-669.429 176.601,-670.75"/>
<polygon fill="midnightblue" stroke="midnightblue" points="175.245,-673.987 185.746,-675.397 178.416,-667.746 175.245,-673.987"/>
</g>
<!-- Node25 -->
<g id="node11" class="node"><title>Node25</title>
<g id="a_node11"><a xlink:href="../../de/d53/a00169.html#ad30ae2e8a0d1630572a48e2d509dfc38" target="_top" xlink:title="Sets the value of X1. ">
<polygon fill="white" stroke="black" points="170,-630.5 170,-656.5 304,-656.5 304,-630.5 170,-630.5"/>
<text text-anchor="start" x="178" y="-646.1" font-family="Helvetica,sans-Serif" font-size="8.00">project.pc.sensor.representation.</text>
<text text-anchor="middle" x="237" y="-637.1" font-family="Helvetica,sans-Serif" font-size="8.00">MatrixF4x4.setX1</text>
</a>
</g>
</g>
<!-- Node15&#45;&gt;Node25 -->
<g id="edge10" class="edge"><title>Node15&#45;&gt;Node25</title>
<path fill="none" stroke="midnightblue" d="M79.5643,-543.811C97.2335,-563.393 132.833,-599.967 170,-621.5 173.018,-623.248 176.194,-624.882 179.456,-626.405"/>
<polygon fill="midnightblue" stroke="midnightblue" points="178.238,-629.691 188.809,-630.406 180.992,-623.255 178.238,-629.691"/>
</g>
<!-- Node26 -->
<g id="node12" class="node"><title>Node26</title>
<g id="a_node12"><a xlink:href="../../de/d53/a00169.html#ad386e915fd7c129df9df392c29c9eef6" target="_top" xlink:title="Sets the value of X2. ">
<polygon fill="white" stroke="black" points="170,-585.5 170,-611.5 304,-611.5 304,-585.5 170,-585.5"/>
<text text-anchor="start" x="178" y="-601.1" font-family="Helvetica,sans-Serif" font-size="8.00">project.pc.sensor.representation.</text>
<text text-anchor="middle" x="237" y="-592.1" font-family="Helvetica,sans-Serif" font-size="8.00">MatrixF4x4.setX2</text>
</a>
</g>
</g>
<!-- Node15&#45;&gt;Node26 -->
<g id="edge11" class="edge"><title>Node15&#45;&gt;Node26</title>
<path fill="none" stroke="midnightblue" d="M94.9537,-543.563C115.333,-553.217 144.128,-566.385 170,-576.5 174.798,-578.376 179.83,-580.238 184.884,-582.038"/>
<polygon fill="midnightblue" stroke="midnightblue" points="183.981,-585.429 194.576,-585.411 186.282,-578.818 183.981,-585.429"/>
</g>
<!-- Node27 -->
<g id="node13" class="node"><title>Node27</title>
<g id="a_node13"><a xlink:href="../../de/d53/a00169.html#aada168387d414b39f3168e8029f0699c" target="_top" xlink:title="Sets the value of X3. ">
<polygon fill="white" stroke="black" points="170,-540.5 170,-566.5 304,-566.5 304,-540.5 170,-540.5"/>
<text text-anchor="start" x="178" y="-556.1" font-family="Helvetica,sans-Serif" font-size="8.00">project.pc.sensor.representation.</text>
<text text-anchor="middle" x="237" y="-547.1" font-family="Helvetica,sans-Serif" font-size="8.00">MatrixF4x4.setX3</text>
</a>
</g>
</g>
<!-- Node15&#45;&gt;Node27 -->
<g id="edge12" class="edge"><title>Node15&#45;&gt;Node27</title>
<path fill="none" stroke="midnightblue" d="M134.398,-539.59C142.77,-540.736 151.386,-541.916 159.894,-543.081"/>
<polygon fill="midnightblue" stroke="midnightblue" points="159.427,-546.549 169.809,-544.438 160.376,-539.614 159.427,-546.549"/>
</g>
<!-- Node28 -->
<g id="node14" class="node"><title>Node28</title>
<g id="a_node14"><a xlink:href="../../de/d53/a00169.html#a559deb528466011516178d9d5c0c4909" target="_top" xlink:title="Sets the value of Y0. ">
<polygon fill="white" stroke="black" points="170,-495.5 170,-521.5 304,-521.5 304,-495.5 170,-495.5"/>
<text text-anchor="start" x="178" y="-511.1" font-family="Helvetica,sans-Serif" font-size="8.00">project.pc.sensor.representation.</text>
<text text-anchor="middle" x="237" y="-502.1" font-family="Helvetica,sans-Serif" font-size="8.00">MatrixF4x4.setY0</text>
</a>
</g>
</g>
<!-- Node15&#45;&gt;Node28 -->
<g id="edge13" class="edge"><title>Node15&#45;&gt;Node28</title>
<path fill="none" stroke="midnightblue" d="M134.398,-521.805C142.77,-520.709 151.386,-519.58 159.894,-518.466"/>
<polygon fill="midnightblue" stroke="midnightblue" points="160.348,-521.937 169.809,-517.168 159.439,-514.996 160.348,-521.937"/>
</g>
<!-- Node29 -->
<g id="node15" class="node"><title>Node29</title>
<g id="a_node15"><a xlink:href="../../de/d53/a00169.html#a8ef949df772a61e66d71aeca3d35b738" target="_top" xlink:title="Sets the value of Y1. ">
<polygon fill="white" stroke="black" points="170,-450.5 170,-476.5 304,-476.5 304,-450.5 170,-450.5"/>
<text text-anchor="start" x="178" y="-466.1" font-family="Helvetica,sans-Serif" font-size="8.00">project.pc.sensor.representation.</text>
<text text-anchor="middle" x="237" y="-457.1" font-family="Helvetica,sans-Serif" font-size="8.00">MatrixF4x4.setY1</text>
</a>
</g>
</g>
<!-- Node15&#45;&gt;Node29 -->
<g id="edge14" class="edge"><title>Node15&#45;&gt;Node29</title>
<path fill="none" stroke="midnightblue" d="M96.7884,-517.424C117.095,-508.362 145.02,-496.226 170,-486.5 175.578,-484.328 181.456,-482.14 187.313,-480.021"/>
<polygon fill="midnightblue" stroke="midnightblue" points="188.846,-483.19 197.091,-476.537 186.497,-476.596 188.846,-483.19"/>
</g>
<!-- Node30 -->
<g id="node16" class="node"><title>Node30</title>
<g id="a_node16"><a xlink:href="../../de/d53/a00169.html#ac5a935a5db7c4f3749ea46469eb8a856" target="_top" xlink:title="Sets the value of Y2. ">
<polygon fill="white" stroke="black" points="170,-405.5 170,-431.5 304,-431.5 304,-405.5 170,-405.5"/>
<text text-anchor="start" x="178" y="-421.1" font-family="Helvetica,sans-Serif" font-size="8.00">project.pc.sensor.representation.</text>
<text text-anchor="middle" x="237" y="-412.1" font-family="Helvetica,sans-Serif" font-size="8.00">MatrixF4x4.setY2</text>
</a>
</g>
</g>
<!-- Node15&#45;&gt;Node30 -->
<g id="edge15" class="edge"><title>Node15&#45;&gt;Node30</title>
<path fill="none" stroke="midnightblue" d="M79.9606,-517.245C97.8554,-498.119 133.423,-462.753 170,-441.5 173.659,-439.374 177.546,-437.4 181.531,-435.577"/>
<polygon fill="midnightblue" stroke="midnightblue" points="183.099,-438.714 190.945,-431.594 180.372,-432.267 183.099,-438.714"/>
</g>
<!-- Node31 -->
<g id="node17" class="node"><title>Node31</title>
<g id="a_node17"><a xlink:href="../../de/d53/a00169.html#a2b6f4a7c1f91cc17c21a84b792e6686d" target="_top" xlink:title="Sets the value of Y3. ">
<polygon fill="white" stroke="black" points="170,-360.5 170,-386.5 304,-386.5 304,-360.5 170,-360.5"/>
<text text-anchor="start" x="178" y="-376.1" font-family="Helvetica,sans-Serif" font-size="8.00">project.pc.sensor.representation.</text>
<text text-anchor="middle" x="237" y="-367.1" font-family="Helvetica,sans-Serif" font-size="8.00">MatrixF4x4.setY3</text>
</a>
</g>
</g>
<!-- Node15&#45;&gt;Node31 -->
<g id="edge16" class="edge"><title>Node15&#45;&gt;Node31</title>
<path fill="none" stroke="midnightblue" d="M74.5396,-517.414C88.4692,-490.825 123.621,-430.156 170,-396.5 172.701,-394.54 175.583,-392.736 178.576,-391.077"/>
<polygon fill="midnightblue" stroke="midnightblue" points="180.396,-394.082 187.82,-386.522 177.303,-387.802 180.396,-394.082"/>
</g>
<!-- Node32 -->
<g id="node18" class="node"><title>Node32</title>
<g id="a_node18"><a xlink:href="../../de/d53/a00169.html#ac74c62ee63fa2648b749acc13e18c7e6" target="_top" xlink:title="Sets the value of Z0. ">
<polygon fill="white" stroke="black" points="170,-315.5 170,-341.5 304,-341.5 304,-315.5 170,-315.5"/>
<text text-anchor="start" x="178" y="-331.1" font-family="Helvetica,sans-Serif" font-size="8.00">project.pc.sensor.representation.</text>
<text text-anchor="middle" x="237" y="-322.1" font-family="Helvetica,sans-Serif" font-size="8.00">MatrixF4x4.setZ0</text>
</a>
</g>
</g>
<!-- Node15&#45;&gt;Node32 -->
<g id="edge17" class="edge"><title>Node15&#45;&gt;Node32</title>
<path fill="none" stroke="midnightblue" d="M71.9737,-517.121C82.4447,-484.129 113.916,-398.175 170,-351.5 172.23,-349.644 174.618,-347.935 177.117,-346.36"/>
<polygon fill="midnightblue" stroke="midnightblue" points="178.879,-349.386 185.965,-341.51 175.514,-343.248 178.879,-349.386"/>
</g>
<!-- Node33 -->
<g id="node19" class="node"><title>Node33</title>
<g id="a_node19"><a xlink:href="../../de/d53/a00169.html#a59a4fc57cfbf2859ffdb19913b86bd66" target="_top" xlink:title="Sets the value of Z1. ">
<polygon fill="white" stroke="black" points="170,-270.5 170,-296.5 304,-296.5 304,-270.5 170,-270.5"/>
<text text-anchor="start" x="178" y="-286.1" font-family="Helvetica,sans-Serif" font-size="8.00">project.pc.sensor.representation.</text>
<text text-anchor="middle" x="237" y="-277.1" font-family="Helvetica,sans-Serif" font-size="8.00">MatrixF4x4.setZ1</text>
</a>
</g>
</g>
<!-- Node15&#45;&gt;Node33 -->
<g id="edge18" class="edge"><title>Node15&#45;&gt;Node33</title>
<path fill="none" stroke="midnightblue" d="M70.2743,-517.259C77.5356,-478.963 103.698,-366.968 170,-306.5 171.883,-304.783 173.901,-303.193 176.019,-301.72"/>
<polygon fill="midnightblue" stroke="midnightblue" points="177.811,-304.727 184.614,-296.605 174.231,-298.712 177.811,-304.727"/>
</g>
<!-- Node34 -->
<g id="node20" class="node"><title>Node34</title>
<g id="a_node20"><a xlink:href="../../de/d53/a00169.html#afe414cc0a99108d1fd8d1f966657fe51" target="_top" xlink:title="Sets the value of Z2. ">
<polygon fill="white" stroke="black" points="170,-225.5 170,-251.5 304,-251.5 304,-225.5 170,-225.5"/>
<text text-anchor="start" x="178" y="-241.1" font-family="Helvetica,sans-Serif" font-size="8.00">project.pc.sensor.representation.</text>
<text text-anchor="middle" x="237" y="-232.1" font-family="Helvetica,sans-Serif" font-size="8.00">MatrixF4x4.setZ2</text>
</a>
</g>
</g>
<!-- Node15&#45;&gt;Node34 -->
<g id="edge19" class="edge"><title>Node15&#45;&gt;Node34</title>
<path fill="none" stroke="midnightblue" d="M69.1196,-517.475C73.4979,-474.58 93.2249,-336.222 170,-261.5 171.66,-259.884 173.44,-258.381 175.312,-256.984"/>
<polygon fill="midnightblue" stroke="midnightblue" points="177.425,-259.79 184.029,-251.505 173.7,-253.863 177.425,-259.79"/>
</g>
<!-- Node35 -->
<g id="node21" class="node"><title>Node35</title>
<g id="a_node21"><a xlink:href="../../de/d53/a00169.html#ad183080dada14f56a48e9e5f0b3032db" target="_top" xlink:title="Sets the value of Z3. ">
<polygon fill="white" stroke="black" points="170,-180.5 170,-206.5 304,-206.5 304,-180.5 170,-180.5"/>
<text text-anchor="start" x="178" y="-196.1" font-family="Helvetica,sans-Serif" font-size="8.00">project.pc.sensor.representation.</text>
<text text-anchor="middle" x="237" y="-187.1" font-family="Helvetica,sans-Serif" font-size="8.00">MatrixF4x4.setZ3</text>
</a>
</g>
</g>
<!-- Node15&#45;&gt;Node35 -->
<g id="edge20" class="edge"><title>Node15&#45;&gt;Node35</title>
<path fill="none" stroke="midnightblue" d="M68.3095,-517.375C70.1411,-469.951 82.7884,-305.584 170,-216.5 171.432,-215.037 172.963,-213.667 174.572,-212.383"/>
<polygon fill="midnightblue" stroke="midnightblue" points="176.79,-215.112 183.186,-206.666 172.919,-209.28 176.79,-215.112"/>
</g>
<!-- Node36 -->
<g id="node22" class="node"><title>Node36</title>
<g id="a_node22"><a xlink:href="../../de/d53/a00169.html#a5c5f336177f62d34424cd0f22c2f2cd2" target="_top" xlink:title="Sets the value of W0. ">
<polygon fill="white" stroke="black" points="170,-135.5 170,-161.5 304,-161.5 304,-135.5 170,-135.5"/>
<text text-anchor="start" x="178" y="-151.1" font-family="Helvetica,sans-Serif" font-size="8.00">project.pc.sensor.representation.</text>
<text text-anchor="middle" x="237" y="-142.1" font-family="Helvetica,sans-Serif" font-size="8.00">MatrixF4x4.setW0</text>
</a>
</g>
</g>
<!-- Node15&#45;&gt;Node36 -->
<g id="edge21" class="edge"><title>Node15&#45;&gt;Node36</title>
<path fill="none" stroke="midnightblue" d="M67.6816,-517.351C67.1631,-465.796 72.1962,-275.199 170,-171.5 171.405,-170.01 172.911,-168.617 174.5,-167.314"/>
<polygon fill="midnightblue" stroke="midnightblue" points="176.727,-170.033 183.036,-161.522 172.796,-164.241 176.727,-170.033"/>
</g>
<!-- Node37 -->
<g id="node23" class="node"><title>Node37</title>
<g id="a_node23"><a xlink:href="../../de/d53/a00169.html#a6b2892284335269c13e8c418fdcefc68" target="_top" xlink:title="Sets the value of W1. ">
<polygon fill="white" stroke="black" points="170,-90.5 170,-116.5 304,-116.5 304,-90.5 170,-90.5"/>
<text text-anchor="start" x="178" y="-106.1" font-family="Helvetica,sans-Serif" font-size="8.00">project.pc.sensor.representation.</text>
<text text-anchor="middle" x="237" y="-97.1" font-family="Helvetica,sans-Serif" font-size="8.00">MatrixF4x4.setW1</text>
</a>
</g>
</g>
<!-- Node15&#45;&gt;Node37 -->
<g id="edge22" class="edge"><title>Node15&#45;&gt;Node37</title>
<path fill="none" stroke="midnightblue" d="M69.653,-517.224C77.7322,-454.303 114.919,-186.655 170,-126.5 171.352,-125.023 172.804,-123.642 174.337,-122.348"/>
<polygon fill="midnightblue" stroke="midnightblue" points="176.393,-125.182 182.597,-116.594 172.391,-119.439 176.393,-125.182"/>
</g>
<!-- Node38 -->
<g id="node24" class="node"><title>Node38</title>
<g id="a_node24"><a xlink:href="../../de/d53/a00169.html#a26504a15961b0aaec6e9dabd5e8025fe" target="_top" xlink:title="Sets the value of W2. ">
<polygon fill="white" stroke="black" points="170,-45.5 170,-71.5 304,-71.5 304,-45.5 170,-45.5"/>
<text text-anchor="start" x="178" y="-61.1" font-family="Helvetica,sans-Serif" font-size="8.00">project.pc.sensor.representation.</text>
<text text-anchor="middle" x="237" y="-52.1" font-family="Helvetica,sans-Serif" font-size="8.00">MatrixF4x4.setW2</text>
</a>
</g>
</g>
<!-- Node15&#45;&gt;Node38 -->
<g id="edge23" class="edge"><title>Node15&#45;&gt;Node38</title>
<path fill="none" stroke="midnightblue" d="M69.3024,-517.124C76.1012,-449.861 109.534,-149.144 170,-81.5 171.334,-80.0073 172.771,-78.6115 174.291,-77.3062"/>
<polygon fill="midnightblue" stroke="midnightblue" points="176.352,-80.1351 182.499,-71.5057 172.313,-74.4183 176.352,-80.1351"/>
</g>
<!-- Node39 -->
<g id="node25" class="node"><title>Node39</title>
<g id="a_node25"><a xlink:href="../../de/d53/a00169.html#a316d3582b458cdbe34897d8500b33a23" target="_top" xlink:title="Sets the value of W3. ">
<polygon fill="white" stroke="black" points="170,-0.5 170,-26.5 304,-26.5 304,-0.5 170,-0.5"/>
<text text-anchor="start" x="178" y="-16.1" font-family="Helvetica,sans-Serif" font-size="8.00">project.pc.sensor.representation.</text>
<text text-anchor="middle" x="237" y="-7.1" font-family="Helvetica,sans-Serif" font-size="8.00">MatrixF4x4.setW3</text>
</a>
</g>
</g>
<!-- Node15&#45;&gt;Node39 -->
<g id="edge24" class="edge"><title>Node15&#45;&gt;Node39</title>
<path fill="none" stroke="midnightblue" d="M68.9955,-517.228C74.5706,-446.235 104.061,-111.75 170,-36.5 171.182,-35.151 172.448,-33.8812 173.783,-32.6858"/>
<polygon fill="midnightblue" stroke="midnightblue" points="176.083,-35.3403 182.102,-26.6213 171.96,-29.6838 176.083,-35.3403"/>
</g>
</g>
</svg>
        <g id="navigator" transform="translate(0 0)" fill="#404254">
                <rect fill="#f2f5e9" fill-opacity="0.5" stroke="#606060" stroke-width=".5" x="0" y="0" width="60" height="60"/>
                <use id="zoomplus" xlink:href="#zoomPlus" x="17" y="9" onmousedown="handleZoom(evt,'in')"/>
                <use id="zoomminus" xlink:href="#zoomMin" x="42" y="9" onmousedown="handleZoom(evt,'out')"/>
                <use id="reset" xlink:href="#resetDef" x="30" y="36" onmousedown="handleReset()"/>
                <g id="arrowUp" xlink:href="#dirArrow" transform="translate(30 24)" onmousedown="handlePan(0,-1)">
                  <use xlink:href="#rim" fill="#404040">
                        <set attributeName="fill" to="#808080" begin="arrowUp.mouseover" end="arrowUp.mouseout"/>
                  </use>
                  <path fill="none" stroke="white" stroke-width="1.5" d="M0,-3.0v7 M-2.5,-0.5L0,-3.0L2.5,-0.5"/>
                </g>
                <g id="arrowRight" xlink:href="#dirArrow" transform="rotate(90) translate(36 -43)" onmousedown="handlePan(1,0)">
                  <use xlink:href="#rim" fill="#404040">
                        <set attributeName="fill" to="#808080" begin="arrowRight.mouseover" end="arrowRight.mouseout"/>
                  </use>
                  <path fill="none" stroke="white" stroke-width="1.5" d="M0,-3.0v7 M-2.5,-0.5L0,-3.0L2.5,-0.5"/>
                </g>
                <g id="arrowDown" xlink:href="#dirArrow" transform="rotate(180) translate(-30 -48)" onmousedown="handlePan(0,1)">
                  <use xlink:href="#rim" fill="#404040">
                        <set attributeName="fill" to="#808080" begin="arrowDown.mouseover" end="arrowDown.mouseout"/>
                  </use>
                  <path fill="none" stroke="white" stroke-width="1.5" d="M0,-3.0v7 M-2.5,-0.5L0,-3.0L2.5,-0.5"/>
                </g>
                <g id="arrowLeft" xlink:href="#dirArrow" transform="rotate(270) translate(-36 17)" onmousedown="handlePan(-1,0)">
                  <use xlink:href="#rim" fill="#404040">
                        <set attributeName="fill" to="#808080" begin="arrowLeft.mouseover" end="arrowLeft.mouseout"/>
                  </use>
                  <path fill="none" stroke="white" stroke-width="1.5" d="M0,-3.0v7 M-2.5,-0.5L0,-3.0L2.5,-0.5"/>
                </g>
        </g>
        <svg viewBox="0 0 15 15" width="100%" height="30px" preserveAspectRatio="xMaxYMin meet">
         <g id="arrow_out" transform="scale(0.3 0.3)">
          <a xlink:href="a00173_a587ad2d9d4efce7ab90b761815c2350a_cgraph_org.svg" target="_base">
           <rect id="button" ry="5" rx="5" y="6" x="6" height="38" width="38"
                fill="#f2f5e9" fill-opacity="0.5" stroke="#606060" stroke-width="1.0"/>
           <path id="arrow"
             d="M 11.500037,31.436501 C 11.940474,20.09759 22.043105,11.32322 32.158766,21.979434 L 37.068811,17.246167 C 37.068811,17.246167 37.088388,32 37.088388,32 L 22.160133,31.978069 C 22.160133,31.978069 26.997745,27.140456 26.997745,27.140456 C 18.528582,18.264221 13.291696,25.230495 11.500037,31.436501 z"
             style="fill:#404040;"/>
          </a>
         </g>
        </svg>
</svg>
