<?xml version="1.0" encoding="UTF-8" standalone="no"?>
<!DOCTYPE svg PUBLIC "-//W3C//DTD SVG 1.1//EN"
 "http://www.w3.org/Graphics/SVG/1.1/DTD/svg11.dtd">
<!-- Generated by graphviz version 2.38.0 (20140413.2041)
 -->
<!-- Title: project.pc.sensor.representation.Quaternion.slerp Pages: 1 -->
<svg width="312pt" height="80pt"
 viewBox="0.00 0.00 312.00 80.00" xmlns="http://www.w3.org/2000/svg" xmlns:xlink="http://www.w3.org/1999/xlink">
<g id="graph0" class="graph" transform="scale(1 1) rotate(0) translate(4 76)">
<title>project.pc.sensor.representation.Quaternion.slerp</title>
<polygon fill="white" stroke="none" points="-4,4 -4,-76 308,-76 308,4 -4,4"/>
<!-- Node59 -->
<g id="node1" class="node"><title>Node59</title>
<polygon fill="#bfbfbf" stroke="black" points="0,-22.5 0,-48.5 134,-48.5 134,-22.5 0,-22.5"/>
<text text-anchor="start" x="8" y="-38.1" font-family="Helvetica,sans-Serif" font-size="8.00">project.pc.sensor.representation.</text>
<text text-anchor="middle" x="67" y="-29.1" font-family="Helvetica,sans-Serif" font-size="8.00">Quaternion.slerp</text>
</g>
<!-- Node60 -->
<g id="node2" class="node"><title>Node60</title>
<g id="a_node2"><a xlink:href="../../d8/d64/a00181.html#ac52509dd491a26f793405684357e32bf" target="_top" xlink:title="Performs the dot product of two vectors. ">
<polygon fill="white" stroke="black" points="170,-45.5 170,-71.5 304,-71.5 304,-45.5 170,-45.5"/>
<text text-anchor="start" x="178" y="-61.1" font-family="Helvetica,sans-Serif" font-size="8.00">project.pc.sensor.representation.</text>
<text text-anchor="middle" x="237" y="-52.1" font-family="Helvetica,sans-Serif" font-size="8.00">Vector4f.dotProduct</text>
</a>
</g>
</g>
<!-- Node59&#45;&gt;Node60 -->
<g id="edge1" class="edge"><title>Node59&#45;&gt;Node60</title>
<path fill="none" stroke="midnightblue" d="M134.398,-44.5902C142.77,-45.7364 151.386,-46.916 159.894,-48.0807"/>
<polygon fill="midnightblue" stroke="midnightblue" points="159.427,-51.5493 169.809,-49.4382 160.376,-44.614 159.427,-51.5493"/>
</g>
<!-- Node61 -->
<g id="node3" class="node"><title>Node61</title>
<g id="a_node3"><a xlink:href="../../d7/d3f/a00173.html#a1dd9ff495d1cec10e15ccdb912361b35" target="_top" xlink:title="Constructor. ">
<polygon fill="white" stroke="black" points="170,-0.5 170,-26.5 304,-26.5 304,-0.5 170,-0.5"/>
<text text-anchor="start" x="178" y="-16.1" font-family="Helvetica,sans-Serif" font-size="8.00">project.pc.sensor.representation.</text>
<text text-anchor="middle" x="237" y="-7.1" font-family="Helvetica,sans-Serif" font-size="8.00">Quaternion.Quaternion</text>
</a>
</g>
</g>
<!-- Node59&#45;&gt;Node61 -->
<g id="edge2" class="edge"><title>Node59&#45;&gt;Node61</title>
<path fill="none" stroke="midnightblue" d="M134.398,-26.805C142.77,-25.7087 151.386,-24.5804 159.894,-23.4663"/>
<polygon fill="midnightblue" stroke="midnightblue" points="160.348,-26.9367 169.809,-22.1678 159.439,-19.996 160.348,-26.9367"/>
</g>
</g>
</svg>
