<?xml version="1.0" encoding="UTF-8" standalone="no"?>
<!DOCTYPE svg PUBLIC "-//W3C//DTD SVG 1.1//EN"
 "http://www.w3.org/Graphics/SVG/1.1/DTD/svg11.dtd">
<!-- Generated by graphviz version 2.38.0 (20140413.2041)
 -->
<!-- Title: project.pc.sensor.representation.Quaternion.multiplyByQuat Pages: 1 -->
<svg width="482pt" height="125pt"
 viewBox="0.00 0.00 482.00 125.00" xmlns="http://www.w3.org/2000/svg" xmlns:xlink="http://www.w3.org/1999/xlink">
<g id="graph0" class="graph" transform="scale(1 1) rotate(0) translate(4 121)">
<title>project.pc.sensor.representation.Quaternion.multiplyByQuat</title>
<polygon fill="white" stroke="none" points="-4,4 -4,-121 478,-121 478,4 -4,4"/>
<!-- Node7 -->
<g id="node1" class="node"><title>Node7</title>
<polygon fill="#bfbfbf" stroke="black" points="0,-45.5 0,-71.5 134,-71.5 134,-45.5 0,-45.5"/>
<text text-anchor="start" x="8" y="-61.1" font-family="Helvetica,sans-Serif" font-size="8.00">project.pc.sensor.representation.</text>
<text text-anchor="middle" x="67" y="-52.1" font-family="Helvetica,sans-Serif" font-size="8.00">Quaternion.multiplyByQuat</text>
</g>
<!-- Node8 -->
<g id="node2" class="node"><title>Node8</title>
<g id="a_node2"><a xlink:href="../../d7/d3f/a00173.html#a1dd9ff495d1cec10e15ccdb912361b35" target="_top" xlink:title="Constructor. ">
<polygon fill="white" stroke="black" points="170,-90.5 170,-116.5 304,-116.5 304,-90.5 170,-90.5"/>
<text text-anchor="start" x="178" y="-106.1" font-family="Helvetica,sans-Serif" font-size="8.00">project.pc.sensor.representation.</text>
<text text-anchor="middle" x="237" y="-97.1" font-family="Helvetica,sans-Serif" font-size="8.00">Quaternion.Quaternion</text>
</a>
</g>
</g>
<!-- Node7&#45;&gt;Node8 -->
<g id="edge1" class="edge"><title>Node7&#45;&gt;Node8</title>
<path fill="none" stroke="midnightblue" d="M116.593,-71.5159C135.577,-76.601 157.515,-82.4772 177.367,-87.7947"/>
<polygon fill="midnightblue" stroke="midnightblue" points="176.661,-91.2289 187.226,-90.4355 178.472,-84.4672 176.661,-91.2289"/>
</g>
<!-- Node9 -->
<g id="node3" class="node"><title>Node9</title>
<g id="a_node3"><a xlink:href="../../d8/d64/a00181.html#aa4cbf79fc5af52ed0ca437bf7f0722d2" target="_top" xlink:title="Copies another Vector4f to this one. ">
<polygon fill="white" stroke="black" points="170,-45.5 170,-71.5 304,-71.5 304,-45.5 170,-45.5"/>
<text text-anchor="start" x="178" y="-61.1" font-family="Helvetica,sans-Serif" font-size="8.00">project.pc.sensor.representation.</text>
<text text-anchor="middle" x="237" y="-52.1" font-family="Helvetica,sans-Serif" font-size="8.00">Vector4f.copyVec4</text>
</a>
</g>
</g>
<!-- Node7&#45;&gt;Node9 -->
<g id="edge2" class="edge"><title>Node7&#45;&gt;Node9</title>
<path fill="none" stroke="midnightblue" d="M134.398,-58.5C142.679,-58.5 151.199,-58.5 159.616,-58.5"/>
<polygon fill="midnightblue" stroke="midnightblue" points="159.809,-62.0001 169.809,-58.5 159.809,-55.0001 159.809,-62.0001"/>
</g>
<!-- Node13 -->
<g id="node7" class="node"><title>Node13</title>
<g id="a_node7"><a xlink:href="../../d7/d3f/a00173.html#a0ac9dc7f1a928d7b32cbf12e5b4cb5fb" target="_top" xlink:title="Multiplies this Quaternion with another. ">
<polygon fill="white" stroke="black" points="170,-0.5 170,-26.5 304,-26.5 304,-0.5 170,-0.5"/>
<text text-anchor="start" x="178" y="-16.1" font-family="Helvetica,sans-Serif" font-size="8.00">project.pc.sensor.representation.</text>
<text text-anchor="middle" x="237" y="-7.1" font-family="Helvetica,sans-Serif" font-size="8.00">Quaternion.multiplyByQuat</text>
</a>
</g>
</g>
<!-- Node7&#45;&gt;Node13 -->
<g id="edge6" class="edge"><title>Node7&#45;&gt;Node13</title>
<path fill="none" stroke="midnightblue" d="M116.593,-45.4841C135.577,-40.399 157.515,-34.5228 177.367,-29.2053"/>
<polygon fill="midnightblue" stroke="midnightblue" points="178.472,-32.5328 187.226,-26.5645 176.661,-25.7711 178.472,-32.5328"/>
</g>
<!-- Node10 -->
<g id="node4" class="node"><title>Node10</title>
<g id="a_node4"><a xlink:href="../../dd/d4c/a00177.html#a3cad02da7bcd7671731cef01eb04fdaf" target="_top" xlink:title="Returns the X&#45;dimension of this Vector3f. ">
<polygon fill="white" stroke="black" points="340,-90.5 340,-116.5 474,-116.5 474,-90.5 340,-90.5"/>
<text text-anchor="start" x="348" y="-106.1" font-family="Helvetica,sans-Serif" font-size="8.00">project.pc.sensor.representation.</text>
<text text-anchor="middle" x="407" y="-97.1" font-family="Helvetica,sans-Serif" font-size="8.00">Vector3f.getX</text>
</a>
</g>
</g>
<!-- Node9&#45;&gt;Node10 -->
<g id="edge3" class="edge"><title>Node9&#45;&gt;Node10</title>
<path fill="none" stroke="midnightblue" d="M286.593,-71.5159C305.577,-76.601 327.515,-82.4772 347.367,-87.7947"/>
<polygon fill="midnightblue" stroke="midnightblue" points="346.661,-91.2289 357.226,-90.4355 348.472,-84.4672 346.661,-91.2289"/>
</g>
<!-- Node11 -->
<g id="node5" class="node"><title>Node11</title>
<g id="a_node5"><a xlink:href="../../dd/d4c/a00177.html#af1f7d78724c9d942780ff7d2f67a8cd8" target="_top" xlink:title="Returns the Y&#45;dimension of this Vector3f. ">
<polygon fill="white" stroke="black" points="340,-45.5 340,-71.5 474,-71.5 474,-45.5 340,-45.5"/>
<text text-anchor="start" x="348" y="-61.1" font-family="Helvetica,sans-Serif" font-size="8.00">project.pc.sensor.representation.</text>
<text text-anchor="middle" x="407" y="-52.1" font-family="Helvetica,sans-Serif" font-size="8.00">Vector3f.getY</text>
</a>
</g>
</g>
<!-- Node9&#45;&gt;Node11 -->
<g id="edge4" class="edge"><title>Node9&#45;&gt;Node11</title>
<path fill="none" stroke="midnightblue" d="M304.398,-58.5C312.679,-58.5 321.199,-58.5 329.616,-58.5"/>
<polygon fill="midnightblue" stroke="midnightblue" points="329.809,-62.0001 339.809,-58.5 329.809,-55.0001 329.809,-62.0001"/>
</g>
<!-- Node12 -->
<g id="node6" class="node"><title>Node12</title>
<g id="a_node6"><a xlink:href="../../dd/d4c/a00177.html#a5fe713af4beb1b2632472b75517dcb88" target="_top" xlink:title="Returns the Z&#45;dimension of this Vector3f. ">
<polygon fill="white" stroke="black" points="340,-0.5 340,-26.5 474,-26.5 474,-0.5 340,-0.5"/>
<text text-anchor="start" x="348" y="-16.1" font-family="Helvetica,sans-Serif" font-size="8.00">project.pc.sensor.representation.</text>
<text text-anchor="middle" x="407" y="-7.1" font-family="Helvetica,sans-Serif" font-size="8.00">Vector3f.getZ</text>
</a>
</g>
</g>
<!-- Node9&#45;&gt;Node12 -->
<g id="edge5" class="edge"><title>Node9&#45;&gt;Node12</title>
<path fill="none" stroke="midnightblue" d="M286.593,-45.4841C305.577,-40.399 327.515,-34.5228 347.367,-29.2053"/>
<polygon fill="midnightblue" stroke="midnightblue" points="348.472,-32.5328 357.226,-26.5645 346.661,-25.7711 348.472,-32.5328"/>
</g>
</g>
</svg>
