<?xml version="1.0" encoding="UTF-8" standalone="no"?>
<!DOCTYPE svg PUBLIC "-//W3C//DTD SVG 1.1//EN"
 "http://www.w3.org/Graphics/SVG/1.1/DTD/svg11.dtd">
<!-- Generated by graphviz version 2.38.0 (20140413.2041)
 -->
<!-- Title: project.pc.sensor.representation.Quaternion.toEulerAngles Pages: 1 -->
<svg width="312pt" height="215pt"
 viewBox="0.00 0.00 312.00 215.00" xmlns="http://www.w3.org/2000/svg" xmlns:xlink="http://www.w3.org/1999/xlink">
<g id="graph0" class="graph" transform="scale(1 1) rotate(0) translate(4 211)">
<title>project.pc.sensor.representation.Quaternion.toEulerAngles</title>
<polygon fill="white" stroke="none" points="-4,4 -4,-211 308,-211 308,4 -4,4"/>
<!-- Node67 -->
<g id="node1" class="node"><title>Node67</title>
<polygon fill="#bfbfbf" stroke="black" points="0,-90.5 0,-116.5 134,-116.5 134,-90.5 0,-90.5"/>
<text text-anchor="start" x="8" y="-106.1" font-family="Helvetica,sans-Serif" font-size="8.00">project.pc.sensor.representation.</text>
<text text-anchor="middle" x="67" y="-97.1" font-family="Helvetica,sans-Serif" font-size="8.00">Quaternion.toEulerAngles</text>
</g>
<!-- Node68 -->
<g id="node2" class="node"><title>Node68</title>
<g id="a_node2"><a xlink:href="../../d8/d64/a00181.html#a48e9fceb563581330e4e3ea84974a430" target="_top" xlink:title="Returns the W&#45;dimension of this Vector4f. ">
<polygon fill="white" stroke="black" points="170,-180.5 170,-206.5 304,-206.5 304,-180.5 170,-180.5"/>
<text text-anchor="start" x="178" y="-196.1" font-family="Helvetica,sans-Serif" font-size="8.00">project.pc.sensor.representation.</text>
<text text-anchor="middle" x="237" y="-187.1" font-family="Helvetica,sans-Serif" font-size="8.00">Vector4f.getW</text>
</a>
</g>
</g>
<!-- Node67&#45;&gt;Node68 -->
<g id="edge1" class="edge"><title>Node67&#45;&gt;Node68</title>
<path fill="none" stroke="midnightblue" d="M84.4859,-116.513C103.99,-131.415 137.881,-155.791 170,-171.5 173.784,-173.351 177.762,-175.105 181.81,-176.756"/>
<polygon fill="midnightblue" stroke="midnightblue" points="180.738,-180.093 191.328,-180.414 183.25,-173.559 180.738,-180.093"/>
</g>
<!-- Node69 -->
<g id="node3" class="node"><title>Node69</title>
<g id="a_node3"><a xlink:href="../../d8/d64/a00181.html#aa310e9a8132527db2a7c5aedecb01751" target="_top" xlink:title="Sets the X&#45;dimension of this Vector4f. ">
<polygon fill="white" stroke="black" points="170,-135.5 170,-161.5 304,-161.5 304,-135.5 170,-135.5"/>
<text text-anchor="start" x="178" y="-151.1" font-family="Helvetica,sans-Serif" font-size="8.00">project.pc.sensor.representation.</text>
<text text-anchor="middle" x="237" y="-142.1" font-family="Helvetica,sans-Serif" font-size="8.00">Vector4f.setX</text>
</a>
</g>
</g>
<!-- Node67&#45;&gt;Node69 -->
<g id="edge2" class="edge"><title>Node67&#45;&gt;Node69</title>
<path fill="none" stroke="midnightblue" d="M116.593,-116.516C135.577,-121.601 157.515,-127.477 177.367,-132.795"/>
<polygon fill="midnightblue" stroke="midnightblue" points="176.661,-136.229 187.226,-135.436 178.472,-129.467 176.661,-136.229"/>
</g>
<!-- Node70 -->
<g id="node4" class="node"><title>Node70</title>
<g id="a_node4"><a xlink:href="../../d8/d64/a00181.html#a8d5fddfc447490659870800d6ba5350b" target="_top" xlink:title="Sets the Y&#45;dimension of this Vector4f. ">
<polygon fill="white" stroke="black" points="170,-90.5 170,-116.5 304,-116.5 304,-90.5 170,-90.5"/>
<text text-anchor="start" x="178" y="-106.1" font-family="Helvetica,sans-Serif" font-size="8.00">project.pc.sensor.representation.</text>
<text text-anchor="middle" x="237" y="-97.1" font-family="Helvetica,sans-Serif" font-size="8.00">Vector4f.setY</text>
</a>
</g>
</g>
<!-- Node67&#45;&gt;Node70 -->
<g id="edge3" class="edge"><title>Node67&#45;&gt;Node70</title>
<path fill="none" stroke="midnightblue" d="M134.398,-103.5C142.679,-103.5 151.199,-103.5 159.616,-103.5"/>
<polygon fill="midnightblue" stroke="midnightblue" points="159.809,-107 169.809,-103.5 159.809,-100 159.809,-107"/>
</g>
<!-- Node71 -->
<g id="node5" class="node"><title>Node71</title>
<g id="a_node5"><a xlink:href="../../d8/d64/a00181.html#a0a70cdaa3fc44849c5ca56b3a060338a" target="_top" xlink:title="Sets the Z&#45;dimension of this Vector4f. ">
<polygon fill="white" stroke="black" points="170,-45.5 170,-71.5 304,-71.5 304,-45.5 170,-45.5"/>
<text text-anchor="start" x="178" y="-61.1" font-family="Helvetica,sans-Serif" font-size="8.00">project.pc.sensor.representation.</text>
<text text-anchor="middle" x="237" y="-52.1" font-family="Helvetica,sans-Serif" font-size="8.00">Vector4f.setZ</text>
</a>
</g>
</g>
<!-- Node67&#45;&gt;Node71 -->
<g id="edge4" class="edge"><title>Node67&#45;&gt;Node71</title>
<path fill="none" stroke="midnightblue" d="M116.593,-90.4841C135.577,-85.399 157.515,-79.5228 177.367,-74.2053"/>
<polygon fill="midnightblue" stroke="midnightblue" points="178.472,-77.5328 187.226,-71.5645 176.661,-70.7711 178.472,-77.5328"/>
</g>
<!-- Node72 -->
<g id="node6" class="node"><title>Node72</title>
<g id="a_node6"><a xlink:href="../../d8/d64/a00181.html#ac347b2a8b40966d32f15d5ba5b361489" target="_top" xlink:title="Sets the W&#45;dimension of this Vector4f. ">
<polygon fill="white" stroke="black" points="170,-0.5 170,-26.5 304,-26.5 304,-0.5 170,-0.5"/>
<text text-anchor="start" x="178" y="-16.1" font-family="Helvetica,sans-Serif" font-size="8.00">project.pc.sensor.representation.</text>
<text text-anchor="middle" x="237" y="-7.1" font-family="Helvetica,sans-Serif" font-size="8.00">Vector4f.setW</text>
</a>
</g>
</g>
<!-- Node67&#45;&gt;Node72 -->
<g id="edge5" class="edge"><title>Node67&#45;&gt;Node72</title>
<path fill="none" stroke="midnightblue" d="M85.261,-90.2487C104.934,-75.6113 138.458,-52.0588 170,-36.5 174.509,-34.2757 179.288,-32.1688 184.131,-30.1997"/>
<polygon fill="midnightblue" stroke="midnightblue" points="185.405,-33.4597 193.469,-26.588 182.88,-26.931 185.405,-33.4597"/>
</g>
</g>
</svg>
