<?xml version="1.0" encoding="UTF-8" standalone="no"?>
<!DOCTYPE svg PUBLIC "-//W3C//DTD SVG 1.1//EN"
 "http://www.w3.org/Graphics/SVG/1.1/DTD/svg11.dtd">
<!-- Generated by graphviz version 2.38.0 (20140413.2041)
 -->
<!-- Title: project.pc.sensor.representation.Quaternion.toString Pages: 1 -->
<svg width="482pt" height="591pt"
 viewBox="0.00 0.00 482.00 591.25" xmlns="http://www.w3.org/2000/svg" xmlns:xlink="http://www.w3.org/1999/xlink">
<g id="graph0" class="graph" transform="scale(1 1) rotate(0) translate(4 587.251)">
<title>project.pc.sensor.representation.Quaternion.toString</title>
<polygon fill="white" stroke="none" points="-4,4 -4,-587.251 478,-587.251 478,4 -4,4"/>
<!-- Node74 -->
<g id="node1" class="node"><title>Node74</title>
<polygon fill="#bfbfbf" stroke="black" points="0,-263.751 0,-289.751 134,-289.751 134,-263.751 0,-263.751"/>
<text text-anchor="start" x="8" y="-279.351" font-family="Helvetica,sans-Serif" font-size="8.00">project.pc.sensor.representation.</text>
<text text-anchor="middle" x="67" y="-270.351" font-family="Helvetica,sans-Serif" font-size="8.00">Quaternion.toString</text>
</g>
<!-- Node75 -->
<g id="node2" class="node"><title>Node75</title>
<g id="a_node2"><a xlink:href="../../d8/d64/a00181.html#a39d6f5ec8dd92c6e5c45fc3e608e271d" target="_top" xlink:title="Returns the X&#45;dimension of this Vector4f. ">
<polygon fill="white" stroke="black" points="170,-556.751 170,-582.751 304,-582.751 304,-556.751 170,-556.751"/>
<text text-anchor="start" x="178" y="-572.351" font-family="Helvetica,sans-Serif" font-size="8.00">project.pc.sensor.representation.</text>
<text text-anchor="middle" x="237" y="-563.351" font-family="Helvetica,sans-Serif" font-size="8.00">Vector4f.getX</text>
</a>
</g>
</g>
<!-- Node74&#45;&gt;Node75 -->
<g id="edge1" class="edge"><title>Node74&#45;&gt;Node75</title>
<path fill="none" stroke="midnightblue" d="M69.0474,-289.912C73.2008,-333.248 92.3084,-472.974 170,-547.751 171.256,-548.96 172.581,-550.103 173.962,-551.183"/>
<polygon fill="midnightblue" stroke="midnightblue" points="172.124,-554.163 182.409,-556.708 175.956,-548.305 172.124,-554.163"/>
</g>
<!-- Node76 -->
<g id="node3" class="node"><title>Node76</title>
<g id="a_node3"><a xlink:href="../../d8/d64/a00181.html#a2ff229e91866dceffbfe26646e7b5291" target="_top" xlink:title="Returns the Y&#45;dimension of this Vector4f. ">
<polygon fill="white" stroke="black" points="170,-511.751 170,-537.751 304,-537.751 304,-511.751 170,-511.751"/>
<text text-anchor="start" x="178" y="-527.351" font-family="Helvetica,sans-Serif" font-size="8.00">project.pc.sensor.representation.</text>
<text text-anchor="middle" x="237" y="-518.351" font-family="Helvetica,sans-Serif" font-size="8.00">Vector4f.getY</text>
</a>
</g>
</g>
<!-- Node74&#45;&gt;Node76 -->
<g id="edge2" class="edge"><title>Node74&#45;&gt;Node76</title>
<path fill="none" stroke="midnightblue" d="M70.1466,-289.877C77.1257,-328.364 102.737,-442.033 170,-502.751 171.325,-503.947 172.717,-505.079 174.165,-506.149"/>
<polygon fill="midnightblue" stroke="midnightblue" points="172.629,-509.316 182.967,-511.632 176.33,-503.374 172.629,-509.316"/>
</g>
<!-- Node77 -->
<g id="node4" class="node"><title>Node77</title>
<g id="a_node4"><a xlink:href="../../d8/d64/a00181.html#abecc3cdd45a1c08b935d73403074d80e" target="_top" xlink:title="Returns the Z&#45;dimension of this Vector4f. ">
<polygon fill="white" stroke="black" points="170,-466.751 170,-492.751 304,-492.751 304,-466.751 170,-466.751"/>
<text text-anchor="start" x="178" y="-482.351" font-family="Helvetica,sans-Serif" font-size="8.00">project.pc.sensor.representation.</text>
<text text-anchor="middle" x="237" y="-473.351" font-family="Helvetica,sans-Serif" font-size="8.00">Vector4f.getZ</text>
</a>
</g>
</g>
<!-- Node74&#45;&gt;Node77 -->
<g id="edge3" class="edge"><title>Node74&#45;&gt;Node77</title>
<path fill="none" stroke="midnightblue" d="M71.7398,-289.837C81.8643,-322.938 112.957,-410.701 170,-457.751 171.572,-459.048 173.224,-460.269 174.938,-461.42"/>
<polygon fill="midnightblue" stroke="midnightblue" points="173.533,-464.649 183.946,-466.599 177.022,-458.58 173.533,-464.649"/>
</g>
<!-- Node78 -->
<g id="node5" class="node"><title>Node78</title>
<g id="a_node5"><a xlink:href="../../d8/d64/a00181.html#a48e9fceb563581330e4e3ea84974a430" target="_top" xlink:title="Returns the W&#45;dimension of this Vector4f. ">
<polygon fill="white" stroke="black" points="170,-421.751 170,-447.751 304,-447.751 304,-421.751 170,-421.751"/>
<text text-anchor="start" x="178" y="-437.351" font-family="Helvetica,sans-Serif" font-size="8.00">project.pc.sensor.representation.</text>
<text text-anchor="middle" x="237" y="-428.351" font-family="Helvetica,sans-Serif" font-size="8.00">Vector4f.getW</text>
</a>
</g>
</g>
<!-- Node74&#45;&gt;Node78 -->
<g id="edge4" class="edge"><title>Node74&#45;&gt;Node78</title>
<path fill="none" stroke="midnightblue" d="M74.4491,-290.087C88.2119,-317.175 123.072,-378.927 170,-412.751 172.101,-414.265 174.312,-415.679 176.601,-417.001"/>
<polygon fill="midnightblue" stroke="midnightblue" points="175.245,-420.238 185.746,-421.648 178.416,-413.997 175.245,-420.238"/>
</g>
<!-- Node79 -->
<g id="node6" class="node"><title>Node79</title>
<g id="a_node6"><a xlink:href="../../de/d53/a00169.html#a6bce1ad7ae5dbf7f40eafdbf5b064a24" target="_top" xlink:title="Returns the matrix. ">
<polygon fill="white" stroke="black" points="170,-376.751 170,-402.751 304,-402.751 304,-376.751 170,-376.751"/>
<text text-anchor="start" x="178" y="-392.351" font-family="Helvetica,sans-Serif" font-size="8.00">project.pc.sensor.representation.</text>
<text text-anchor="middle" x="237" y="-383.351" font-family="Helvetica,sans-Serif" font-size="8.00">MatrixF4x4.getMatrix</text>
</a>
</g>
</g>
<!-- Node74&#45;&gt;Node79 -->
<g id="edge5" class="edge"><title>Node74&#45;&gt;Node79</title>
<path fill="none" stroke="midnightblue" d="M79.5643,-290.061C97.2335,-309.644 132.833,-346.218 170,-367.751 173.018,-369.499 176.194,-371.133 179.456,-372.656"/>
<polygon fill="midnightblue" stroke="midnightblue" points="178.238,-375.942 188.809,-376.657 180.992,-369.506 178.238,-375.942"/>
</g>
<!-- Node80 -->
<g id="node7" class="node"><title>Node80</title>
<g id="a_node7"><a xlink:href="../../de/d53/a00169.html#a7fbb914d787b3bc98ec2d068882c5eae" target="_top" xlink:title="Returns size of the matrix. ">
<polygon fill="white" stroke="black" points="170,-331.751 170,-357.751 304,-357.751 304,-331.751 170,-331.751"/>
<text text-anchor="start" x="178" y="-347.351" font-family="Helvetica,sans-Serif" font-size="8.00">project.pc.sensor.representation.</text>
<text text-anchor="middle" x="237" y="-338.351" font-family="Helvetica,sans-Serif" font-size="8.00">MatrixF4x4.size</text>
</a>
</g>
</g>
<!-- Node74&#45;&gt;Node80 -->
<g id="edge6" class="edge"><title>Node74&#45;&gt;Node80</title>
<path fill="none" stroke="midnightblue" d="M94.9537,-289.814C115.333,-299.468 144.128,-312.635 170,-322.751 174.798,-324.627 179.83,-326.489 184.884,-328.289"/>
<polygon fill="midnightblue" stroke="midnightblue" points="183.981,-331.68 194.576,-331.662 186.282,-325.069 183.981,-331.68"/>
</g>
<!-- Node81 -->
<g id="node8" class="node"><title>Node81</title>
<g id="a_node8"><a xlink:href="../../d8/d64/a00181.html#aa310e9a8132527db2a7c5aedecb01751" target="_top" xlink:title="Sets the X&#45;dimension of this Vector4f. ">
<polygon fill="white" stroke="black" points="170,-286.751 170,-312.751 304,-312.751 304,-286.751 170,-286.751"/>
<text text-anchor="start" x="178" y="-302.351" font-family="Helvetica,sans-Serif" font-size="8.00">project.pc.sensor.representation.</text>
<text text-anchor="middle" x="237" y="-293.351" font-family="Helvetica,sans-Serif" font-size="8.00">Vector4f.setX</text>
</a>
</g>
</g>
<!-- Node74&#45;&gt;Node81 -->
<g id="edge7" class="edge"><title>Node74&#45;&gt;Node81</title>
<path fill="none" stroke="midnightblue" d="M134.398,-285.841C142.77,-286.987 151.386,-288.167 159.894,-289.331"/>
<polygon fill="midnightblue" stroke="midnightblue" points="159.427,-292.8 169.809,-290.689 160.376,-285.865 159.427,-292.8"/>
</g>
<!-- Node82 -->
<g id="node9" class="node"><title>Node82</title>
<g id="a_node9"><a xlink:href="../../d8/d64/a00181.html#a8d5fddfc447490659870800d6ba5350b" target="_top" xlink:title="Sets the Y&#45;dimension of this Vector4f. ">
<polygon fill="white" stroke="black" points="170,-241.751 170,-267.751 304,-267.751 304,-241.751 170,-241.751"/>
<text text-anchor="start" x="178" y="-257.351" font-family="Helvetica,sans-Serif" font-size="8.00">project.pc.sensor.representation.</text>
<text text-anchor="middle" x="237" y="-248.351" font-family="Helvetica,sans-Serif" font-size="8.00">Vector4f.setY</text>
</a>
</g>
</g>
<!-- Node74&#45;&gt;Node82 -->
<g id="edge8" class="edge"><title>Node74&#45;&gt;Node82</title>
<path fill="none" stroke="midnightblue" d="M134.398,-268.056C142.77,-266.96 151.386,-265.831 159.894,-264.717"/>
<polygon fill="midnightblue" stroke="midnightblue" points="160.348,-268.188 169.809,-263.419 159.439,-261.247 160.348,-268.188"/>
</g>
<!-- Node83 -->
<g id="node10" class="node"><title>Node83</title>
<g id="a_node10"><a xlink:href="../../d8/d64/a00181.html#a0a70cdaa3fc44849c5ca56b3a060338a" target="_top" xlink:title="Sets the Z&#45;dimension of this Vector4f. ">
<polygon fill="white" stroke="black" points="170,-196.751 170,-222.751 304,-222.751 304,-196.751 170,-196.751"/>
<text text-anchor="start" x="178" y="-212.351" font-family="Helvetica,sans-Serif" font-size="8.00">project.pc.sensor.representation.</text>
<text text-anchor="middle" x="237" y="-203.351" font-family="Helvetica,sans-Serif" font-size="8.00">Vector4f.setZ</text>
</a>
</g>
</g>
<!-- Node74&#45;&gt;Node83 -->
<g id="edge9" class="edge"><title>Node74&#45;&gt;Node83</title>
<path fill="none" stroke="midnightblue" d="M96.7884,-263.674C117.095,-254.613 145.02,-242.477 170,-232.751 175.578,-230.579 181.456,-228.39 187.313,-226.272"/>
<polygon fill="midnightblue" stroke="midnightblue" points="188.846,-229.441 197.091,-222.788 186.497,-222.847 188.846,-229.441"/>
</g>
<!-- Node84 -->
<g id="node11" class="node"><title>Node84</title>
<g id="a_node11"><a xlink:href="../../d8/d64/a00181.html#ac347b2a8b40966d32f15d5ba5b361489" target="_top" xlink:title="Sets the W&#45;dimension of this Vector4f. ">
<polygon fill="white" stroke="black" points="170,-151.751 170,-177.751 304,-177.751 304,-151.751 170,-151.751"/>
<text text-anchor="start" x="178" y="-167.351" font-family="Helvetica,sans-Serif" font-size="8.00">project.pc.sensor.representation.</text>
<text text-anchor="middle" x="237" y="-158.351" font-family="Helvetica,sans-Serif" font-size="8.00">Vector4f.setW</text>
</a>
</g>
</g>
<!-- Node74&#45;&gt;Node84 -->
<g id="edge10" class="edge"><title>Node74&#45;&gt;Node84</title>
<path fill="none" stroke="midnightblue" d="M79.9606,-263.496C97.8554,-244.37 133.423,-209.004 170,-187.751 173.659,-185.625 177.546,-183.651 181.531,-181.828"/>
<polygon fill="midnightblue" stroke="midnightblue" points="183.099,-184.965 190.945,-177.845 180.372,-178.518 183.099,-184.965"/>
</g>
<!-- Node85 -->
<g id="node12" class="node"><title>Node85</title>
<g id="a_node12"><a xlink:href="../../dd/d4c/a00177.html#a3cad02da7bcd7671731cef01eb04fdaf" target="_top" xlink:title="Returns the X&#45;dimension of this Vector3f. ">
<polygon fill="white" stroke="black" points="340,-105.751 340,-131.751 474,-131.751 474,-105.751 340,-105.751"/>
<text text-anchor="start" x="348" y="-121.351" font-family="Helvetica,sans-Serif" font-size="8.00">project.pc.sensor.representation.</text>
<text text-anchor="middle" x="407" y="-112.351" font-family="Helvetica,sans-Serif" font-size="8.00">Vector3f.getX</text>
</a>
</g>
</g>
<!-- Node74&#45;&gt;Node85 -->
<g id="edge11" class="edge"><title>Node74&#45;&gt;Node85</title>
<path fill="none" stroke="midnightblue" d="M73.558,-263.59C86.0998,-235.733 119.499,-171.049 170,-142.751 218.384,-115.639 281.172,-110.41 329.82,-111.544"/>
<polygon fill="midnightblue" stroke="midnightblue" points="329.867,-115.047 339.976,-111.877 330.096,-108.051 329.867,-115.047"/>
</g>
<!-- Node86 -->
<g id="node13" class="node"><title>Node86</title>
<g id="a_node13"><a xlink:href="../../dd/d4c/a00177.html#af1f7d78724c9d942780ff7d2f67a8cd8" target="_top" xlink:title="Returns the Y&#45;dimension of this Vector3f. ">
<polygon fill="white" stroke="black" points="340,-56.7508 340,-82.7508 474,-82.7508 474,-56.7508 340,-56.7508"/>
<text text-anchor="start" x="348" y="-72.3508" font-family="Helvetica,sans-Serif" font-size="8.00">project.pc.sensor.representation.</text>
<text text-anchor="middle" x="407" y="-63.3508" font-family="Helvetica,sans-Serif" font-size="8.00">Vector3f.getY</text>
</a>
</g>
</g>
<!-- Node74&#45;&gt;Node86 -->
<g id="edge12" class="edge"><title>Node74&#45;&gt;Node86</title>
<path fill="none" stroke="midnightblue" d="M69.3937,-263.521C74.3725,-223.808 95.1951,-105.431 170,-57.7508 228.379,-20.5403 312.34,-37.6008 362.79,-53.5523"/>
<polygon fill="midnightblue" stroke="midnightblue" points="361.822,-56.9185 372.415,-56.7114 364.005,-50.2675 361.822,-56.9185"/>
</g>
<!-- Node87 -->
<g id="node14" class="node"><title>Node87</title>
<g id="a_node14"><a xlink:href="../../dd/d4c/a00177.html#a5fe713af4beb1b2632472b75517dcb88" target="_top" xlink:title="Returns the Z&#45;dimension of this Vector3f. ">
<polygon fill="white" stroke="black" points="340,-3.75082 340,-29.7508 474,-29.7508 474,-3.75082 340,-3.75082"/>
<text text-anchor="start" x="348" y="-19.3508" font-family="Helvetica,sans-Serif" font-size="8.00">project.pc.sensor.representation.</text>
<text text-anchor="middle" x="407" y="-10.3508" font-family="Helvetica,sans-Serif" font-size="8.00">Vector3f.getZ</text>
</a>
</g>
</g>
<!-- Node74&#45;&gt;Node87 -->
<g id="edge13" class="edge"><title>Node74&#45;&gt;Node87</title>
<path fill="none" stroke="midnightblue" d="M68.8802,-263.46C72.4716,-221.13 89.9343,-88.8965 170,-31.7508 216.425,1.38434 281.966,2.97294 332.203,-2.50374"/>
<polygon fill="midnightblue" stroke="midnightblue" points="332.009,-6.00568 342.356,-3.72825 332.847,0.943963 332.009,-6.00568"/>
</g>
<!-- Node88 -->
<g id="node15" class="node"><title>Node88</title>
<g id="a_node15"><a xlink:href="../../d8/d64/a00181.html#a656119fae3c21e9123357636d5673d86" target="_top" xlink:title="Copies a Vector3f to this Vector4f using a separate value for W&#45;dimension. ">
<polygon fill="white" stroke="black" points="170,-67.7508 170,-93.7508 304,-93.7508 304,-67.7508 170,-67.7508"/>
<text text-anchor="start" x="178" y="-83.3508" font-family="Helvetica,sans-Serif" font-size="8.00">project.pc.sensor.representation.</text>
<text text-anchor="middle" x="237" y="-74.3508" font-family="Helvetica,sans-Serif" font-size="8.00">Vector4f.copyFromV3f</text>
</a>
</g>
</g>
<!-- Node74&#45;&gt;Node88 -->
<g id="edge14" class="edge"><title>Node74&#45;&gt;Node88</title>
<path fill="none" stroke="midnightblue" d="M72.7426,-263.498C84.5017,-232.375 117.873,-153.845 170,-108.751 174.523,-104.838 179.673,-101.408 185.055,-98.4169"/>
<polygon fill="midnightblue" stroke="midnightblue" points="186.899,-101.407 194.263,-93.79 183.756,-95.1526 186.899,-101.407"/>
</g>
<!-- Node88&#45;&gt;Node85 -->
<g id="edge15" class="edge"><title>Node88&#45;&gt;Node85</title>
<path fill="none" stroke="midnightblue" d="M295.816,-93.8283C309.488,-96.9206 324.187,-100.246 338.254,-103.427"/>
<polygon fill="midnightblue" stroke="midnightblue" points="337.836,-106.921 348.362,-105.714 339.381,-100.094 337.836,-106.921"/>
</g>
<!-- Node88&#45;&gt;Node86 -->
<g id="edge16" class="edge"><title>Node88&#45;&gt;Node86</title>
<path fill="none" stroke="midnightblue" d="M304.398,-76.4033C312.679,-75.8611 321.199,-75.3033 329.616,-74.7521"/>
<polygon fill="midnightblue" stroke="midnightblue" points="330.059,-78.2307 339.809,-74.0847 329.602,-71.2457 330.059,-78.2307"/>
</g>
<!-- Node88&#45;&gt;Node87 -->
<g id="edge17" class="edge"><title>Node88&#45;&gt;Node87</title>
<path fill="none" stroke="midnightblue" d="M272.403,-67.645C298.336,-57.7656 334.096,-44.1428 362.093,-33.4773"/>
<polygon fill="midnightblue" stroke="midnightblue" points="363.544,-36.6698 371.643,-29.8391 361.052,-30.1284 363.544,-36.6698"/>
</g>
</g>
</svg>
