<?xml version="1.0" encoding="UTF-8" standalone="no"?>
<!DOCTYPE svg PUBLIC "-//W3C//DTD SVG 1.1//EN"
 "http://www.w3.org/Graphics/SVG/1.1/DTD/svg11.dtd">
<!-- Generated by graphviz version 2.38.0 (20140413.2041)
 -->
<!-- Title: project.pc.sensor.representation.Quaternion.toAxisAngle Pages: 1 -->
<svg width="312pt" height="80pt"
 viewBox="0.00 0.00 312.00 80.00" xmlns="http://www.w3.org/2000/svg" xmlns:xlink="http://www.w3.org/1999/xlink">
<g id="graph0" class="graph" transform="scale(1 1) rotate(0) translate(4 76)">
<title>project.pc.sensor.representation.Quaternion.toAxisAngle</title>
<polygon fill="white" stroke="none" points="-4,4 -4,-76 308,-76 308,4 -4,4"/>
<!-- Node63 -->
<g id="node1" class="node"><title>Node63</title>
<polygon fill="#bfbfbf" stroke="black" points="0,-22.5 0,-48.5 134,-48.5 134,-22.5 0,-22.5"/>
<text text-anchor="start" x="8" y="-38.1" font-family="Helvetica,sans-Serif" font-size="8.00">project.pc.sensor.representation.</text>
<text text-anchor="middle" x="67" y="-29.1" font-family="Helvetica,sans-Serif" font-size="8.00">Quaternion.toAxisAngle</text>
</g>
<!-- Node64 -->
<g id="node2" class="node"><title>Node64</title>
<g id="a_node2"><a xlink:href="../../d8/d64/a00181.html#a48e9fceb563581330e4e3ea84974a430" target="_top" xlink:title="Returns the W&#45;dimension of this Vector4f. ">
<polygon fill="white" stroke="black" points="170,-45.5 170,-71.5 304,-71.5 304,-45.5 170,-45.5"/>
<text text-anchor="start" x="178" y="-61.1" font-family="Helvetica,sans-Serif" font-size="8.00">project.pc.sensor.representation.</text>
<text text-anchor="middle" x="237" y="-52.1" font-family="Helvetica,sans-Serif" font-size="8.00">Vector4f.getW</text>
</a>
</g>
</g>
<!-- Node63&#45;&gt;Node64 -->
<g id="edge1" class="edge"><title>Node63&#45;&gt;Node64</title>
<path fill="none" stroke="midnightblue" d="M134.398,-44.5902C142.77,-45.7364 151.386,-46.916 159.894,-48.0807"/>
<polygon fill="midnightblue" stroke="midnightblue" points="159.427,-51.5493 169.809,-49.4382 160.376,-44.614 159.427,-51.5493"/>
</g>
<!-- Node65 -->
<g id="node3" class="node"><title>Node65</title>
<g id="a_node3"><a xlink:href="../../d7/d3f/a00173.html#a6789f63c1e94ed1cecf35e6fdda4be44" target="_top" xlink:title="Normalizes this Quaternion. ">
<polygon fill="white" stroke="black" points="170,-0.5 170,-26.5 304,-26.5 304,-0.5 170,-0.5"/>
<text text-anchor="start" x="178" y="-16.1" font-family="Helvetica,sans-Serif" font-size="8.00">project.pc.sensor.representation.</text>
<text text-anchor="middle" x="237" y="-7.1" font-family="Helvetica,sans-Serif" font-size="8.00">Quaternion.normalize</text>
</a>
</g>
</g>
<!-- Node63&#45;&gt;Node65 -->
<g id="edge2" class="edge"><title>Node63&#45;&gt;Node65</title>
<path fill="none" stroke="midnightblue" d="M134.398,-26.805C142.77,-25.7087 151.386,-24.5804 159.894,-23.4663"/>
<polygon fill="midnightblue" stroke="midnightblue" points="160.348,-26.9367 169.809,-22.1678 159.439,-19.996 160.348,-26.9367"/>
</g>
</g>
</svg>
