<?xml version="1.0" encoding="UTF-8" standalone="no"?>
<!DOCTYPE svg PUBLIC "-//W3C//DTD SVG 1.1//EN"
 "http://www.w3.org/Graphics/SVG/1.1/DTD/svg11.dtd">
<!-- Generated by graphviz version 2.38.0 (20140413.2041)
 -->
<!-- Title: project.pc.net.Server.getTimeout Pages: 1 -->
<svg width="471pt" height="80pt"
 viewBox="0.00 0.00 471.00 80.00" xmlns="http://www.w3.org/2000/svg" xmlns:xlink="http://www.w3.org/1999/xlink">
<g id="graph0" class="graph" transform="scale(1 1) rotate(0) translate(4 76)">
<title>project.pc.net.Server.getTimeout</title>
<polygon fill="white" stroke="none" points="-4,4 -4,-76 467,-76 467,4 -4,4"/>
<!-- Node8 -->
<g id="node1" class="node"><title>Node8</title>
<polygon fill="#bfbfbf" stroke="black" points="0,-22.5 0,-48.5 104,-48.5 104,-22.5 0,-22.5"/>
<text text-anchor="start" x="8" y="-38.1" font-family="Helvetica,sans-Serif" font-size="8.00">project.pc.net.Server.get</text>
<text text-anchor="middle" x="52" y="-29.1" font-family="Helvetica,sans-Serif" font-size="8.00">Timeout</text>
</g>
<!-- Node9 -->
<g id="node2" class="node"><title>Node9</title>
<g id="a_node2"><a xlink:href="../../d9/d47/a00129.html#a61581904d96f5be8906b740585486ebc" target="_top" xlink:title="Method to stop server. ">
<polygon fill="white" stroke="black" points="140,-22.5 140,-48.5 286,-48.5 286,-22.5 140,-22.5"/>
<text text-anchor="start" x="148" y="-38.1" font-family="Helvetica,sans-Serif" font-size="8.00">project.pc.net.NetworkManager.stop</text>
<text text-anchor="middle" x="213" y="-29.1" font-family="Helvetica,sans-Serif" font-size="8.00">Server</text>
</a>
</g>
</g>
<!-- Node8&#45;&gt;Node9 -->
<g id="edge1" class="edge"><title>Node8&#45;&gt;Node9</title>
<path fill="none" stroke="midnightblue" d="M114.22,-35.5C122.585,-35.5 131.237,-35.5 139.775,-35.5"/>
<polygon fill="midnightblue" stroke="midnightblue" points="114.184,-32.0001 104.184,-35.5 114.184,-39.0001 114.184,-32.0001"/>
</g>
<!-- Node10 -->
<g id="node3" class="node"><title>Node10</title>
<g id="a_node3"><a xlink:href="../../dd/d42/a00109.html#af518df4286470e49c976c3410c72100b" target="_top" xlink:title="Invoked when an action occurs. ">
<polygon fill="white" stroke="black" points="325,-45.5 325,-71.5 460,-71.5 460,-45.5 325,-45.5"/>
<text text-anchor="start" x="333" y="-61.1" font-family="Helvetica,sans-Serif" font-size="8.00">project.pc.gui.MainWindow.action</text>
<text text-anchor="middle" x="392.5" y="-52.1" font-family="Helvetica,sans-Serif" font-size="8.00">Performed</text>
</a>
</g>
</g>
<!-- Node9&#45;&gt;Node10 -->
<g id="edge2" class="edge"><title>Node9&#45;&gt;Node10</title>
<path fill="none" stroke="midnightblue" d="M296.145,-46.1441C305.746,-47.3882 315.45,-48.6457 324.806,-49.8579"/>
<polygon fill="midnightblue" stroke="midnightblue" points="296.563,-42.6691 286.196,-44.855 295.663,-49.6111 296.563,-42.6691"/>
</g>
<!-- Node11 -->
<g id="node4" class="node"><title>Node11</title>
<g id="a_node4"><a xlink:href="../../dd/d42/a00109.html#a9b7fdbe2729882c790a6366878b5c5c3" target="_top" xlink:title="Gracefully terminates the application. ">
<polygon fill="white" stroke="black" points="322,-0.5 322,-26.5 463,-26.5 463,-0.5 322,-0.5"/>
<text text-anchor="start" x="330" y="-16.1" font-family="Helvetica,sans-Serif" font-size="8.00">project.pc.gui.MainWindow.window</text>
<text text-anchor="middle" x="392.5" y="-7.1" font-family="Helvetica,sans-Serif" font-size="8.00">Closing</text>
</a>
</g>
</g>
<!-- Node9&#45;&gt;Node11 -->
<g id="edge3" class="edge"><title>Node9&#45;&gt;Node11</title>
<path fill="none" stroke="midnightblue" d="M296.234,-25.3077C304.833,-24.2418 313.514,-23.1658 321.952,-22.12"/>
<polygon fill="midnightblue" stroke="midnightblue" points="295.69,-21.8482 286.196,-26.5518 296.551,-28.7951 295.69,-21.8482"/>
</g>
</g>
</svg>
