<?xml version="1.0" encoding="UTF-8" standalone="no"?>
<!DOCTYPE svg PUBLIC "-//W3C//DTD SVG 1.1//EN"
 "http://www.w3.org/Graphics/SVG/1.1/DTD/svg11.dtd">
<!-- Generated by graphviz version 2.38.0 (20140413.2041)
 -->
<!-- Title: project.pc.net.Server.listen Pages: 1 -->
<svg width="475pt" height="35pt"
 viewBox="0.00 0.00 475.00 35.00" xmlns="http://www.w3.org/2000/svg" xmlns:xlink="http://www.w3.org/1999/xlink">
<g id="graph0" class="graph" transform="scale(1 1) rotate(0) translate(4 31)">
<title>project.pc.net.Server.listen</title>
<polygon fill="white" stroke="none" points="-4,4 -4,-31 471,-31 471,4 -4,4"/>
<!-- Node13 -->
<g id="node1" class="node"><title>Node13</title>
<polygon fill="#bfbfbf" stroke="black" points="0,-5 0,-22 111,-22 111,-5 0,-5"/>
<text text-anchor="middle" x="55.5" y="-11.6" font-family="Helvetica,sans-Serif" font-size="8.00">project.pc.net.Server.listen</text>
</g>
<!-- Node14 -->
<g id="node2" class="node"><title>Node14</title>
<g id="a_node2"><a xlink:href="../../d9/d47/a00129.html#af39b8e1bff9c55e0feb196be7dd63814" target="_top" xlink:title="Method to start server. ">
<polygon fill="white" stroke="black" points="147,-0.5 147,-26.5 294,-26.5 294,-0.5 147,-0.5"/>
<text text-anchor="start" x="155" y="-16.1" font-family="Helvetica,sans-Serif" font-size="8.00">project.pc.net.NetworkManager.start</text>
<text text-anchor="middle" x="220.5" y="-7.1" font-family="Helvetica,sans-Serif" font-size="8.00">Server</text>
</a>
</g>
</g>
<!-- Node13&#45;&gt;Node14 -->
<g id="edge1" class="edge"><title>Node13&#45;&gt;Node14</title>
<path fill="none" stroke="midnightblue" d="M121.349,-13.5C129.767,-13.5 138.432,-13.5 146.964,-13.5"/>
<polygon fill="midnightblue" stroke="midnightblue" points="121.23,-10.0001 111.23,-13.5 121.23,-17.0001 121.23,-10.0001"/>
</g>
<!-- Node15 -->
<g id="node3" class="node"><title>Node15</title>
<g id="a_node3"><a xlink:href="../../d2/df5/a00137.html#a29f5a98925ee6f41911456511a5740d9" target="_top" xlink:title="Operations performed by this NetworkThread. ">
<polygon fill="white" stroke="black" points="330,-5 330,-22 467,-22 467,-5 330,-5"/>
<text text-anchor="middle" x="398.5" y="-11.6" font-family="Helvetica,sans-Serif" font-size="8.00">project.pc.net.NetworkThread.run</text>
</a>
</g>
</g>
<!-- Node14&#45;&gt;Node15 -->
<g id="edge2" class="edge"><title>Node14&#45;&gt;Node15</title>
<path fill="none" stroke="midnightblue" d="M304.16,-13.5C312.772,-13.5 321.452,-13.5 329.869,-13.5"/>
<polygon fill="midnightblue" stroke="midnightblue" points="304.102,-10.0001 294.102,-13.5 304.102,-17.0001 304.102,-10.0001"/>
</g>
</g>
</svg>
