<?xml version="1.0" encoding="UTF-8" standalone="no"?>
<!DOCTYPE svg PUBLIC "-//W3C//DTD SVG 1.1//EN"
 "http://www.w3.org/Graphics/SVG/1.1/DTD/svg11.dtd">
<!-- Generated by graphviz version 2.38.0 (20140413.2041)
 -->
<!-- Title: project.pc.net.Server.close Pages: 1 -->
<svg width="478pt" height="80pt"
 viewBox="0.00 0.00 478.00 80.00" xmlns="http://www.w3.org/2000/svg" xmlns:xlink="http://www.w3.org/1999/xlink">
<g id="graph0" class="graph" transform="scale(1 1) rotate(0) translate(4 76)">
<title>project.pc.net.Server.close</title>
<polygon fill="white" stroke="none" points="-4,4 -4,-76 474,-76 474,4 -4,4"/>
<!-- Node3 -->
<g id="node1" class="node"><title>Node3</title>
<polygon fill="#bfbfbf" stroke="black" points="0,-27 0,-44 111,-44 111,-27 0,-27"/>
<text text-anchor="middle" x="55.5" y="-33.6" font-family="Helvetica,sans-Serif" font-size="8.00">project.pc.net.Server.close</text>
</g>
<!-- Node4 -->
<g id="node2" class="node"><title>Node4</title>
<g id="a_node2"><a xlink:href="../../d9/d47/a00129.html#a61581904d96f5be8906b740585486ebc" target="_top" xlink:title="Method to stop server. ">
<polygon fill="white" stroke="black" points="147,-22.5 147,-48.5 293,-48.5 293,-22.5 147,-22.5"/>
<text text-anchor="start" x="155" y="-38.1" font-family="Helvetica,sans-Serif" font-size="8.00">project.pc.net.NetworkManager.stop</text>
<text text-anchor="middle" x="220" y="-29.1" font-family="Helvetica,sans-Serif" font-size="8.00">Server</text>
</a>
</g>
</g>
<!-- Node3&#45;&gt;Node4 -->
<g id="edge1" class="edge"><title>Node3&#45;&gt;Node4</title>
<path fill="none" stroke="midnightblue" d="M121.233,-35.5C129.694,-35.5 138.404,-35.5 146.976,-35.5"/>
<polygon fill="midnightblue" stroke="midnightblue" points="121.062,-32.0001 111.062,-35.5 121.062,-39.0001 121.062,-32.0001"/>
</g>
<!-- Node5 -->
<g id="node3" class="node"><title>Node5</title>
<g id="a_node3"><a xlink:href="../../dd/d42/a00109.html#af518df4286470e49c976c3410c72100b" target="_top" xlink:title="Invoked when an action occurs. ">
<polygon fill="white" stroke="black" points="332,-45.5 332,-71.5 467,-71.5 467,-45.5 332,-45.5"/>
<text text-anchor="start" x="340" y="-61.1" font-family="Helvetica,sans-Serif" font-size="8.00">project.pc.gui.MainWindow.action</text>
<text text-anchor="middle" x="399.5" y="-52.1" font-family="Helvetica,sans-Serif" font-size="8.00">Performed</text>
</a>
</g>
</g>
<!-- Node4&#45;&gt;Node5 -->
<g id="edge2" class="edge"><title>Node4&#45;&gt;Node5</title>
<path fill="none" stroke="midnightblue" d="M303.145,-46.1441C312.746,-47.3882 322.45,-48.6457 331.806,-49.8579"/>
<polygon fill="midnightblue" stroke="midnightblue" points="303.563,-42.6691 293.196,-44.855 302.663,-49.6111 303.563,-42.6691"/>
</g>
<!-- Node6 -->
<g id="node4" class="node"><title>Node6</title>
<g id="a_node4"><a xlink:href="../../dd/d42/a00109.html#a9b7fdbe2729882c790a6366878b5c5c3" target="_top" xlink:title="Gracefully terminates the application. ">
<polygon fill="white" stroke="black" points="329,-0.5 329,-26.5 470,-26.5 470,-0.5 329,-0.5"/>
<text text-anchor="start" x="337" y="-16.1" font-family="Helvetica,sans-Serif" font-size="8.00">project.pc.gui.MainWindow.window</text>
<text text-anchor="middle" x="399.5" y="-7.1" font-family="Helvetica,sans-Serif" font-size="8.00">Closing</text>
</a>
</g>
</g>
<!-- Node4&#45;&gt;Node6 -->
<g id="edge3" class="edge"><title>Node4&#45;&gt;Node6</title>
<path fill="none" stroke="midnightblue" d="M303.234,-25.3077C311.833,-24.2418 320.514,-23.1658 328.952,-22.12"/>
<polygon fill="midnightblue" stroke="midnightblue" points="302.69,-21.8482 293.196,-26.5518 303.551,-28.7951 302.69,-21.8482"/>
</g>
</g>
</svg>
